<svg xmlns="http://www.w3.org/2000/svg" viewBox="6053.7 4842.1 362 601"><path fill="#5478C6" fill-rule="evenodd" d="M6290.8 5442c18.1 0 36.1.1 54.2-.2l27.2-221.3-37.8-119.6-69.6-61.5h-60.1l-53.8 16.6s5.2 208.5 15.6 386h124.3" class="st0"/><path fill="#262626" fill-rule="evenodd" d="M6165 5442h3c-1.4-23.2-2.7-48.5-4.1-76.2-7.2-147.2-11.1-294.4-11.5-308.7l52.5-16.2h59.3l68.9 60.8 37.6 119-27.2 221.1h3l27.2-221.2-.1-.6-37.8-119.6-.4-.7-69.6-61.5c-.3-.2-.6-.4-1-.4h-60.1l-.4.1-53.8 16.6c-.6.2-1.1.8-1.1 1.5 0 1.5 4 155.7 11.5 310 1.3 27 2.7 52.2 4.1 76Z" class="st1"/><path fill="#FFE576" fill-rule="evenodd" d="m6317.3 5072.1-40.9 25.7s21.6 203 15.5 237.7c-6.1 34.8 18.6 21.8 18.6 21.8l-34.1 34.2s-51.1 6.1-67.7-6c-16.6-12.2-6.1-47-6.1-47s22 30.4 55.7 13.7c0 0 9.1-42.4 3.2-112a2476.7 2476.7 0 0 0-16.5-139.8s-64.1-7-69.9-28.2c-5.8-21.2 57.8-42.4 57.8-42.4l84.4 42.3" class="st2"/><path fill="#262626" fill-rule="evenodd" d="M6248.9 5394.5c-15.1 0-32.3-1.6-41-7.9-17.3-12.6-7.1-47-6.6-48.6.2-.5.6-.9 1.2-1 .6 0 1.1.1 1.5.6.9 1.2 21.4 28.8 53.1 13.6 1.1-5.8 8.4-47 3-110.9-5.4-64-14.9-129.3-16.3-138.6-9-1-64.4-8.6-70-29.2-6.1-22.3 56.1-43.3 58.8-44.2l1.1.1 84.4 42.4c.5.2.8.7.8 1.3 0 .5-.2 1.1-.7 1.3l-40.1 25.2c1.8 16.8 21.3 203.4 15.4 237.2-1.9 11-.9 18.2 3 21 4.9 3.6 13.4-.7 13.4-.8.7-.3 1.5-.2 1.9.4.4.6.4 1.4-.1 2l-34.2 34.2c-.2.2-.5.4-.9.4-1 .1-13.4 1.5-27.7 1.5Zm-45.5-52.8c-2 8.3-6.7 33.1 6.2 42.5 15.1 11 60.8 6.4 66.1 5.8l29.2-29.3c-3.2.6-7.1.7-10.3-1.6-4.9-3.6-6.3-11.6-4.2-23.9 5.9-34.2-15.3-235.3-15.5-237.3-.1-.6.2-1 .7-1.4l38.6-24.2-81.4-40.9c-17.7 6-60.6 24.3-56.2 40.4 5.4 20 68 27.1 68.6 27.1.7.1 1.2.6 1.3 1.3.1.7 10.7 71.1 16.5 140 5.9 69-3.1 112-3.2 112.4-.1.4-.4.8-.8 1-28.7 14.2-49.4-5-55.6-11.9Z" class="st1"/><path fill="#FFE576" fill-rule="evenodd" d="M6218.5 5442c-1-55.6-1.8-97.9-2.2-112.6-1.5-60.5-6.8-76.3-6.8-76.3l-67.4-152.7-37.3 341.6h113.7" class="st2"/><path fill="#262626" fill-rule="evenodd" d="m6106.3 5442 36.7-335.9 65.1 147.5c.3 1.1 5.3 18.2 6.7 76 .4 14.5 1.2 56.8 2.2 112.4h3c-1-55.7-1.8-98-2.2-112.6-1.5-60-6.7-76-6.9-76.8l-67.4-152.8c-.3-.6-.9-1-1.6-.9-.7.1-1.2.6-1.3 1.3l-37.3 341.8h3" class="st1"/><path fill="#FFDFD4" fill-rule="evenodd" d="M6277.4 5350.7s-24.7-9-28.5 0c-3.8 9 18.9 12 18.9 12s-5.3 15-19.3 18.8c-14 4-25.6 7-23.6 11.5.7 1.6 5.7 1.5 11.8.8 10.7-1.4 24.8-4.8 24.8-4.8l-31.6 7.1s-.4 8.5 31.6 4.3l-18 1.8s2 8 18 6.1c4.7-.6 9.3-1.6 13.8-3l-12.1 4.4s4.5 12.1 30.3-9c25.7-21.3 30.3-39.5 30.3-39.5l-46.4-10.5" class="st3"/><path fill="#262626" fill-rule="evenodd" d="M6269.7 5414.6c-1 0-1.9 0-2.8-.4-3.8-1-5-3.9-5-4l-.1-.6c-15.2 1.7-18.8-5-19.5-6.8-5.8-.3-9.9-1.5-12.1-3.5-1.7-1.6-1.7-3-1.7-3.4v-.2c-2.9-.2-4.3-.9-4.9-2.2a3.8 3.8 0 0 1 0-3.3c1.8-3.8 9.6-6 23.1-9.9l1.4-.4c10.3-2.9 15.7-12.3 17.6-16.2-4.5-.8-14.9-3-17.8-8.2a6 6 0 0 1-.3-5.5c4.2-9.9 27.2-2 30.3-.9l46.3 10.5c.4.1.7.3.9.7.2.3.3.8.2 1.2-.2.8-5 19-30.8 40.1-10.4 8.7-18.8 13-24.8 13Zm-4.1-4.2c.5.4 1.1.8 2.1 1 3 .7 10.1.2 24.8-12 20.8-17.2 27.6-32.4 29.3-37l-44.8-10.2h-.2c-6.1-2.3-23.9-7.2-26.6-.9a3 3 0 0 0 .1 3c2.4 4.1 13.5 6.4 17.6 7 .4.1.8.3 1.1.7.2.4.3 1 .1 1.3-.2.6-5.7 15.7-20.3 19.7l-1.4.4c-9.8 2.7-19.9 5.5-21.2 8.3v.7c.3.2 2 1 10.3 0 4.4-.6 9.4-1.5 13.7-2.4l10.9-2.4a1.5 1.5 0 1 1 .7 3l-10.9 2.3-18.8 4.2.3.2c1.7 1.4 6.4 3.2 18.5 2.5l10.5-1c.8 0 1.5.5 1.6 1.3.1.8-.5 1.6-1.3 1.7-3.7.5-7.2.8-10.3 1l-5.4.5c1.6 2 5.6 4.5 15.4 3.4 4.6-.6 9.1-1.6 13.5-3 .8-.4 1.6.1 1.9.8.3.8-.1 1.6-.9 2l-10.3 4" class="st1"/><path fill="#FFE576" fill-rule="evenodd" d="m6361 5441.3 22.6-.7c-16.4-177.2-32.6-345.8-32.6-345.8l-36.1 121.4-3.6 225.8c16.6 0 33.1 0 49.7-.7Z" class="st2"/><path fill="#262626" fill-rule="evenodd" d="m6312.8 5442 3.6-225.6 33.9-113.8c3.3 35 17.5 183.3 31.8 338.1h3a85808.4 85808.4 0 0 0-32.6-346c-.1-.8-.6-1.4-1.3-1.5-.7 0-1.4.4-1.6 1.1l-36.1 121.4-.1.4-3.6 226h3Z" class="st1"/><path fill="#FFE576" fill-rule="evenodd" d="M6334.4 5101s43.9-3 48.4 22.6c4.5 25.7 43.9 121.1 25.7 159-18.2 37.7-101.4 109-101.4 109s-34.8-22.8-30.3-56l71.1-71.2s-9.5-16.5 6.6-18.8c0 0-15.7-5.4-8.1-14.5 7.6-9-44.3-103-12-130.2Z" class="st2"/><path fill="#262626" fill-rule="evenodd" d="M6307.1 5393c-.3 0-.6 0-.8-.2-.4-.2-35.6-23.6-30.9-57.5 0-.3.2-.6.4-.9l70.4-70.4c-1.2-2.5-3.9-9-1.4-14a9.9 9.9 0 0 1 5.4-4.9c-2.7-1.5-6-4-7-7.3-.7-2.6 0-5.2 2.1-7.7 2-2.4-2.7-16.8-7.3-30.7-10.7-32.2-26.8-80.9-4.6-99.7.2-.2.5-.3.9-.4 1.8 0 45.3-2.8 50 24 1.1 6.3 4.4 17 8.5 30.4 12.3 40 30.9 100.5 17.1 129.4-18.1 37.8-98.4 106.6-101.8 109.5-.3.3-.6.4-1 .4Zm-28.8-56.8c-3.6 28.7 23.4 49.6 28.8 53.4 9-7.7 83.3-72.7 100.2-107.7 13.3-27.8-5.1-87.6-17.2-127.2a299.4 299.4 0 0 1-8.6-30.8c-4-22.7-41.6-21.7-46.4-21.5-20.1 17.7-4.5 64.8 5.9 96.1 6.7 20.2 9.8 30 6.8 33.6-1.5 1.8-2 3.4-1.6 5 1 3.6 6.8 6.3 9 7.1.7.2 1.1 1 1 1.6-.1.7-.6 1.2-1.3 1.3-3.8.6-6.3 2-7.4 4.3-2.4 5 1.8 12.3 1.9 12.3.3.6.2 1.3-.2 1.8l-70.9 70.7" class="st1"/><path fill="#FFE576" fill-rule="evenodd" d="m6142.4 5442-9.3-70.3c12.1-15.2 0-44 0-44 10.6-4.7 0-22.5 0-22.5 10.6-4.5 3-19.6 3-19.6s7.6-56 13.6-97c6.1-40.9-13.6-80.2-13.6-80.2-28.8 0-40.9 39.4-40.9 39.4-12.1 10.6-10.6 45.4-10.6 50.8 0 5.3-10.6 35.5-12.1 50.7-1.5 15.1-9 25.7-15.1 51-5.7 23.1 12 109.5 17.1 141.8h67.9" class="st2"/><path fill="#262626" fill-rule="evenodd" d="M6073 5442h3l-4.2-24.2c-7-39.4-17.5-99-13-117.4 2.9-11.6 6-20 8.7-27.5 3.2-8.6 5.7-15.3 6.5-23.6.9-8.6 4.7-22.2 7.8-33.2 2.7-9.7 4.3-15.2 4.3-17.6v-1.7c-.4-25.6 3-41.7 10.1-47.9.2-.2.4-.4.4-.7.1-.4 11.9-37.4 38.5-38.3 2.8 6 18.5 41.8 13.1 78.5-6 40.4-13.5 96.5-13.6 97l.1 1s3.9 7.7 1.9 13.2a7.2 7.2 0 0 1-4.2 4.2c-.4.2-.7.5-.8 1-.1.3-.1.8.1 1.1.1.1 6.1 10.4 4.1 16.7a6.2 6.2 0 0 1-3.4 3.7c-.7.3-1.1 1.2-.8 2 .1.3 11.6 28.1.2 42.5-.3.3-.4.7-.3 1.1l9.3 70.1h3l-9.2-69.8c10.6-14 2.5-37.9.3-43.7a9 9 0 0 0 3.8-4.9c1.9-6-1.9-14.4-3.6-17.7 2.1-1.2 3.5-3 4.3-5.2 2.1-5.9-1-13.3-1.8-15.2.7-5.4 7.9-58 13.6-96.5 6.1-40.9-13.6-80.7-13.8-81-.3-.6-.8-.9-1.3-.9-28.3 0-40.7 35.6-42.2 40-7.6 7-11.2 23.8-10.8 50v1.5c0 2.1-2 9.2-4.2 16.8-3.1 11.1-7 25-7.9 33.7a90.5 90.5 0 0 1-6.3 23c-2.8 7.4-5.9 16-8.8 27.7-4.7 19 6 79 13 118.6l4.1 23.6Z" class="st1"/><path fill="#FFE576" fill-rule="evenodd" d="M6084.6 5111.5s50.7-107.2 155.5-104.3c104.8 3 148.8 104.3 148.8 104.3s-67.8 49-74.1 113.8c0 0-12.3-192.5-81.9-195.5-69.6-3-23.5 223.4-23.5 223.4s-65.7-129.6-124.8-141.7Z" class="st2"/><path fill="#262626" fill-rule="evenodd" d="M6209.5 5254.6c-.6 0-1.1-.3-1.3-.8-.7-1.3-66.2-129-123.8-140.8-.5 0-.8-.4-1-.8-.2-.4-.2-.9 0-1.3a224 224 0 0 1 38.7-53.6c23.7-24.3 63.5-53 118.2-51.5s92.6 30 114.8 53.7c24 25.6 35.3 51.2 35.4 51.5.3.6.1 1.4-.5 1.8-.7.5-67.3 49.3-73.5 112.7-.1.8-.7 1.4-1.5 1.4s-1.4-.6-1.5-1.4c-.1-1.9-13-191.2-80.5-194-8.3-.5-15 2.5-20.6 9-35.7 41.8-1.7 210.8-1.4 212.5.1.7-.3 1.5-1 1.7h-.5Zm-122.7-144.2c24.4 6 52.5 31.4 83.6 75.5a640.8 640.8 0 0 1 35.8 57.7 900 900 0 0 1-11-81.3c-5.5-64.2-.5-106 14.9-124a27.4 27.4 0 0 1 23-10c16.4.6 31 11.6 43.4 32.5a251.6 251.6 0 0 1 25.1 67.5c8.1 33.5 12.1 67 13.8 84.5 6.2-28.7 23.5-53.3 37.8-69.7a240 240 0 0 1 34-32 203 203 0 0 0-34.4-49.7 159.7 159.7 0 0 0-112.6-52.7c-53.6-1.5-92.6 26.7-115.9 50.5a227.1 227.1 0 0 0-37.5 51.2Z" class="st1"/><path fill="#FF4800" fill-rule="evenodd" d="M6314.9 4940s-18.4-92.8-57.7-95.4c-39.4-2.6-70.9 78-70.9 78l128.6 17.3" class="st4"/><path fill="#262626" fill-rule="evenodd" d="M6314.9 4941.4h-.2l-128.7-17.3c-.5 0-.9-.3-1.1-.7-.2-.4-.3-.9-.1-1.3 1.3-3.3 31.4-79 70.5-79l2 .1c40 2.6 58.3 92.6 59.1 96.5.1.5 0 1-.4 1.3-.3.2-.7.4-1.1.4Zm-126.5-20 124.6 16.8c-3-13.6-21.4-89.7-55.9-92-34.6-2.3-63.8 63.4-68.7 75.2Z" class="st1"/><path fill="#CB8454" fill-rule="evenodd" d="m6243.6 4937.4 53 18.2s27.5 30.4 15.2 57.5c-12.2 27.1-27.4 6.1-27.4 6.1s-1.5 53-54.5 53-34.6-67.4-34.6-67.4-22.9.8-19.8-18.9c3-19.7 28.9-48.4 28.9-48.4h39.2" class="st5"/><path fill="#262626" fill-rule="evenodd" d="M6229.9 5073.6c-13.7 0-24-4.4-30.6-13-13.4-17.6-7.8-46.7-6-54.4-3.6-.2-11.4-1.3-16-6.5-3.1-3.5-4.3-8.3-3.4-14 3.1-20 28.2-48 29.2-49.3.3-.3.7-.5 1.1-.5h39.2l.5.1 53 18.2c.2.1.5.2.6.4 1.1 1.3 28 31.4 15.5 59.1-4.1 9.2-9.1 14.1-14.9 14.7-5.4.5-10-3-12.7-5.6a70 70 0 0 1-7.2 23.5c-6.4 12.5-20.2 27.3-48.3 27.3Zm-34.6-70.3c.5 0 .9.2 1.2.6.3.4.4 1 .3 1.3-.1.3-9.3 35 5 53.6 6 8 15.5 12 28.2 12 21.3 0 36.7-8.7 45.7-25.7a66.7 66.7 0 0 0 7.3-25.9c0-.6.4-1.2 1.1-1.4.6-.2 1.3 0 1.7.6.1.1 5.7 7.8 12.4 7.1 4.6-.5 8.8-4.8 12.4-12.9 11.1-24.5-12.1-52.5-14.7-55.6l-52.4-18h-38.3c-3.4 4-25.3 29.5-28.1 47.2-.7 5 .1 8.8 2.7 11.6 4.9 5.7 15.3 5.5 15.5 5.5Z" class="st1"/><path fill="#FFDFD4" fill-rule="evenodd" d="M6202.7 4960.1s28.8-6 30.3-13.6c0 0 25.7 16.7 37.8 19.7 0 0 10.6 66.6-37.8 63.6-48.5-3-30.3-69.7-30.3-69.7Z" class="st3"/><path fill="#262626" fill-rule="evenodd" d="M6236.1 5031.3h-3.2c-11.9-.8-21-5.4-26.9-13.7-14.7-20.5-5.1-56.4-4.7-57.9.1-.5.6-1 1.1-1 11.5-2.5 28.2-8 29.1-12.5.1-.5.4-.9.9-1 .5-.3 1-.2 1.4 0 .3.2 25.7 16.5 37.4 19.5.6.1 1 .6 1.1 1.2.2 1.5 5.7 37-10.9 55.1a32.4 32.4 0 0 1-25.3 10.3Zm-32.2-69.9c-1.4 5.6-8.1 36.8 4.5 54.5a30.8 30.8 0 0 0 24.6 12.3c11.1.7 19.9-2.4 26.1-9.2 14.1-15.5 11-45.9 10.3-51.7a195.7 195.7 0 0 1-35.8-18.7c-4.4 6.8-23.7 11.5-29.7 12.8Z" class="st1"/><path fill="#CB8454" fill-rule="evenodd" d="M6263.6 5014.6c-1.7-10.5-24.6-13-30.7-13.5l-.2.4c-.6 1-1.2 1.6-2.1 2.2l-1.8 1.3a19.8 19.8 0 0 1-4.3 2.8c-1.9.8-4.1 1-5.9 0a4.4 4.4 0 0 1-2.4-4.2c-19.4 7-15.6 24.6-9 24.7 8.1.1 10.9-15.2 10.9-15.2l30-1.5s6.1 18.2 11.8 18.2c5.6 0 5.7-3 3.7-15.2Z" class="st5"/><path fill="#FFDFD4" fill-rule="evenodd" d="m6204.7 4963.4 22.2 1.2s-15.1 41-7.6 42.4" class="st3"/><path fill="#262626" fill-rule="evenodd" d="M6220.8 5008.7c-.6 0-1.2 0-1.8-.2-.7 0-1.7-.6-2.4-1.8-3.6-6.5 5.4-32.7 8.2-40.6l-20.2-1c-.8 0-1.5-.9-1.4-1.7.1-.8.8-1.5 1.6-1.4l22.2 1.2c.5 0 .9.3 1.2.7.3.4.3 1 .2 1.3-4.8 13.1-11.6 35.5-9.1 40l.4.4c6.5 1.3 13.6-8.4 13.6-8.5.5-.7 1.4-.8 2.1-.3.7.5.8 1.4.3 2.1-.3.4-7.1 9.8-14.9 9.8ZM6266.1 4968h-.1l-25.6-1.9c-.8 0-1.4-.8-1.4-1.6.1-.8.8-1.4 1.6-1.4l25.6 2c.8 0 1.4.7 1.4 1.5s-.7 1.4-1.5 1.4ZM6266.3 4978.3c-.4 0-.8-.2-1.1-.5-.1 0-5.2-5.4-12.1-5.5-4.1 0-8.1 1.8-11.8 5.5-.6.6-1.5.6-2.1 0-.6-.6-.6-1.5 0-2 4.3-4.4 8.9-6.5 13.8-6.5h.2c8.2.1 14 6.2 14.2 6.4.6.6.5 1.6-.1 2.1-.3.3-.7.5-1 .5Z" class="st1"/><path fill="#262626" fill-rule="evenodd" d="M6253.4 4979.8a3.8 3.8 0 1 1 0-7.5 3.8 3.8 0 0 1 0 7.5ZM6222.4 4976.8c-.4 0-.8-.2-1.1-.5-.1 0-5.2-5.4-12.1-5.5-4.1 0-8.1 1.8-11.8 5.5-.6.6-1.5.6-2.1 0-.6-.6-.6-1.5 0-2 4.3-4.4 9-6.6 14-6.5 8.2.1 14 6.2 14.2 6.4.6.6.5 1.6-.1 2.1-.3.3-.7.5-1 .5Z" class="st1"/><path fill="#262626" fill-rule="evenodd" d="M6209.5 4978.3a3.8 3.8 0 1 1 0-7.5 3.8 3.8 0 0 1 0 7.5Z" class="st1"/><path fill="#FFE576" fill-rule="evenodd" d="M6274.6 4948s1.2 15.5 11.5 4c0 0 3.8 15.2 13.9 7.8 0 0-3.8 16.8 7.7 12.3l4.5 10.7s15.3 13.5 11.1-4.6c0 0 15.3 2 4.8-10.4 0 0 12.2-9.3-2.9-12.3 0 0 10.6-12-4.5-12 0 0 1.6-14.7-11.3-4.4 0 0-6.2-17.4-14.8-2 0 0-2.2-17.5-15.3-6.4 0 0-6.8-14-17.5-3.7 0 0-7.7-15.4-15.2-1.8 0 0-7.6-18.2-16.6-3 0 0-10.6-18.2-18.2-1.5 0 0-5.3-15.9-15.5-1.9 0 0-13.2-17.8-13.2 2 0 0-18.2-4.6-10.6 7.5 0 0-15.1 7.6-3 15.1 0 0-12.1 10.6-1.5 13.6 0 0-2.5 13.6 9.4 7.6l5.9 1.8 13.6-20s10.4 10.6 16.5 0c0 0 13.6 9.1 16.7-4.5 0 0 4.5 16.7 13.6 1.5 0 0 4.5 14.1 13.6 1.8-.1 0 3 18.1 17.3 2.8Z" class="st2"/><path fill="#262626" fill-rule="evenodd" d="M6321.3 4989.2c-3.9 0-8.9-4.2-10-5.2-.2 0-.3-.3-.4-.5l-4-9.4c-2.7.8-4.8.5-6.4-.9-2.7-2.3-2.8-7.2-2.4-10.4-2 .8-3.9 1-5.7.2-3.7-1.3-5.8-5.5-6.9-8.2-2.8 2.6-5.2 3.5-7.4 2.7-2.6-.9-3.9-4-4.5-6.4-4.1 3.7-7.7 5.2-10.9 4.3-3.4-1-5.3-4.4-6.2-7-2.5 2.6-4.9 3.7-7.3 3.3-2.9-.5-4.8-3-6-5-2.5 3.4-5 5-7.6 4.6-2.7-.4-4.5-2.8-5.7-5a8.3 8.3 0 0 1-4.4 4c-4.3 1.7-9.4-.5-11.8-1.8a9 9 0 0 1-6.3 4.1c-4.2.5-8.3-2.2-10.4-3.9l-12.7 18.6c-.4.5-1.1.8-1.7.6l-5.3-1.7c-3.7 1.8-6.6 2-8.6.4-2.7-2-2.7-6.4-2.5-8.6-2.3-.9-3.7-2.3-4.1-4.2-.8-3.8 2.8-8 4.9-10.3-2.7-2-3.9-4.3-3.8-6.8.2-4.3 4.8-7.6 7.2-9-1.5-3-1.7-5.4-.5-7 2.3-3.2 8.4-2.6 11.7-2 .2-5 1.6-7.9 4-8.7 3.8-1.3 8.4 3.5 10.7 6.2 3-3.6 6-5.2 9-4.8 3.2.5 5.4 3.4 6.7 5.7 2-3.3 4.4-5 7.2-5 4.7-.3 8.9 4.4 10.9 7.2 2.5-3.4 5.1-5 7.9-4.8 4.2.3 7.3 4.6 8.9 7.5 2-2.7 4.2-4 6.6-4h.1c4.1 0 7.2 4.1 8.7 6.5 3-2.4 6-3.3 8.9-2.8 4.3.8 7.2 4.4 8.6 6.6 3.7-2.7 7-3.6 9.8-2.5 3.2 1.2 4.9 4.7 5.8 7.4 2.2-2.9 4.6-4.3 7-4 3.9.2 6.6 4.7 7.8 7.4 3.9-2.8 6.9-3.5 9.1-2.3 2.7 1.5 3.1 5.3 3.1 7.5 4 .3 6.6 1.5 7.6 3.8 1.4 3-.6 6.7-2.1 9 3.7 1 5.8 2.7 6.4 5 .8 3.4-2.2 6.7-3.9 8.3 2.9 3.8 3.8 6.7 2.6 8.8-1.4 2.6-5.2 3-7.6 3 .6 3.4.7 7.3-1.8 8.8-.8.5-1.5.7-2.3.7Zm-7.8-7.3c3 2.6 7.1 5 8.4 4.1.3-.2 1.5-1.2 0-7.5-.1-.5 0-1 .4-1.3.3-.4.8-.5 1.3-.5 2.2.3 5.9.1 6.6-1.3.2-.4.7-2-3.2-6.6-.3-.3-.4-.7-.3-1 0-.5.3-.9.6-1 1.2-1 4.5-4 4-6.3-.3-1.5-2.6-2.7-6.3-3.4-.5 0-1-.5-1.1-1-.2-.5-.1-1 .3-1.5 1.1-1.3 4-5.4 3-7.6-.6-1.3-2.9-2-6.4-2-.4 0-.8-.2-1.1-.5-.3-.3-.4-.7-.4-1.2.2-1.6.1-5.3-1.5-6-.6-.4-2.6-.8-7.4 3.1-.4.3-.9.4-1.3.3-.5 0-.8-.5-1-.9-.7-1.8-3.2-7-6-7.3-1.8-.2-3.9 1.8-6.1 5.6-.3.6-1 1-1.6.7-.6 0-1.1-.6-1.2-1.3-.3-2-1.6-7.3-4.7-8.5-2.1-.8-4.8.2-8.1 3.1-.4.3-.8.4-1.3.3-.5 0-.8-.4-1-.8 0 0-2.9-5.8-7.4-6.5-2.4-.4-5 .7-7.7 3.3-.3.3-.8.5-1.3.4-.5 0-.9-.4-1.1-.8-.9-1.8-3.9-6.5-7.1-6.6-2.3 0-4.3 2.6-5.5 4.8-.3.5-.8.8-1.4.8-.6 0-1.1-.4-1.3-.9-.9-2.2-4-7.9-7.6-8-2.6-.3-4.9 2.7-6.4 5.2-.3.5-.8.7-1.3.7s-1-.3-1.3-.7c-1.3-2.2-5.5-8-9.5-7.8-2.2.1-4.2 2.2-6 6.1-.3.6-.8 1-1.4 1-.6 0-1.1-.5-1.3-1-.6-1.8-2.7-6.2-5.6-6.7-2.6-.4-5.4 2.6-7.3 5.1-.3.4-.7.6-1.2.6s-.9-.2-1.2-.6c-2.4-3.2-6.7-7.3-8.6-6.7-.5.2-2 1.2-2 7.7 0 .5-.2 1-.6 1.2-.4.3-.8.4-1.3.3-3.4-.9-9.1-1.3-10.3.3-.6.8-.1 2.6 1.4 5 .2.4.3.8.2 1.2-.1.4-.4.7-.8 1-1.9.8-6.7 4-6.9 7.2-.1 1.7 1.3 3.5 4 5.2.4.3.7.7.7 1.2s-.1 1-.5 1.2c-2.3 2.1-5.8 6.2-5.3 8.7.2 1 1.3 1.8 3.2 2.4.7.2 1.2 1 1.1 1.7-.2 1.4-.6 5.6 1.2 7 1.4 1 4 0 6-1 .3-.3.8-.3 1.1-.2l4.8 1.5 13-19c.3-.5.7-.7 1.1-.7.4 0 .9.1 1.2.4 0 0 4.8 4.8 9.2 4.2 2-.3 3.6-1.5 4.9-3.9.2-.4.6-.6 1-.7.4 0 .8 0 1.2.2.1 0 6.1 4 10.4 2.3 2-.8 3.3-2.8 4-5.9.1-.7.7-1.2 1.4-1.2s1.3.4 1.5 1.1c.5 1.6 2.3 6.4 4.7 6.7 1.7.2 3.9-1.8 6.2-5.6.3-.5.9-.8 1.5-.7.6.1 1.1.5 1.3 1 .5 1.5 2.3 5.4 4.7 5.8 2.2.4 4.6-2.2 6.2-4.4.3-.4.8-.7 1.3-.6.5 0 1 .4 1.2.8l.1.4c.6 3 2.3 6.8 4.9 7.6 2.5.7 6-1.2 10-5.5.4-.4 1-.6 1.6-.4.6.2 1 .7 1 1.3.2 2 1.1 6.1 2.9 6.8 1.3.4 3.5-.9 6-3.7.4-.4.9-.6 1.5-.5.5.1 1 .6 1.1 1.1.5 2 2.5 7.4 5.8 8.6 1.7.6 3.6.1 5.7-1.5.5-.4 1.2-.4 1.7 0 .5.3.8 1 .6 1.6-.7 3.2-1.1 9 1 10.6.9.8 2.5.8 4.7 0 .8-.4 1.6 0 1.9.7l4.4 10.1" class="st1"/><path fill="#FFE576" fill-rule="evenodd" d="M6261 5111.5c-3.8 0-6.8-3-6.8-6.8s3-6.8 6.8-6.8 6.8 3.1 6.8 6.8c0 3.7-3.1 6.8-6.8 6.8Z" class="st2"/><path fill="#262626" fill-rule="evenodd" d="M6261 5113a8.3 8.3 0 1 1 0-16.6 8.3 8.3 0 1 1 0 16.6Zm0-13.6a5.3 5.3 0 0 0-5.3 5.3c0 3 2.4 5.3 5.3 5.3s5.3-2.4 5.3-5.3c0-3-2.4-5.3-5.3-5.3Z" class="st1"/><path fill="#FFE576" fill-rule="evenodd" d="M6265.5 5143.3c-3.8 0-6.8-3-6.8-6.8s3-6.8 6.8-6.8 6.8 3 6.8 6.8c0 3.7-3 6.8-6.8 6.8Z" class="st2"/><path fill="#262626" fill-rule="evenodd" d="M6265.5 5144.8a8.3 8.3 0 1 1 0-16.6 8.3 8.3 0 1 1 0 16.6Zm0-13.7a5.3 5.3 0 0 0-5.3 5.3c0 3 2.4 5.3 5.3 5.3s5.3-2.4 5.3-5.3-2.4-5.3-5.3-5.3Z" class="st1"/><path fill="#FFE576" fill-rule="evenodd" d="M6268.5 5175.1a6.8 6.8 0 1 1 0-13.6 6.8 6.8 0 0 1 0 13.6Z" class="st2"/><path fill="#262626" fill-rule="evenodd" d="M6268.5 5176.6a8.3 8.3 0 1 1 0-16.6 8.3 8.3 0 1 1 0 16.6Zm0-13.7a5.3 5.3 0 0 0-5.3 5.3c0 3 2.4 5.3 5.3 5.3s5.3-2.4 5.3-5.3-2.3-5.3-5.3-5.3Z" class="st1"/><path fill="#FFE576" fill-rule="evenodd" d="M6273.1 5206.8c-3.8 0-6.8-3-6.8-6.8s3-6.8 6.8-6.8 6.8 3 6.8 6.8-3.1 6.8-6.8 6.8Z" class="st2"/><path fill="#262626" fill-rule="evenodd" d="M6273.1 5208.3a8.3 8.3 0 1 1 0-16.6 8.3 8.3 0 1 1 0 16.6Zm0-13.6a5.3 5.3 0 0 0-5.3 5.3c0 3 2.4 5.3 5.3 5.3s5.3-2.4 5.3-5.3-2.4-5.3-5.3-5.3Z" class="st1"/><path fill="#FFE576" fill-rule="evenodd" d="M6274.6 5238.6c-3.8 0-6.8-3-6.8-6.8s3-6.8 6.8-6.8 6.8 3 6.8 6.8-3.1 6.8-6.8 6.8Z" class="st2"/><path fill="#262626" fill-rule="evenodd" d="M6274.6 5240.1a8.3 8.3 0 1 1 0-16.6 8.3 8.3 0 1 1 0 16.6Zm0-13.6a5.3 5.3 0 0 0-5.3 5.3c0 3 2.4 5.3 5.3 5.3s5.3-2.4 5.3-5.3-2.4-5.3-5.3-5.3Z" class="st1"/><path fill="#FFE576" fill-rule="evenodd" d="M6276.1 5270.4a6.8 6.8 0 1 1 0-13.6 6.8 6.8 0 0 1 0 13.6Z" class="st2"/><path fill="#262626" fill-rule="evenodd" d="M6276.1 5272a8.3 8.3 0 1 1 0-16.7 8.3 8.3 0 1 1 0 16.6Zm0-13.7a5.3 5.3 0 0 0-5.3 5.3c0 3 2.4 5.3 5.3 5.3s5.3-2.4 5.3-5.3-2.4-5.3-5.3-5.3Z" class="st1"/><path fill="#FFE576" fill-rule="evenodd" d="M6276.1 5302.2a6.8 6.8 0 1 1 0-13.6 6.8 6.8 0 0 1 0 13.6Z" class="st2"/><path fill="#262626" fill-rule="evenodd" d="M6276.1 5303.7a8.3 8.3 0 1 1 0-16.6 8.3 8.3 0 1 1 0 16.6Zm0-13.6a5.3 5.3 0 0 0-5.3 5.3c0 3 2.4 5.3 5.3 5.3s5.3-2.4 5.3-5.3-2.4-5.3-5.3-5.3ZM6246.4 5023.8c-.5 0-1-.2-1.3-.7-1-1.5-5-5.5-12.4-5.5-7.3 0-10.5 2.5-11.1 3.4-.4.7-1.4 1-2.1.5-.7-.4-.9-1.4-.5-2 1.1-1.9 5.2-4.9 13.6-4.9 8.4 0 13.4 4.5 14.9 7 .4.6.2 1.5-.5 2-.1.2-.3.2-.6.2Z" class="st1"/><path fill="#262626" fill-rule="evenodd" d="M6265.1 5014.4c-1.9-11.5-25.3-14.2-31.9-14.8-.7.8-1.7 2-2.8 3 .3 0 .7 0 1-.2 8.1.4 29.3 3.4 30.8 12.4 1 6.3 1.7 11.3.5 12.7-.3.3-.9.7-2.8.7-3.1 0-8-10.2-10.3-17-.2-.7-.8-1-1.4-1h-.1l-30 1.4c-.7 0-1.3.5-1.4 1.2-.7 4-3.8 14-9.4 14h-.1c-2.1 0-3.9-2.9-3.9-6.5-.1-5.7 3.8-12.2 14.2-15.6-.2-.8-.3-1.9-.3-3-12.4 3.7-17 11.7-16.9 18.6.1 5.3 3 9.4 6.9 9.4h.1c7.8 0 11.2-11.5 12.1-15.3l27.7-1.4c1.7 4.7 6.9 18.1 12.8 18.1 1.7 0 3.8-.2 5.1-1.8 1.9-2.2 1.5-6.4.1-14.9Z" class="st1"/></svg>