<svg xmlns="http://www.w3.org/2000/svg" viewBox="6093 4614.8 170.6 195.8">
  <path fill="#CB8454" fill-rule="evenodd" d="m6151.4 4753.8 4-64.2-25.6-3.6a86.6 86.6 0 0 0-9.8 35c0 13.1 21 27.3 31.4 32.8Z" class="st0"/>
  <path fill="#262626" fill-rule="evenodd" d="M6151.4 4755.3c-.2 0-.5 0-.7-.2-1.3-.7-32.2-17-32.2-34 0-13.4 6.5-29.2 10-35.7.3-.6 1-.9 1.5-.8l25.5 3.6c.8.1 1.3.8 1.3 1.6l-3.9 64.2c0 .5-.3 1-.8 1.2l-.7.1Zm-20.7-67.6a85.1 85.1 0 0 0-9 33.3c0 10.7 16.2 23.6 28.4 30.4l3.7-60.4-23-3.3" class="st1"/>
  <path fill="#FFDDD1" fill-rule="evenodd" d="M6180.7 4679.8s56 10.6 58.2 34.8c2.3 24.1-1.3 90.7-27.4 92-26 1.3-53.3 10-62.9-32.4-9.6-42.3-2-81.3 6.7-88.9 8.8-7.6 25.4-5.5 25.4-5.5Z" class="st2"/>
  <path fill="#262626" fill-rule="evenodd" d="M6186.8 4809.6c-17.3 0-32.9-5.3-39.7-35.2-9.8-42.9-2.3-82 7.2-90.2 9.2-7.9 26-5.9 26.6-5.8h.1c2.3.4 57 11.1 59.4 36.1 2.1 21.5-.4 69-15.7 86.6a18.2 18.2 0 0 1-13 7l-10 .7c-5 .4-10 .8-14.9.8Zm-11.3-128.5c-5.4 0-13.9.8-19.2 5.4-8.7 7.5-15.6 46.1-6.3 87.4 8.1 35.7 28.1 34 51.3 32 3.3-.3 6.7-.6 10-.7 4.1-.2 7.8-2.2 11-6 14.5-16.8 17-64 15-84.3-2.2-22.5-55-33-56.9-33.4-.2-.2-2.2-.4-4.9-.4Z" class="st1"/>
  <path fill="#262626" fill-rule="evenodd" d="M6179 4758.4c-1.4 0-2.7-.6-3.8-1.7-6.5-6.6-5.4-33-5-40.7l-18.8 1c-.8 0-1.5-.7-1.6-1.5 0-.8.6-1.5 1.4-1.6l20.5-1c.4 0 .8.1 1.1.4.3.3.5.7.4 1.2-.7 9.3-1.2 34.7 4 40 .7.8 1.4.8 1.8.8.7 0 1.3-.4 2-1 5.1-6 4.2-31.2 3.4-40.5 0-.4.1-.8.4-1 .3-.4.6-.6 1.1-.6l27-1.3c1 0 1.5.6 1.6 1.4 0 .8-.6 1.5-1.4 1.6l-25.4 1.3c.5 7.3 2 34-4.3 41.2a5.7 5.7 0 0 1-4 2.1h-.4Zm-7.8 16.7c-.8 0-1.5-.6-1.5-1.4 0-.8.6-1.5 1.4-1.6l21.1-1c1 0 1.5.5 1.6 1.3 0 .8-.6 1.5-1.4 1.6l-21.2 1.1c.1 0 .1 0 0 0Z" class="st1"/>
  <path fill="#262626" fill-rule="evenodd" d="M6190.1 4727.3a2 2 0 0 1-1-.3c-.6-.5-.7-1.5-.2-2 4.1-5 8.6-7.5 13.6-7.7 8-.3 14 6 14.2 6.2.6.6.5 1.6 0 2.1-.7.6-1.6.5-2.2 0 0-.2-5.3-5.6-12-5.4-4 .1-7.9 2.3-11.3 6.5-.2.4-.7.6-1 .6Z" class="st1"/>
  <path fill="#262626" fill-rule="evenodd" d="M6203.2 4728.4c-2 .1-3.8-1.6-3.9-3.9 0-2.2 1.5-4 3.5-4.2 2 0 3.8 1.6 4 4 0 2.1-1.5 4-3.6 4.1Zm-57.4 2.6a2 2 0 0 1-1-.4c-.6-.5-.7-1.5-.2-2 4.1-5 8.6-7.5 13.6-7.7 8-.2 14 6 14.2 6.2.6.6.5 1.6 0 2.1-.7.6-1.7.5-2.2 0 0-.2-5.3-5.6-12-5.4-4 .1-7.9 2.3-11.3 6.5-.2.4-.7.6-1 .6Z" class="st1"/>
  <path fill="#262626" fill-rule="evenodd" d="M6159 4732c-2 .1-3.9-1.6-4-3.9 0-2.2 1.5-4 3.5-4.2 2 0 3.8 1.6 4 4 0 2.1-1.5 4-3.6 4.1Z" class="st1"/>
  <path fill="#CB8454" fill-rule="evenodd" d="M6237.6 4743.8c-20.9-8-26-40.4-26-55.6l-81.8 12.1 2.6-39.9c29.2-9.7 91.6-22 107.8 7.1 16.2 29.1 5 63-2.6 76.3Z" class="st0"/>
  <path fill="#262626" fill-rule="evenodd" d="M6237.6 4745.3h-.5c-20.7-8-26.7-38.7-27-55.4l-80 12c-.5 0-1-.2-1.3-.5-.3-.3-.5-.7-.5-1.2l2.6-39.9c0-.6.4-1 1-1.3 30.7-10.2 93-21.8 109.5 7.8 16.3 29.3 5.4 63.7-2.6 77.8-.2.5-.7.7-1.2.7Zm-26.2-58.6c.4 0 .7.1 1 .4.3.3.5.7.5 1.1 0 15.1 5 45.3 24 53.7 7.7-14.2 17.2-46.3 2-73.7-15.4-27.6-74.8-16.6-105-6.8l-2.4 37.1 79.8-11.8h.1Z" class="st1"/>
  <path fill="#9F4000" fill-rule="evenodd" d="M6139.6 4707.5c70 3.4 97.5-28 102.5-44.2 6.3 0 19-3.6 19-17.8 0-17.8-35.4-25.7-71.3-27.8-35.8-2.2-77.6 5.6-81.5 25.6-3 16 10.4 22 17.6 22.8l-4.6 13.6c-23 7.8-51.7 24.3 18.3 27.8Z" class="st3"/>
  <path fill="#262626" fill-rule="evenodd" d="M6150 4709.2c-3.5 0-6.9 0-10.5-.3-39.5-1.9-44.9-7.8-45.5-12-1-8 17.4-15.4 26.1-18.4l3.8-11.2c-4.8-1-10.7-3.7-14.3-8.7a19 19 0 0 1-2.8-15.5c4-20.7 45-29.2 83.2-27 27.1 1.6 72.6 7.6 72.6 29.3 0 14.5-12 19-19.3 19.3-5.9 16.5-32 44.5-93.4 44.5Zm-28.6-28c-15 5.2-25 11.4-24.4 15.2.3 2.3 5.1 7.7 42.7 9.6 63.7 3.1 92-22.8 99.7-39.6-23.8 11.3-74.5 27.1-118 14.8Zm2-2.6c40.7 11 87.7-2.8 112-13.7l-108.4 2.7-3.7 11m54.8-59.8c-32.6 0-65 8-68.4 24.8-1 5.2-.2 9.6 2.3 13.2 3.5 4.8 9.6 7.2 14 7.8l116-2.8v1.5-1.5c6 0 17.4-3.4 17.4-16.3 0-13.9-26-23.7-69.8-26.3a144 144 0 0 0-11.5-.4Z" class="st1"/>
</svg>
