<svg xmlns="http://www.w3.org/2000/svg" fill="none" viewBox="0 0 505 665">
  <g clip-path="url(#a)">
    <path d="M137.2 670.5V581c85.9 8.5 259 30 264.6 48.7 7 23.3 15.6 109.4 18.4 146 2.8 36.8 20.4 242.8 21.9 263.3a80 80 0 0 1-9.2 39.5c9.6 6.8 29 24 29 38 0 17.7-2.2 15-29 16.3-21.5 1.1-60.7 33-77.6 48.7-9.6-7.9-4-25.9 0-33.9-15.6-6.3-15.6-55.7-19-91-2.3-21.8 1.2-47 .4-66.3-.6-12-2.7-21.7-9-26.8-13-10.8-40.2-146-52.2-212.4-7.3 7.3-22.3 187-29 275.9l10 29.6a31 31 0 0 0-10 35.3c6.3 18 2.7 49 0 62-.6-25.3-81.8-14-81.8-29.5 0-12.5 7.6-14.2 11.3-13.5-3.7-2.5-11.3-18.7-11.3-62.8V905.5c0-38.8-27.5-179.2-27.5-235Z" fill="#fff"/>
    <path d="M256.5 1056.5a31 31 0 0 0-10 35.3c6.3 18 2.7 49 0 62-.6-25.3-81.8-14-81.8-29.5 0-12.5 7.6-14.2 11.3-13.5-3.7-2.5-11.3-18.7-11.3-62.8V905.5c0-38.8-27.5-179.2-27.5-235V581c85.9 8.5 259 30 264.6 48.7 7 23.3 15.6 109.4 18.4 146 2.8 36.8 20.4 242.8 21.9 263.3a80 80 0 0 1-9.2 39.5c9.6 6.8 29 24 29 38 0 17.7-2.2 15-29 16.3-21.5 1.1-60.7 33-77.6 48.7-9.6-7.9-4-25.9 0-33.9-15.6-6.3-15.6-55.7-19-91-2.3-21.8 1.2-47 .4-66.3m-80.2 66.3-10-29.6c6.7-89 21.7-268.6 29-276 12 66.4 39.3 201.7 52.2 212.5 6.3 5.1 8.4 14.8 9 26.8m-80.2 66.3c-16.5 3.8-49 17.8-47.3 43.8 1.4 19.7 26.8 16.2 30.3 29.6m96.7-216 .5 76.3" stroke="#262626" stroke-width="3" stroke-linecap="round" stroke-linejoin="round"/>
    <path d="M430.8 622.6c-5.1-8-6.9-30.1-7.1-40.3l45.9-9.8c3.7 6 11.7 20.7 13.4 30.3 1.7 9.6-9.2 23.3-14.8 29-2.1 10.3-14.3 10.5-23.5 11.8a2 2 0 0 1-.5.1c-9.2 1.4-7-11.3-13.4-21.1Z" fill="#FFDDD1"/>
    <path d="M444.2 643.7c-9.2 1.4-7-11.3-13.4-21.1-5.1-8-6.9-30.1-7.1-40.3l45.9-9.8c3.7 6 11.7 20.7 13.4 30.3 1.7 9.6-9.2 23.3-14.8 29m-24 12c9.1-1.5 21.8-1.5 24-12m-24 12c1.4 0 4.3-2 5-9.2.5-7.4-5-27-7.9-36l13.5 12.7c-3.8 5.1-9.5 16.5-2.2 20.4m15.6 0c1.7-8.4 2-19.5 2-24" stroke="#262626" stroke-width="3" stroke-linecap="round" stroke-linejoin="round"/>
    <path d="m174.5 115.9-4-30.4 6-22.3 65.2-10 35 10 8 34.5c2.8 1 8.3 5.8 9.1 17.2a51.8 51.8 0 0 1-10 29.3c.3 2.4 1 7.7 1 10.1a111 111 0 0 1-8 19.3v47.6l-31.1 25.3-40-16.2-25.1-76c-17-1-22-38.4-18-41.5 3.1-2.4 9.3 1 12 3Z" fill="#FFDDD1" stroke="#262626" stroke-width="3" stroke-linejoin="round"/>
    <path d="m73 245 91.7-45.8 96.7 184.2 9.2 127.7c15.7 58.5 41 175.8 15.5 176.4-31.7.7-148.2-50.1-157.3-86.8-2.2-8.8-2.9-18.5-2.5-28.2l-8.1 35.2c-21.5-1-30.6-32.4-32.5-48a182.4 182.4 0 0 1-35.3-65.6c-8.4-30.4.7-41.4 6.4-43-12-31.8 9.2-177.8 9.2-191.2 0-10.8 4.7-14.4 7-14.8Z" fill="#A50034"/>
    <path d="m73 245 91.7-45.8 96.7 184.2 9.2 127.7c15.7 58.5 41 175.8 15.5 176.4-31.7.7-148.2-50.1-157.3-86.8-2.2-8.8-2.9-18.5-2.5-28.2M73 245l55.8 145.3M73 245.1c-2.3.4-7 4-7 14.8 0 13.4-21.2 159.4-9.2 191.2m72-60.7s-6.4 37-5 60.7c1.6 25.9 14.1 65 14.1 65m-9.1-125.7c5.8 14.8 24.4 45.2 51.5 48M137.9 516a195.6 195.6 0 0 0-11.6 56.5M138 516a29 29 0 0 0-24.7 0m-56.4-65c-5.7 1.7-14.8 12.7-6.4 43.1 8.5 30.5 27 56.5 35.3 65.7 1.9 15.5 11 46.8 32.5 48l8.1-35.3M56.8 451 99 462.4c-10.9-6.8-33-23.9-33-37.4 0-13.6 34.8-11.3 52.2-8.5m8.1 156c25 7 76 19 79.4 10.5 4.2-10.5-64.2-19.7-64.2-34.5 0-11.9 30.5-11.6 45.8-10" stroke="#262626" stroke-width="3" stroke-linecap="round" stroke-linejoin="round"/>
    <path d="M301 183.7c29.6 3.7 89.1 14.2 90.2 26 1.5-2 5.7-1.5 11.3 17.7 7 24 55.8 197.6 56.5 222.3a373 373 0 0 0 9.2 65.6c2.2 9.6 7 48.7 9.1 67-17.1 2.4-52.5 7.8-56.4 10.6-4 2.8-23.3-69.4-32.5-105.8l-7-48.7v54.3l28.2 149c-38.6 22-117.6 65.5-124.9 62.7-9.2-3.5-52.2-180.6-45.2-202.5 5.7-17.5 46.8-217.8 61.4-318.2Z" fill="#A50034"/>
    <path d="M391.2 209.8c-1-11.9-60.6-22.4-90.3-26.1-14.6 100.4-55.7 300.7-61.4 318.2-7 21.9 36 199 45.2 202.5 7.3 2.8 86.3-40.7 124.9-62.8l-28.2-148.9v-54.3m9.8-228.6c1.2 11.8.5 70.3 0 98l-20.4 79m20.4-177c1.5-2.1 5.7-1.6 11.3 17.6 7 24 55.8 197.6 56.5 222.3a373 373 0 0 0 9.2 65.6c2.2 9.6 7 48.7 9.1 67-17.1 2.4-52.5 7.8-56.4 10.6-4 2.8-23.3-69.4-32.5-105.8l-7-48.7m-10.6-51.5 10.6 51.5m-10.6-51.5c13 3.7 39.5 14.4 42.3 26.8 3.5 15.5-21.9 29-21.9 39.5 0 8.5 14.6 26.1 22 33.9M226.1 109.6c-4-3.6-15.6-8.5-30.3 0" stroke="#262626" stroke-width="3" stroke-linecap="round" stroke-linejoin="round"/>
    <path d="m277 374.9-95.3-198.3c-24.9 6.2-42.4 51.5-48 73.4l29 17.6-33.2 5.7c7.3 24.3 93.3 107.5 135.4 146l12-44.4Z" fill="#A50034" stroke="#262626" stroke-width="3" stroke-linejoin="round"/>
    <path d="M287.5 225.3c0 4.5-10.3-16.5-15.5-27.5l8.5-28.2c2.3 16.7 7 51.2 7 55.7Z" stroke="#262626" stroke-width="3" stroke-linejoin="round"/>
    <path d="m208.5 208.4 33.2 31 36.6-60 20.5 38.8-30.3 147.5-86.8-162.3 3.5-26.8 23.3 31.8Z" fill="#262626" stroke="#262626" stroke-width="3" stroke-linejoin="round"/>
    <path d="M217 164a60.9 60.9 0 0 0 24 4.8c11.2 0 17.8-5.6 19.7-8.4M216.3 195a60 60 0 0 0 24 4.9c11.2 0 17.8-5.7 19.7-8.5m-43.7 16.3a60 60 0 0 0 24 4.9c11.2 0 17.8-5.7 19.7-8.5" stroke="#262626" stroke-width="3" stroke-linecap="round" stroke-linejoin="round"/>
    <path d="M248.7 148.4c2.4.2 7 .1 7-2.1 0-2.9-2-10-7-9.2" stroke="#262626" stroke-width="3" stroke-linejoin="round"/>
    <path d="M272.8 118.2c-14.2-14.2-27.6 0-27.6 0m-22.5 4.8c-14.2-14.3-27.6 0-27.6 0" stroke="#262626" stroke-width="3" stroke-linecap="round" stroke-linejoin="round"/>
    <path d="M258.8 121.4a4 4 0 1 0 0-8 4 4 0 0 0 0 8Zm-50.1 4.8a4 4 0 1 0 0-8 4 4 0 0 0 0 8Z" fill="#262626"/>
    <path d="m267 102.5-27.5 3.5c6.2 15.8 15.3 47.5 2.9 48-12.5.6-15-6.3-14.9-9.8" stroke="#262626" stroke-width="3" stroke-linecap="round" stroke-linejoin="round"/>
    <path d="M183.8 79.2c1.9-5.6 9.4-15.6 24.7-10.6 4.6 1.6 9.7 2.2 14.8 2.1a79.4 79.4 0 0 0 29-5.6l30.3 17c4.2-31.8-24.7-55-65.6-53-41 2.2-53 36-53.7 48a96.3 96.3 0 0 0 4.3 28.2l10.5 19.8v-19.8l5.7-2.8V79.2Z" fill="#9F4000"/>
    <path d="M208.5 68.6c-15.3-5-22.8 5-24.7 10.6v23.3l-5.7 2.8v19.8l-10.5-19.8a96.3 96.3 0 0 1-4.3-28.2c.7-12 12.7-45.8 53.7-48 40.9-2 69.8 21.2 65.6 53l-30.4-17a83.7 83.7 0 0 1-14 4m-29.7-.5 5-17.6m-5 17.6c4.6 1.6 9.7 2.2 14.8 2.1m0 0-.7-19m.7 19c5.1 0 10.2-.6 14.8-1.5m0 0-5-17.5" stroke="#262626" stroke-width="3" stroke-linejoin="round"/>
    <ellipse cx="203.9" cy="230.8" rx="6.4" ry="9.9" transform="rotate(-50.8 204 230.8)" fill="#FFE576"/>
    <ellipse cx="219.5" cy="243.5" rx="6.4" ry="9.9" transform="rotate(-50.8 219.5 243.5)" fill="#FFE576"/>
    <ellipse cx="236.4" cy="253.4" rx="6.4" ry="9.9" transform="rotate(-68 236.4 253.4)" fill="#FFE576"/>
    <ellipse cx="255.2" cy="255.6" rx="6.4" ry="9.9" transform="rotate(-98.6 255.2 255.6)" fill="#FFE576"/>
    <ellipse cx="272.8" cy="247.3" rx="6.4" ry="9.9" transform="rotate(-130.3 272.8 247.3)" fill="#FFE576"/>
    <ellipse cx="292.9" cy="241.5" rx="6.4" ry="9.9" transform="rotate(-120.8 293 241.5)" fill="#FFE576"/>
    <path d="M356 228.8c3.4 69.5-78.8 211.2-116.5 275.2L284 245v-77.6c18 0 47 33.4 59.3 50.1l-22 20.5 34.7-9.2Z" fill="#A50034" stroke="#262626" stroke-width="3" stroke-linejoin="round"/>
    <path d="M214.1 214.7 198 241.5 176 200l10.6-25.4 27.5 40.2Z" fill="#262626" stroke="#262626" stroke-width="3" stroke-linejoin="round"/>
    <circle cx="231.1" cy="432" r="12" fill="#FFE576"/>
    <circle cx="257.9" cy="511.1" r="12" fill="#FFE576"/>
    <circle cx="329.9" cy="432" r="12" fill="#FFE576"/>
    <circle cx="329.9" cy="519.5" r="12" fill="#FFE576"/>
    <path d="m287.5 108.2-2.1 13.4 5.6 7M166.9 118l11.3 15.6-5.7 7m41.6 9.9-7 22.6m55-26.1 8.5 20.4" stroke="#262626" stroke-width="3" stroke-linecap="round" stroke-linejoin="round"/>
  </g>
  <defs>
    <clipPath id="a">
      <path fill="#fff" d="M0 0h505v665H0z"/>
    </clipPath>
  </defs>
</svg>
