<svg fill="none" xmlns="http://www.w3.org/2000/svg" viewBox="0 0 168 168">
  <circle cx="84" cy="84" r="84" fill="#FFF"/>
  <path d="M148.36 82.73c0-.64-.52-1.17-1.16-1.2-22.96-.87-36.93-3.8-46.71-13.58-9.8-9.8-12.72-23.78-13.59-46.8A1.2 1.2 0 0 0 85.7 20h-2.68a1.2 1.2 0 0 0-1.2 1.15c-.87 23.01-3.78 37-13.58 46.8-9.79 9.79-23.75 12.71-46.72 13.58a1.2 1.2 0 0 0-1.16 1.2v2.67c0 .64.52 1.17 1.16 1.2 22.97.87 36.94 3.8 46.72 13.58 9.78 9.78 12.69 23.72 13.57 46.65a1.2 1.2 0 0 0 1.2 1.16h2.69c.64 0 1.17-.52 1.2-1.16.88-22.93 3.8-36.87 13.58-46.65 9.79-9.79 23.75-12.71 46.71-13.58a1.2 1.2 0 0 0 1.16-1.2l.01-2.67Z" fill="#000"/>
</svg>
