<svg xmlns="http://www.w3.org/2000/svg" fill="none" viewBox="0 0 505 665"><g clip-path="url(#a)"><path d="M244.5 144.03s-53.96 9.39-56.2 30.75c-2.23 21.37 1.3 80.22 26.5 81.37 25.2 1.15 51.46 8.77 60.75-28.7 9.3-37.45 2.03-71.88-6.5-78.59-8.54-6.7-24.55-4.83-24.55-4.83Z" fill="#FFDDD1" stroke="#262626" stroke-width="3" stroke-linecap="round" stroke-linejoin="round"/><path d="M33.1 588.84c8.07 4.04 11.77-1.68 12.61-5.04-6.94-22.08-25.99-63.08-46.68-50.46C-26.83 549.1 23 583.8 33.1 588.84Z" fill="#9F4000" stroke="#262626" stroke-width="3" stroke-linejoin="round"/><path d="M272.79 144.78 269 88l24.6-3.15c3.16 5.46 9.47 19.3 9.47 30.9 0 11.61-20.19 24.18-30.28 29.02Z" fill="#CB8454" stroke="#262626" stroke-width="3" stroke-linejoin="round"/><path d="M127.7 877.1c-12.1-83.76 5.06-275.01 15.15-360.17L310 424.21c8.83 13.67 30.53 54.37 46.68 107.86 16.15 53.5 18.08 361.23 17.03 508.41-2.23-1.18-7.92-3.3-17.03-5.21a179.31 179.31 0 0 0-20.18-2.99c-26.5-2.53-52.99 34.06-65.6 33.43-12.62-.63 0-70.02 0-111.02 0-32.8-17.35-143.18-26.02-194.28-2.1 91.34-2.42 193.78 3.94 235.28 9.59 62.57-4 83.68-11.99 86.42-5.1-20.78-36.52-25.56-64.34-27.44-23.7-1.6-44.78-1.11-44.78-6.62 0-11.99 32.17-13.88 32.17-24.6 0-10.73-32.17 0-32.17-17.04 0-17.03 30.28-10.72 32.17-28.38 1.9-17.66-17.03 3.78-32.17-100.92Z" fill="#D9D9D9"/><path d="M244.88 760.41c-2.1 91.34-2.42 193.78 3.94 235.28 9.59 62.57-4 83.68-11.99 86.42-5.1-20.78-36.52-25.56-64.34-27.44m72.39-294.26a6298 6298 0 0 1 3.94-121.1l-3.94 121.1Zm0 0c8.67 51.1 26.02 161.48 26.02 194.28 0 41-12.62 110.39 0 111.02 12.61.63 39.1-35.96 65.6-33.43 7.96.75 14.7 1.83 20.18 2.99m-184.19 19.4c-23.7-1.6-44.78-1.11-44.78-6.62 0-11.99 32.17-13.88 32.17-24.6 0-10.73-32.17 0-32.17-17.04 0-17.03 30.28-10.72 32.17-28.38 1.9-17.66-17.03 3.78-32.17-100.92-12.11-83.77 5.05-275.02 15.14-360.18L310 424.21c8.83 13.67 30.53 54.37 46.68 107.86 16.15 53.5 18.08 361.23 17.03 508.41-2.23-1.18-7.92-3.3-17.03-5.21m-184.19 19.4c9.68-7.46 27.25-25.55 20.19-38.16-8.83-15.77 0-15.14 0-38.48 0-23.34-41.63-15.77-20.19-296.46m184.2 353.7c6.72-10.04 16.14-40.21 0-80.58-20.2-50.46-10.1-52.35-5.06-100.3 4.04-38.34-8.4-146.75-15.13-196.16" stroke="#262626" stroke-width="3" stroke-linejoin="round"/><path d="M217.91 221.73c18.5-26.28 57.28-77.96 64.34-74.43 7.01 3.51 27.96 32.89 32.8 49.25 15.35 1.24 47.94 9.54 55.5 32.75 9.47 29.02 63.08 143.82 57.4 185.45-4.53 33.3-56.13 117.32-81.36 155.17-11.78-14.04-32.42-51.86-20.82-90.83-29.77-5.55-65.8-135.62-80.1-199.96l-27.76-57.4Z" fill="#CB8454"/><path d="M245.66 279.13c12.2-12.2 37.85-37.72 42.9-42.26 5.04-4.54-9.68-22.5-17.66-30.9 12.4 2.94 38.6 7.06 44.15 0 1.43-1.82 1.25-5.19 0-9.42m-69.39 82.58-27.75-57.4c18.5-26.28 57.28-77.96 64.34-74.43 7.01 3.51 27.96 32.89 32.8 49.25m-69.39 82.58c14.3 64.34 50.34 194.4 80.11 199.96m0 0c4.63-23.34 17.66-70.02 32.8-70.02 18.93 0 32.8 6.94 32.8 0s-32.8-6.94-32.8-16.4c0-9.46 22.71.63 21.45-6.94-1.26-7.56-54.25-63.7-54.25-148.86m0 242.22c-11.6 38.97 9.04 76.8 20.82 90.83 25.23-37.85 76.83-121.86 81.37-155.17 5.68-41.63-47.94-156.43-57.4-185.45-7.57-23.21-40.16-31.5-55.51-32.75" stroke="#262626" stroke-width="3" stroke-linejoin="round"/><path d="M14.64 517.07s-6.27 19.92-26.44 19c-20.16-.92-22.57-3.56-34.43 7.27-11.86 10.82-13.7 23.37-7.5 26.18 0 0-5.8 16.15 4.29 16.6 0 0-5.85 17.42 14.54 13.3 0 0 3.8 6.8 10.79 2.54 0 0 1.47 5.6 14.53-3.9 13.07-9.51 11-19.71 11-19.71s37.47-18.5 43.2-33.39c5.74-14.89-29.98-27.89-29.98-27.89Z" fill="#FFDDD1" stroke="#262626" stroke-width="3" stroke-linecap="round" stroke-linejoin="round"/><path d="M310.63 448.81c0 43.4-13.03 105.97-19.55 131.83-8.2 20.19-173.46 39.74-174.1 22.08-.5-14.13 12.41-91.25 18.93-128.05a385.08 385.08 0 0 1-2.7-25.86c-3.73 7.15-12.19 29.65-16.22 62.45-5.05 41-30.28 15.14-41 45.41-8.58 24.23-27.13 32.8-35.33 34.07-.5-14.64-32.17-43.1-47.94-55.51 5.68-3.16 43.53-86.42 63.08-115.43 19.56-29.02 22.71-140.04 39.74-170.31 13.63-24.22 48.26-41.21 63.88-46.68 9-14.52 20.32-28.36 21.27-33.43 1.52-8.07 9.05-10.93 12.62-11.35 4.41 42.26 92.72 100.29 112.9 128.04 4.19 5.75 6.82 13.76 8.38 23.34 5.96 36.7-3.96 96.38-3.96 139.4Z" fill="#CB8454"/><path d="M314.59 309.41c5.96 36.7-3.96 96.38-3.96 139.4 0 43.4-13.03 105.97-19.55 131.83-8.2 20.19-173.46 39.74-174.1 22.08-.5-14.13 12.41-91.25 18.93-128.05a385.19 385.19 0 0 1-2.7-25.86m181.38-139.4c-1.56-9.58-4.2-17.6-8.37-23.34-20.19-27.75-108.5-85.78-112.91-128.04-3.57.42-11.1 3.28-12.62 11.35-.95 5.07-12.26 18.91-21.27 33.43m155.17 106.6c-38.53-7.78-116.74-25.23-121.28-32.8-4.54-7.57 17.03-31.75 28.38-42.9-18.08 7.37-57.4 18.93-70.01 6.32-7.84-7.84-1.18-22.86 7.74-37.22m-7.74 73.8c-5.26 27.96-15.77 87.05-15.77 99.66 0 15.77 7.57 25.87 0 35.33-3.78 4.72-3.82 21.17-2.7 37.21m26.2-246c-15.6 5.47-50.24 22.46-63.87 46.68-17.03 30.27-20.18 141.3-39.74 170.3C36.25 448.82-1.6 532.08-7.28 535.24c15.77 12.4 47.44 40.87 47.94 55.5 8.2-1.26 26.75-9.83 35.33-34.06 10.72-30.27 35.95-4.41 41-45.41 4.03-32.8 12.49-55.3 16.21-62.45" stroke="#262626" stroke-width="3" stroke-linejoin="round"/><path d="M244.46 79.33s-53.96 9.4-56.2 30.76c-2.24 21.36 1.3 80.22 26.5 81.37 25.2 1.15 51.46 8.76 60.75-28.7s2.02-71.89-6.51-78.6c-8.54-6.7-24.54-4.83-24.54-4.83Z" fill="#FFDDD1" stroke="#262626" stroke-width="3" stroke-linecap="round" stroke-linejoin="round"/><path d="m272.83 110.86-19.8-.9s2.95 38.02-7.13 37.56c-10.08-.46-6.53-38.19-6.53-38.19l-26.06-1.19M233.18 161.38l20.41.94" stroke="#262626" stroke-width="3" stroke-linecap="round" stroke-linejoin="round"/><path d="M210.66 118.83s12.57-12.15 24.7 1.13" stroke="#262626" stroke-width="3" stroke-linecap="round" stroke-linejoin="round"/><path d="M222.7 122.26a3.58 3.58 0 1 0 .33-7.16 3.58 3.58 0 0 0-.32 7.16Z" fill="#262626"/><path d="M253.45 122.05s12.57-12.15 24.7 1.13" stroke="#262626" stroke-width="3" stroke-linecap="round" stroke-linejoin="round"/><path d="M265.5 125.48a3.58 3.58 0 1 0 .32-7.16 3.58 3.58 0 0 0-.32 7.16Z" fill="#262626"/><path d="M189.53 135.95c20.18-7.07 25.23-35.74 25.23-49.2l78.84 10.72-2.52-35.32c-28.17-8.62-88.43-19.43-104.08 6.3-15.64 25.74-4.83 55.72 2.53 67.5Z" fill="#CB8454" stroke="#262626" stroke-width="3" stroke-linejoin="round"/><path d="M284.14 103.78c-67.62 3.03-94.2-24.81-99.03-39.1-6.1 0-18.3-3.16-18.3-15.78 0-15.77 34.07-22.7 68.76-24.6 34.7-1.89 75.06 5.05 78.85 22.71 3.03 14.13-10.1 19.34-17.03 20.18l4.41 11.99c22.3 6.94 49.96 21.57-17.66 24.6Z" fill="#9F4000"/><path d="M185.11 64.67c4.84 14.3 31.41 42.14 99.03 39.1 67.62-3.02 39.95-17.65 17.66-24.6m-116.69-14.5c-6.1 0-18.3-3.15-18.3-15.77 0-15.77 34.07-22.7 68.76-24.6 34.7-1.89 75.06 5.05 78.85 22.71 3.03 14.13-10.1 19.34-17.03 20.18M185.1 64.67c20.4 9.67 72.29 26.12 116.7 14.5m-116.7-14.5L297.4 67.2m4.41 11.99-4.41-11.99" stroke="#262626" stroke-width="3" stroke-linejoin="round"/><circle cx="216.02" cy="325.18" r="9.85" fill="#FFE576" stroke="#262626" stroke-width="3"/><circle cx="216.02" cy="383.21" r="9.85" fill="#FFE576" stroke="#262626" stroke-width="3"/><circle cx="216.02" cy="445.03" r="9.85" fill="#FFE576" stroke="#262626" stroke-width="3"/><circle cx="281.62" cy="325.18" r="9.85" fill="#FFE576" stroke="#262626" stroke-width="3"/><circle cx="281.62" cy="383.21" r="9.85" fill="#FFE576" stroke="#262626" stroke-width="3"/><circle cx="281.62" cy="445.03" r="9.85" fill="#FFE576" stroke="#262626" stroke-width="3"/></g><defs><clipPath id="a"><path fill="#fff" d="M0 0h505v665H0z"/></clipPath></defs></svg>