<svg fill="none" xmlns="http://www.w3.org/2000/svg" viewBox="0 0 168 168">
  <circle cx="84" cy="84" r="84" fill="#FFF"/>
  <path d="M101.17 32H124v13.57h-11.89l-2 8.95a60.6 60.6 0 0 1-7.55 18.81 59.41 59.41 0 0 1-8.93 11.14 57.76 57.76 0 0 1 9 11.15 58.9 58.9 0 0 1 7.37 18.36l2.11 9.44H124V137H44v-13.58h10.46l1.99-8.95A60.85 60.85 0 0 1 64 95.66a59.47 59.47 0 0 1 9.25-11.45 71.68 71.68 0 0 1-8.64-11.26 73.2 73.2 0 0 1-9.11-22.7l-1.04-4.68H44V32h57.17ZM68.42 45.57l.39 1.74a59.68 59.68 0 0 0 7.44 18.52 57.86 57.86 0 0 0 7.3 9.46 46.1 46.1 0 0 0 7.38-9.09 47.12 47.12 0 0 0 5.87-14.63l1.34-6H68.42Zm14.89 47.86a45.96 45.96 0 0 0-13.55 23.99l-1.34 6h29.72l-1.45-6.49A45.51 45.51 0 0 0 91 102.75a45 45 0 0 0-7.69-9.32Z" fill="#111113" fill-rule="evenodd"/>
  <path d="m94.18 84.04 3.56 4.12-11.1 9.51-3.55-4.12 11.09-9.51ZM82.56 71.28l1.2 1.35c.67.75.54 1.99-.21 2.66l-10.08 8.83c-.75.66-1.9.59-2.57-.16l-1.2-1.36c-.67-.75-.6-1.89.16-2.55l10.13-8.93c.75-.66 1.9-.59 2.57.16Z" fill="#FFF" fill-rule="evenodd"/>
</svg>
