<svg xmlns="http://www.w3.org/2000/svg" viewBox="6147.5 4997.7 211.1 402.1">
  <path fill="#CB8454" fill-rule="evenodd" d="M6267.2 5348.5a2.4 2.4 0 0 0 1.1 4.5l16-3.8a2.4 2.4 0 1 0-1-4.5l-16 3.8"/>
  <path fill="#262626" fill-rule="evenodd" d="M6267 5351c0 .4.5.7 1 .6l16-3.8a.9.9 0 1 0-.4-1.7l-16 3.8c-.5.1-.8.6-.7 1Zm1.7 3.5a3.9 3.9 0 1 1-1.8-7.5l16-3.8a3.9 3.9 0 0 1 1.8 7.5l-16 3.8" clip-rule="evenodd"/>
  <path fill="#CB8454" fill-rule="evenodd" d="M6330.6 5339.6a2.4 2.4 0 0 0 1.1 4.6l16.2-3.9a2.4 2.4 0 0 0-1.2-4.6l-16 3.9"/>
  <path fill="#262626" fill-rule="evenodd" d="M6330.3 5342.1c.2.5.6.8 1 .6l16.2-3.8a.9.9 0 1 0-.4-1.7l-16.1 3.9c-.5 0-.8.5-.7 1Zm1.8 3.6a3.9 3.9 0 0 1-1.8-7.6l16.1-3.8a3.9 3.9 0 1 1 1.8 7.5l-16.1 3.9" clip-rule="evenodd"/>
  <path fill="#CB8454" fill-rule="evenodd" d="M6331.4 5372.2a2.4 2.4 0 0 0-2.5 4l14.1 8.7a2.4 2.4 0 0 0 2.5-4l-14.1-8.7"/>
  <path fill="#262626" fill-rule="evenodd" d="M6329.4 5373.8c-.3.4-.1 1 .3 1.2l14.1 8.6a.9.9 0 0 0 .9-1.5l-14.1-8.6a.9.9 0 0 0-1.2.3Zm-1.3 3.7a3.9 3.9 0 1 1 4-6.6l14.2 8.7a3.9 3.9 0 0 1-4 6.6l-14.2-8.7" clip-rule="evenodd"/>
  <path fill="#CB8454" fill-rule="evenodd" d="m6272 5209.9-14.1-34s-9.4-20-13.3-25.9c-4-5.8-23.4-41.3-23.4-41.3s-16-43.5-21.3-53.1c-5.3-9.6-23.8-41.7-26.7-48.5l-2.9-6.7s-13.3-1.9-20.3 8.2c0 0 14.8 33.7 18.5 38 3.8 4.3 26.4 55.2 27.5 58.3 1.2 3 22.6 41.4 23.9 48.4 1.3 7 29.3 62.8 29.1 67.5-.1 4.8 9.3 52 13.1 57 3.8 5 2.4 23.9 5.5 29.5 3.1 5.5 19.4 95.8 56.8 82 37.5-13.6 3.7-68.6-.2-86-3.9-17.3-10.2-20.4-11.1-24.3a153 153 0 0 0-20.5-35c-7-7-20.7-34.1-20.7-34.1Z"/>
  <path fill="#262626" fill-rule="evenodd" d="M6342.2 5373a25.7 25.7 0 0 1-17.2 17.8 22 22 0 0 1-14 .7 28.7 28.7 0 0 1-11.8-7.3 87 87 0 0 1-17.4-28 268.8 268.8 0 0 1-13-39.7l-.9-3.2a122 122 0 0 0-1.6-5.3c-1-1.7-1.5-4.2-1.8-6.8a146.6 146.6 0 0 1-.9-8.7c-.2-3-.5-6-1-8.5-.4-2.5-1-4.3-1.7-5.3-.6-.8-1.3-2.3-1.9-4l-2-6.8a372.6 372.6 0 0 1-8-36.6 203 203 0 0 1-1.5-10.5v-.3l-.2-.7-.8-2.4-3.1-7.6-9.7-21.3-1.2-2.5a1621.2 1621.2 0 0 1-12.4-27.5c-.8-2.1-1.5-3.9-1.7-5a131 131 0 0 0-4-9.7 519.4 519.4 0 0 0-14.4-28l-1.2-2.4a673.1 673.1 0 0 1-4.2-8 1318.3 1318.3 0 0 0-25.2-54.5 24 24 0 0 0-2-3.3 116.1 116.1 0 0 1-4.7-8 425.5 425.5 0 0 1-13.4-29l-.5-1-.2-.4 1.4-.6-1.4.6c-.2-.5-.1-1 .2-1.5a21 21 0 0 1 13.7-8.5 29 29 0 0 1 8-.3l-.2 1.5.2-1.5c.6 0 1 .4 1.2.9l3 6.8m-5.4-4.8 2.5 6c1.5 3.4 7 13.2 12.5 23.2l7.2 12.8 7 12.5a335 335 0 0 1 12.6 30 1746.6 1746.6 0 0 1 8 21l.2.6.3.8.2.5 1.4-.5-1.4.5v.2l1.4-.7-1.3.7.2.4.6 1.2a3270 3270 0 0 0 9.4 17c5.3 9.5 11.2 19.9 13.2 22.9 2 2.8 5.2 9.2 8 15a628.7 628.7 0 0 1 4.8 9.8l.3.6.1.2 14 34 1.4-.6-1.3.7.2.3a213.7 213.7 0 0 0 2 4 437 437 0 0 0 12.4 21.7c2.2 3.5 4.5 6.6 6.3 8.5 3.3 3.3 8 11 12.2 18.4a209.9 209.9 0 0 1 7.9 15.9c.3 1.2 1 2.4 1.8 3.5l.7 1a50.3 50.3 0 0 1 8.6 19.8c.9 3.8 3.1 9.3 5.7 15.6l1.3 3.4c3.2 7.8 6.6 16.7 8.7 25.4a49.5 49.5 0 0 1 1 24.1 22.7 22.7 0 0 1-15.5 15.8 19 19 0 0 1-12.1.6 26.4 26.4 0 0 1-10.6-6.6 84.3 84.3 0 0 1-16.7-27 266 266 0 0 1-12.8-39.3l-.9-3.2a127.6 127.6 0 0 0-1.9-6c-.6-1.1-1-3-1.5-5.7l-.7-7.4v-1.2l-1-8.7c-.5-2.6-1.2-5-2.4-6.6a101.8 101.8 0 0 1-3.4-9.8 370.3 370.3 0 0 1-8-36.3 198.8 198.8 0 0 1-1.7-11.9 174.1 174.1 0 0 0-4-10.3l-9.8-21.4-1.2-2.4-8.8-19.3a259.7 259.7 0 0 1-5-12.5 133 133 0 0 0-4.2-10.4 522.6 522.6 0 0 0-15.8-30.6 668.8 668.8 0 0 1-4-7.7 1303.3 1303.3 0 0 0-25.3-54.8 25 25 0 0 0-2.4-3.9 113.3 113.3 0 0 1-4.3-7.4 422.6 422.6 0 0 1-13.4-28.8l-.3-.6c3.2-4.1 7.6-5.9 11.4-6.6a26 26 0 0 1 6.2-.4Zm104 207.5.1.2.3.5a113.4 113.4 0 0 0 1.8 3.5 438.5 438.5 0 0 0 12.2 21.4 55 55 0 0 0 6 8.1c3.5 3.7 8.5 11.6 12.7 19a213.1 213.1 0 0 1 7.2 14.1l1 2.6c0 .6.5 1.3 1.3 2.4l.6 1c.7.8 1.4 2 2.3 3.2a54 54 0 0 1 6.9 17.7 118.5 118.5 0 0 0 6.8 18.6c3.2 7.8 6.6 16.9 8.8 25.8 2.1 8.9 3 17.9.9 25.6m-68.9-163.7-14-34-1.4.6 1.4-.6-.2-.3v-.2a98.5 98.5 0 0 1-1.4-2.8l-3.7-7.5a171 171 0 0 0-8.2-15.3 3151.5 3151.5 0 0 1-23-40.8" clip-rule="evenodd"/>
  <path fill="#CB8454" fill-rule="evenodd" d="M6337.8 5309.4a2.4 2.4 0 1 0-1-4.6l-16.2 4a2.4 2.4 0 1 0 1.1 4.5l16.1-3.9"/>
  <path fill="#262626" fill-rule="evenodd" d="M6338.1 5307a.9.9 0 0 0-1-.7l-16.1 3.9a.9.9 0 1 0 .4 1.7l16-4c.6 0 .8-.5.7-1Zm-1.7-3.6a3.9 3.9 0 1 1 1.8 7.5l-16.1 3.9a3.9 3.9 0 1 1-1.8-7.6l16-3.8" clip-rule="evenodd"/>
  <path fill="#CB8454" fill-rule="evenodd" d="M6343.1 5324a2.4 2.4 0 1 0-.6-4.7l-16.4 2.1a2.4 2.4 0 1 0 .6 4.7l16.4-2.2"/>
  <path fill="#262626" fill-rule="evenodd" d="M6343.7 5321.5c0-.5-.5-.8-1-.8l-16.4 2.2a.9.9 0 0 0 .2 1.7l16.4-2.1c.5-.1.8-.5.8-1Zm-1.4-3.7a3.9 3.9 0 1 1 1 7.6l-16.4 2.2a3.9 3.9 0 1 1-1-7.7l16.4-2.1" clip-rule="evenodd"/>
  <path fill="#CB8454" fill-rule="evenodd" d="M6354 5361.1a2.4 2.4 0 0 0-.5-4.7l-16.5 1.5a2.4 2.4 0 0 0 .4 4.8l16.5-1.6"/>
  <path fill="#262626" fill-rule="evenodd" d="M6354.6 5358.7c0-.5-.5-.8-1-.8l-16.5 1.5a.9.9 0 1 0 .2 1.8l16.5-1.6c.5 0 .8-.4.8-1Zm-1.2-3.8a3.9 3.9 0 0 1 .7 7.7l-16.5 1.6a3.9 3.9 0 0 1-.7-7.8l16.5-1.5" clip-rule="evenodd"/>
  <path fill="#CB8454" fill-rule="evenodd" d="M6297.2 5394.4a2.4 2.4 0 0 0 4.6 1l3.5-16.2a2.4 2.4 0 1 0-4.7-1l-3.4 16.2"/>
  <path fill="#262626" fill-rule="evenodd" d="M6299.3 5395.8c.5 0 1-.2 1-.7l3.5-16.2a.9.9 0 1 0-1.7-.4l-3.4 16.2c-.1.5.2 1 .6 1Zm4 0a3.9 3.9 0 0 1-7.6-1.7l3.5-16.2a3.9 3.9 0 0 1 7.5 1.6l-3.4 16.2" clip-rule="evenodd"/>
  <path fill="#CB8454" fill-rule="evenodd" d="M6282.5 5380.6a2.4 2.4 0 1 0 2.8 3.8l13.2-10.1a2.4 2.4 0 0 0-2.9-3.8l-13.1 10.1"/>
  <path fill="#262626" fill-rule="evenodd" d="M6283.2 5383c.3.4.8.5 1.2.2l13.2-10a.9.9 0 0 0-1-1.5l-13.2 10.1c-.4.3-.5.9-.2 1.2Zm3 2.6a3.9 3.9 0 1 1-4.7-6.2l13.2-10a3.9 3.9 0 1 1 4.7 6l-13.1 10.2" clip-rule="evenodd"/>
  <path fill="#CB8454" fill-rule="evenodd" d="M6270.7 5354.7a2.4 2.4 0 0 0 2.9 3.8l13.1-10.1a2.4 2.4 0 1 0-2.9-3.8l-13.1 10.1"/>
  <path fill="#262626" fill-rule="evenodd" d="M6271.4 5357.1c.3.4.9.5 1.2.2l13.2-10.1a.9.9 0 0 0-1-1.4l-13.2 10.1c-.4.3-.5.9-.2 1.2Zm3 2.6a3.9 3.9 0 1 1-4.6-6.2l13.1-10a3.9 3.9 0 0 1 4.7 6l-13.1 10.2" clip-rule="evenodd"/>
  <path fill="#CB8454" fill-rule="evenodd" d="M6162.4 5000.8s8.5 13.9 16.4 28.4c7.9 14.4 31 62.8 31 62.8"/>
  <path fill="#262626" fill-rule="evenodd" d="M6222.5 5121.6c-.8.3-1.7 0-2-.8l-12-28.2-.3-.5a2167.2 2167.2 0 0 0-12.3-25.5c-6.8-13.9-14.5-29.5-18.4-36.7a643.2 643.2 0 0 0-16.3-28.1l-.1-.2 1.3-.8 1.2-.8.1.2a248.5 248.5 0 0 1 5.2 8.6 505 505 0 0 1 11.2 19.6 1218.9 1218.9 0 0 1 27.3 55.1l2.7 5.7.8 1.6.2.5-1.3.7 1.3-.7 12.2 28.3c.3.8 0 1.7-.8 2Zm-60.1-120.8 1.2-.8a1.5 1.5 0 1 0-2.5 1.6l1.3-.8" clip-rule="evenodd"/>
  <path fill="#CB8454" fill-rule="evenodd" d="M6227.1 5132.7s14.5 15.7 15 21.2c.5 5.4 5.3 23.9 10.6 28"/>
  <path fill="#262626" fill-rule="evenodd" d="M6280.1 5234a1.5 1.5 0 0 1-2.7 1.1l1.4-.6 1.3-.6m-27.4-49.9c-.4-.5-.7-.9-1-1-1.5-1.2-3-3.4-4.2-5.8a80.8 80.8 0 0 1-7-23.2c0-.4-.2-1-.6-2l-1.7-3a85 85 0 0 0-10-12.8 174.4 174.4 0 0 0-2-2.4h-.2v-.1a1.5 1.5 0 1 1 2.2-2l-1.1 1 1.1-1 .2.1a160.7 160.7 0 0 1 12.4 15.7c.7 1.1 1.4 2.2 1.8 3.3.5 1 .9 2 1 3a78.3 78.3 0 0 0 6.6 22c1.2 2.4 2.4 4 3.4 4.8l1.5 1.6 1.5 2.3a420.3 420.3 0 0 1 12.5 24.6 1004 1004 0 0 1 10.1 22.7l.7 1.6.2.5-1.3.6-1.4.6-.2-.5a1477.8 1477.8 0 0 0-10.8-24.3 418.4 418.4 0 0 0-12.3-24.2l-1.4-2.1Z" clip-rule="evenodd"/>
  <path fill="#CB8454" fill-rule="evenodd" d="M6199.8 5088.5s21.5 54.7 29.6 61.3l-29.6-61.3"/>
  <path fill="#262626" fill-rule="evenodd" d="M6230.5 5150.7c-.5.7-1.4.8-2 .3-1.3-1-2.6-2.8-4-5a85.3 85.3 0 0 1-4.5-7.9c-3.1-6-6.6-13.6-9.8-20.8a838.4 838.4 0 0 1-11.8-28.1v-.2l1.3-.5-1.3.5a1.5 1.5 0 0 1 2.8-1l-1.3.5 1.3-.6v.2l.2.5a604.8 604.8 0 0 0 11.5 27.5c3.2 7.2 6.7 14.6 9.8 20.6 1.5 3 3 5.7 4.4 7.8 1.3 2 2.4 3.5 3.2 4.1.7.6.8 1.5.2 2.1Zm13.4 33.7c-.8.4-1.6 0-2-.8l-10.4-24.8a1.5 1.5 0 1 1 2.7-1.2l10.5 24.9c.3.7 0 1.6-.8 2Zm-73.1-156.4c-.7.4-1.6.1-2-.6l-12.4-24.1a1.5 1.5 0 0 1 2.7-1.4l12.4 24.1c.3.8 0 1.7-.7 2Z" clip-rule="evenodd"/>
</svg>
