<svg xmlns="http://www.w3.org/2000/svg" width="92" height="50" fill="none">
  <path d="M4.43 29.03c.58 0 1.1-.17 1.54-.52.44-.35.66-.79.66-1.3h1.58l.01.05c.03.82-.34 1.54-1.1 2.17a4.1 4.1 0 0 1-2.7.95c-1.4 0-2.46-.44-3.2-1.34A5.13 5.13 0 0 1 .1 25.66v-.37c0-1.34.37-2.46 1.11-3.37a3.93 3.93 0 0 1 3.2-1.35c.78 0 1.47.13 2.1.37.6.25 1.1.6 1.5 1.03v2.1h-1.4v-1.38s-.72-.86-2.2-.77c-.91.06-1.58.32-1.97.97a4.5 4.5 0 0 0-.6 2.4v.36c0 .97.2 1.77.6 2.42.39.64 1.05.96 1.97.96Zm10.59-8.18v1.33h-1.43v5.25l.05.02 4.18-6.6h3.16v1.33h-1.43v6.64h1.43v1.33h-4.59v-1.33h1.43v-5.25l-.05-.02-4.18 6.6h-3.15v-1.33h1.43v-6.64h-1.43v-1.33h4.58Zm8.23 1.33v-1.33h4.58v1.33H26.4v2.7h4.22v-2.7h-1.43v-1.33h4.59v1.33h-1.43v6.64h1.43v1.33h-4.6v-1.33h1.44V26.2H26.4v2.62h1.43v1.33h-4.58v-1.33h1.43v-6.64h-1.43Zm12.61 6.64h1.02l2.8-3.37-2.7-3.26h-1.03v-1.33h3.83v1.33h-.87l1.67 2.1 1.66-2.1h-.87v-1.33h3.88v1.33h-1.02l-2.7 3.26 2.78 3.37h1.02v1.33H41.5v-1.33h.86l-1.75-2.19-1.74 2.2h.85v1.32h-3.85v-1.33Zm12.67 3.56v-10.2H47.1v-1.33h2.91l.16 1.14a3.2 3.2 0 0 1 2.72-1.3c1.18 0 2.1.45 2.74 1.36.66.91.98 2.12.98 3.62v.18c0 1.34-.33 2.42-.98 3.24a3.28 3.28 0 0 1-2.71 1.24c-.59 0-1.1-.1-1.54-.3a2.9 2.9 0 0 1-1.13-.85v3.2h1.43v1.34H47.1v-1.34h1.43Zm6.35-6.71c0-1.06-.2-1.93-.63-2.6a2.06 2.06 0 0 0-1.87-1.01 2.33 2.33 0 0 0-2.12 1.22v4.53c.22.38.5.67.85.88.35.21.77.31 1.29.31.82 0 1.43-.29 1.86-.87a3.8 3.8 0 0 0 .62-2.28v-.18Zm3.82-.26c0-1.37.39-2.5 1.15-3.4a3.87 3.87 0 0 1 3.1-1.33 3.9 3.9 0 0 1 3.1 1.33 5.04 5.04 0 0 1 1.14 3.4v.19c0 1.38-.38 2.52-1.14 3.4a3.88 3.88 0 0 1-3.1 1.32 3.9 3.9 0 0 1-3.1-1.33 5.02 5.02 0 0 1-1.14-3.4v-.18Zm1.73.19c0 .98.22 1.8.64 2.44a2.1 2.1 0 0 0 1.88.96 2.1 2.1 0 0 0 1.87-.96 4.3 4.3 0 0 0 .64-2.44v-.19c0-.97-.21-1.79-.64-2.43a2.11 2.11 0 0 0-1.88-.97c-.84 0-1.46.32-1.88.97a4.36 4.36 0 0 0-.63 2.43v.19ZM.1 39.2v-1.32h4.58v1.33H3.25v2.69h4.21v-2.7H6.03v-1.32h4.6v1.33H9.18v6.64h1.43v1.32H6.03v-1.32h1.43v-2.63H3.25v2.63h1.43v1.32H.09v-1.32h1.43V39.2H.1Zm17.3-1.32v1.33h-1.43v5.25l.05.01 4.18-6.6h3.16v1.34h-1.43v6.64h1.43v1.32h-4.59v-1.32h1.43v-5.26l-.05-.02-4.18 6.6h-3.15v-1.32h1.43V39.2h-1.43v-1.33h4.58Zm12 3.86c.6 0 1.04-.12 1.3-.34.25-.23.39-.56.39-.99 0-.39-.15-.71-.45-.98-.3-.28-.75-.38-1.36-.4a3.84 3.84 0 0 0-2.08.66v1.45h-1.38v-2.06s.51-.46.88-.71a5.23 5.23 0 0 1 2.66-.74 4 4 0 0 1 2.52.79c.63.46.94 1.13.94 2 0 .41-.12.8-.38 1.15a2.6 2.6 0 0 1-1.08.82c.53.18.94.46 1.22.82.28.36.42.81.42 1.34 0 .87-.34 1.55-1.02 2.04a4.5 4.5 0 0 1-2.7.74 4.69 4.69 0 0 1-2.66-.73 2.3 2.3 0 0 1-1.06-2.13l.01-.05h1.64c0 .44.2.82.58 1.14.38.32.88.48 1.49.48.6 0 1.1-.14 1.45-.43.35-.28.52-.63.52-1.06 0-.5-.15-.86-.45-1.09-.3-.23-.77-.34-1.4-.34h-1.21v-1.38h1.2Zm11.9 5.49a12.3 12.3 0 0 1-.18-1.28c-.34.42-.75.76-1.25 1.04s-1.03.42-1.6.42a3.3 3.3 0 0 1-2.25-.7 2.57 2.57 0 0 1-.77-2c0-.86.36-1.56 1.09-2.04a5.38 5.38 0 0 1 2.99-.72h1.78v-1.08c0-.54-.18-.97-.53-1.3a2.1 2.1 0 0 0-1.46-.47c-.44 0-.82.06-1.15.17-.32.1-.77.26-.98.44v1.2h-1.33V38.9c.43-.33.95-.6 1.56-.8a6.3 6.3 0 0 1 2-.31c1.07 0 1.94.27 2.61.8.67.54 1 1.31 1 2.32v4.81c0 .11.01.09.02.2h1.23v1.32H41.3v-.02Zm-2.78-1.24c.57 0 1.1-.14 1.57-.41.47-.27.81-.6 1.02-.97v-1.53h-1.84c-.71 0-1.27.16-1.68.48-.41.32-.62.71-.62 1.17 0 .41.13.72.39.94.26.21.64.32 1.16.32Zm16.5-8.04v7.97h1.16V50h-1.7v-2.76H45.9v-1.32h1.43v-6.64H45.9v-1.33h4.59v1.33h-1.44v6.64h4.23v-6.64h-1.43v-1.33h3.16Zm1.43 0v1.33h-1.43v-1.33h1.43Zm6.65-.02v1.33h-1.43v5.25l.05.02 4.19-6.6h3.15v1.33h-1.43v6.64h1.43v1.33h-4.58V45.9h1.43v-5.25l-.06-.02-4.18 6.6h-3.15V45.9h1.43v-6.64h-1.43v-1.33h4.58Zm13.07 7.97h1.43v-2.28h-2.34l-2.24 3.6h-2.33V45.9h1.25l1.62-2.53c-.6-.2-1.07-.55-1.39-1a2.69 2.69 0 0 1-.48-1.6c0-.83.32-1.51.97-2.04.65-.53 1.53-.8 2.66-.8h5.44v1.33h-1.43v6.64h1.43v1.33h-4.59V45.9Zm-2.75-5.1c0 .4.15.76.43 1.05.3.3.72.44 1.3.44h2.45v-3.05h-2.28c-.62 0-1.1.16-1.42.46-.32.3-.48.67-.48 1.09ZM91.54 0H0v11.34h91.54V0Z" fill="#262626"/>
</svg>
