<svg fill="none" xmlns="http://www.w3.org/2000/svg" viewBox="0 0 175 175">
  <defs>
    <linearGradient x1="87.5" y1="0" x2="87.5" y2="173.7" id="b" gradientUnits="userSpaceOnUse">
      <stop stop-color="#FFF"/>
      <stop offset="1" stop-color="#F0F6F8"/>
    </linearGradient>
    <clipPath id="a">
      <path fill="#fff" fill-opacity="0" d="M0 0h175v175H0z"/>
    </clipPath>
  </defs>
  <g clip-path="url(#a)">
    <circle cx="87.5" cy="87.5" r="87.5" fill="url(#b)"/>
    <circle cx="87.5" cy="87.5" r="87.5"/>
    <path d="M39.6 86.57a4239.14 4239.14 0 0 1 51.03-21.98c24.3-10.11 29.35-11.86 32.64-11.92a5.8 5.8 0 0 1 3.39 1.02 3.7 3.7 0 0 1 1.25 2.37c.11.68.26 2.23.14 3.44-1.31 13.84-7.01 47.41-9.91 62.91-1.23 6.56-3.64 8.76-5.98 8.97-5.08.47-8.94-3.36-13.86-6.58-7.7-5.05-12.05-8.19-19.53-13.12-8.64-5.69-3.04-8.82 1.89-13.94 1.28-1.33 23.67-21.7 24.11-23.54.05-.24.1-1.1-.41-1.55-.51-.46-1.27-.3-1.81-.18-.77.18-13.08 8.31-36.91 24.4-3.49 2.4-6.66 3.56-9.49 3.5-3.12-.06-9.13-1.76-13.6-3.22-5.48-1.78-9.84-2.72-9.46-5.74.2-1.58 2.37-3.19 6.51-4.84Z" fill="#000" fill-rule="evenodd"/>
    <path d="M90.63 64.59c24.3-10.11 29.35-11.86 32.64-11.92a5.8 5.8 0 0 1 3.39 1.02 3.7 3.7 0 0 1 1.25 2.37c.11.68.26 2.23.14 3.44-1.31 13.84-7.01 47.41-9.91 62.91-1.23 6.56-3.64 8.76-5.98 8.97-5.08.47-8.94-3.36-13.86-6.58-7.7-5.05-12.05-8.19-19.53-13.12-8.64-5.69-3.04-8.82 1.89-13.94 1.28-1.33 23.67-21.7 24.11-23.54.05-.24.1-1.1-.41-1.55-.51-.46-1.27-.3-1.81-.18-.77.18-13.08 8.31-36.91 24.4-3.49 2.4-6.66 3.56-9.49 3.5-3.12-.06-9.13-1.76-13.6-3.22-5.48-1.78-9.84-2.72-9.46-5.74.2-1.58 2.37-3.19 6.51-4.84a4239.14 4239.14 0 0 1 51.03-21.98Z"/>
  </g>
</svg>
