<svg xmlns="http://www.w3.org/2000/svg" fill="none" viewBox="0 0 505 665"><g clip-path="url(#a)"><path d="M166.32 384.53c1.88-22.22-1.7-40.67-7.97-41.2-6.28-.52-12.88 17.06-14.76 39.28-1.87 22.22 1.7 40.66 7.98 41.2 6.27.52 12.88-17.06 14.75-39.28Z" fill="#F9DB03" stroke="#000" stroke-width="3" stroke-linecap="round" stroke-linejoin="round"/><path d="M160.26 352.89c.18-1.3-17.83-25.31-26.24-24.11-8.4 1.2-14.4 6-13.2 9.6 0 0-25.22-1.2-14.41 13.21 0 0-10.8 9.6 3.6 13.2a9 9 0 0 0-3.6 7.21c0 4.8 4.8 24.01 40.82 18.01s13.03-37.12 13.03-37.12Z" fill="#FFDDD1" stroke="#171717" stroke-width="3" stroke-linecap="round" stroke-linejoin="round"/><path d="M136.42 334.78s-1.2 8.4-15.6 3.6" stroke="#000" stroke-width="3" stroke-linecap="round" stroke-linejoin="round"/><path d="M130.31 339.86a9.76 9.76 0 0 1 1.31 4.53c0 2.4-25.21 7.2-25.21 7.2" stroke="#000" stroke-width="3" stroke-linecap="round" stroke-linejoin="round"/><path d="M110.01 364.8s28.81-6 30.02-13.2c1.2-7.21-12.24-5.11-12.24-5.11" stroke="#000" stroke-width="3" stroke-linecap="round" stroke-linejoin="round"/><path d="M113.61 373.2s4.8 1.2 13.2-2.4c8.41-3.6 21.62-7.2 20.42-12-1.2-4.8-16.8 0-16.8 0" stroke="#000" stroke-width="3" stroke-linecap="round" stroke-linejoin="round"/><path d="M117.21 382.8s25.33-3.74 20.42-16.27" stroke="#000" stroke-width="3" stroke-linecap="round" stroke-linejoin="round"/><path d="M182.05 444.04a182.8 182.8 0 0 1-32.42-20.41s3.6 2.15 9.02-10.94c5.41-13.09 7.79-62.3 2.99-67.1-4.8-4.8 1.57 0 1.57 0l50.05 20.4-31.21 78.05Z" fill="#F9DB03" stroke="#000" stroke-width="3" stroke-linecap="round" stroke-linejoin="round"/><path d="M163.21 403.55s6.83 59.7 23.64 62.1v6s-13.2 12-19.21 55.23c-6 43.22-57.63 276.13-57.63 375.78 0 99.65-18 117.66-3.6 123.67 14.4 6 90.04-4.81 112.85 6 22.82 10.8 26.42 20.41 66.04 19.21 39.62-1.2 124.86-15.61 129.66-36.02 4.8-20.4-12-356.58-27.61-422.6-15.6-66.04-46.82-136.88-46.82-136.88l52.82-187.3s-9.25-9.3-30.43-27.46a292.7 292.7 0 0 0-42.8-30.16h-73.24l-51.95 89.58-31.72 102.85Z" fill="#CB8454" stroke="#000" stroke-width="3" stroke-linecap="round" stroke-linejoin="round"/><path d="M252.88 208.97s-61.23 98.2-58.82 136.62c2.4 38.42-26.42 46.82-26.42 46.82s-13.2-32.42 6-70.83c19.21-38.42 79.24-112.6 79.24-112.6Z" fill="#F9DB03" stroke="#000" stroke-width="3" stroke-linecap="round" stroke-linejoin="round"/><path d="m256.48 221.93-7.2 67.23 40.82-21.61-2.4-57.63-31.22 12ZM251.68 221.93l-10.8 20.4-5.72-20.4h16.52Z" fill="#fff" stroke="#171717" stroke-width="3" stroke-linecap="round" stroke-linejoin="round"/><path d="M185.65 123.48s-7.2 16.8-3.6 27.61c3.6 10.8 7.2 22.81 7.2 22.81h6s2.4 32.42 7.2 31.22c4.81-1.2 12.01-6 12.01-6l8.4 18s-3.6 14.41 9.61 13.21c13.2-1.2 20.41-12 20.41-12l2.4 1.2s28.82-3.6 44.43-30.02c0 0-9.6-8.4-10.81-21.61-1.2-13.2-31.21-38.42-31.21-38.42l-72.04-6Z" fill="#FFDDD1" stroke="#171717" stroke-width="3" stroke-linecap="round" stroke-linejoin="round"/><path d="M188.05 139.09s-4.8 13.2-12 8.4c-7.2-4.8-5.92-28.14 7.2-30.02 8.4-1.2 4.8-7.2 15.6-10.8 7.21-2.4 0-7.2 15.61-8.4 15.61-1.2 3.6-6 36.02-3.6s38.42 68.43 38.42 68.43-10.8 9.6-15.6 9.6c-4.8 0-4.8-2.4-4.8-2.4a22.47 22.47 0 0 0 2.4-16.8c-2.4-9.61-7.21-13.21-15.61-10.81-8.41 2.4-1.2 13.2-1.2 13.2l-8.41 3.6s-19.21-38.41-57.63-20.4ZM240.37 215.03s-28.3-18.32-30.71-9.91c-2.4 8.4 8.4 8.4 8.4 8.4l22.31 1.51Z" fill="#9F4000" stroke="#171717" stroke-width="3" stroke-linecap="round" stroke-linejoin="round"/><path d="M186.85 465.65s88.84 12 133.27-6c44.42-18.01 2.4 12 2.4 12s-113.24 13.96-135.67 0c-9.6-6 0-6 0-6Z" fill="#F9DB03" stroke="#000" stroke-width="3" stroke-linecap="round" stroke-linejoin="round"/><path d="m246.36 775.34-2.8-297.03-8.13.3 3.9 297 7.03-.27Z" fill="#F9DB03" stroke="#000" stroke-width="3" stroke-linecap="round" stroke-linejoin="round"/><path d="m228.87 710.57 8.14-232.71h-8.14l-7.03 232.7h7.03Z" fill="#F9DB03" stroke="#000" stroke-width="3" stroke-linecap="round" stroke-linejoin="round"/><path d="M333.32 433.23s-18-166.88 28.82-169.28c46.82-2.4 44.89 24 53.66 57.05 8.78 33.04 18.84 113.37 0 150.07-18.83 36.7-125.7 90.57-125.7 90.57s-31.21-34.71-30.01-49.12c1.2-14.4 24-14.06 30.01-22.63a50.17 50.17 0 0 1 14.4-13.39l28.82-43.27Z" fill="#CB8454" stroke="#000" stroke-width="3" stroke-linecap="round" stroke-linejoin="round"/><path d="M335.68 536.27a278.37 278.37 0 0 1-45.63 25.32s-31.21-34.71-30.01-49.12c1.2-14.4 24.01-14.06 30.01-22.63a50.16 50.16 0 0 1 14.41-13.39s39.67 54.03 31.22 59.82Z" fill="#F9DB03" stroke="#000" stroke-width="3" stroke-linecap="round" stroke-linejoin="round"/><path d="M250.48 507.67s9.6 43.22 42.02 64.83" stroke="#000" stroke-width="3" stroke-linecap="round" stroke-linejoin="round"/><path d="M252.88 218.32v22.96s47.85-18.96 61.15-38.42l-13.12-15.75-1.2 2.4s-18.01 26.41-46.83 28.81Z" fill="#fff" stroke="#171717" stroke-width="3" stroke-linecap="round" stroke-linejoin="round"/><path d="M165.24 416.42s-14.72-1.58 6.45-42.81c21.16-41.23 141.22-175.7 141.22-175.7l-6.66-4.37 4.26-2.83 14.4 20.41s-14.4 86.44-57.62 121.26c-43.22 34.82-100.85 66.03-102.05 84.04Z" fill="#F9DB03" stroke="#000" stroke-width="3" stroke-linecap="round" stroke-linejoin="round"/><path d="M226.23 171.9c-14.65-8.86-22.81 5.63-22.81 5.63M223.83 164.7c-14.65-8.87-22.81 5.63-22.81 5.63" stroke="#171717" stroke-width="3" stroke-linecap="round" stroke-linejoin="round"/><path d="M214.48 177.5a3.41 3.41 0 1 0 0-6.81 3.41 3.41 0 0 0 0 6.81Z" fill="#171717"/></g><defs><clipPath id="a"><path fill="#fff" d="M0 0h505v665H0z"/></clipPath></defs></svg>