<svg fill="none" xmlns="http://www.w3.org/2000/svg" viewBox="0 0 175 175">
  <mask id="b" mask-type="alpha" maskUnits="userSpaceOnUse" x="0" y="0" width="175" height="175">
    <mask id="a" mask-type="alpha" maskUnits="userSpaceOnUse" x="0" y="0" width="175" height="175">
      <path fill="#000" d="M0 0h175v175H0z"/>
    </mask>
    <g mask="url(#a)">
      <path d="M12.3 12.3C0 24.6 0 44.4 0 84v7c0 39.59 0 59.39 12.3 71.69C24.6 175 44.4 175 84 175h7c39.59 0 59.39 0 71.69-12.31C175 150.39 175 130.59 175 91v-7c0-39.6 0-59.4-12.31-71.7C150.39 0 130.59 0 91 0h-7C44.4 0 24.6 0 12.3 12.3Zm17.23 40.92c.94 45.5 23.69 72.85 63.58 72.85h2.26v-26.03c14.66 1.46 25.74 12.17 30.19 26.03h20.71c-5.69-20.71-20.64-32.16-29.97-36.53 9.33-5.4 22.45-18.52 25.59-36.32h-18.81c-4.09 14.44-16.19 27.57-27.71 28.81V53.22H76.56v50.46c-11.67-2.91-26.4-17.06-27.05-50.46H29.53Z" fill="#FFF" fill-rule="evenodd"/>
    </g>
  </mask>
  <g mask="url(#b)">
    <circle cx="87.5" cy="87.5" r="87.5" fill="#FFF"/>
    <circle cx="87.5" cy="87.5" r="87.5"/>
  </g>
</svg>
