<svg xmlns="http://www.w3.org/2000/svg" fill="none" viewBox="0 0 505 665">
  <g clip-path="url(#a)">
    <path d="M194.7 224.2H307v176.3H168.6l26-176.3Z" fill="#fff"/>
    <path d="M336.3 593.5c0-37.4-5-221.4-5-230.9-72 7.1-180.4-10.2-185.2 5.4-2.6 8.8-9.6 68.7-16.6 134.3-1.6 14.7-24.4 22.5-26 37.3-.6 6.3 20.4 16 19.4 26-5.9 57-10.7 107.2-11.7 119.5C109 716 82 885.2 80.7 902.4a67 67 0 0 0 7.7 33c-8 5.8-24.2 20.2-24.2 32 0 14.8 1.7 12.5 24.2 13.6 18 1 51 27.7 65.1 40.9 8-6.6 3.4-21.7 0-28.4 13-5.4 13-46.8 16-76.4 1.8-18.2-1-39.4-.4-55.6.4-10 2.3-18.1 7.5-22.5 10.9-9 33.7-122.4 43.8-178 6.1 6.1 18.7 156.7 24.2 231.3l-8.3 24.8a26 26 0 0 1 8.3 29.6c-5.2 15.2-2.1 41 0 52.1.6-21.3 68.7-11.8 68.7-24.9 0-10.4-6.4-11.8-9.5-11.2 3.1-2.2 9.5-15.7 9.5-52.7V790.5c0-32.5 23-150.3 23-197Z" fill="#4979CB"/>
    <path d="M236.3 917.1a26 26 0 0 1 8.3 29.6c-5.2 15.2-2.1 41 0 52.1.6-21.3 68.7-11.8 68.7-24.9 0-10.4-6.4-11.8-9.5-11.2 3.1-2.2 9.5-15.7 9.5-52.7V790.5c0-32.5 23-150.3 23-197 0-37.4-5-221.4-5-230.9-72 7.1-180.4-10.2-185.2 5.4-2.6 8.8-9.6 68.7-16.6 134.3-1.6 14.7-24.4 22.5-26 37.3-.6 6.3 20.4 16 19.4 26-5.9 57-10.7 107.2-11.7 119.5C109 716 82 885.2 80.7 902.4a67 67 0 0 0 7.7 33c-8 5.8-24.2 20.2-24.2 32 0 14.8 1.7 12.5 24.2 13.6 18 1 51 27.7 65.1 40.9 8-6.6 3.4-21.7 0-28.4 13-5.4 13-46.8 16-76.4 1.8-18.2-1-39.4-.4-55.6m67.2 55.6 8.3-24.8c-5.5-74.6-18-225.2-24.2-231.3-10 55.6-33 169-43.8 178-5.2 4.4-7 12.5-7.5 22.5m67.2 55.6c13.8 3.2 41.1 15 39.7 36.7-1.2 16.6-22.5 13.6-25.5 24.9m-81-181-.4 63.8" stroke="#262626" stroke-width="3" stroke-linecap="round" stroke-linejoin="round"/>
    <path d="M277.5 719.4 372.2 600l11.8-8.3 4.7 73.4L287 796.3l-9.5-76.9Z" fill="#fff" stroke="#262626" stroke-width="3" stroke-linecap="round" stroke-linejoin="round"/>
    <path d="M278.7 726.5 373.3 607l11.9-8.3 4.7 73.4-101.8 131.3-9.4-76.9Z" fill="#FF4800" stroke="#262626" stroke-width="3" stroke-linecap="round" stroke-linejoin="round"/>
    <path d="M363.9 649.3c-.7.6-1.5.9-2.4.9-5 0-6-14.6-5.5-29.6-1.7-3.1-5.1-11-5.1-17.1 0-6.2 3.5-15.6 5.3-19.6l9.5-10 39 14.2c-4.7 36-13.2 42.6-16.8 41.4a29.4 29.4 0 0 1-11.5 14.2 16.7 16.7 0 0 1-4.8 7c-4.9 3.7-7.3 0-7.7-1.4Z" fill="#FFDDD1"/>
    <path d="M357.4 598.7c-.6 6-1.2 14-1.4 22m15-7.8c0 11-1.5 31.8-7.1 36.4m0 0c-.7.6-1.5.9-2.4.9-5 0-6-14.6-5.5-29.6m7.9 28.7c.4 1.5 2.8 5.1 7.7 1.5 1.9-1.5 3.5-4 4.8-7.1m6.4-30.8c-1.4 9.4-3 22.4-6.4 30.8m0 0a30 30 0 0 0 11.5-14.2m4.4-16.6a57.4 57.4 0 0 1-4.4 16.6m0 0c3.6 1.2 12-5.5 16.8-41.4l-39-14.2-9.5 10c-1.8 4-5.3 13.4-5.3 19.6 0 6.1 3.4 14 5 17.1" stroke="#262626" stroke-width="3" stroke-linecap="round" stroke-linejoin="round"/>
    <path d="m203 312.4-4.8-53.3 4.7-37.9c-15.3 3.4-50.4 13.5-67.4 27.3-17 13.7-33.5 62.5-39.6 85.2L86.4 356l4.1 11.3-11.2 27.8v17.7l-8.9 22 5.3 29.5-5.3 16 5.3 24.8L90.5 520c2.6-9.4 11.6-27.5 27.2-24.8l17.2 10 68-192.8Z" fill="#4979CB"/>
    <path d="m117.7 495.2 17.2 10 68-192.8-4.7-53.3 4.7-37.9c-15.3 3.4-50.4 13.5-67.4 27.3-17 13.7-33.5 62.5-39.6 85.2L86.4 356l4.1 11.3-11.2 27.8v17.7l-8.9 22 5.3 29.5m42 30.8 24.9-49.1m-24.9 49 6.6-62m-6.6 62c-15.6-2.6-24.6 15.5-27.2 25l-14.8-14.9-5.3-24.8 5.3-16m48.6-31.3 33-106.5m-33 106.5V302.3l21.8-40.2M75.7 464.4c13.4-10.8 38.6-33.8 32-39-6.6-5.2-21.7-2.2-28.4 0l32.5-27.3-21.3-10.6c11-2 32-8.8 27.2-20.1" stroke="#262626" stroke-width="3" stroke-linecap="round" stroke-linejoin="round"/>
    <path d="M129.6 293.4c-7.1-6.6-7.3-22.5-6.5-29.6 13.7-25 61.3-39.6 83.4-43.7l-10 25.4 6.4 66.9-4.1 10.6c-10.4-10-53.6-17.5-74-20.1l4.8-9.5Z" fill="#FFA800"/>
    <path d="m117.7 495.2 17.2 10 68-192.8-4.7-53.3 4.7-37.9c-15.3 3.4-50.4 13.5-67.4 27.3-17 13.7-33.5 62.5-39.6 85.2L86.4 356l4.1 11.3-11.2 27.8v17.7l-8.9 22 5.3 29.5-5.3 16 5.3 24.8L90.5 520c2.6-9.4 11.6-27.5 27.2-24.8Zm0 0 24.9-49.1m-24.9 49 6.6-62m0 0 33-106.5m-33 106.5V302.3l21.8-40.2" stroke="#262626" stroke-width="3" stroke-linecap="round" stroke-linejoin="round"/>
    <path d="m224.2 311.8 49.2-52.7 43.1-29.6c23 12 69.5 38.2 72.8 46.8 3.3 8.5 15.2 51.6 20.7 72.1l12.5 39.1c6.5 16.6 15.6 56.3 0 82.8v37.9L410 536.6c4.6 5.5 12.8 19.2 9.5 29.6-3.3 10.4-7.7 13-9.5 13l-5.3 17.8c-9.9-7.5-33.2-20.6-48-13l3-25.5-6.5-25.5-12.4 20.8-2.4 21.3-133.7-9 19.5-254.3Z" fill="#4979CB"/>
    <path d="m353.2 533-12.4 20.8-2.4 21.3-133.7-9 19.5-254.3 49.2-52.7 43.1-29.6c23 12 69.5 38.2 72.8 46.8 3.3 8.5 15.2 51.6 20.7 72.1l12.5 39.1c6.5 16.6 15.6 56.3 0 82.8v37.9L410 536.6c4.6 5.5 12.8 19.2 9.5 29.6-3.3 10.4-7.7 13-9.5 13M353.2 533l3.6-46.7-5.3-59.2-22-140.2M353.3 533l6.5 25.5-3 25.4c14.8-7.5 38.1 5.6 48 13l5.3-17.7M353.2 533c3-6.7 14.3-20 36.1-19.5 27.2.6 4.8-33.1-20.7-34.9l43.8-27.8-49.1-9.5M410 579.2c-4-5-16.4-15-34.9-16" stroke="#262626" stroke-width="3" stroke-linecap="round" stroke-linejoin="round"/>
    <path d="M324.2 234.3 300 221.8l-22.5 31.4-50.3 54.4-2.4 6c29.9-5.3 86.6 6.4 111.3 13l52-51.5-4.1-4.8-36-23.6-23.8-12.4Z" fill="#FFA800"/>
    <path d="M319.2 100.8c6 5.8 5.4 10.1 4.4 11.6-8.2 5.9-31.9 13-62.7 13-30.7 0-53.8-13-62-19.8 1.4-5.3 3.8-9.5 4.9-11A60.6 60.6 0 0 1 266.5 39c36.7 0 50.5 41.2 52.7 61.8Z" fill="#FF4800"/>
    <path d="M198.8 105.6c7-4.8 30-14.6 65.2-14.6s54.4 14.2 59.6 21.4m-124.8-6.8c1.5-5.3 4-9.5 5-11A60.6 60.6 0 0 1 266.5 39c36.7 0 50.5 41.2 52.7 61.8 6 5.8 5.4 10.1 4.4 11.6m-124.8-6.8c8.3 6.8 31.4 19.8 62.1 19.8 30.8 0 54.5-7.1 62.7-13" stroke="#262626" stroke-width="3" stroke-linecap="round" stroke-linejoin="round"/>
    <path d="M305 128.4s4.4-15.5 3.4-25.4a38.3 38.3 0 0 0-5-18.7c-11-18.6-32.6-26-54.7-20.3-13.5 3.4-21.2 11.5-29.4 20.3-7.9 8.5-6.7 28.8-6.7 28.8-2.2.9-6.9 5-7.6 14.5a43.4 43.4 0 0 0 8.4 24.6c-.2 2-.8 6.4-.8 8.5 0 2 4.5 11.6 6.7 16.1l-5.9 49.8s18.9 9.5 32 11.3c17.9 2.5 45.7-6.6 45.7-6.6l8.9-70.6c14.3-.9 18.5-32.3 15.1-34.8-2.7-2-7.8.8-10 2.5Z" fill="#FFDDD1" stroke="#262626" stroke-width="3" stroke-linejoin="round"/>
    <path d="M261.8 123.1c3.3-3 13.1-7 25.4 0m-17.7 45.6a49.8 49.8 0 0 1-20.1 4.1c-9.5 0-15-4.7-16.6-7m37.2 28.9a49.8 49.8 0 0 1-20 4.2c-9.5 0-15-4.8-16.6-7.1m-10.8-61.4c12-12 23.2 0 23.2 0m18.8 4c12-12 23.2 0 23.2 0" stroke="#262626" stroke-width="3" stroke-linecap="round" stroke-linejoin="round"/>
    <path d="M234.4 133a3.4 3.4 0 1 1 0-6.7 3.4 3.4 0 0 1 0 6.8Zm42 4a3.4 3.4 0 1 1 0-6.7 3.4 3.4 0 0 1 0 6.7Z" fill="#262626"/>
    <path d="m210.3 122 1.8 11.2-4.7 5.9m104.1-8.9-9.5 13 4.8 6m-35 8.2 6 19m-46.2-21.9-7 17.1m3.2-57.5 23 3-4.7 36.7h13.6" stroke="#262626" stroke-width="3" stroke-linecap="round" stroke-linejoin="round"/>
    <path d="M323.6 112.4C318.4 105.2 299.2 91 264 91c-5.7 0-11 .2-16 .7-26.2 2.3-43.3 9.8-49.2 14 1.5-5.4 4-9.6 5-11A60.4 60.4 0 0 1 266.5 39h2.7c34.7 2 47.8 41.7 50 61.8 6 5.8 5.4 10.1 4.4 11.6Z" fill="#FFA800"/>
    <path d="M264 91c35.2 0 54.4 14.2 59.6 21.4 1-1.5 1.6-5.8-4.4-11.6M264 91c-5.7 0-11 .2-16 .7m16-.7c-3.2-8.6 2.1-38.2 5.2-52m50 61.8C317 80.7 304 41 269.2 39m50 61.7c-12.5-11.5-53.2-28.9-115.4-6.2m0 0c-1 1.5-3.5 5.7-5 11 6-4 23-11.6 49.1-14m-44.1 3a60.4 60.4 0 0 1 53.6-55m0 0a77.3 77.3 0 0 1 11.8-.5m-11.8.4c-4 10.5-11.4 35.6-9.5 52.2M353.2 533l-12.4 20.8-2.4 21.3-133.7-9 19.5-254.3 49.2-52.7 43.1-29.6c23 12 69.5 38.2 72.8 46.8 3.3 8.5 15.2 51.6 20.7 72.1l12.5 39.1c6.5 16.6 15.6 56.3 0 82.8v37.9L410 536.6c4.6 5.5 12.8 19.2 9.5 29.6-3.3 10.4-7.7 13-9.5 13l-5.3 17.8c-9.9-7.5-33.2-20.6-48-13l3-25.5-6.5-25.5Zm0 0 3.6-46.7-5.3-59.2-22-140.2" stroke="#262626" stroke-width="3" stroke-linecap="round" stroke-linejoin="round"/>
    <path d="m273.4 259.1 21.3-58 20.7 29 5.9 36.7-48-7.7Zm-75.2-.6 17.2-48.5-54.5 45 37.3 3.5Z" fill="#4979CB" stroke="#262626" stroke-width="3" stroke-linecap="round" stroke-linejoin="round"/>
    <path d="m104.1 540.1-13-23c2.4-9.1 10.8-26.2 25.5-22 18.3 5.4 36 30.8 31.3 33.8-3.8 2.4-16.5-8-22.5-13.6l-21.3 24.9Z" fill="#FFDDD1" stroke="#262626" stroke-width="3" stroke-linecap="round" stroke-linejoin="round"/>
    <path d="m273.4 259.1 10.6 30.8-59.2 22.5m-26.6-53.3L177 270.9l26 41.5" stroke="#262626" stroke-width="3" stroke-linecap="round" stroke-linejoin="round"/>
    <path d="M177.5 389.3h40.2" stroke="#262626" stroke-width="3" stroke-linecap="square" stroke-linejoin="round"/>
  </g>
  <defs>
    <clipPath id="a">
      <path fill="#fff" d="M0 0h505v665H0z"/>
    </clipPath>
  </defs>
</svg>
