<svg fill="none" xmlns="http://www.w3.org/2000/svg" viewBox="0 0 168 168">
  <defs>
    <clipPath id="a">
      <path transform="translate(20 40)" fill="#fff" fill-opacity="0" d="M0 0h128v88H0z"/>
    </clipPath>
  </defs>
  <circle cx="84" cy="84" r="84" fill="#FFF"/>
  <g clip-path="url(#a)">
    <path d="M83.93 128s40.1 0 50.04-2.64c5.6-1.5 9.81-5.81 11.29-11.14C148 104.46 148 83.91 148 83.91s0-20.42-2.74-30.1a15.67 15.67 0 0 0-11.29-11.13C124.03 40 83.93 40 83.93 40s-40.01 0-49.91 2.68a16.1 16.1 0 0 0-11.38 11.13C20 63.49 20 83.91 20 83.91s0 20.55 2.64 30.31a16.42 16.42 0 0 0 11.38 11.14C43.92 128 83.93 128 83.93 128Z" fill="#111113"/>
    <path d="M103.86 84 70.75 65.3v37.4L103.86 84Z" fill="#FFF"/>
  </g>
</svg>
