<svg xmlns="http://www.w3.org/2000/svg" width="93" height="65" fill="none">
  <path d="M14.77 58.77c.46 0 .9.1 1.3.32v.83a2.13 2.13 0 0 0-1.17-.34c-.75 0-1.5.39-1.5 1.35 0 .97.73 1.35 1.48 1.35.43 0 .86-.1 1.23-.31v.84c-.43.2-.91.3-1.4.28-1.12 0-2.26-.66-2.26-2.12 0-1.53 1.2-2.21 2.33-2.21m4.23.01c1.18 0 2.27.75 2.27 2.16 0 1.42-1.1 2.17-2.27 2.17s-2.27-.75-2.27-2.17c0-1.41 1.1-2.16 2.27-2.16Zm0 .84c-.27 0-.54.07-.77.2-.22.15-.4.35-.51.6a1.3 1.3 0 0 0 .27 1.45 1.37 1.37 0 0 0 1.49.3c.25-.1.46-.27.61-.49.16-.21.24-.47.24-.74a1.2 1.2 0 0 0-.36-.95 1.28 1.28 0 0 0-.97-.37Zm5.34-.84a1.68 1.68 0 0 1 1.25.46 1.6 1.6 0 0 1 .49 1.22v2.52h-.94v-2.42a.87.87 0 0 0-.25-.7.92.92 0 0 0-.73-.28 1.5 1.5 0 0 0-1.17.69v2.71h-.94v-4.1h.83v.57a1.94 1.94 0 0 1 1.47-.68m4.29.01c.53 0 1.05.12 1.52.35v.8a3.07 3.07 0 0 0-1.46-.4c-.37 0-.78.12-.78.45 0 .8 2.54.43 2.54 1.92 0 .9-.86 1.2-1.82 1.2A3.36 3.36 0 0 1 27 62.7v-.8a3.2 3.2 0 0 0 1.62.43c.53 0 .92-.09.92-.42 0-.76-2.55-.45-2.55-1.92 0-.9.84-1.22 1.68-1.22m6.67.11v4.1h-.84v-.56a1.94 1.94 0 0 1-1.47.67 1.67 1.67 0 0 1-1.26-.45 1.57 1.57 0 0 1-.48-1.22V58.9h.94v2.4c0 .66.36.97.98.97a1.51 1.51 0 0 0 1.19-.66v-2.72h.94Zm2.06-2.13h-.95v6.23h.95v-6.23Zm2.57.67v1.46h1.53v.8h-1.53v1.9c0 .53.25.71.8.71.29 0 .58-.05.85-.16v.79c-.36.12-.75.18-1.13.18-.82 0-1.45-.4-1.45-1.35v-2.06h-.76v-.8h.76v-1.24l.93-.23Zm6.96 1.35a1.68 1.68 0 0 1 1.26.46 1.6 1.6 0 0 1 .48 1.22v2.54h-.95v-2.42a.87.87 0 0 0-.25-.71.92.92 0 0 0-.72-.28 1.5 1.5 0 0 0-1.18.69v2.72h-.94v-4.1h.82v.56a1.94 1.94 0 0 1 1.47-.68m4.72 0a2.03 2.03 0 0 1 1.62.76v-.64h.84v4.04c0 1.48-1.16 2.05-2.36 2.05-.6 0-1.2-.13-1.75-.39v-.84c.5.28 1.06.42 1.63.42.83 0 1.54-.29 1.54-1.21v-.52a1.94 1.94 0 0 1-1.52.66c-1.27 0-2.09-.99-2.09-2.17 0-1.17.82-2.16 2.1-2.16m.16.8c-.36.03-.69.18-.93.43a1.34 1.34 0 0 0 0 1.86c.24.26.57.41.93.43.28 0 .55-.07.8-.2.23-.15.42-.36.54-.6v-1.06a1.4 1.4 0 0 0-.54-.62 1.5 1.5 0 0 0-.8-.23Zm7.37-.8a2.02 2.02 0 0 1 1.62.75v-.63h.84v4.04c0 1.48-1.15 2.05-2.36 2.05-.6 0-1.2-.13-1.74-.39v-.84c.5.28 1.05.42 1.62.42.84 0 1.55-.29 1.55-1.21v-.52a1.92 1.92 0 0 1-1.52.66c-1.28 0-2.1-.99-2.1-2.17s.82-2.16 2.1-2.16m.16.8c-.35.03-.68.18-.92.43a1.34 1.34 0 0 0 0 1.86c.24.26.57.41.92.43a1.46 1.46 0 0 0 1.35-.8v-1.06c-.12-.25-.3-.47-.54-.62a1.5 1.5 0 0 0-.8-.23Zm6.02-.77v.9a1.55 1.55 0 0 0-.98.12c-.3.14-.54.38-.69.68v2.49h-.94v-4.1h.83v.67a1.93 1.93 0 0 1 1.77-.76m2.82-.03c1.19 0 2.27.75 2.27 2.16 0 1.42-1.1 2.17-2.27 2.17-1.18 0-2.27-.75-2.27-2.17 0-1.41 1.1-2.16 2.27-2.16Zm0 .84c-.27 0-.54.07-.77.2-.23.15-.4.35-.52.6a1.29 1.29 0 0 0 .28 1.45 1.37 1.37 0 0 0 1.49.3 1.34 1.34 0 0 0 .84-1.23 1.2 1.2 0 0 0-.35-.95 1.28 1.28 0 0 0-.97-.37Zm7.15-.73v4.1h-.83v-.56a1.92 1.92 0 0 1-1.47.67 1.66 1.66 0 0 1-1.26-.45 1.57 1.57 0 0 1-.48-1.22V58.9h.94v2.4c0 .66.36.97.97.97a1.51 1.51 0 0 0 1.18-.68v-2.71h.95Zm3.56-.11c1.26 0 2.09.98 2.09 2.16 0 1.18-.83 2.17-2.1 2.17a2 2 0 0 1-1.51-.63v2.4h-.94v-5.99h.83v.64a2 2 0 0 1 1.62-.76m-.17.8c-.29 0-.57.09-.8.24-.25.15-.43.37-.55.62v1a1.43 1.43 0 0 0 1.34.86c.36-.02.7-.17.93-.43a1.34 1.34 0 0 0 0-1.86c-.24-.25-.57-.4-.92-.42Zm-36.13-.66h.93V63h-.94l.01-4.1Zm1.05-1.33a.57.57 0 0 1-.35.51.59.59 0 0 1-.63-.12.55.55 0 0 1-.12-.6.5.5 0 0 1 .2-.25.58.58 0 0 1 .73.06c.1.1.17.25.17.4ZM14.18 41.9h-1.56v10.34h1.56V41.9Zm3.57 0H16.2v10.34h1.56V41.9Zm2.01 10.34v-6.8h1.56v6.8h-1.56Zm1.73-9.02a.9.9 0 0 1-.16.51.98.98 0 0 1-1.46.14.92.92 0 0 1-.2-1 .9.9 0 0 1 .35-.42.97.97 0 0 1 1.2.12c.17.17.27.4.27.65Zm8.28 7.94c.16 0 .32-.03.46-.08v1.09c-.3.11-.64.17-.97.17-.29.02-.58-.04-.83-.18a1.37 1.37 0 0 1-.57-.62c-.74.6-1.67.9-2.63.88-1.27 0-2.45-.68-2.45-2.08 0-1.74 1.66-2.28 3.12-2.28.61.01 1.22.08 1.82.2v-.24c0-.85-.65-1.44-1.84-1.44a6.4 6.4 0 0 0-2.52.52v-1.4a8.83 8.83 0 0 1 2.68-.45c1.98 0 3.24.92 3.24 2.97v2.44a.43.43 0 0 0 .13.37.45.45 0 0 0 .38.12m-5.42-.9c0 .66.61 1 1.3 1a2.9 2.9 0 0 0 2.03-.8V49.3c-.5-.1-1.01-.16-1.52-.17-.89 0-1.82.27-1.82 1.12m10.77-4.99c1.77 0 2.88 1.16 2.88 2.77v4.2h-1.55v-4c0-1.1-.7-1.63-1.62-1.63a2.51 2.51 0 0 0-1.95 1.14v4.5h-1.56v-6.8h1.39v.95a3.18 3.18 0 0 1 2.43-1.12m7.9-.01c.76-.02 1.5.16 2.16.52v1.4a3.49 3.49 0 0 0-1.95-.58c-1.24 0-2.49.63-2.49 2.24 0 1.54 1.21 2.24 2.46 2.24.72 0 1.42-.19 2.04-.53v1.4a5.1 5.1 0 0 1-2.31.47c-1.87 0-3.77-1.1-3.77-3.52 0-2.52 1.99-3.64 3.85-3.64m6.79 0c2.78 0 3.74 2.18 3.29 4.15h-5.26c.18 1.21 1.4 1.72 2.68 1.72.77 0 1.52-.16 2.21-.48v1.3a5.8 5.8 0 0 1-2.5.47c-2.14 0-3.96-1.19-3.96-3.58a3.46 3.46 0 0 1 3.54-3.58Zm.07 1.26c-1.05 0-2 .6-2.05 1.76h3.87c.09-.6-.3-1.76-1.82-1.76Zm9.39-4.19v8.4h5.16l-1.17 1.5h-5.65v-9.9h1.66Zm9.51 2.93c2.78 0 3.75 2.18 3.3 4.15h-5.26c.17 1.21 1.4 1.72 2.68 1.72.76 0 1.52-.16 2.21-.48v1.3a6.1 6.1 0 0 1-2.5.47c-2.14 0-3.96-1.19-3.96-3.58a3.46 3.46 0 0 1 3.53-3.58Zm.08 1.26c-1.05 0-2 .6-2.06 1.76h3.88c.09-.6-.3-1.76-1.82-1.76Zm7.83-1.26a3.36 3.36 0 0 1 2.69 1.26v-1.06h1.4v6.69c0 2.45-1.92 3.39-3.91 3.39-1 .01-2-.2-2.89-.63v-1.4c.82.47 1.74.7 2.68.7 1.39 0 2.56-.48 2.56-2v-.87a3.2 3.2 0 0 1-2.52 1.1c-2.1 0-3.46-1.64-3.46-3.6 0-1.95 1.36-3.58 3.46-3.58M77 46.6c-1.25 0-2.17.92-2.17 2.25s.92 2.25 2.17 2.25c.47 0 .92-.12 1.31-.35.4-.24.72-.58.92-.98v-1.76A2.42 2.42 0 0 0 77 46.6Zm11.98 4.56c.16 0 .31-.03.46-.08v1.09a2.8 2.8 0 0 1-.99.17c-.29.02-.58-.04-.83-.18a1.37 1.37 0 0 1-.57-.62c-.74.6-1.68.9-2.63.88-1.27 0-2.45-.68-2.45-2.08 0-1.74 1.66-2.28 3.12-2.28.6.01 1.22.08 1.82.2v-.24c0-.85-.65-1.44-1.84-1.44a6.4 6.4 0 0 0-2.52.52v-1.4a8.83 8.83 0 0 1 2.68-.45c1.98 0 3.24.92 3.24 2.97v2.44a.43.43 0 0 0 .13.37.45.45 0 0 0 .38.12m-5.4-.9c0 .66.6 1 1.29 1a2.9 2.9 0 0 0 2.02-.8V49.3c-.5-.1-1-.16-1.51-.17-.89 0-1.82.27-1.82 1.12m8.54-8.35h-1.55v10.34h1.56V41.9Zm-83.22 0L.78 52.24h1.87l1.67-2.14h4.74v2.14h1.56V41.9H8.88Zm.17 6.78H5.43l3.62-4.63v4.63Zm45.3-15.86V0L25.71 36.57h4.88l19.9-25.42v25.42h19.4l2.94-3.75H54.35Z" fill="#262626"/>
</svg>
