<svg xmlns="http://www.w3.org/2000/svg" viewBox="5980.5 4914.2 194.9 284">
  <path fill="#FF4800" fill-rule="evenodd" d="M6003.1 5033.6s20.6-113.6 64.8-116.8c44.2-3.2 79.7 95.6 79.7 95.6l-144.5 21.2" class="st0"/>
  <path fill="#262626" fill-rule="evenodd" d="M6003.1 5035c-.4 0-.8-.1-1-.4-.4-.3-.6-.8-.5-1.3 1-4.7 21.4-114.8 66.2-118 44.8-3.2 79.7 92.5 81.2 96.5.2.4.1.9 0 1.3-.3.4-.7.6-1.2.7l-144.5 21.3h-.2Zm67-116.7h-2c-39.4 2.9-60 98.2-63.2 113.5l140.6-20.6c-4.9-12.8-37-93-75.5-93Z" class="st1"/>
  <path fill="#CB8454" fill-rule="evenodd" d="m6083.2 5030.6-59.5 22.2s-30.8 37.3-17 70.5c13.6 33.3 30.6 7.4 30.6 7.4s1.7 64.9 61.2 64.9 39-82.6 39-82.6 25.6.9 22.2-23.2c-3.4-24.1-32.4-59.4-32.4-59.4h-44v.2" class="st2"/>
  <path fill="#262626" fill-rule="evenodd" d="M6098.5 5197.2a56.7 56.7 0 0 1-54.3-33.3 89 89 0 0 1-8-29.2c-3 3.2-8.2 7.6-14.3 7-6.4-.5-12-6.5-16.7-17.8-13.9-33.7 16.1-70.5 17.3-72 .2-.2.4-.4.6-.4l59.5-22.3.5-.1h44.1c.4 0 1 .2 1.2.5 1.2 1.5 29.3 35.9 32.7 60 1 7.5-.4 13.4-4.3 17.7-5.4 6-13.8 7-17.6 7.3 2 8.9 9 46.9-7.7 68.3-7.4 9.5-18.5 14.3-33 14.3Zm-61.2-68c.1 0 .3 0 .4.2.6.2 1.1.7 1.1 1.4 0 .2.5 16.2 8.2 31.9a53.2 53.2 0 0 0 51.5 31.5c13.5 0 23.8-4.4 30.7-13.2 17.7-22.6 7-67.1 6.8-67.5 0-.5 0-1 .3-1.3.3-.4.7-.6 1.2-.6.1 0 11.2.3 17.2-6.3 3.3-3.6 4.4-8.7 3.5-15.1-3-21.8-28-53.5-31.6-58.1h-43l-58.9 22c-2.8 3.6-29.2 38.2-16.6 68.7 4.2 10 9 15.5 14.2 16 7.5.7 13.8-8.8 14-8.8 0-.5.5-.7 1-.7Z" class="st1"/>
  <path fill="#FFDFD4" fill-rule="evenodd" d="M6129.1 5058.4s-32.3-7.4-34-16.7c0 0-28.9 20.4-42.5 24 0 0-11.9 81.7 42.5 78 54.4-3.6 34-85.3 34-85.3Z" class="st3"/>
  <path fill="#262626" fill-rule="evenodd" d="M6091.6 5145.4a35 35 0 0 1-27-11.1c-20-21.6-13.7-66.8-13.4-68.7.1-.6.5-1.1 1.1-1.2 13.2-3.6 41.7-23.7 42-24 .4-.2 1-.3 1.4-.1.5.2.8.6 1 1 1 6 20.6 12.8 32.8 15.6.5 0 1 .6 1.1 1 .5 2 11.6 47.6-6.4 72.3a37.2 37.2 0 0 1-29 15l-3.6.2ZM6054 5067c-.8 6.6-4.7 46.4 12.8 65.3a33.6 33.6 0 0 0 28.2 10 34.2 34.2 0 0 0 26.8-13.8c15.8-21.7 7.5-62.3 6.1-68.8-5.6-1.3-28.7-7.3-33.4-15.6-6.2 4.2-28.3 19-40.5 22.9Z" class="st1"/>
  <path fill="#262626" fill-rule="evenodd" d="M6057.8 5067.8c-.8 0-1.4-.6-1.5-1.4 0-.8.6-1.5 1.4-1.6l28.8-2.3c.8-.1 1.5.5 1.6 1.4.1.9-.6 1.5-1.4 1.6l-28.7 2.3h-.2Zm29.2 12.5c-.4 0-.8-.2-1-.5-4.3-4.6-8.8-7-13.5-6.8-7.8 0-13.7 6.7-13.7 6.8-.5.6-1.5.7-2 0-.7-.4-.8-1.4-.3-2 .3-.3 6.8-7.7 16-7.8h.1c5.5 0 10.7 2.6 15.4 7.8.6.6.5 1.6 0 2-.3.4-.6.5-1 .5Z" class="st1"/>
  <path fill="#262626" fill-rule="evenodd" d="M6072.1 5082.5c2.3 0 4.2-2.1 4.2-4.6 0-2.6-1.9-4.6-4.2-4.6-2.3 0-4.2 2-4.2 4.6 0 2.6 2 4.6 4.2 4.6Z" class="st1"/>
  <path fill="#FFE576" fill-rule="evenodd" d="M6048.3 5043.6s-1.3 19-13 4.8c0 0-4.2 18.8-15.6 9.7 0 0 4.2 20.6-8.7 15l-5 13s-17.3 16.7-12.6-5.6c0 0-17.2 2.4-5.4-12.7 0 0-13.7-11.4 3.3-15.1 0 0-11.9-14.8 5.1-14.8 0 0-1.9-18 12.7-5.3 0 0 7-21.3 16.7-2.4 0 0 2.5-21.4 17.2-7.8 0 0 7.6-17.2 19.6-4.5 0 0 8.6-19 17.1-2.2 0 0 8.5-22.3 18.7-3.7 0 0 12-22.3 20.4-2 0 0 6-19.4 17.4-2.2 0 0 15-21.8 15 2.3 0 0 20.3-5.6 11.8 9.3 0 0 17 9.3 3.4 18.6 0 0 13.6 13 1.7 16.7 0 0 2.8 16.7-10.5 9.3l-6.6 2.3-15.3-24.5s-11.7 13-18.5 0c0 0-15.3 11-18.7-5.6 0 0-5 20.4-15.3 1.9 0 0-5 17.3-15.3 2.2 0-.1-3.5 22-19.6 3.3Z" class="st4"/>
  <path fill="#262626" fill-rule="evenodd" d="M5996 5093.7c-.9 0-1.6-.2-2.2-.5-2.5-1.4-3-5-2-11-2.7.2-6.9-.2-8.6-3.1-1.5-2.6-.5-6.2 3-11-2-1.8-5.6-6-4.6-10.1.7-2.7 3.1-4.7 7.3-6-1.7-2.6-4.2-7.5-2.4-11.2 1.2-2.5 4-4 8.5-4.2 0-2.6.3-7.6 3.6-9.3 2.5-1.3 5.8-.3 10 3 1.3-3.2 4.3-8.8 8.8-9.2 2.8-.2 5.3 1.5 7.8 5.2 1-3.4 3-8 6.7-9.3 3.1-1.1 6.7-.1 10.7 3.2 1.5-2.6 5-7.3 9.8-8.2 3.3-.6 6.6.6 9.8 3.5 1.6-3 5.2-8 9.8-8.1 2.7-.1 5.3 1.7 7.6 5 1.8-3.4 5.2-9 10-9.2 3.1-.2 6.1 1.8 8.8 5.9 2.2-3.4 6.8-9.3 12.2-9 3.1 0 5.8 2.3 8.1 6.4 1.4-2.8 4-6.6 7.6-7.1 3.2-.5 6.6 1.5 10 5.9 2.4-3.2 7.5-9.1 11.7-7.8 2.8.9 4.3 4.3 4.5 10.8 3.4-.7 10.3-1.6 13 1.9 1.5 2 1.3 4.9-.6 8.7 2.5 1.6 8 5.7 8.2 11 .1 3-1.4 5.8-4.5 8.3 2.3 2.5 6.7 8 5.6 12.7a7 7 0 0 1-4.6 4.8c.3 2.6.4 8.3-3 10.7-2.2 1.6-5.3 1.3-9.3-.8l-6 2c-.7.3-1.4 0-1.8-.5l-14.3-23c-2.2 2-6.8 5.5-11.5 4.9-2.9-.4-5.3-2.1-7.2-5.1-2.6 1.5-8 4.3-12.9 2.4a9.7 9.7 0 0 1-5.3-5.4c-1.3 2.8-3.4 6-6.5 6.4-2.8.4-5.6-1.6-8.4-6-1.2 2.7-3.4 6-6.8 6.5-2.6.4-5.4-1-8-4.2-1 3.3-3.3 7.7-7.3 8.8-3.5.9-7.6-1-12-5.4-.7 3-2 7-5.3 8-2.4.8-5-.4-8.2-3.5-1 3.3-3.6 8.7-8 10.3-2 .7-4 .5-6.3-.5.4 4 .5 10.4-2.9 13.2-1.7 1.4-4 1.7-6.9.8l-4.3 11.5c0 .2-.2.4-.4.5-1.2 1.2-6.8 6.4-11 6.4Zm-2.5-14.6c.4 0 .8.2 1.1.5.3.4.5.9.4 1.3-1.7 8 0 9.5.2 9.7 1.7.9 6.5-2.3 9.5-5.2l5-12.8c.1-.4.4-.7.8-.8.4-.2.8-.2 1.2 0 2.4 1 4.2 1 5.2.2 3-2.3 2-10.8 1.3-13.6 0-.6.1-1.3.7-1.6.5-.3 1.2-.3 1.7 0 2.4 2 4.5 2.6 6.3 2 4-1.4 6.3-8.2 6.8-10.8.1-.6.6-1 1.1-1.1.6-.1 1.1 0 1.5.5 3.8 4.7 6 4.9 6.8 4.6 2.3-.7 3.4-6.1 3.5-8.6 0-.6.4-1.1 1-1.3.6-.2 1.2 0 1.6.4 4.5 5.2 8.4 7.6 11.2 6.9 3.1-.8 5.1-5.7 5.8-9.6l.1-.4c.2-.5.7-.8 1.2-1 .5 0 1.1.3 1.4.8 2.6 3.9 5.1 5.8 7.1 5.5 3-.4 5-5.5 5.5-7.3.2-.6.7-1 1.3-1.1.6-.1 1.2.2 1.5.8 2.6 4.8 5.1 7.2 7 7 2.8-.4 5-6.4 5.5-8.5.2-.7.8-1.1 1.5-1.1s1.3.5 1.4 1.2c.8 4 2.5 6.6 5 7.6 4 1.6 9.5-1.6 11.4-3 .4-.2.8-.2 1.2-.1.4 0 .8.4 1 .8 1.6 3 3.5 4.6 5.7 4.9 5 .6 10.3-5.2 10.4-5.2.3-.3.8-.5 1.2-.5.5 0 1 .3 1.1.7l14.7 23.5 5.5-2c.4 0 .8 0 1.2.2 2.2 1.2 5.1 2.4 6.7 1.2 2.3-1.6 2-7.1 1.6-9 0-.7.3-1.5 1-1.7 2.2-.7 3.4-1.7 3.7-3.1.8-3.6-4.2-9.4-6-11.1-.3-.3-.5-.8-.5-1.2 0-.4.3-1 .6-1.1 3.2-2.2 4.7-4.4 4.6-6.7-.2-4.2-5.8-8.1-7.9-9.3-.4-.2-.6-.5-.7-1l.1-1.1c1.8-3.2 2.3-5.6 1.4-6.7-1.7-2.2-8.6-1.2-11.6-.4-.5 0-.9 0-1.3-.3s-.6-.7-.6-1.2c0-8.4-1.8-9.6-2.4-9.8-2.3-.7-7 4.6-9.7 8.3-.3.4-.7.7-1.2.7s-1-.3-1.2-.7c-3-4.5-5.9-6.7-8.2-6.4-3.4.5-5.9 6-6.5 8.3-.2.6-.7 1-1.4 1-.6 0-1.2-.2-1.5-.8-1.4-3.4-3.8-7.5-7-7.7h-.2c-4.4 0-9 7-10.5 9.7-.3.5-.8.8-1.3.8s-1-.3-1.3-.8c-1.7-3.1-4.3-6.8-7.3-6.6-4 .3-7.6 7.4-8.7 10-.2.7-.7 1-1.3 1-.6 0-1-.2-1.4-.7-1.4-2.8-3.6-6.1-6.3-6.1-3.7 0-7.2 6-8.2 8.2-.2.5-.6.8-1 .9-.6 0-1-.1-1.4-.4-3-3.2-5.9-4.5-8.6-4.1-5.2.9-8.5 8-8.5 8.2-.2.4-.6.8-1 .9-.6 0-1 0-1.4-.4-2.5-2.4-6.2-5-9-4-3.7 1.5-5.3 8.3-5.6 10.9 0 .7-.6 1.2-1.2 1.3-.7 0-1.3-.2-1.6-.8-2.4-4.7-4.9-7.1-6.9-7-3.3.3-6.2 6.9-7 9.2-.2.5-.5.8-1 1-.5 0-1 0-1.4-.3-3.8-3.3-6.8-4.7-8.3-4-1.9 1-2 5.8-1.9 7.9 0 .4 0 .8-.4 1.2-.3.3-.7.5-1 .5-2.9 0-6.4.4-7.4 2.5-1.4 2.9 2.1 8.2 3.4 9.9.3.4.4.9.2 1.4-.2.5-.6.9-1 1-3 .6-6.7 1.9-7.3 4.3-.7 2.9 3.1 6.9 4.6 8.2.6.5.7 1.4.2 2-3 4-4.4 7.3-3.5 8.8 1.1 1.8 5.5 1.9 7.5 1.6h.4Zm86.5 57.1-.7-.2c-.7-.4-1-1.3-.6-2 1.6-3 7.2-8.3 16.6-8.3 9.3 0 14 3.6 15.2 5.8.4.7.2 1.6-.6 2-.8.4-1.6.2-2-.6-.7-1.2-4.3-4.3-12.6-4.3-8 0-12.7 4.5-14 6.8-.3.5-.8.8-1.3.8Z" class="st1"/>
  <path fill="#FFDFD4" fill-rule="evenodd" d="m6126.8 5062.5-25 1.5s17 50 8.5 52" class="st3"/>
  <path fill="#262626" fill-rule="evenodd" d="M6136.3 5078.5c-.4 0-.8-.2-1-.5-4.3-4.6-8.8-7-13.5-6.8-7.8 0-13.7 6.7-13.7 6.8-.5.6-1.5.7-2 0-.7-.4-.8-1.4-.3-2 .3-.3 6.8-7.7 16-7.8h.1c5.5 0 10.7 2.6 15.4 7.8.6.6.5 1.6 0 2-.3.3-.6.5-1 .5Z" class="st1"/>
  <path fill="#262626" fill-rule="evenodd" d="M6121.4 5080.7c2.3 0 4.2-2.1 4.2-4.6 0-2.5-1.9-4.6-4.2-4.6-2.3 0-4.2 2-4.2 4.6 0 2.5 2 4.6 4.2 4.6Z" class="st1"/>
  <path fill="#262626" fill-rule="evenodd" d="M6108.7 5117.6c-8.6 0-16.2-11.5-16.6-12-.5-.7-.3-1.6.4-2.1s1.6-.3 2.1.4c.1 0 8 12 15.4 10.5.1 0 .3-.1.5-.5 3-5.4-4.6-33.2-10-49.5-.2-.4-.2-1 .1-1.3.3-.4.7-.6 1.2-.7l25-1.5c.8-.1 1.5.6 1.6 1.4.1.8-.6 1.5-1.4 1.6l-23 1.4c3 9 13.6 42.5 9.3 50a3.5 3.5 0 0 1-2.5 2l-2 .3Z" class="st1"/>
  <path fill="#CB8454" fill-rule="evenodd" d="M6065 5142.8c-1.9 0-3-.3-3.6-1-1.5-1.8-1-6.7.3-16.4 1.8-12.4 29-15.3 34-15.8 3.2 3.6 8 7.6 13 7.6l2-.2c1.5-.4 2.5-1.8 3-4.3 13 5 16.4 14.8 15.3 21.8-.6 3.8-2.6 6.6-4.9 6.6-8 0-11.3-17.7-11.3-18v-.7l-35.3-2-.2.8c-2.7 8.4-8.3 21.6-12.4 21.6Z" class="st2"/>
  <path fill="#262626" fill-rule="evenodd" d="M6112.7 5109.8c0 1 0 2-.2 3 11.8 4.2 16.3 12.4 16.2 19.4 0 4.5-2.2 8.2-4.6 8.2-6.4 0-10-12.5-10.8-17.4 0-.6-.7-1.2-1.4-1.2l-33.6-2c-.7 0-1.3.5-1.5 1.2-2.6 8.5-8.2 21.2-11.8 21.2-2.2 0-2.8-.5-3.2-1-1.6-1.6-.8-8 .4-15.8 2-13.1 33-15.3 34.7-15.4h.6l-2.5-2.8c-7 .6-33.8 3.8-35.9 17.9-1.5 10.4-2 15.6.3 18.3 1.5 1.7 3.7 1.9 5.5 1.9 6.6 0 12.5-16.7 14.3-22.1l31.3 1.7c1 4.4 4.6 18.8 13.4 18.8h.1c4.2-.1 7.4-5 7.5-11.2.2-8.4-5-18-18.8-22.7Z" class="st1"/>
</svg>
