<svg xmlns="http://www.w3.org/2000/svg" fill="none" viewBox="0 0 505 665"><g clip-path="url(#a)"><path d="M423.3 664.4s-9.7 70.9 3.3 70.9c9.3 0 6.6-31.4 6.6-31.4s10.6 33.4 5.2 44.2c-5.5 10.8-19.3 19-12.4 22.7 7 3.8 27.7-12.2 25.3-38.1 0 0 1.5 13.3-1.6 21.3 0 0 11.1-.8 13-13.9 2-13 1.7-78.4 1.7-78.4l-41.1 2.7Z" fill="#FFDACE" stroke="#262626" stroke-width="3" stroke-linecap="round" stroke-linejoin="round"/><path d="M423.3 334.9s25.9 51.5 31.7 79c5.8 27.4 5.8 42.2 5.8 42.2l-71.2 2.8-14.2-106.4 48-17.6Z" fill="#949495" stroke="#262626" stroke-width="3" stroke-linecap="round" stroke-linejoin="round"/><path d="M464.4 442.2s9.6 89.5 5.9 110c-3.8 20.7-2.5 60.2-2.5 60.2s2.7 26.2 0 31.3c-2.8 5-69.4 7.7-69.4 7.7l-9.6-186.5 75.6-22.7Z" fill="#FF4800" stroke="#262626" stroke-width="3" stroke-linecap="round" stroke-linejoin="round"/><path d="M401.5 487.3s-22.8 3.3-22.8-5c0-8.4-4.4-8.4-3.3-14.9 1-6.5 3.3-24 21-23.3 17.7.6 43.5 2.2 46.4-1.9 2.8-4 17-16.7 31-7.2 14 9.4 11.8 28 5.1 31.3-6.6 3.2-15.2 16.4-31.7 16-16.5-.4-45.7 5-45.7 5ZM436.6 641c15.5-.6 38.3-8.6 42.9-2.6 4.6 6 8.3 5.7 8.3 14.6 0 8.8-13 22.8-31.7 20.8s-50.4 5.3-52.5.2c-2.2-5-4-29 4-30.8 8-1.7 29-2.2 29-2.2Z" fill="#CB8454" stroke="#262626" stroke-width="3" stroke-linecap="round" stroke-linejoin="round"/><path d="M131.5 288.7s-109.2 655.7-99 754.2H100s-.6 9.3 6.7 11.2c7.2 1.8 114 7.2 114 7.2h95.9s67.7 9 75.7 0 58.5 7 59.5-11.4c1-18.3-63.9-731.8-63.9-731.8l-256.5-29.4Z" fill="#949495" stroke="#262626" stroke-width="3" stroke-linecap="round" stroke-linejoin="round"/><path d="m140.5 353.5-24.3 91L38 430s7.5-20 7.7-29c.3-9 17.2-38.7 17.2-38.7l26.4-31.9 51.3 23.1Z" fill="#949495" stroke="#262626" stroke-width="3" stroke-linecap="round" stroke-linejoin="round"/><path d="M62.9 334S117 233 238.2 233.3c121 .2 208.4 89.9 197.4 106-11 16.1-41.3 38.4-69.2 39.2-28 .7-68.6 28.9-69.5 50.3-.9 21.5 19.8 632.5 19.8 632.5h-96s18.3-589.5-3.6-641.5c-21.8-52-49.5-24.6-78.7-48.3-29.1-23.7-70-20.1-75.5-37.5Z" fill="#CB8454" stroke="#262626" stroke-width="3" stroke-linecap="round" stroke-linejoin="round"/><path d="M109.4 442.2 100 631s-43.7 4.5-48.1 4.6c-4.5 0-3-18.8-7.4-31.3-4.5-12.4-12-28.5-12.7-43.7-.7-15.2-12-51.6-9.1-77 3-25.3 15.2-53.5 15.2-53.5l71.5 12.2Z" fill="#FF4800" stroke="#262626" stroke-width="3" stroke-linecap="round" stroke-linejoin="round"/><path d="M207.4 444.1h114.8v10.1H207.4v-10.1Z" fill="#FFE13E" stroke="#262626" stroke-width="3" stroke-linecap="round" stroke-linejoin="round"/><path d="M320 456c-4.1 0-7.4-3-7.4-6.8 0-3.9 3.3-7 7.4-7 4.1 0 7.4 3.1 7.4 7 0 3.8-3.3 6.9-7.4 6.9ZM264.8 456c-4 0-7.4-3-7.4-6.8 0-3.9 3.3-7 7.4-7 4.1 0 7.4 3.1 7.4 7 0 3.8-3.3 6.9-7.4 6.9ZM203.8 456c-4.1 0-7.5-3-7.5-6.8 0-3.9 3.4-7 7.5-7 4 0 7.4 3.1 7.4 7 0 3.8-3.3 6.9-7.4 6.9ZM207.4 482.3h114.8v10.1H207.4v-10.1Z" fill="#FFE13E" stroke="#262626" stroke-width="3" stroke-linecap="round" stroke-linejoin="round"/><path d="M320 494.2c-4.1 0-7.4-3-7.4-6.9 0-3.8 3.3-6.9 7.4-6.9 4.1 0 7.4 3.1 7.4 7 0 3.7-3.3 6.8-7.4 6.8ZM264.8 494.2c-4 0-7.4-3-7.4-6.9 0-3.8 3.3-6.9 7.4-6.9 4.1 0 7.4 3.1 7.4 7 0 3.7-3.3 6.8-7.4 6.8ZM203.8 494.2c-4.1 0-7.5-3-7.5-6.9 0-3.8 3.4-6.9 7.5-6.9 4 0 7.4 3.1 7.4 7 0 3.7-3.3 6.8-7.4 6.8ZM207.4 518.3h114.8v10H207.4v-10Z" fill="#FFE13E" stroke="#262626" stroke-width="3" stroke-linecap="round" stroke-linejoin="round"/><path d="M320 530.2c-4.1 0-7.4-3-7.4-6.9 0-3.8 3.3-6.9 7.4-6.9 4.1 0 7.4 3.1 7.4 7 0 3.7-3.3 6.8-7.4 6.8ZM264.8 530.2c-4 0-7.4-3-7.4-6.9 0-3.8 3.3-6.9 7.4-6.9 4.1 0 7.4 3.1 7.4 7 0 3.7-3.3 6.8-7.4 6.8ZM203.8 530.2c-4.1 0-7.5-3-7.5-6.9 0-3.8 3.4-6.9 7.5-6.9 4 0 7.4 3.1 7.4 7 0 3.7-3.3 6.8-7.4 6.8ZM210.3 557h114.9V567H210.3V557Z" fill="#FFE13E" stroke="#262626" stroke-width="3" stroke-linecap="round" stroke-linejoin="round"/><path d="M323 569c-4.1 0-7.5-3.1-7.5-7 0-3.8 3.4-6.9 7.4-6.9 4.1 0 7.5 3.1 7.5 7 0 3.8-3.4 6.8-7.5 6.8ZM267.7 569c-4 0-7.4-3.1-7.4-7 0-3.8 3.3-6.9 7.4-6.9 4.1 0 7.5 3.1 7.5 7 0 3.8-3.4 6.8-7.5 6.8ZM206.7 569c-4.1 0-7.4-3.1-7.4-7 0-3.8 3.3-6.9 7.4-6.9 4 0 7.4 3.1 7.4 7 0 3.8-3.3 6.8-7.4 6.8ZM211.8 594.6h114.8v10.1H211.8v-10Z" fill="#FFE13E" stroke="#262626" stroke-width="3" stroke-linecap="round" stroke-linejoin="round"/><path d="M324.4 606.6c-4 0-7.4-3.1-7.4-7 0-3.7 3.3-6.8 7.4-6.8 4.1 0 7.4 3 7.4 6.9 0 3.8-3.3 6.9-7.4 6.9ZM269.2 606.6c-4 0-7.4-3.1-7.4-7 0-3.7 3.3-6.8 7.4-6.8 4.1 0 7.4 3 7.4 6.9 0 3.8-3.3 6.9-7.4 6.9ZM208.2 606.6c-4.1 0-7.5-3.1-7.5-7 0-3.7 3.4-6.8 7.5-6.8 4 0 7.4 3 7.4 6.9 0 3.8-3.3 6.9-7.4 6.9ZM213.3 635.3H328v10.2H213.3v-10.2Z" fill="#FFE13E" stroke="#262626" stroke-width="3" stroke-linecap="round" stroke-linejoin="round"/><path d="M325.9 647.3c-4.1 0-7.4-3-7.4-6.9 0-3.8 3.3-6.9 7.4-6.9 4 0 7.4 3 7.4 6.9 0 3.8-3.3 6.9-7.4 6.9ZM270.7 647.3c-4.1 0-7.4-3-7.4-6.9 0-3.8 3.3-6.9 7.4-6.9 4 0 7.4 3 7.4 6.9 0 3.8-3.3 6.9-7.4 6.9ZM209.6 647.3c-4 0-7.4-3-7.4-6.9 0-3.8 3.3-6.9 7.4-6.9 4.1 0 7.4 3 7.4 6.9 0 3.8-3.3 6.9-7.4 6.9Z" fill="#FFE13E" stroke="#262626" stroke-width="3" stroke-linecap="round" stroke-linejoin="round"/><path d="M101.2 430.8c15.4 1.7 20.1 7.5 20.3 15 .2 7.6-6.2 18.8-28.5 16.4-22.2-2.5-27.7 2-39.4-5.6-11.8-7.5-27-8.8-27.2-20.4-.3-11.7 6-17.6 15.2-15.8 9.1 1.7 24 11.4 30.5 11.1l29.1-.7Z" fill="#CB8454" stroke="#262626" stroke-width="3" stroke-linecap="round" stroke-linejoin="round"/><path d="M171.3 186s-3.9 111.9 83.7 114.7c87.5 2.8 72.9-110.6 72.9-110.6S261.2 161 171.3 186Z" fill="#FF4800" stroke="#262626" stroke-width="3" stroke-linecap="round" stroke-linejoin="round"/><path d="M302.3 161s13.3 17.6 3.8 32c0 0 16 19-.2 21.9-16.2 3-19-7.5-19-7.5l-1.4-48 16.8 1.7Z" fill="#CB8454" stroke="#262626" stroke-width="3" stroke-linecap="round" stroke-linejoin="round"/><path d="M284 127.7c9.4 10.3 10.5 29.4 11.7 41.8 1.8 18 2.8 42.8-2.8 56.3l-6.5 30.9s-41.3-2.8-47.4-2.8c-6 0-41.3-59.6-41.3-59.6s-3.5-52.5 12.6-64.8c22.3-17 51.2-26.8 73.7-1.8Z" fill="#FFDACE" stroke="#262626" stroke-width="3" stroke-linecap="round" stroke-linejoin="round"/><path d="M262.7 210.8h4.3a9.8 9.8 0 0 0 6.7-2.6c.9-.9 1.5-2 2-3a8 8 0 0 0 .5-3.4l-7.3-26.8H295M262.2 175l-23.2 1.2M263.7 185.6s-11.4-11.2-23.5 0" stroke="#262626" stroke-width="3" stroke-linecap="round" stroke-linejoin="round"/><path d="M252 188.2c-1.8 0-3.3-1.4-3.3-3.2 0-1.7 1.5-3.2 3.4-3.2s3.4 1.5 3.4 3.2c0 1.8-1.5 3.2-3.4 3.2Z" fill="#262626"/><path d="M296 186.3s-11.4-11.3-23.5 0" stroke="#262626" stroke-width="3" stroke-linecap="round" stroke-linejoin="round"/><path d="M284.5 188.8c-2 0-3.5-1.4-3.5-3.2 0-1.7 1.6-3.2 3.5-3.2 1.8 0 3.4 1.5 3.4 3.2 0 1.8-1.6 3.2-3.4 3.2Z" fill="#262626"/><path d="M235.3 236.6s7.4-20.1 27.5-20.1c20 0 36.7.8 34.7 43.3-1.3 28 29.6 37.3 26.8 64a41.2 41.2 0 0 1-36.8 38.8s5.3 35.5-24.8 33.8c-30.1-1.8-34-33-34-33s-30.7-9-31-35.1c-.4-26-6.3-32-7.4-58.4-1-26.4 14.7-59 14.7-59l11.8-4 18.5 29.7Z" fill="#CB8454" stroke="#262626" stroke-width="3" stroke-linecap="round" stroke-linejoin="round"/><path d="m227 159.2-10.5 30.5s14.9 21.1-14 22.5c-28.8 1.3-5.7-39.4-5.7-39.4l30.2-13.6Z" fill="#CB8454" stroke="#262626" stroke-width="3" stroke-linecap="round" stroke-linejoin="round"/><path d="M267.8 231.1c-8.7 0-15.7-1.6-15.7-3.6s7-3.7 15.7-3.7 15.7 1.6 15.7 3.7c0 2-7 3.6-15.7 3.6Z" fill="#FFDACE" stroke="#262626" stroke-width="3" stroke-linecap="round" stroke-linejoin="round"/><path d="m430.8 617.7-318.5 82.5c-5.6 1.4-8.7 8.2-6.9 15.1 1.8 7 7.8 11.4 13.4 10l318.5-82.5c5.6-1.4 46.4-25.4 46.4-25.4s-47.3-1.2-52.9.3Z" fill="#C6C6C6" stroke="#262626" stroke-width="3" stroke-miterlimit="10"/><path d="M483.7 617.4 118 712" stroke="#262626" stroke-width="3" stroke-linecap="round" stroke-linejoin="round"/><path d="M285.5 104.8c22.4 17 18.4 37.5 18.4 65.3H197.3c-.6-20.8-3.4-44.3 17.8-65.3s31.3-46.6 36-68.8c5.8 21 7.5 48.2 34.4 68.8Z" fill="#949495"/><path d="M303.9 170.1h1.5v1.5h-1.5v-1.5Zm-18.4-65.3 1-1.2-1 1.2ZM251.2 36l-1.5-.3a1.5 1.5 0 0 1 3 0l-1.5.3ZM215 104.8l1 1-1-1ZM197.3 170v1.5h-1.5v-1.4h1.5Zm105 0c0-14 1-25.9-.7-36.4a41.1 41.1 0 0 0-17-27.7l1.9-2.4a44.1 44.1 0 0 1 18 29.6c1.9 10.9.9 23.2.9 37h-3ZM284.7 106c-27.5-21-29.2-48.9-34.9-69.6l3-.8c5.7 21.4 7.3 47.8 33.8 68l-1.9 2.4Zm-32-69.7c-4.8 22.4-15 48.2-36.5 69.5l-2.1-2c21-20.9 31-46.1 35.7-68.1l3 .6Zm-36.5 69.5c-20.6 20.5-17.9 43.3-17.3 64.3h-3c-.6-20.6-3.5-44.8 18.2-66.4l2.1 2.1Zm-18.8 62.8h106.6v3H197.3v-3Z" fill="#262626"/><path d="M101.6 646.3s10 71-3.4 71c-9.7 0-6.9-31.4-6.9-31.4s-11 33.4-5.3 44.2c5.6 10.8 20 18.9 12.8 22.7-7.2 3.8-28.8-12.2-26.3-38.1 0 0-1.5 13.3 1.7 21.3 0 0-11.6-.8-13.5-13.9-2-13-1.8-78.4-1.8-78.4l42.7 2.6Z" fill="#FFDACE" stroke="#262626" stroke-width="3" stroke-linecap="round" stroke-linejoin="round"/><path d="M113 641s0 22.8-20.7 25c-18 1.9-44 9.7-50 1.3-6.2-8.4-8.2-22.5 0-26.3 8-3.8 31.7-13 41-13.8 16-1.3 28 .8 29.7 13.8Z" fill="#CB8454" stroke="#262626" stroke-width="3" stroke-linecap="round" stroke-linejoin="round"/><path d="m109.3 678.6 17.3 67a13 13 0 0 1-25 6.5l-17.4-67a13 13 0 0 1 25-6.5Z" fill="#FFE576" stroke="#262626" stroke-width="3" stroke-linecap="round" stroke-linejoin="round"/></g><defs><clipPath id="a"><path fill="#fff" d="M0 0h505v665H0z"/></clipPath></defs></svg>