<svg xmlns="http://www.w3.org/2000/svg" viewBox="6132.3 4605 550 154">
  <path fill="#fff" fill-rule="evenodd" d="M6133.3 4646c0-22 18-40 40-40h468a40 40 0 0 1 40 40v72a40 40 0 0 1-40 40h-468c-22 0-40-18-40-40v-72"/>
  <path fill="#262626" fill-rule="evenodd" d="m6187 4636 13.4 35h-6.6l-3.3-9.3h-13.8l-3.4 9.3h-6.4l13.5-35h6.5m2 21.1-5.2-14.7-5.4 14.7h10.6m47.2-7h-8.3v20.9h-5.6v-20.9h-8.3v-4.4h22.2v4.4m14-5.1c4 0 7 1.2 9.3 3.6 2.3 2.4 3.4 5.7 3.4 9.8 0 4-1.1 7.3-3.4 9.8a12 12 0 0 1-9.2 3.6c-4 0-7.1-1.2-9.4-3.6a13.6 13.6 0 0 1-3.5-9.8c0-4.1 1.1-7.4 3.5-9.8 2.3-2.4 5.5-3.6 9.4-3.6Zm5.2 6.8a6.2 6.2 0 0 0-5.2-2.4c-2.2 0-4 .8-5.3 2.4-1.2 1.6-1.9 3.8-1.9 6.6s.7 5 2 6.6c1.2 1.6 3 2.4 5.2 2.4s4-.8 5.2-2.4c1.2-1.6 1.9-3.8 1.9-6.7 0-2.8-.7-5-2-6.5Zm19-15.7v10l-1.5 15.2h-2.9l-1.5-15.1v-10h6m.2 28.6v6.2h-6.4v-6.2h6.4m29-3.6-12-25h6.8l8.4 18.6 8.6-18.7h6.6l-13.5 27.8c-1.5 2.9-3 5-4.6 6.1a8.8 8.8 0 0 1-5.4 1.8 10 10 0 0 1-4.1-.8v-5.2c1 .6 2.2.9 4 .9 1 0 1.8-.4 2.6-1.2.7-.9 1.6-2.2 2.6-4.2v-.1m23.8 9.8h-5.4v-25.3h7.4l7 20.1h.1l6.8-20h7.4v25.2h-5.4v-16.8h-.1l-6 16.8h-5.7l-6-16.8h-.1v16.8m34.7 0h-5.6v-25.3h5.6v10h11v-10h5.7v25.3h-5.6v-11H6362v11m34.3-26c3.8 0 6.9 1.2 9.2 3.6 2.3 2.4 3.4 5.7 3.4 9.8 0 4-1.1 7.3-3.4 9.8a12 12 0 0 1-9.2 3.6c-4 0-7.1-1.2-9.4-3.6a13.6 13.6 0 0 1-3.5-9.8c0-4.1 1.1-7.4 3.5-9.8 2.3-2.4 5.4-3.6 9.4-3.6Zm5 6.8a6.2 6.2 0 0 0-5.1-2.4c-2.3 0-4 .8-5.3 2.4-1.3 1.6-1.9 3.8-1.9 6.6s.6 5 2 6.6c1.2 1.6 3 2.4 5.2 2.4s4-.8 5.2-2.4c1.2-1.6 1.9-3.8 1.9-6.7 0-2.8-.7-5-2-6.5Zm19.5 12.6v5a11 11 0 0 1-1.5 6.1c-1 1.6-2.7 2.6-5.2 3.2v-3c2-.6 3.1-2.2 3.2-4.7h-3.2v-6.6h6.7m26.8-6.7-8.7-12h6.7l5.3 7.8 5.6-7.8h6.4l-8.6 11.7 9.7 13.6h-6.7l-6.4-9.3-6.3 9.3h-6.5l9.5-13.3m30.7-12.7c3.9 0 7 1.2 9.2 3.6 2.3 2.4 3.5 5.7 3.5 9.8 0 4-1.2 7.3-3.5 9.8a12 12 0 0 1-9.2 3.6c-4 0-7-1.2-9.4-3.6a13.6 13.6 0 0 1-3.5-9.8c0-4.1 1.2-7.4 3.5-9.8 2.4-2.4 5.5-3.6 9.4-3.6Zm5.1 6.8a6.2 6.2 0 0 0-5.2-2.4c-2.2 0-4 .8-5.2 2.4-1.3 1.6-2 3.8-2 6.6s.7 5 2 6.6c1.3 1.6 3 2.4 5.3 2.4a6 6 0 0 0 5.1-2.4c1.3-1.6 2-3.8 2-6.7 0-2.8-.7-5-2-6.5Zm31.2-1.7h-8.3v20.9h-5.6v-20.9h-8.3v-4.4h22.2v4.4m22.9 7a7.7 7.7 0 0 1 2.2 5.8 8 8 0 0 1-2.2 6 8.8 8.8 0 0 1-6.4 2.1H6518v-25.3h5.6v9.2h7.7c2.7 0 4.9.7 6.4 2.1Zm-3.4 6c0-1.2-.3-2.1-1-2.8-.6-.7-1.5-1-2.7-1h-7v7.3h7.1c1.2 0 2.1-.3 2.7-1 .6-.6 1-1.5 1-2.6Zm-356.9 55.9h-7v-25.3h5.6v18.4h.1l9.5-18.4h7v25.3h-5.6v-18.4h-.1l-9.5 18.4m57.7-9.6c-.4 3.1-1.7 5.6-3.7 7.5a12 12 0 0 1-8 2.7c-3.7 0-6.7-1.2-9-3.5a13.3 13.3 0 0 1-3.4-9.5c0-4.2 1.1-7.5 3.4-10a12 12 0 0 1 9.2-3.7c3.2 0 5.8.8 7.8 2.5 2 1.6 3.2 3.9 3.5 6.8h-5.6c-.3-1.6-1-2.8-2-3.7a5.3 5.3 0 0 0-3.6-1.3 6 6 0 0 0-5.1 2.5 10.5 10.5 0 0 0-1.9 6.6c0 2.8.6 5 1.8 6.6a6 6 0 0 0 5 2.3c1.6 0 3-.5 4-1.4 1.1-1 1.8-2.5 2-4.4h5.6m25.8 9.6h-5.6v-20.9h-7.8l-.3 11.1a13 13 0 0 1-2.2 7.7 6.3 6.3 0 0 1-5.4 2.7c-1.4 0-2.5-.2-3.4-.6v-4.3c.3.2 1 .2 2 .2 2.2 0 3.4-2 3.5-6.2l.5-15h18.7v25.3m17.5-26c3.8 0 6.9 1.2 9.2 3.6 2.3 2.4 3.4 5.7 3.4 9.8 0 4-1.1 7.3-3.4 9.8a12 12 0 0 1-9.2 3.6c-4 0-7.1-1.2-9.4-3.6a13.6 13.6 0 0 1-3.5-9.8c0-4.1 1.1-7.4 3.5-9.8 2.3-2.4 5.4-3.6 9.4-3.6Zm5 6.8a6.2 6.2 0 0 0-5.1-2.4c-2.3 0-4 .8-5.3 2.4-1.3 1.6-1.9 3.8-1.9 6.6s.6 5 2 6.6c1.2 1.6 3 2.4 5.2 2.4s4-.8 5.2-2.4c1.2-1.6 1.9-3.8 1.9-6.7 0-2.8-.7-5-2-6.5Zm47.3 19.2h-6.7l-7.7-11-2.4 2.7v8.3h-5.4v-8.3l-2.3-2.7-7.7 11h-6.8l11-14.5-9.7-10.8h6.7l8.7 10.7h.1v-10.7h5.4v10.7h.2l8.7-10.7h6.7l-9.6 10.8 10.8 14.5m8.1 0h-5.5v-25.3h5.5v10h11.1v-10h5.6v25.3h-5.6v-11h-11v11m34.2-26c3.9 0 7 1.2 9.2 3.6 2.3 2.4 3.4 5.7 3.4 9.8 0 4-1 7.3-3.4 9.8a12 12 0 0 1-9.2 3.6c-4 0-7-1.2-9.4-3.6a13.6 13.6 0 0 1-3.5-9.8c0-4.1 1.2-7.4 3.5-9.8 2.4-2.4 5.5-3.6 9.4-3.6Zm5.1 6.8a6.2 6.2 0 0 0-5.2-2.4c-2.2 0-4 .8-5.2 2.4-1.3 1.6-2 3.8-2 6.6s.7 5 2 6.6c1.2 1.6 3 2.4 5.3 2.4 2.1 0 3.9-.8 5.1-2.4 1.3-1.6 2-3.8 2-6.7 0-2.8-.7-5-2-6.5Zm34.8 12c0 2.3-.8 4.1-2.4 5.3a11 11 0 0 1-6.9 1.9h-13.3v-25.3h14c2.4 0 4.2.6 5.5 1.6 1.3 1.1 2 2.6 2 4.6 0 1.3-.3 2.4-.9 3.2a7 7 0 0 1-2.7 2.1v.1c3.1.8 4.7 3 4.7 6.5Zm-9.3-4h-7.7v7h7.7c2.5 0 3.8-1.2 3.8-3.4 0-1.2-.3-2-1-2.6-.6-.7-1.6-1-2.8-1Zm-.7-9.9h-7v5.9h7.1c2.2 0 3.3-1 3.3-3s-1.2-2.9-3.4-2.9Zm14.4 3.6c.6-5.7 4.3-8.6 11.1-8.6 3.2 0 5.7.7 7.5 1.9 2 1.2 2.9 3.2 2.9 5.8v12.8c0 .7 0 1.2.2 1.5.2.2.6.4 1.1.4l1.3-.1v3.9c-1.5.4-2.7.5-3.6.5-2.4 0-3.8-1-4.2-3-2 2-5 3-8.8 3-2.6 0-4.7-.6-6.2-2a7 7 0 0 1-2.4-5.5 11.6 11.6 0 0 1 .8-3.6c.3-.5.6-1 1-1.3.6-.4 1-.7 1.2-1a110.8 110.8 0 0 1 4.9-1.6 77 77 0 0 1 3.5-.5l4-.6c.8-.2 1.2-.5 1.5-.9.2-.2.3-.8.3-1.8 0-2.5-1.7-3.8-5.1-3.8-1.9 0-3.2.3-4 1-1 .7-1.5 1.9-1.7 3.5h-5.3m16.1 4.8a10.4 10.4 0 0 1-2.8 1 63 63 0 0 0-6.2 1l-1.3.8-.8 1.1c-.2.5-.3 1-.3 1.7 0 1.2.4 2.1 1.2 2.8.8.6 1.9 1 3.3 1 2.5 0 4.4-.7 5.8-2 .7-.8 1.1-2.2 1.1-4.4v-3m34.3 3.1c-.4 3.1-1.6 5.6-3.7 7.5-2 1.8-4.7 2.7-7.9 2.7-3.8 0-6.8-1.2-9-3.5a13.3 13.3 0 0 1-3.4-9.5c0-4.2 1.1-7.5 3.4-10a12 12 0 0 1 9.2-3.7c3.2 0 5.8.8 7.8 2.5 2 1.6 3.1 3.9 3.4 6.8h-5.5c-.3-1.6-1-2.8-2-3.7-1-.8-2.2-1.3-3.7-1.3a6 6 0 0 0-5 2.5 10.5 10.5 0 0 0-2 6.6c0 2.8.6 5 1.8 6.6a6 6 0 0 0 5 2.3c1.7 0 3-.5 4-1.4 1.2-1 1.8-2.5 2.1-4.4h5.5m23.3-11.3h-8.3v20.9h-5.6v-20.9h-8.3v-4.4h22.2v4.4m25 13c-.7 2.8-2 4.9-4.1 6.4a12 12 0 0 1-7.4 2.3c-3.8 0-6.9-1.2-9.1-3.6a13.7 13.7 0 0 1-3.4-9.5c0-4 1.2-7.3 3.5-9.8 2.3-2.6 5.2-4 8.8-4 3.7 0 6.6 1.4 8.8 3.9 2.1 2.5 3.2 6 3.2 10.3v.6h-18.7c.1 2.6.7 4.6 2 6 1.2 1.3 2.8 2 5 2a6 6 0 0 0 3.7-1c1-.8 1.8-2 2.3-3.6h5.4m-5.3-7a7.8 7.8 0 0 0-2-5 5.8 5.8 0 0 0-4.5-2 6 6 0 0 0-4.4 1.8 8.7 8.7 0 0 0-2 5.1h13m15.3 15h-5.6v-25.3h5.6v10h11.1v-10h5.6v25.3h-5.6v-11h-11v11m42.1-14a7.7 7.7 0 0 1 2.3 6c0 2.4-.8 4.4-2.3 5.8a8.8 8.8 0 0 1-6.3 2.2h-13.3v-25.3h5.6v9.2h7.7c2.7 0 4.8.7 6.3 2.1Zm-3.3 6c0-1.1-.3-2-1-2.7-.6-.7-1.5-1-2.7-1h-7v7.3h7c1.3 0 2.2-.3 2.8-1 .6-.6.9-1.5.9-2.6Zm33.6 8h-6.7l-8-11.3-3.3 3.5v7.8h-5.6v-25.3h5.6v11.2l10-11.2h6.9l-9.9 10.2 11 15.1m13.9-26c3.8 0 6.9 1.2 9.2 3.6 2.3 2.4 3.4 5.7 3.4 9.8 0 4-1.1 7.3-3.4 9.8a12 12 0 0 1-9.2 3.6c-4 0-7.1-1.2-9.5-3.6a13.6 13.6 0 0 1-3.4-9.8c0-4.1 1.1-7.4 3.4-9.8 2.4-2.4 5.5-3.6 9.5-3.6Zm5 6.8a6.2 6.2 0 0 0-5.1-2.4c-2.3 0-4 .8-5.3 2.4-1.3 1.6-1.9 3.8-1.9 6.6s.6 5 2 6.6c1.2 1.6 3 2.4 5.2 2.4s4-.8 5.2-2.4c1.2-1.6 1.9-3.8 1.9-6.7 0-2.8-.7-5-2-6.5Z"/>
</svg>
