<svg xmlns="http://www.w3.org/2000/svg" fill="none" viewBox="0 0 505 665"><g clip-path="url(#a)"><path d="M330.38 263.76H168.5v312.7h161.88v-312.7Z" fill="#F9DB03" stroke="#262626" stroke-width="3" stroke-linecap="round" stroke-linejoin="round"/><path d="M335.02 499.11 174.58 338.66l-34.25 34.25 160.45 160.44 34.24-34.24Z" fill="#AAC5FF" stroke="#262626" stroke-width="3" stroke-linecap="round" stroke-linejoin="round"/><path d="m35.68 630.41 55.34 9.69s41.51-70.57 47.05-98.24c5.53-27.67 41.5-232.76 41.5-232.76l-20.75-61.94s-22.14 11.07-34.59 42.9c-12.45 31.81-35.97 177.09-47.04 202-11.07 24.9-41.5 138.35-41.5 138.35Z" fill="#4979CB" stroke="#262626" stroke-width="3" stroke-linecap="round" stroke-linejoin="round"/><path d="m35.68 630.41 55.34 9.69s30.44-51.85 42.7-84.08c2.03-5.37-65.84-38.22-71.86-18.2-12.38 41.2-26.18 92.6-26.18 92.6Z" fill="#FF4800" stroke="#262626" stroke-width="3" stroke-linecap="round" stroke-linejoin="round"/><path d="M37.76 698.9c4.2 0 7.6-9.14 7.6-20.4 0-11.28-3.4-20.42-7.6-20.42-4.2 0-7.61 9.14-7.61 20.41s3.4 20.41 7.6 20.41Z" fill="#FFDDD1"/><path d="M319.16 244.96s62.98 7.79 77.92 49.27c14.95 41.48 38.46 152.2 45.37 186.78 6.92 34.6 7.8 127.3 7.8 127.3l-61.76 4.14s-6.92-78.86-20.75-121.75c-13.84-42.9-48.58-245.74-48.58-245.74Z" fill="#4979CB" stroke="#262626" stroke-width="3" stroke-linecap="round" stroke-linejoin="round"/><path d="M229.38 710.66s27.67 213.07 62.26 232.44c34.6 19.37 78.55 15.22 78.7 0 .15-15.22-6.75-218.6-6.75-218.6l-56.73-206.16H173.8s-92.46 387.4-75.86 410.93c16.6 23.52 73.12 12.09 81.63-6.7 27.67-61.1 49.81-211.91 49.81-211.91Z" fill="#CB8454" stroke="#262626" stroke-width="3" stroke-linecap="round" stroke-linejoin="round"/><path d="M342.84 534.95s17.7-99.9 10.24-162.71c-7.48-62.82-34.6-159.9-34.6-159.9L194.8 230.56l-35.97 16.6s-19.37 146.66-9.69 233.83c9.69 87.16-89.93 249.04-95.46 333.44-5.54 84.4 121.75 73.22 125.9 55.98 4.16-17.24 40.13-439.23 53.96-529.17 0 0 20.76 16.6 24.9 182.64 4.16 166.03-1.38 336.2 40.13 347.28 41.5 11.06 196.47 1.38 192.32-31.83-4.15-33.2-102.38-279.48-148.04-304.38Z" fill="#4979CB" stroke="#262626" stroke-width="3" stroke-linecap="round" stroke-linejoin="round"/><path d="M266.97 74.63s-19.26 9.27-20.99 24.49c-1.73 15.22-8.3 162.82-68.93 158.67-17.3-2.77-8.64-20.76 12.12-19.37-8.8-2.85-13.72-10.06-12.12-16.6 1.94-7.85 12.97-13.52 24.23-11.07-12.02-.07-20.27-8.14-19.02-15.22.92-5.34 7.26-10.12 15.56-11.07-9.13-1.39-15.12-8.3-13.83-15.22 1.38-7.42 10.9-12.79 20.75-11.07-9.81-.95-16.3-8.3-14.65-15.22 1.7-7.18 11.78-12.19 21.58-9.69-10.3-1.05-17.32-8.85-15.58-16.6 1.75-7.75 12.23-13.3 22.5-11.07-12.1-2.52-17.21-12.17-13.84-17.98 2.77-4.74 11.65-7.74 20.76-5.54 0 0-1.11-17.8 19.37-17.89 20.47-.1 22.1 10.45 22.1 10.45Z" fill="#fff" stroke="#262626" stroke-width="3" stroke-linecap="round" stroke-linejoin="round"/><path d="m290.26 183.52-70.67 15.4a110.95 110.95 0 0 0-1.39 19.84c.18 5.34.94 10.7 2.88 14.56 0 0 8.3 9.15 31.82 5.28 23.52-3.88 42.9-17.73 42.9-17.73l-2.08-13.6-3.46-23.75Z" fill="#fff" stroke="#262626" stroke-width="3" stroke-linecap="round" stroke-linejoin="round"/><path d="M219 221.05s68.99 8.55 74.22-10.62Z" fill="#fff"/><path d="M219 221.05s68.99 8.55 74.22-10.62" stroke="#262626" stroke-width="3" stroke-linecap="round" stroke-linejoin="round"/><path d="M270.89 81.13c-15.22-5.4-31.6 4.54-33.2 5.54-11.48 7.12-15.97 17.52-20.76 29.05-3.8 9.15-15.65 37.66-4.15 67.8 3.46 9.06 8.95 23.45 22.14 27.67 12.45 3.98 24.6-3.38 30.44-6.92 18.8-11.39 25.72-30.44 27.67-35.97 11.15-32.03 2.96-78.18-22.14-87.17Z" fill="#FFDDD1" stroke="#262626" stroke-width="3" stroke-linecap="round" stroke-linejoin="round"/><path d="m211.75 130.15 20.4.79s-12.45 35.97-6.92 35.97h14.85" stroke="#262626" stroke-width="3" stroke-linecap="round" stroke-linejoin="round"/><path d="M227.75 142.99c-13.95-13.96-27.12 0-27.12 0" stroke="#262626" stroke-width="3" stroke-linecap="round" stroke-linejoin="round"/><path d="M214 146.13a3.93 3.93 0 1 0 0-7.86 3.93 3.93 0 0 0 0 7.86Z" fill="#262626"/><path d="M267.87 144.38c-13.94-13.97-27.12 0-27.12 0M256.36 196.45s-25.06 24.35-37.74 0M267.87 133.3c-13.94-13.96-27.12 0-27.12 0" stroke="#262626" stroke-width="3" stroke-linecap="round" stroke-linejoin="round"/><path d="M254.12 147.51a3.93 3.93 0 1 0 0-7.85 3.93 3.93 0 0 0 0 7.85Z" fill="#262626"/><path d="M222.46 179.37h23.46M229.38 186.28h8.3" stroke="#262626" stroke-width="3" stroke-linecap="round" stroke-linejoin="round"/><path d="M265.48 74.3s20.75 2.3 22.94 17.43c2.19 15.13 9.45 168.58 57.63 162.09 13.68-3.44 5.9-21.08-10.6-18.89 6.92-3.2 10.47-10.59 8.87-17.05-1.91-7.77-11.07-13.02-19.87-10.14 9.6-.54 15.8-8.9 14.47-15.92-1-5.32-6.3-9.83-12.96-10.46a13.43 13.43 0 0 0 10.19-16.55 13.46 13.46 0 0 0-16.99-9.45c7.8-1.38 12.63-8.94 10.99-15.79-1.7-7.1-10-11.73-17.7-8.82a14.18 14.18 0 1 0-6.85-27.37c9.55-2.99 13.16-12.83 10.2-18.5-2.44-4.63-9.69-7.28-16.85-4.73 0 0 0-17.82-16.31-17.13-16.32.7-17.16 11.28-17.16 11.28Z" fill="#fff" stroke="#262626" stroke-width="3" stroke-linecap="round" stroke-linejoin="round"/><path d="M250.2 80.6s19.89.74 27.66 28.2c12.45 44.28-4.15 159.12 44.28 154.96 13.83-2.76 6.92-20.75-9.69-19.37 7.05-2.85 10.97-10.05 9.69-16.6-1.55-7.84-10.37-13.52-19.37-11.07 9.68-.08 16.2-8.13 15.22-15.22-.75-5.35-5.81-10.11-12.45-11.07a13.44 13.44 0 1 0-5.54-26.28 13.33 13.33 0 0 0 11.72-15.22c-1.38-7.18-9.42-12.2-17.25-9.69a14.18 14.18 0 1 0-5.54-27.67c9.69-2.52 13.84-12.19 11.07-17.99-2.2-4.74-9.31-7.73-16.6-5.53 0 0 .88-17.8-15.47-17.9-16.36-.09-17.74 10.44-17.74 10.44ZM241.83 234.7s23.53-17.98 29.06-8.3c5.53 9.7-9.69 12.46-6.92 18 2.77 5.53 16.6 13.83 13.84 17.98-2.77 4.15-24.9 1.1-24.9 4.69 0 3.6 19.36 10.53 17.98 16.06-1.38 5.54-23.52-2.76-23.52 4.16 0 6.91 21.2 5.13 19.6 16.4-1.6 11.28-23.75-6.72-23.75 2.96 0 9.69 23.52 15.22 17.98 24.9-5.53 9.7-22.13-6.9-23.52-1.37-1.38 5.53 23.52 31.82 2.77 34.58-20.75 2.77-4.15-34.58-11.07-37.35-6.92-2.77-6.92 20.75-19.37 8.3-12.45-12.45 16.6-17.99 15.22-27.67-1.38-9.69-17.3 2.65-18.33-8.3-1.04-10.96 26.63-13.84 23.86-23.52-2.76-9.69-20.75 1.38-22.13-9.69-1.38-11.07 27.67-1.38 27.67-11.07 0-9.68-24.9-2.77-22.14-17.98 2.77-15.22 27.67-2.77 27.67-2.77Z" fill="#fff" stroke="#262626" stroke-width="3" stroke-linecap="round" stroke-linejoin="round"/><path d="m234.18 316.93 7.65-82.22" stroke="#262626" stroke-width="3" stroke-linecap="round" stroke-linejoin="round"/><path d="M68.89 608.28c-15.22 0-19.38 8.3-19.38 8.3s-12.28-8.3-19.28 0c-7 8.3 0 15.81 0 15.81s-22.22.79-19.46 14.63c2.77 13.83 30.44 5.53 30.44 5.53l24.9-4.15s13.64 26.29 25.5 17.3c11.88-9 2.18-21.45 2.18-21.45s16.6 0 15.22-16.6c-1.39-16.6-27.67-5.54-27.67-5.54s1.38-13.83-12.45-13.83Z" fill="#fff" stroke="#262626" stroke-width="3" stroke-linecap="round" stroke-linejoin="round"/><path d="M214.16 431.18a8.3 8.3 0 1 0 0-16.6 8.3 8.3 0 0 0 0 16.6ZM208.63 482.37a8.3 8.3 0 1 0 0-16.6 8.3 8.3 0 0 0 0 16.6ZM203.1 533.56a8.3 8.3 0 1 0 0-16.6 8.3 8.3 0 0 0 0 16.6ZM197.56 584.75a8.3 8.3 0 1 0 0-16.6 8.3 8.3 0 0 0 0 16.6ZM193.4 635.95a8.3 8.3 0 1 0 0-16.6 8.3 8.3 0 0 0 0 16.6Z" fill="#F9DB03" stroke="#262626" stroke-width="3" stroke-linecap="round" stroke-linejoin="round"/><path d="M446.82 518.63s2.07 23.23 3.44 89.65l-61.77 4.15s-1.73-19.72-5.19-44.8c-1.97-14.32-3.7-26.62-6.91-42.22-3.8-18.33 69.44-18.05 70.44-6.78Z" fill="#FF4800" stroke="#262626" stroke-width="3" stroke-linecap="round" stroke-linejoin="round"/><path d="M414.3 576.1c14.73 0 18.76 9.18 18.76 9.18s11.9-9.17 18.68 0a14.38 14.38 0 0 1 0 17.48s21.52.87 18.84 16.15c-2.68 15.3-29.48 6.12-29.48 6.12l-24.12-4.58s-13.21 29.06-24.7 19.1c-11.48-9.94-2.11-23.66-2.11-23.66s-16.08 0-14.74-18.35c1.34-18.35 26.8-6.12 26.8-6.12s-1.34-15.31 12.07-15.31Z" fill="#fff" stroke="#262626" stroke-width="3" stroke-linecap="round" stroke-linejoin="round"/><path d="M40.52 665.7s-13.07 46.34-2 47.73c11.07 1.38 12.45-47.04 24.9-56.73 0 0-8 26.29-1.92 28.38 6.09 2.09 30.98-43.78 19.9-48.53-11.06-4.74-40.12.78-49.8 14.62-9.69 13.83-6.92 29.05-2.77 31.82" fill="#FFDDD1"/><path d="M40.52 665.7s-13.07 46.34-2 47.73c11.07 1.38 12.45-47.04 24.9-56.73 0 0-8 26.29-1.92 28.38 6.09 2.09 30.98-43.78 19.9-48.53-11.06-4.74-40.12.78-49.8 14.62-9.69 13.83-6.92 29.05-2.77 31.82" stroke="#262626" stroke-width="3" stroke-linecap="round" stroke-linejoin="round"/><path d="M34.3 662.24s-9.27 24.08-1.6 30.43Z" fill="#FFDDD1"/><path d="M34.3 662.24s-9.27 24.08-1.6 30.43" stroke="#262626" stroke-width="3" stroke-linecap="round" stroke-linejoin="round"/><path d="M305 324.64s0 19.37 17.41 17.99c0 0-5.53 16.88 7.28 18.12 0 0-10.42 10.93-1.48 23.38 0 0-15.22 0-15.22 15.22 0 0-5.35-15.22-21.42-8.3 0 0 6.3-20.75-12.92-23.52 0 0 20.95-8.3 7.57-26.29.05 0 21.47 8.3 18.79-16.6Z" fill="#fff" stroke="#262626" stroke-width="3" stroke-linecap="round" stroke-linejoin="round"/><path d="M309.12 378.47c4.42-.43 7.37-7.26 6.59-15.24-.79-7.99-5-14.1-9.42-13.68-4.42.44-7.37 7.26-6.58 15.25.78 7.98 5 14.1 9.41 13.67Z" fill="#fff" stroke="#262626" stroke-width="3" stroke-linecap="round" stroke-linejoin="round"/><path d="M413.73 641.77s-4.15 19.73-9.82 19.37c-5.68-.36-6.26-56.14 19.19-55.96 25.44.18 41.97 66.63 31.93 70.45-8.1 3.07-9.69-26.5-9.69-26.5s3.44 44.88-4.55 46.03c-7.98 1.15-3.89-43.47-3.89-43.47s-.5 47.75-8.74 47.24c-8.23-.51-2.37-43.09-2.37-43.09s-4.5 40.8-13.68 36.49c-3.85-1.83 1.62-50.56 1.62-50.56Z" fill="#FFDDD1" stroke="#262626" stroke-width="3" stroke-linecap="round" stroke-linejoin="round"/></g><defs><clipPath id="a"><path fill="#fff" d="M0 0h505v665H0z"/></clipPath></defs></svg>