<svg xmlns="http://www.w3.org/2000/svg" viewBox="6092.3 4790.3 688 245">
  <path fill="#fff" fill-rule="evenodd" d="M6133.3 4791.3c-22 0-40 18-40 40v122a40 40 0 0 0 40 40h19.4a78.5 78.5 0 0 1-35.1 40.7c26.9 3.2 55.7-19.2 75.6-40.7h546.1a40 40 0 0 0 40-40v-122a40 40 0 0 0-40-40h-606" clip-rule="evenodd"/>
  <path fill="#262626" fill-rule="evenodd" d="M6152.1 4822.4v35h-6v-15.7h-16v15.6h-6.2v-34.9h6.1v14h16v-14h6.1m6.3 17.4c.6-5.7 4.3-8.5 11-8.5 3.2 0 5.7.6 7.6 1.8 2 1.3 2.9 3.2 2.9 5.8v12.8c0 .8 0 1.3.2 1.5.2.3.6.4 1 .4h1.3v3.8c-1.4.4-2.6.6-3.6.6-2.4 0-3.7-1-4-3-2.2 2-5.2 3-9 3-2.6 0-4.6-.7-6.2-2a7 7 0 0 1-2.3-5.6c0-.7 0-1.4.3-2l.5-1.6c.2-.5.6-.9 1-1.3.5-.4 1-.7 1.2-1a110.8 110.8 0 0 1 4.9-1.6 77 77 0 0 1 3.4-.5l4.1-.6c.7-.2 1.2-.5 1.5-.8.2-.3.3-.9.3-1.8 0-2.6-1.7-3.9-5.2-3.9-1.8 0-3.2.4-4 1-.8.7-1.4 2-1.6 3.5h-5.3m16 4.8a10.4 10.4 0 0 1-2.8 1 61.9 61.9 0 0 0-6.1 1.1c-.6.2-1 .4-1.3.7-.3.3-.6.7-.8 1.2-.2.4-.4 1-.4 1.6 0 1.2.4 2.2 1.2 2.8.8.7 2 1 3.4 1 2.5 0 4.4-.7 5.7-2 .8-.8 1.2-2.2 1.2-4.4v-3m30.6 12.7h-5.6V4832h22.2v25.3h-5.5v-20.8H6205v20.8m34.2-26c3.9 0 7 1.2 9.3 3.6 2.2 2.5 3.4 5.7 3.4 9.8a14 14 0 0 1-3.4 9.8 12 12 0 0 1-9.3 3.6c-3.9 0-7-1.2-9.4-3.6a13.6 13.6 0 0 1-3.4-9.8c0-4 1.1-7.3 3.4-9.8 2.4-2.4 5.5-3.6 9.4-3.6Zm5.1 6.8a6.2 6.2 0 0 0-5.1-2.4c-2.3 0-4 .8-5.3 2.4-1.3 1.6-1.9 3.8-1.9 6.6s.6 5 2 6.7c1.2 1.6 3 2.4 5.2 2.4s3.9-.8 5.1-2.4c1.3-1.7 2-4 2-6.8 0-2.7-.7-5-2-6.5Zm33.4 19.2h-5.6v-20.8h-7.7l-.3 11c-.1 3.3-.9 5.9-2.2 7.7a6.3 6.3 0 0 1-5.4 2.7c-1.4 0-2.5-.2-3.4-.5v-4.4c.3.2 1 .3 2 .3 2.2 0 3.4-2.1 3.5-6.3l.5-15h18.6v25.3m28.5-7.9c-.7 2.8-2 5-4.1 6.5a12 12 0 0 1-7.4 2.3c-3.8 0-6.9-1.3-9.1-3.7a13.7 13.7 0 0 1-3.3-9.5c0-4 1-7.2 3.4-9.8 2.3-2.6 5.2-3.9 8.8-3.9 3.7 0 6.6 1.3 8.8 3.8a16 16 0 0 1 3.2 10.4v.6H6288c.1 2.5.7 4.5 2 5.9 1.2 1.4 2.8 2 5 2a6 6 0 0 0 3.7-1c1-.8 1.8-2 2.3-3.6h5.4m-5.3-7a7.8 7.8 0 0 0-2-5 5.8 5.8 0 0 0-4.4-2 6 6 0 0 0-4.5 1.8 8.7 8.7 0 0 0-2 5.1h13m47.7 2.7c0 4-1.1 7.1-3.3 9.5a11.6 11.6 0 0 1-9 3.5c-5.6 0-9.4-2.3-11.4-7-.8-2-1.2-4.6-1.2-8 0-6.6 1-11.6 3.1-14.8 1.1-1.7 2.5-3 4.1-3.8a15 15 0 0 1 6-1.5 28 28 0 0 1 3.2-.3 14 14 0 0 0 1.2-.3l.5-.3c0-.2.2-.3.3-.5h5.6l-.5 1.6a8 8 0 0 1-.5 1.3 3 3 0 0 1-.9 1l-1 .7-1 .6a71.2 71.2 0 0 0-2.7.6 3553.3 3553.3 0 0 0-4.7.4c-4.5.3-7.5 3.5-8.9 9.5h.2c1-1.7 2.3-3 3.7-3.9a11 11 0 0 1 5.7-1.3c3.3 0 6 1.2 8.2 3.6 2.2 2.4 3.3 5.5 3.3 9.4Zm-5.6 0c0-2.6-.6-4.7-1.9-6.2a6 6 0 0 0-5-2.4c-2 0-3.7.8-5 2.4a9.6 9.6 0 0 0-1.8 6.2c0 2.6.6 4.7 1.8 6.3 1.3 1.5 3 2.3 5 2.3a6 6 0 0 0 5-2.3c1.3-1.6 2-3.7 2-6.3Zm17.4 12.3h-7V4832h5.5v18.5h.2l9.4-18.5h7v25.3h-5.5V4839h-.2l-9.4 18.4m40.6-20.8h-8.3v20.8h-5.6v-20.8h-8.3v-4.5h22.2v4.5m22.9 6.9a7.7 7.7 0 0 1 2.2 5.8 8 8 0 0 1-2.2 6 8.8 8.8 0 0 1-6.4 2.1h-13.3V4832h5.6v9.2h7.7c2.7 0 4.8.7 6.4 2.2Zm-3.4 6c0-1.2-.3-2.1-1-2.8-.6-.7-1.5-1-2.7-1h-7v7.4h7c1.3 0 2.2-.4 2.8-1a4 4 0 0 0 1-2.7Zm33-1.6c-.4 3-1.7 5.6-3.8 7.4a11 11 0 0 1-7.9 2.8c-3.8 0-6.8-1.2-9-3.6a13.3 13.3 0 0 1-3.4-9.5c0-4.1 1.1-7.5 3.4-10a12 12 0 0 1 9.2-3.6c3.2 0 5.8.8 7.8 2.4 2 1.6 3.1 4 3.5 6.8h-5.6c-.3-1.6-1-2.8-2-3.6-1-.9-2.2-1.3-3.7-1.3a6 6 0 0 0-5 2.4 10.5 10.5 0 0 0-2 6.6c0 2.9.7 5 1.8 6.6a6 6 0 0 0 5 2.4c1.7 0 3-.5 4.1-1.5 1-1 1.8-2.5 2-4.3h5.6m25.6 9.5h-5.6v-10.2h-4.7l-7.8 10.2h-6.6l8.4-10.8c-2-.6-3.4-1.6-4.2-2.8a8.6 8.6 0 0 1-1.2-4.6c0-2.3.7-4 2.2-5.2a9.2 9.2 0 0 1 6.1-1.9h13.4v25.3m-5.6-14.2v-6.8h-6.7c-2.6 0-3.8 1-3.8 3.2 0 2.4 1.2 3.6 3.7 3.6h6.8m47.7 7c0 2.4-.8 4.1-2.4 5.4a11 11 0 0 1-7 1.8h-13.2V4832h14c2.3 0 4.2.6 5.5 1.7 1.3 1 2 2.6 2 4.5a5 5 0 0 1-1 3.3 7 7 0 0 1-2.7 2v.2c3.2.8 4.8 3 4.8 6.5Zm-9.3-4h-7.7v7h7.7c2.5 0 3.8-1.1 3.8-3.4 0-1.1-.4-2-1-2.6-.7-.6-1.6-1-2.8-1Zm-.7-9.8h-7v5.8h7.1c2.2 0 3.2-1 3.2-3s-1-2.8-3.3-2.8Zm38.8-4.3h5.6v25.3h-5.6V4832m-5.7 11.4a7.7 7.7 0 0 1 2.2 5.8 8 8 0 0 1-2.2 6 8.8 8.8 0 0 1-6.4 2.1h-12.3V4832h5.6v9.2h6.7c2.7 0 4.9.7 6.4 2.2Zm-3.4 6c0-1.2-.3-2.1-1-2.8-.6-.7-1.5-1-2.7-1h-6v7.4h6.1c1.2 0 2.1-.4 2.7-1a4 4 0 0 0 1-2.7Zm39.5-27.8c-.3 2.4-1 4.1-2.4 5.3-1.3 1-3.2 1.6-5.7 1.6s-4.4-.5-5.7-1.6c-1.3-1.2-2-3-2.3-5.3h2.8c.7 2.5 2.4 3.7 5.2 3.7 2.9 0 4.6-1.2 5.2-3.7h2.9m-12.1 35.7h-7.1V4832h5.6v18.5h.1l9.5-18.5h7v25.3h-5.5V4839h-.2l-9.4 18.4m47 8h-5.3v-8h-18v8h-5.3V4853h3.2a46 46 0 0 0 3-18v-2.9h19v21h3.4v12.4m-8.9-12.5v-16.5h-8.1v1.7a44.5 44.5 0 0 1-2.6 14.8h10.7m35-3.5c-.7 2.8-2 5-4.1 6.5a12 12 0 0 1-7.4 2.3c-3.8 0-6.9-1.3-9.1-3.7a13.7 13.7 0 0 1-3.4-9.5c0-4 1.2-7.2 3.5-9.8 2.3-2.6 5.2-3.9 8.8-3.9 3.7 0 6.6 1.3 8.8 3.8a16 16 0 0 1 3.2 10.4v.6h-18.7c.1 2.5.7 4.5 2 5.9 1.2 1.4 2.8 2 5 2a6 6 0 0 0 3.7-1c1-.8 1.8-2 2.3-3.6h5.4m-5.3-7a7.8 7.8 0 0 0-2-5 5.8 5.8 0 0 0-4.5-2 6 6 0 0 0-4.4 1.8 8.7 8.7 0 0 0-2 5.1h13m15.1 15h-5.4V4832h7.4l7 20.1h.2l6.8-20h7.3v25.2h-5.4v-16.8l-6.1 16.8h-5.6l-6-16.8h-.2v16.8m36.4-6.6v5c0 2.6-.5 4.6-1.5 6.1-1 1.6-2.7 2.7-5.2 3.2v-3c2-.5 3-2.1 3.2-4.7h-3.2v-6.6h6.7m-529 54.6h-6.7l-7.8-11-2.3 2.7v8.3h-5.4v-8.3l-2.4-2.6-7.7 11h-6.7l10.9-14.6-9.7-10.8h6.8l8.7 10.7h.1V4880h5.4v10.7h.1l8.7-10.7h6.8l-9.7 10.8 10.9 14.5m7.9-25.3v3.4c1.7-2.7 4.4-4 8.2-4 3.5 0 6.3 1.1 8.4 3.6a15 15 0 0 1 3.1 9.8c0 4-1 7.2-3 9.6a10.3 10.3 0 0 1-8.2 3.6 9.5 9.5 0 0 1-8.3-4v12.7h-5.5V4880h5.3m7 3.8a6 6 0 0 0-5 2.4 10.2 10.2 0 0 0-2 6.5c0 2.7.7 4.9 2 6.5 1.2 1.5 3 2.3 5.2 2.3 2 0 3.8-.8 5-2.3a10 10 0 0 0 1.9-6.4c0-2.8-.7-5-2-6.5a6 6 0 0 0-5-2.5Zm40.2 13.6c-.6 2.8-2 5-4 6.5a12 12 0 0 1-7.5 2.3c-3.8 0-6.8-1.3-9-3.7a13.7 13.7 0 0 1-3.4-9.5c0-4 1.1-7.2 3.4-9.8 2.3-2.6 5.3-3.9 8.8-3.9a11 11 0 0 1 8.8 3.8c2.2 2.6 3.2 6 3.2 10.4v.6h-18.6c0 2.5.7 4.5 1.9 5.9 1.2 1.4 2.9 2 5 2a6 6 0 0 0 3.8-1 8 8 0 0 0 2.3-3.6h5.3m-5.2-7a7.8 7.8 0 0 0-2-5 5.8 5.8 0 0 0-4.5-2 6 6 0 0 0-4.5 1.8 8.7 8.7 0 0 0-2 5.1h13m34.1 2.7c0 4-1.1 7.1-3.3 9.5a11.6 11.6 0 0 1-8.9 3.5c-5.7 0-9.5-2.3-11.5-7-.8-2-1.2-4.6-1.2-8 0-6.6 1-11.6 3.1-14.8 1.2-1.7 2.5-3 4.1-3.8a15 15 0 0 1 6-1.5 28 28 0 0 1 3.2-.3 13.5 13.5 0 0 0 1.2-.3l.5-.3c0-.2.2-.3.3-.5h5.6l-.5 1.6-.5 1.3a3 3 0 0 1-.9 1l-1 .7-1 .6a74.1 74.1 0 0 0-2.7.6 1496906491842.2 1496906491842.2 0 0 1-4.7.4c-4.5.3-7.5 3.5-8.9 9.5h.2c1-1.7 2.3-3 3.7-3.9a11 11 0 0 1 5.7-1.3c3.3 0 6 1.2 8.2 3.6 2.2 2.4 3.3 5.5 3.3 9.4Zm-5.6 0c0-2.6-.6-4.7-1.9-6.2a6 6 0 0 0-5-2.4c-2 0-3.7.8-5 2.4a9.6 9.6 0 0 0-1.8 6.2c0 2.6.6 4.7 1.9 6.3a6.1 6.1 0 0 0 5 2.3 6 6 0 0 0 4.9-2.3c1.3-1.6 2-3.7 2-6.3Zm17.4 12.3h-7V4880h5.5v18.5h.2l9.4-18.5h7v25.3h-5.5V4887h-.1l-9.5 18.4m40.2-35.7c-.2 2.4-1 4.1-2.3 5.3-1.3 1-3.2 1.6-5.7 1.6s-4.4-.5-5.7-1.6c-1.3-1.2-2-3-2.3-5.3h2.8c.6 2.5 2.4 3.7 5.2 3.7 2.8 0 4.6-1.2 5.2-3.7h2.8m-12 35.7h-7.1V4880h5.6v18.5h.1l9.5-18.5h7v25.3h-5.6V4887h-.1l-9.5 18.4m57.3-7.1c0 2.3-.8 4-2.4 5.3a11 11 0 0 1-6.9 1.8h-13.2V4880h14c2.3 0 4.1.6 5.4 1.7 1.3 1 2 2.6 2 4.5 0 1.4-.3 2.4-.9 3.3a7 7 0 0 1-2.7 2v.2c3.2.8 4.7 3 4.7 6.5Zm-9.3-4h-7.7v7h7.7c2.5 0 3.8-1.2 3.8-3.5 0-1.1-.3-2-1-2.6a4 4 0 0 0-2.8-1Zm-.7-10h-7v5.9h7.1c2.2 0 3.3-1 3.3-3s-1.2-2.8-3.4-2.8Zm38.8-4.2h5.6v25.3h-5.6V4880m-5.7 11.4a7.7 7.7 0 0 1 2.3 5.8 8 8 0 0 1-2.3 6 8.8 8.8 0 0 1-6.3 2.1h-12.4V4880h5.6v9.2h6.7c2.8 0 4.9.7 6.4 2.2Zm-3.3 6c0-1.2-.4-2.1-1-2.8-.7-.7-1.6-1-2.8-1h-6v7.4h6.1c1.3 0 2.2-.4 2.7-1 .7-.7 1-1.6 1-2.7Zm39.8-13h-8.3v21h-5.6v-21h-8.4v-4.4h22.3v4.5m24.5 20.8h-5.6v-10.2h-4.7l-7.8 10.2h-6.6l8.5-10.8c-2-.6-3.5-1.6-4.3-2.8a8.6 8.6 0 0 1-1.2-4.6c0-2.3.7-4 2.2-5.2a9.2 9.2 0 0 1 6.2-1.9h13.3v25.3m-5.6-14.2v-6.8h-6.7c-2.5 0-3.8 1-3.8 3.2 0 2.4 1.3 3.6 3.7 3.6h6.8m17 14.2h-5.5V4880h5.6v10h11v-10h5.6v25.3h-5.5v-11h-11.1v11m45.2-7.9c-.6 2.8-2 5-4 6.5a12 12 0 0 1-7.5 2.3c-3.8 0-6.9-1.3-9.1-3.7a13.7 13.7 0 0 1-3.3-9.5c0-4 1.1-7.2 3.4-9.8 2.3-2.6 5.2-3.9 8.8-3.9 3.7 0 6.6 1.3 8.8 3.8a16 16 0 0 1 3.2 10.4v.6h-18.7c.1 2.5.7 4.5 2 5.9 1.2 1.4 2.8 2 5 2a6 6 0 0 0 3.7-1c1-.8 1.8-2 2.3-3.6h5.4m-5.3-7a7.8 7.8 0 0 0-2-5 5.8 5.8 0 0 0-4.4-2 6 6 0 0 0-4.5 1.8 8.7 8.7 0 0 0-2 5.1h13m15.2 15h-5.4V4880h7.3l7 20.1h.2l6.8-20h7.3v25.2h-5.4v-16.8l-6 16.8h-5.7l-6-16.8h-.1v16.8m49.8 0h-7.1V4880h5.6v18.5h.1l9.5-18.5h7v25.3h-5.5V4887h-.2l-9.4 18.4m43.4 0h-5.6v-20.8h-7.7l-.4 11a13 13 0 0 1-2.1 7.7 6.3 6.3 0 0 1-5.4 2.7c-1.4 0-2.6-.2-3.5-.5v-4.4c.4.2 1 .3 2 .3 2.3 0 3.4-2.1 3.6-6.3l.4-15h18.7v25.3m12.8 0h-7V4880h5.6v18.5h.1l9.5-18.5h7v25.3h-5.6V4887h-.1l-9.5 18.4m40.3 0h-5.6V4880h22.3v25.3h-5.6v-20.8h-11v20.8m44.8-25.3-9.4 24.8a33.7 33.7 0 0 0-1 3 27.5 27.5 0 0 1-2 3.9c-.3.5-.7.9-1 1.1l-1 .9c-.4.3-.8.6-1.2.7a8 8 0 0 1-1.5.4 7 7 0 0 1-1.7.2l-3.9-.3v-4.7l3 .3c.4 0 .7 0 1-.2.4 0 .7-.3 1-.6l.6-.7.6-1a16.1 16.1 0 0 0 1-3.2l-9.6-24.6h6.1l6.8 18.7 6.3-18.7h5.9m25.5 15.8c-.4 3-1.7 5.6-3.8 7.4a11 11 0 0 1-7.9 2.8c-3.8 0-6.8-1.2-9-3.6a13.3 13.3 0 0 1-3.4-9.5c0-4.1 1.1-7.5 3.4-10a12 12 0 0 1 9.2-3.6c3.2 0 5.8.8 7.8 2.4 2 1.6 3.1 4 3.5 6.8h-5.6c-.3-1.6-1-2.8-2-3.6-1-.9-2.2-1.3-3.7-1.3a6 6 0 0 0-5 2.4 10.5 10.5 0 0 0-2 6.6c0 2.9.7 5 1.8 6.6a6 6 0 0 0 5 2.4c1.7 0 3-.5 4.1-1.5 1-1 1.8-2.5 2-4.3h5.6m23.2-11.3h-8.3v20.8h-5.6v-20.8h-8.3v-4.5h22.2v4.5m22.9 6.9a7.7 7.7 0 0 1 2.2 5.8 8 8 0 0 1-2.2 6 8.8 8.8 0 0 1-6.4 2.1H6734V4880h5.6v9.2h7.7c2.7 0 4.8.7 6.4 2.2Zm-3.4 6c0-1.2-.3-2.1-1-2.8-.6-.7-1.5-1-2.7-1h-7v7.4h7c1.3 0 2.2-.4 2.8-1a4 4 0 0 0 1-2.7Zm-603.4 56h-6.8l-8-11.4-3.2 3.5v7.8h-5.6V4928h5.6v11.3l10-11.3h6.9l-9.9 10.2 11 15.1m8.3 0h-5.6V4928h5.6v10h11v-10h5.6v25.3h-5.5v-11h-11.1v11m43.9 0h-5.6v-10.2h-4.7l-7.8 10.2h-6.6l8.4-10.8c-2-.6-3.5-1.6-4.2-2.8a8.6 8.6 0 0 1-1.2-4.6c0-2.3.7-4 2.1-5.2a9.2 9.2 0 0 1 6.2-1.9h13.4v25.3m-5.6-14.2v-6.8h-6.8c-2.5 0-3.7 1-3.7 3.2 0 2.4 1.2 3.6 3.7 3.6h6.8m32.1 6.7c0 2.6-1 4.6-3.2 6a13.1 13.1 0 0 1-7.5 2.2c-3.6 0-6.4-.7-8.4-2.2a8 8 0 0 1-3-6.4h5.6c.4 2.9 2.3 4.3 5.7 4.3 1.6 0 2.9-.3 3.8-1 1-.7 1.4-1.6 1.4-2.8 0-2.4-1.6-3.7-4.9-3.7h-3.1v-4.1h2.2c3.4 0 5-1.1 5-3.3 0-2.2-1.5-3.2-4.5-3.2-2.7 0-4.3 1.2-4.9 3.8h-5.6c.5-5.4 4.1-8 11-8 2.8 0 5.1.5 7 1.6 1.7 1 2.6 2.8 2.6 5.1a5.3 5.3 0 0 1-4.1 5.4 6 6 0 0 1 3.5 2 6 6 0 0 1 1.4 4.3Zm24.4-6.4a7.7 7.7 0 0 1 2.3 5.8 8 8 0 0 1-2.3 6 8.8 8.8 0 0 1-6.3 2.1h-13.3V4928h5.6v9.2h7.6c2.8 0 5 .7 6.4 2.2Zm-3.3 6c0-1.2-.3-2.1-1-2.8-.7-.7-1.6-1-2.7-1h-7v7.4h7c1.3 0 2.2-.4 2.8-1a4 4 0 0 0 .9-2.7Zm29.2 8h-5.6V4928h5.6v10h11v-10h5.7v25.3h-5.6v-11h-11v11m22.2-17.5c.6-5.7 4.3-8.5 11-8.5 3.3 0 5.8.6 7.6 1.8 2 1.3 2.9 3.2 2.9 5.8v12.8c0 .8 0 1.3.2 1.5.2.3.6.4 1.1.4h1.3v3.8c-1.5.4-2.7.6-3.7.6-2.3 0-3.7-1-4-3-2.2 2-5.1 3-9 3-2.6 0-4.6-.7-6.2-2a7 7 0 0 1-2.3-5.6 11.6 11.6 0 0 1 .8-3.6c.2-.5.6-.9 1-1.3.5-.4 1-.7 1.2-1a103.2 103.2 0 0 1 4.9-1.6 76 76 0 0 1 3.5-.5l4-.6c.7-.2 1.2-.5 1.5-.8.2-.3.3-.9.3-1.8 0-2.6-1.7-3.9-5.2-3.9-1.8 0-3.1.4-4 1-.8.7-1.4 2-1.6 3.5h-5.3m16 4.8a10.4 10.4 0 0 1-2.8 1 63 63 0 0 0-6 1.1l-1.4.7a3.8 3.8 0 0 0-1.1 2.8c0 1.2.4 2.2 1.1 2.8.9.7 2 1 3.4 1 2.5 0 4.4-.7 5.8-2 .7-.8 1-2.2 1-4.4v-3m34.4 3.2c-.4 3-1.6 5.6-3.7 7.4a11.2 11.2 0 0 1-7.9 2.8c-3.8 0-6.8-1.2-9-3.6a13.3 13.3 0 0 1-3.4-9.5c0-4.1 1-7.5 3.3-10a12 12 0 0 1 9.3-3.6c3.2 0 5.8.8 7.7 2.4 2 1.6 3.2 4 3.5 6.8h-5.5c-.3-1.6-1-2.8-2-3.6-1-.9-2.2-1.3-3.7-1.3a6 6 0 0 0-5.1 2.4 10.5 10.5 0 0 0-1.9 6.6c0 2.9.6 5 1.8 6.6a6 6 0 0 0 5 2.4c1.7 0 3-.5 4-1.5 1.1-1 1.8-2.5 2.1-4.3h5.5m23.3-15.8v3.4c1.7-2.7 4.4-4 8.2-4 3.5 0 6.3 1.1 8.4 3.6a15 15 0 0 1 3.1 9.8c0 4-1 7.2-3 9.6-2 2.4-4.8 3.6-8.2 3.6a9.5 9.5 0 0 1-8.2-4v12.7h-5.6V4928h5.3m7.1 3.8c-2.2 0-4 .8-5.1 2.4a10.2 10.2 0 0 0-2 6.5c0 2.7.7 4.9 2 6.5 1.2 1.5 3 2.3 5.2 2.3a6 6 0 0 0 5-2.3 10 10 0 0 0 1.9-6.4c0-2.8-.6-5-2-6.5a6 6 0 0 0-5-2.5Zm17.3 4c.5-5.7 4.2-8.5 11-8.5 3.2 0 5.7.6 7.6 1.8 1.9 1.3 2.8 3.2 2.8 5.8v12.8c0 .8.1 1.3.3 1.5.2.3.5.4 1 .4h1.3v3.8c-1.4.4-2.6.6-3.6.6-2.4 0-3.8-1-4.1-3-2.1 2-5.1 3-8.9 3-2.6 0-4.7-.7-6.2-2a7 7 0 0 1-2.3-5.6c0-.7 0-1.4.2-2l.6-1.6a3 3 0 0 1 1-1.3l1.2-1a111 111 0 0 1 4.9-1.6 78 78 0 0 1 3.4-.5c2-.2 3.4-.4 4-.6.8-.2 1.3-.5 1.5-.8.3-.3.4-.9.4-1.8 0-2.6-1.7-3.9-5.2-3.9-1.8 0-3.2.4-4 1-.9.7-1.4 2-1.6 3.5h-5.3m16 4.8a10.3 10.3 0 0 1-2.8 1 64 64 0 0 0-6.1 1.1l-1.4.7c-.3.3-.5.7-.7 1.2-.3.4-.4 1-.4 1.6 0 1.2.4 2.2 1.2 2.8.8.7 2 1 3.4 1 2.5 0 4.4-.7 5.7-2 .8-.8 1.1-2.2 1.1-4.4v-3m34.4 3.2c-.4 3-1.7 5.6-3.8 7.4a11 11 0 0 1-7.8 2.8c-3.8 0-6.9-1.2-9.1-3.6a13.3 13.3 0 0 1-3.4-9.5c0-4.1 1.1-7.5 3.4-10a12 12 0 0 1 9.2-3.6c3.2 0 5.8.8 7.8 2.4 2 1.6 3.1 4 3.5 6.8h-5.6c-.3-1.6-1-2.8-2-3.6a5 5 0 0 0-3.7-1.3 6 6 0 0 0-5 2.4 10.5 10.5 0 0 0-2 6.6c0 2.9.7 5 1.9 6.6a6 6 0 0 0 5 2.4c1.6 0 3-.5 4-1.5 1.1-1 1.8-2.5 2-4.3h5.6m27.2 0c-.4 3-1.6 5.6-3.7 7.4a11.5 11.5 0 0 1-8 2.8c-3.7 0-6.7-1.2-9-3.6a13.3 13.3 0 0 1-3.4-9.5c0-4.1 1.2-7.5 3.4-10a12 12 0 0 1 9.2-3.6c3.3 0 5.9.8 7.8 2.4 2 1.6 3.2 4 3.5 6.8h-5.5c-.4-1.6-1-2.8-2-3.6-1-.9-2.2-1.3-3.7-1.3a6 6 0 0 0-5.1 2.4 10.5 10.5 0 0 0-1.9 6.6c0 2.9.6 5 1.8 6.6a6 6 0 0 0 5 2.4c1.6 0 3-.5 4-1.5 1.1-1 1.8-2.5 2.1-4.3h5.5m26-15.8-9.3 24.8a33.7 33.7 0 0 0-1.1 3 27.5 27.5 0 0 1-2 3.9c-.3.5-.6.9-1 1.1l-1 .9c-.3.3-.7.6-1.2.7a8 8 0 0 1-1.4.4 7 7 0 0 1-1.8.2l-3.8-.3v-4.7l3 .3c.3 0 .7 0 1-.2.3 0 .6-.3.9-.6l.7-.7.5-1a16.1 16.1 0 0 0 1.1-3.2l-9.7-24.6h6.1l6.8 18.7 6.4-18.7h5.8m28.2 33.4h-5.3v-8h-18v8h-5.2v-12.5h3.2a46 46 0 0 0 3-18v-2.9h19v21h3.3v12.4m-8.8-12.5v-16.5h-8.2v1.7a44.5 44.5 0 0 1-2.6 14.8h10.8m19.3 4.4h-7V4928h5.5v18.5h.2l9.4-18.5h7v25.3h-5.5V4935h-.1l-9.5 18.4m40.6-20.8h-8.3v20.8h-5.6v-20.8h-8.3v-4.5h22.2v4.5m10.5 20.8v-6.2h6.3v6.2h-6.3m.5-9.6c0-2.1.2-3.9.6-5.2a9.8 9.8 0 0 1 2.8-3.9 23 23 0 0 1 2-1.7l.8-.9.8-1 .5-1c.2-.4.4-.8.4-1.2l.2-1.3c0-1.5-.5-2.7-1.4-3.6a5 5 0 0 0-3.7-1.3c-3.8 0-5.8 2.3-6 7h-5.6a13 13 0 0 1 3.2-8.7c2-2 4.8-3.1 8.5-3.1 3.3 0 6 .9 8 2.7 2 1.7 3 4 3 7 0 1-.2 2-.4 2.9-.2.8-.6 1.6-1.2 2.4a20.4 20.4 0 0 1-3.8 3.7 13.3 13.3 0 0 0-3 3.1c-.2.6-.4 2-.4 4h-5.3"/>
</svg>
