<svg width="686" height="243" viewBox="0 0 686 243" fill="none" xmlns="http://www.w3.org/2000/svg">
<path fill-rule="evenodd" clip-rule="evenodd" d="M40 0C17.9086 0 0 17.9086 0 40V162C0 184.091 17.9086 202 40 202H59.337C52.7376 222.276 34.8794 236.866 24.2667 242.697C51.1192 245.88 79.9287 223.434 99.887 202H646C668.091 202 686 184.091 686 162V40C686 17.9086 668.091 0 646 0H40Z" fill="white"/>
<path d="M58.801 31.112V66H52.676V50.32H36.702V66H30.577V31.112H36.702V44.979H52.676V31.112H58.801ZM65.0573 48.507C65.6453 42.7903 69.3366 39.932 76.1313 39.932C79.3 39.932 81.8153 40.5527 83.6773 41.794C85.572 43.0353 86.5193 44.9627 86.5193 47.576V60.414C86.5193 61.1327 86.601 61.6227 86.7643 61.884C86.9603 62.1453 87.3196 62.276 87.8423 62.276C88.2343 62.276 88.659 62.2433 89.1163 62.178V66.098C87.679 66.4573 86.4703 66.637 85.4903 66.637C83.1056 66.637 81.7336 65.6243 81.3743 63.599C79.251 65.6243 76.2946 66.637 72.5053 66.637C69.892 66.637 67.8176 65.9673 66.2823 64.628C64.747 63.256 63.9793 61.4103 63.9793 59.091C63.9793 58.3723 64.061 57.7027 64.2243 57.082C64.3876 56.4613 64.5673 55.9223 64.7633 55.465C64.992 55.0077 65.335 54.583 65.7923 54.191C66.2823 53.799 66.6743 53.4723 66.9683 53.211C67.295 52.9497 67.8013 52.7047 68.4873 52.476C69.206 52.2473 69.7286 52.084 70.0553 51.986C70.4146 51.8553 71.019 51.7247 71.8683 51.594C72.7176 51.4633 73.273 51.3817 73.5343 51.349C73.8283 51.2837 74.4163 51.202 75.2983 51.104C77.291 50.8427 78.6466 50.6303 79.3653 50.467C80.084 50.271 80.574 49.9933 80.8353 49.634C81.064 49.3727 81.1783 48.7683 81.1783 47.821C81.1783 45.273 79.447 43.999 75.9843 43.999C74.155 43.999 72.8156 44.342 71.9663 45.028C71.117 45.714 70.578 46.8737 70.3493 48.507H65.0573ZM81.1293 53.309C80.7046 53.5377 80.2146 53.75 79.6593 53.946C79.104 54.1093 78.6466 54.2237 78.2873 54.289C77.9606 54.3217 77.4216 54.387 76.6703 54.485C75.9516 54.583 75.478 54.6483 75.2493 54.681C74.5633 54.779 74.0243 54.877 73.6323 54.975C73.2403 55.0403 72.7503 55.171 72.1623 55.367C71.607 55.563 71.166 55.808 70.8393 56.102C70.5453 56.3633 70.284 56.739 70.0553 57.229C69.8266 57.6863 69.7123 58.2417 69.7123 58.895C69.7123 60.1037 70.1043 61.0347 70.8883 61.688C71.705 62.3413 72.832 62.668 74.2693 62.668C76.752 62.668 78.663 61.9983 80.0023 60.659C80.7536 59.9077 81.1293 58.454 81.1293 56.298V53.309ZM111.754 66H106.168V40.716H128.414V66H122.828V45.126H111.754V66ZM146.015 39.981C149.87 39.981 152.941 41.1897 155.227 43.607C157.514 46.0243 158.657 49.2747 158.657 53.358C158.657 57.474 157.514 60.7407 155.227 63.158C152.973 65.5753 149.903 66.784 146.015 66.784C142.063 66.784 138.927 65.5753 136.607 63.158C134.288 60.7407 133.128 57.474 133.128 53.358C133.128 49.2747 134.288 46.0243 136.607 43.607C138.959 41.1897 142.095 39.981 146.015 39.981ZM151.111 46.792C149.87 45.1913 148.139 44.391 145.917 44.391C143.696 44.391 141.948 45.1913 140.674 46.792C139.4 48.3927 138.763 50.5813 138.763 53.358C138.763 56.2 139.4 58.4213 140.674 60.022C141.948 61.6227 143.712 62.423 145.966 62.423C148.155 62.423 149.87 61.6227 151.111 60.022C152.385 58.3887 153.022 56.151 153.022 53.309C153.022 50.5323 152.385 48.36 151.111 46.792ZM184.498 66H178.912V45.126H171.17L170.827 56.2C170.729 59.4993 170.01 62.0637 168.671 63.893C167.364 65.6897 165.568 66.588 163.281 66.588C161.876 66.588 160.733 66.4083 159.851 66.049V61.688C160.178 61.8513 160.847 61.933 161.86 61.933C164.081 61.933 165.257 59.8423 165.388 55.661L165.829 40.716H184.498V66ZM212.929 58.111C212.308 60.855 210.952 62.9947 208.862 64.53C206.804 66.0653 204.337 66.833 201.463 66.833C197.641 66.833 194.603 65.608 192.349 63.158C190.127 60.6753 189.017 57.5067 189.017 53.652C189.017 49.6993 190.16 46.4327 192.447 43.852C194.766 41.2713 197.706 39.981 201.267 39.981C204.958 39.981 207.882 41.255 210.038 43.803C212.194 46.3183 213.272 49.7647 213.272 54.142V54.73H194.603C194.668 57.278 195.305 59.2543 196.514 60.659C197.722 62.031 199.405 62.717 201.561 62.717C203.096 62.717 204.337 62.3577 205.285 61.639C206.265 60.8877 207.032 59.7117 207.588 58.111H212.929ZM207.686 51.006C207.522 48.8827 206.853 47.2167 205.677 46.008C204.533 44.7667 203.047 44.146 201.218 44.146C199.388 44.146 197.902 44.734 196.759 45.91C195.648 47.086 194.962 48.7847 194.701 51.006H207.686ZM255.46 53.652C255.46 57.6047 254.349 60.7733 252.128 63.158C249.906 65.51 246.95 66.686 243.259 66.686C237.575 66.686 233.753 64.3503 231.793 59.679C230.943 57.719 230.519 55.0567 230.519 51.692C230.519 45.0607 231.58 40.1117 233.704 36.845C234.814 35.1463 236.17 33.8887 237.771 33.072C239.371 32.2227 241.397 31.7163 243.847 31.553C244.141 31.5203 244.533 31.4877 245.023 31.455C245.545 31.4223 245.905 31.406 246.101 31.406C246.329 31.3733 246.607 31.3407 246.934 31.308C247.293 31.2427 247.538 31.1937 247.669 31.161C247.832 31.0957 248.012 31.0303 248.208 30.965C248.404 30.867 248.551 30.7527 248.649 30.622C248.747 30.4913 248.845 30.3443 248.943 30.181H254.529C254.431 30.769 254.284 31.308 254.088 31.798C253.924 32.288 253.745 32.7127 253.549 33.072C253.353 33.4313 253.059 33.758 252.667 34.052C252.307 34.346 251.997 34.591 251.736 34.787C251.507 34.983 251.131 35.1627 250.609 35.326C250.086 35.4893 249.678 35.62 249.384 35.718C249.09 35.7833 248.616 35.865 247.963 35.963C247.309 36.0283 246.819 36.0773 246.493 36.11C246.199 36.1427 245.66 36.1917 244.876 36.257C244.124 36.2897 243.585 36.3223 243.259 36.355C238.751 36.7143 235.794 39.883 234.39 45.861H234.537C235.615 44.1297 236.872 42.8393 238.31 41.99C239.747 41.108 241.642 40.667 243.994 40.667C247.26 40.667 249.988 41.8593 252.177 44.244C254.365 46.6287 255.46 49.7647 255.46 53.652ZM249.874 53.652C249.874 51.0713 249.237 48.997 247.963 47.429C246.721 45.861 245.072 45.077 243.014 45.077C240.956 45.077 239.29 45.861 238.016 47.429C236.774 48.9643 236.154 51.0387 236.154 53.652C236.154 56.2653 236.774 58.356 238.016 59.924C239.29 61.492 240.956 62.276 243.014 62.276C245.072 62.276 246.721 61.492 247.963 59.924C249.237 58.356 249.874 56.2653 249.874 53.652ZM267.258 66H260.202V40.716H265.788V59.14H265.935L275.392 40.716H282.448V66H276.862V47.576H276.715L267.258 66ZM307.889 45.126H299.559V66H293.973V45.126H285.643V40.716H307.889V45.126ZM330.717 52.035C332.22 53.4397 332.971 55.3997 332.971 57.915C332.971 60.4303 332.22 62.4067 330.717 63.844C329.214 65.2813 327.107 66 324.396 66H311.068V40.716H316.654V49.879H324.347C327.091 49.879 329.214 50.5977 330.717 52.035ZM327.385 58.013C327.385 56.8697 327.058 55.955 326.405 55.269C325.752 54.583 324.837 54.24 323.661 54.24H316.654V61.639H323.759C324.968 61.639 325.866 61.3123 326.454 60.659C327.075 59.973 327.385 59.091 327.385 58.013ZM360.318 56.445C359.926 59.5483 358.685 62.031 356.594 63.893C354.504 65.7223 351.874 66.637 348.705 66.637C344.916 66.637 341.894 65.4447 339.64 63.06C337.386 60.6427 336.259 57.4903 336.259 53.603C336.259 49.4217 337.386 46.106 339.64 43.656C341.927 41.1733 344.998 39.932 348.852 39.932C352.086 39.932 354.683 40.7487 356.643 42.382C358.636 44.0153 359.796 46.2857 360.122 49.193H354.585C354.259 47.5923 353.605 46.3673 352.625 45.518C351.645 44.6687 350.404 44.244 348.901 44.244C346.745 44.244 345.047 45.0607 343.805 46.694C342.564 48.2947 341.943 50.4997 341.943 53.309C341.943 56.1183 342.531 58.307 343.707 59.875C344.916 61.443 346.582 62.227 348.705 62.227C350.371 62.227 351.727 61.737 352.772 60.757C353.85 59.7443 354.536 58.307 354.83 56.445H360.318ZM385.978 66H380.392V55.808H375.639L367.848 66H361.282L369.71 55.171C367.652 54.5177 366.231 53.5703 365.447 52.329C364.663 51.055 364.271 49.5197 364.271 47.723C364.271 45.5017 364.989 43.7867 366.427 42.578C367.864 41.3367 369.922 40.716 372.601 40.716H385.978V66ZM380.392 51.741V44.979H373.63C371.114 44.979 369.857 46.057 369.857 48.213C369.857 50.565 371.098 51.741 373.581 51.741H380.392ZM428.068 58.846C428.068 61.1327 427.251 62.8967 425.618 64.138C424.017 65.3793 421.731 66 418.758 66H405.479V40.716H419.444C421.796 40.716 423.625 41.255 424.932 42.333C426.271 43.411 426.941 44.93 426.941 46.89C426.941 48.2293 426.647 49.3073 426.059 50.124C425.471 50.9407 424.556 51.643 423.315 52.231V52.329C426.484 53.1457 428.068 55.318 428.068 58.846ZM418.758 54.828H411.065V61.786H418.758C421.273 61.786 422.531 60.6427 422.531 58.356C422.531 57.2453 422.204 56.3797 421.551 55.759C420.898 55.1383 419.967 54.828 418.758 54.828ZM418.023 44.93H411.065V50.761H418.17C420.326 50.761 421.404 49.7483 421.404 47.723C421.404 45.861 420.277 44.93 418.023 44.93ZM456.864 40.716H462.45V66H456.864V40.716ZM451.131 52.035C452.633 53.4397 453.385 55.3997 453.385 57.915C453.385 60.4303 452.633 62.4067 451.131 63.844C449.628 65.2813 447.521 66 444.81 66H432.462V40.716H438.048V49.879H444.761C447.505 49.879 449.628 50.5977 451.131 52.035ZM447.799 58.013C447.799 56.8697 447.472 55.955 446.819 55.269C446.165 54.583 445.251 54.24 444.075 54.24H438.048V61.639H444.173C445.381 61.639 446.28 61.3123 446.868 60.659C447.488 59.973 447.799 59.091 447.799 58.013ZM487.228 30.279C486.967 32.631 486.183 34.3787 484.876 35.522C483.569 36.6327 481.675 37.188 479.192 37.188C476.709 37.188 474.815 36.6327 473.508 35.522C472.201 34.3787 471.417 32.631 471.156 30.279H473.998C474.619 32.7617 476.35 34.003 479.192 34.003C482.034 34.003 483.765 32.7617 484.386 30.279H487.228ZM475.125 66H468.069V40.716H473.655V59.14H473.802L483.259 40.716H490.315V66H484.729V47.576H484.582L475.125 66ZM522.176 74.036H516.884V66H498.901V74.036H493.609V61.59H496.794C498.786 56.9187 499.783 50.908 499.783 43.558V40.716H518.795V61.59H522.176V74.036ZM513.307 61.59V45.028H505.124V46.743C505.124 49.389 504.846 52.1657 504.291 55.073C503.735 57.9477 503.147 60.12 502.527 61.59H513.307ZM548.224 58.111C547.604 60.855 546.248 62.9947 544.157 64.53C542.099 66.0653 539.633 66.833 536.758 66.833C532.936 66.833 529.898 65.608 527.644 63.158C525.423 60.6753 524.312 57.5067 524.312 53.652C524.312 49.6993 525.456 46.4327 527.742 43.852C530.062 41.2713 533.002 39.981 536.562 39.981C540.254 39.981 543.177 41.255 545.333 43.803C547.489 46.3183 548.567 49.7647 548.567 54.142V54.73H529.898C529.964 57.278 530.601 59.2543 531.809 60.659C533.018 62.031 534.7 62.717 536.856 62.717C538.392 62.717 539.633 62.3577 540.58 61.639C541.56 60.8877 542.328 59.7117 542.883 58.111H548.224ZM542.981 51.006C542.818 48.8827 542.148 47.2167 540.972 46.008C539.829 44.7667 538.343 44.146 536.513 44.146C534.684 44.146 533.198 44.734 532.054 45.91C530.944 47.086 530.258 48.7847 529.996 51.006H542.981ZM558.204 66H552.814V40.716H560.164L567.22 60.806H567.318L574.129 40.716H581.479V66H576.089V49.193H575.991L569.964 66H564.329L558.302 49.193H558.204V66ZM594.518 59.385V64.383C594.518 66.931 594.028 68.9727 593.048 70.508C592.068 72.076 590.337 73.1377 587.854 73.693V70.753C589.879 70.1323 590.941 68.548 591.039 66H587.854V59.385H594.518ZM65.563 114H58.85L51.108 103.024L48.756 105.67V114H43.366V105.67L41.014 103.024L33.272 114H26.559L37.437 99.496L27.784 88.716H34.546L43.219 99.398H43.366V88.716H48.756V99.398H48.903L57.576 88.716H64.338L54.685 99.496L65.563 114ZM73.4187 88.716V92.097C75.1174 89.353 77.8614 87.981 81.6507 87.981C85.146 87.981 87.939 89.206 90.0297 91.656C92.1204 94.106 93.1657 97.3727 93.1657 101.456C93.1657 105.441 92.1367 108.643 90.0787 111.06C88.0534 113.445 85.342 114.637 81.9447 114.637C78.3514 114.637 75.6074 113.314 73.7127 110.668V123.359H68.1757V88.716H73.4187ZM80.5237 92.489C78.335 92.489 76.62 93.273 75.3787 94.841C74.1374 96.409 73.5167 98.5813 73.5167 101.358C73.5167 104.102 74.1374 106.258 75.3787 107.826C76.6527 109.394 78.4004 110.178 80.6217 110.178C82.745 110.178 84.4274 109.394 85.6687 107.826C86.91 106.258 87.5307 104.135 87.5307 101.456C87.5307 98.712 86.8937 96.5397 85.6197 94.939C84.3784 93.3057 82.6797 92.489 80.5237 92.489ZM120.671 106.111C120.05 108.855 118.694 110.995 116.604 112.53C114.546 114.065 112.079 114.833 109.205 114.833C105.383 114.833 102.345 113.608 100.091 111.158C97.8694 108.675 96.7588 105.507 96.7588 101.652C96.7588 97.6993 97.9021 94.4327 100.189 91.852C102.508 89.2713 105.448 87.981 109.009 87.981C112.7 87.981 115.624 89.255 117.78 91.803C119.936 94.3183 121.014 97.7647 121.014 102.142V102.73H102.345C102.41 105.278 103.047 107.254 104.256 108.659C105.464 110.031 107.147 110.717 109.303 110.717C110.838 110.717 112.079 110.358 113.027 109.639C114.007 108.888 114.774 107.712 115.33 106.111H120.671ZM115.428 99.006C115.264 96.8827 114.595 95.2167 113.419 94.008C112.275 92.7667 110.789 92.146 108.96 92.146C107.13 92.146 105.644 92.734 104.501 93.91C103.39 95.086 102.704 96.7847 102.443 99.006H115.428ZM149.564 101.652C149.564 105.605 148.454 108.773 146.232 111.158C144.011 113.51 141.055 114.686 137.363 114.686C131.679 114.686 127.857 112.35 125.897 107.679C125.048 105.719 124.623 103.057 124.623 99.692C124.623 93.0607 125.685 88.1117 127.808 84.845C128.919 83.1463 130.275 81.8887 131.875 81.072C133.476 80.2227 135.501 79.7163 137.951 79.553C138.245 79.5203 138.637 79.4877 139.127 79.455C139.65 79.4223 140.009 79.406 140.205 79.406C140.434 79.3733 140.712 79.3407 141.038 79.308C141.398 79.2427 141.643 79.1937 141.773 79.161C141.937 79.0957 142.116 79.0303 142.312 78.965C142.508 78.867 142.655 78.7527 142.753 78.622C142.851 78.4913 142.949 78.3443 143.047 78.181H148.633C148.535 78.769 148.388 79.308 148.192 79.798C148.029 80.288 147.849 80.7127 147.653 81.072C147.457 81.4313 147.163 81.758 146.771 82.052C146.412 82.346 146.102 82.591 145.84 82.787C145.612 82.983 145.236 83.1627 144.713 83.326C144.191 83.4893 143.782 83.62 143.488 83.718C143.194 83.7833 142.721 83.865 142.067 83.963C141.414 84.0283 140.924 84.0773 140.597 84.11C140.303 84.1427 139.764 84.1917 138.98 84.257C138.229 84.2897 137.69 84.3223 137.363 84.355C132.855 84.7143 129.899 87.883 128.494 93.861H128.641C129.719 92.1297 130.977 90.8393 132.414 89.99C133.852 89.108 135.746 88.667 138.098 88.667C141.365 88.667 144.093 89.8593 146.281 92.244C148.47 94.6287 149.564 97.7647 149.564 101.652ZM143.978 101.652C143.978 99.0713 143.341 96.997 142.067 95.429C140.826 93.861 139.176 93.077 137.118 93.077C135.06 93.077 133.394 93.861 132.12 95.429C130.879 96.9643 130.258 99.0387 130.258 101.652C130.258 104.265 130.879 106.356 132.12 107.924C133.394 109.492 135.06 110.276 137.118 110.276C139.176 110.276 140.826 109.492 142.067 107.924C143.341 106.356 143.978 104.265 143.978 101.652ZM161.362 114H154.306V88.716H159.892V107.14H160.039L169.496 88.716H176.552V114H170.966V95.576H170.819L161.362 114ZM201.602 78.279C201.341 80.631 200.557 82.3787 199.25 83.522C197.943 84.6327 196.049 85.188 193.566 85.188C191.083 85.188 189.189 84.6327 187.882 83.522C186.575 82.3787 185.791 80.631 185.53 78.279H188.372C188.993 80.7617 190.724 82.003 193.566 82.003C196.408 82.003 198.139 80.7617 198.76 78.279H201.602ZM189.499 114H182.443V88.716H188.029V107.14H188.176L197.633 88.716H204.689V114H199.103V95.576H198.956L189.499 114ZM246.806 106.846C246.806 109.133 245.99 110.897 244.356 112.138C242.756 113.379 240.469 114 237.496 114H224.217V88.716H238.182C240.534 88.716 242.364 89.255 243.67 90.333C245.01 91.411 245.679 92.93 245.679 94.89C245.679 96.2293 245.385 97.3073 244.797 98.124C244.209 98.9407 243.295 99.643 242.053 100.231V100.329C245.222 101.146 246.806 103.318 246.806 106.846ZM237.496 102.828H229.803V109.786H237.496C240.012 109.786 241.269 108.643 241.269 106.356C241.269 105.245 240.943 104.38 240.289 103.759C239.636 103.138 238.705 102.828 237.496 102.828ZM236.761 92.93H229.803V98.761H236.908C239.064 98.761 240.142 97.7483 240.142 95.723C240.142 93.861 239.015 92.93 236.761 92.93ZM275.602 88.716H281.188V114H275.602V88.716ZM269.869 100.035C271.372 101.44 272.123 103.4 272.123 105.915C272.123 108.43 271.372 110.407 269.869 111.844C268.366 113.281 266.259 114 263.548 114H251.2V88.716H256.786V97.879H263.499C266.243 97.879 268.366 98.5977 269.869 100.035ZM266.537 106.013C266.537 104.87 266.21 103.955 265.557 103.269C264.904 102.583 263.989 102.24 262.813 102.24H256.786V109.639H262.911C264.12 109.639 265.018 109.312 265.606 108.659C266.227 107.973 266.537 107.091 266.537 106.013ZM306.358 93.126H298.028V114H292.442V93.126H284.112V88.716H306.358V93.126ZM330.901 114H325.315V103.808H320.562L312.771 114H306.205L314.633 103.171C312.575 102.518 311.154 101.57 310.37 100.329C309.586 99.055 309.194 97.5197 309.194 95.723C309.194 93.5017 309.912 91.7867 311.35 90.578C312.787 89.3367 314.845 88.716 317.524 88.716H330.901V114ZM325.315 99.741V92.979H318.553C316.037 92.979 314.78 94.057 314.78 96.213C314.78 98.565 316.021 99.741 318.504 99.741H325.315ZM342.35 114H336.764V88.716H342.35V98.614H353.424V88.716H359.01V114H353.424V103.024H342.35V114ZM387.539 106.111C386.918 108.855 385.563 110.995 383.472 112.53C381.414 114.065 378.948 114.833 376.073 114.833C372.251 114.833 369.213 113.608 366.959 111.158C364.738 108.675 363.627 105.507 363.627 101.652C363.627 97.6993 364.77 94.4327 367.057 91.852C369.376 89.2713 372.316 87.981 375.877 87.981C379.568 87.981 382.492 89.255 384.648 91.803C386.804 94.3183 387.882 97.7647 387.882 102.142V102.73H369.213C369.278 105.278 369.915 107.254 371.124 108.659C372.333 110.031 374.015 110.717 376.171 110.717C377.706 110.717 378.948 110.358 379.895 109.639C380.875 108.888 381.643 107.712 382.198 106.111H387.539ZM382.296 99.006C382.133 96.8827 381.463 95.2167 380.287 94.008C379.144 92.7667 377.657 92.146 375.828 92.146C373.999 92.146 372.512 92.734 371.369 93.91C370.258 95.086 369.572 96.7847 369.311 99.006H382.296ZM397.518 114H392.128V88.716H399.478L406.534 108.806H406.632L413.443 88.716H420.793V114H415.403V97.193H415.305L409.278 114H403.643L397.616 97.193H397.518V114ZM447.323 114H440.267V88.716H445.853V107.14H446L455.457 88.716H462.513V114H456.927V95.576H456.78L447.323 114ZM490.748 114H485.162V93.126H477.42L477.077 104.2C476.979 107.499 476.26 110.064 474.921 111.893C473.614 113.69 471.818 114.588 469.531 114.588C468.126 114.588 466.983 114.408 466.101 114.049V109.688C466.428 109.851 467.097 109.933 468.11 109.933C470.331 109.933 471.507 107.842 471.638 103.661L472.079 88.716H490.748V114ZM503.597 114H496.541V88.716H502.127V107.14H502.274L511.731 88.716H518.787V114H513.201V95.576H513.054L503.597 114ZM543.901 114H538.315V88.716H560.561V114H554.975V93.126H543.901V114ZM588.747 88.716L579.388 113.51C579.29 113.739 579.11 114.212 578.849 114.931C578.587 115.682 578.408 116.189 578.31 116.45C578.212 116.711 578.016 117.169 577.722 117.822C577.46 118.475 577.248 118.933 577.085 119.194C576.921 119.455 576.676 119.847 576.35 120.37C576.023 120.893 575.713 121.268 575.419 121.497C575.157 121.726 574.814 122.003 574.39 122.33C573.998 122.689 573.589 122.934 573.165 123.065C572.74 123.228 572.25 123.359 571.695 123.457C571.172 123.588 570.6 123.653 569.98 123.653C568.934 123.653 567.644 123.555 566.109 123.359V118.655C567.285 118.884 568.265 118.998 569.049 118.998C569.441 118.998 569.8 118.933 570.127 118.802C570.453 118.704 570.747 118.508 571.009 118.214C571.27 117.953 571.499 117.691 571.695 117.43C571.891 117.201 572.07 116.858 572.234 116.401C572.43 115.976 572.577 115.633 572.675 115.372C572.773 115.143 572.903 114.768 573.067 114.245C573.23 113.722 573.328 113.396 573.361 113.265L563.659 88.716H569.784L576.546 107.336L582.916 88.716H588.747ZM614.219 104.445C613.827 107.548 612.585 110.031 610.495 111.893C608.404 113.722 605.774 114.637 602.606 114.637C598.816 114.637 595.795 113.445 593.541 111.06C591.287 108.643 590.16 105.49 590.16 101.603C590.16 97.4217 591.287 94.106 593.541 91.656C595.827 89.1733 598.898 87.932 602.753 87.932C605.987 87.932 608.584 88.7487 610.544 90.382C612.536 92.0153 613.696 94.2857 614.023 97.193H608.486C608.159 95.5923 607.506 94.3673 606.526 93.518C605.546 92.6687 604.304 92.244 602.802 92.244C600.646 92.244 598.947 93.0607 597.706 94.694C596.464 96.2947 595.844 98.4997 595.844 101.309C595.844 104.118 596.432 106.307 597.608 107.875C598.816 109.443 600.482 110.227 602.606 110.227C604.272 110.227 605.627 109.737 606.673 108.757C607.751 107.744 608.437 106.307 608.731 104.445H614.219ZM637.491 93.126H629.161V114H623.575V93.126H615.245V88.716H637.491V93.126ZM660.318 100.035C661.821 101.44 662.572 103.4 662.572 105.915C662.572 108.43 661.821 110.407 660.318 111.844C658.816 113.281 656.709 114 653.997 114H640.669V88.716H646.255V97.879H653.948C656.692 97.879 658.816 98.5977 660.318 100.035ZM656.986 106.013C656.986 104.87 656.66 103.955 656.006 103.269C655.353 102.583 654.438 102.24 653.262 102.24H646.255V109.639H653.36C654.569 109.639 655.467 109.312 656.055 108.659C656.676 107.973 656.986 107.091 656.986 106.013ZM53.558 162H46.796L38.858 150.681L35.526 154.16V162H29.94V136.716H35.526V147.937L45.62 136.716H52.431L42.582 146.859L53.558 162ZM61.8444 162H56.2584V136.716H61.8444V146.614H72.9184V136.716H78.5044V162H72.9184V151.024H61.8444V162ZM105.759 162H100.173V151.808H95.4201L87.6291 162H81.0631L89.4911 151.171C87.4331 150.518 86.0121 149.57 85.2281 148.329C84.4441 147.055 84.0521 145.52 84.0521 143.723C84.0521 141.502 84.7707 139.787 86.2081 138.578C87.6454 137.337 89.7034 136.716 92.3821 136.716H105.759V162ZM100.173 147.741V140.979H93.4111C90.8957 140.979 89.6381 142.057 89.6381 144.213C89.6381 146.565 90.8794 147.741 93.3621 147.741H100.173ZM132.301 154.503C132.301 157.084 131.223 159.093 129.067 160.53C126.943 161.967 124.428 162.686 121.521 162.686C117.927 162.686 115.151 161.935 113.191 160.432C111.263 158.897 110.234 156.79 110.104 154.111H115.739C116.131 156.953 118.042 158.374 121.472 158.374C123.072 158.374 124.346 158.047 125.294 157.394C126.241 156.708 126.715 155.777 126.715 154.601C126.715 152.118 125.065 150.877 121.766 150.877H118.63V146.761H120.884C124.248 146.761 125.931 145.65 125.931 143.429C125.931 141.306 124.395 140.244 121.325 140.244C118.646 140.244 117.029 141.502 116.474 144.017H110.839C111.329 138.66 115.004 135.981 121.864 135.981C124.706 135.981 127.009 136.536 128.773 137.647C130.569 138.758 131.468 140.473 131.468 142.792C131.468 144.164 131.059 145.34 130.243 146.32C129.459 147.3 128.511 147.904 127.401 148.133V148.231C128.74 148.492 129.883 149.162 130.831 150.24C131.811 151.285 132.301 152.706 132.301 154.503ZM156.681 148.035C158.183 149.44 158.935 151.4 158.935 153.915C158.935 156.43 158.183 158.407 156.681 159.844C155.178 161.281 153.071 162 150.36 162H137.032V136.716H142.618V145.879H150.311C153.055 145.879 155.178 146.598 156.681 148.035ZM153.349 154.013C153.349 152.87 153.022 151.955 152.369 151.269C151.715 150.583 150.801 150.24 149.625 150.24H142.618V157.639H149.723C150.931 157.639 151.83 157.312 152.418 156.659C153.038 155.973 153.349 155.091 153.349 154.013ZM182.574 162H176.988V136.716H182.574V146.614H193.648V136.716H199.234V162H193.648V151.024H182.574V162ZM204.88 144.507C205.468 138.79 209.159 135.932 215.954 135.932C219.122 135.932 221.638 136.553 223.5 137.794C225.394 139.035 226.342 140.963 226.342 143.576V156.414C226.342 157.133 226.423 157.623 226.587 157.884C226.783 158.145 227.142 158.276 227.665 158.276C228.057 158.276 228.481 158.243 228.939 158.178V162.098C227.501 162.457 226.293 162.637 225.313 162.637C222.928 162.637 221.556 161.624 221.197 159.599C219.073 161.624 216.117 162.637 212.328 162.637C209.714 162.637 207.64 161.967 206.105 160.628C204.569 159.256 203.802 157.41 203.802 155.091C203.802 154.372 203.883 153.703 204.047 153.082C204.21 152.461 204.39 151.922 204.586 151.465C204.814 151.008 205.157 150.583 205.615 150.191C206.105 149.799 206.497 149.472 206.791 149.211C207.117 148.95 207.624 148.705 208.31 148.476C209.028 148.247 209.551 148.084 209.878 147.986C210.237 147.855 210.841 147.725 211.691 147.594C212.54 147.463 213.095 147.382 213.357 147.349C213.651 147.284 214.239 147.202 215.121 147.104C217.113 146.843 218.469 146.63 219.188 146.467C219.906 146.271 220.396 145.993 220.658 145.634C220.886 145.373 221.001 144.768 221.001 143.821C221.001 141.273 219.269 139.999 215.807 139.999C213.977 139.999 212.638 140.342 211.789 141.028C210.939 141.714 210.4 142.874 210.172 144.507H204.88ZM220.952 149.309C220.527 149.538 220.037 149.75 219.482 149.946C218.926 150.109 218.469 150.224 218.11 150.289C217.783 150.322 217.244 150.387 216.493 150.485C215.774 150.583 215.3 150.648 215.072 150.681C214.386 150.779 213.847 150.877 213.455 150.975C213.063 151.04 212.573 151.171 211.985 151.367C211.429 151.563 210.988 151.808 210.662 152.102C210.368 152.363 210.106 152.739 209.878 153.229C209.649 153.686 209.535 154.242 209.535 154.895C209.535 156.104 209.927 157.035 210.711 157.688C211.527 158.341 212.654 158.668 214.092 158.668C216.574 158.668 218.485 157.998 219.825 156.659C220.576 155.908 220.952 154.454 220.952 152.298V149.309ZM255.284 152.445C254.892 155.548 253.651 158.031 251.56 159.893C249.469 161.722 246.84 162.637 243.671 162.637C239.882 162.637 236.86 161.445 234.606 159.06C232.352 156.643 231.225 153.49 231.225 149.603C231.225 145.422 232.352 142.106 234.606 139.656C236.893 137.173 239.963 135.932 243.818 135.932C247.052 135.932 249.649 136.749 251.609 138.382C253.602 140.015 254.761 142.286 255.088 145.193H249.551C249.224 143.592 248.571 142.367 247.591 141.518C246.611 140.669 245.37 140.244 243.867 140.244C241.711 140.244 240.012 141.061 238.771 142.694C237.53 144.295 236.909 146.5 236.909 149.309C236.909 152.118 237.497 154.307 238.673 155.875C239.882 157.443 241.548 158.227 243.671 158.227C245.337 158.227 246.693 157.737 247.738 156.757C248.816 155.744 249.502 154.307 249.796 152.445H255.284ZM278.558 136.716V140.097C280.257 137.353 283.001 135.981 286.79 135.981C290.286 135.981 293.079 137.206 295.169 139.656C297.26 142.106 298.305 145.373 298.305 149.456C298.305 153.441 297.276 156.643 295.218 159.06C293.193 161.445 290.482 162.637 287.084 162.637C283.491 162.637 280.747 161.314 278.852 158.668V171.359H273.315V136.716H278.558ZM285.663 140.489C283.475 140.489 281.76 141.273 280.518 142.841C279.277 144.409 278.656 146.581 278.656 149.358C278.656 152.102 279.277 154.258 280.518 155.826C281.792 157.394 283.54 158.178 285.761 158.178C287.885 158.178 289.567 157.394 290.808 155.826C292.05 154.258 292.67 152.135 292.67 149.456C292.67 146.712 292.033 144.54 290.759 142.939C289.518 141.306 287.819 140.489 285.663 140.489ZM302.927 144.507C303.515 138.79 307.207 135.932 314.001 135.932C317.17 135.932 319.685 136.553 321.547 137.794C323.442 139.035 324.389 140.963 324.389 143.576V156.414C324.389 157.133 324.471 157.623 324.634 157.884C324.83 158.145 325.19 158.276 325.712 158.276C326.104 158.276 326.529 158.243 326.986 158.178V162.098C325.549 162.457 324.34 162.637 323.36 162.637C320.976 162.637 319.604 161.624 319.244 159.599C317.121 161.624 314.165 162.637 310.375 162.637C307.762 162.637 305.688 161.967 304.152 160.628C302.617 159.256 301.849 157.41 301.849 155.091C301.849 154.372 301.931 153.703 302.094 153.082C302.258 152.461 302.437 151.922 302.633 151.465C302.862 151.008 303.205 150.583 303.662 150.191C304.152 149.799 304.544 149.472 304.838 149.211C305.165 148.95 305.671 148.705 306.357 148.476C307.076 148.247 307.599 148.084 307.925 147.986C308.285 147.855 308.889 147.725 309.738 147.594C310.588 147.463 311.143 147.382 311.404 147.349C311.698 147.284 312.286 147.202 313.168 147.104C315.161 146.843 316.517 146.63 317.235 146.467C317.954 146.271 318.444 145.993 318.705 145.634C318.934 145.373 319.048 144.768 319.048 143.821C319.048 141.273 317.317 139.999 313.854 139.999C312.025 139.999 310.686 140.342 309.836 141.028C308.987 141.714 308.448 142.874 308.219 144.507H302.927ZM318.999 149.309C318.575 149.538 318.085 149.75 317.529 149.946C316.974 150.109 316.517 150.224 316.157 150.289C315.831 150.322 315.292 150.387 314.54 150.485C313.822 150.583 313.348 150.648 313.119 150.681C312.433 150.779 311.894 150.877 311.502 150.975C311.11 151.04 310.62 151.171 310.032 151.367C309.477 151.563 309.036 151.808 308.709 152.102C308.415 152.363 308.154 152.739 307.925 153.229C307.697 153.686 307.582 154.242 307.582 154.895C307.582 156.104 307.974 157.035 308.758 157.688C309.575 158.341 310.702 158.668 312.139 158.668C314.622 158.668 316.533 157.998 317.872 156.659C318.624 155.908 318.999 154.454 318.999 152.298V149.309ZM353.332 152.445C352.94 155.548 351.699 158.031 349.608 159.893C347.517 161.722 344.888 162.637 341.719 162.637C337.93 162.637 334.908 161.445 332.654 159.06C330.4 156.643 329.273 153.49 329.273 149.603C329.273 145.422 330.4 142.106 332.654 139.656C334.941 137.173 338.011 135.932 341.866 135.932C345.1 135.932 347.697 136.749 349.657 138.382C351.65 140.015 352.809 142.286 353.136 145.193H347.599C347.272 143.592 346.619 142.367 345.639 141.518C344.659 140.669 343.418 140.244 341.915 140.244C339.759 140.244 338.06 141.061 336.819 142.694C335.578 144.295 334.957 146.5 334.957 149.309C334.957 152.118 335.545 154.307 336.721 155.875C337.93 157.443 339.596 158.227 341.719 158.227C343.385 158.227 344.741 157.737 345.786 156.757C346.864 155.744 347.55 154.307 347.844 152.445H353.332ZM380.559 152.445C380.168 155.548 378.926 158.031 376.836 159.893C374.745 161.722 372.115 162.637 368.947 162.637C365.157 162.637 362.136 161.445 359.882 159.06C357.628 156.643 356.501 153.49 356.501 149.603C356.501 145.422 357.628 142.106 359.882 139.656C362.168 137.173 365.239 135.932 369.093 135.932C372.328 135.932 374.925 136.749 376.885 138.382C378.877 140.015 380.037 142.286 380.364 145.193H374.827C374.5 143.592 373.847 142.367 372.867 141.518C371.887 140.669 370.645 140.244 369.143 140.244C366.987 140.244 365.288 141.061 364.047 142.694C362.805 144.295 362.185 146.5 362.185 149.309C362.185 152.118 362.773 154.307 363.949 155.875C365.157 157.443 366.823 158.227 368.947 158.227C370.613 158.227 371.968 157.737 373.014 156.757C374.092 155.744 374.778 154.307 375.072 152.445H380.559ZM406.576 136.716L397.217 161.51C397.119 161.739 396.939 162.212 396.678 162.931C396.416 163.682 396.237 164.189 396.139 164.45C396.041 164.711 395.845 165.169 395.551 165.822C395.289 166.475 395.077 166.933 394.914 167.194C394.75 167.455 394.505 167.847 394.179 168.37C393.852 168.893 393.542 169.268 393.248 169.497C392.986 169.726 392.643 170.003 392.219 170.33C391.827 170.689 391.418 170.934 390.994 171.065C390.569 171.228 390.079 171.359 389.524 171.457C389.001 171.588 388.429 171.653 387.809 171.653C386.763 171.653 385.473 171.555 383.938 171.359V166.655C385.114 166.884 386.094 166.998 386.878 166.998C387.27 166.998 387.629 166.933 387.956 166.802C388.282 166.704 388.576 166.508 388.838 166.214C389.099 165.953 389.328 165.691 389.524 165.43C389.72 165.201 389.899 164.858 390.063 164.401C390.259 163.976 390.406 163.633 390.504 163.372C390.602 163.143 390.732 162.768 390.896 162.245C391.059 161.722 391.157 161.396 391.19 161.265L381.488 136.716H387.613L394.375 155.336L400.745 136.716H406.576ZM434.799 170.036H429.507V162H411.524V170.036H406.232V157.59H409.417C411.409 152.919 412.406 146.908 412.406 139.558V136.716H431.418V157.59H434.799V170.036ZM425.93 157.59V141.028H417.747V142.743C417.747 145.389 417.469 148.166 416.914 151.073C416.358 153.948 415.77 156.12 415.15 157.59H425.93ZM445.266 162H438.21V136.716H443.796V155.14H443.943L453.4 136.716H460.456V162H454.87V143.576H454.723L445.266 162ZM485.897 141.126H477.567V162H471.981V141.126H463.651V136.716H485.897V141.126ZM496.328 162V155.777H502.649V162H496.328ZM496.867 152.347C496.867 150.224 497.079 148.509 497.504 147.202C497.961 145.863 498.876 144.556 500.248 143.282C500.378 143.151 500.689 142.874 501.179 142.449C501.701 141.992 502.044 141.681 502.208 141.518C502.371 141.355 502.649 141.077 503.041 140.685C503.433 140.26 503.694 139.917 503.825 139.656C503.988 139.395 504.168 139.068 504.364 138.676C504.592 138.251 504.739 137.843 504.805 137.451C504.903 137.026 504.952 136.585 504.952 136.128C504.952 134.691 504.478 133.515 503.531 132.6C502.583 131.685 501.358 131.228 499.856 131.228C496.034 131.228 494.057 133.547 493.927 138.186H488.292C488.455 134.56 489.517 131.702 491.477 129.611C493.437 127.488 496.262 126.426 499.954 126.426C503.253 126.426 505.899 127.324 507.892 129.121C509.917 130.885 510.93 133.221 510.93 136.128C510.93 137.206 510.815 138.17 510.587 139.019C510.358 139.868 509.95 140.669 509.362 141.42C508.774 142.171 508.251 142.776 507.794 143.233C507.336 143.69 506.601 144.344 505.589 145.193C503.955 146.598 502.975 147.627 502.649 148.28C502.322 148.901 502.159 150.256 502.159 152.347H496.867Z" fill="#262626"/>
</svg>
