<svg xmlns="http://www.w3.org/2000/svg" viewBox="6169.73 5037.69 376.02 1033">
  <path fill="#FF4800" fill-rule="evenodd" d="M6224.99 5340.99s-66.1 480-50.2 491c16 11 45.4 14.7 40.5 31.9-4.9 17.2-29.5 16-24.6 33.1 4.9 17.1 27 6.1 27 23.3 0 17.2-14.7 45.1 28.2 41.6 43-3.5 55.9-21.6 55.9-21.6l6.1-620.3-82.9 21" class="st0"/>
  <path fill="#262626" fill-rule="evenodd" d="M6239.09 5963.79c-10 0-16.9-2.1-20.9-6.4-6.1-6.5-4.6-16.4-3.1-26 .6-3.9 1.2-7.6 1.2-10.9 0-7.6-4.6-8.7-10.9-10.3-6-1.5-13.4-3.4-16.1-12.6-3-10.5 4.1-15 10.9-19.4 5.7-3.6 11.5-7.4 13.6-14.6 3-10.5-8.5-15.4-21.9-21.2-6.3-2.7-12.8-5.5-18-9.1-2.9-2-10.7-7.4 18.5-251.1 14.4-120 30.9-240.2 31.1-241.4.1-.6.5-1.1 1.1-1.2l83-20.9c.5-.1.9 0 1.3.3s.6.7.6 1.2l-6.2 620.2c0 .3-.1.6-.3.9-.5.8-13.8 18.7-57 22.2-2.4.2-4.7.3-6.9.3Zm-12.8-621.6c-1.6 11.8-17.2 125.7-30.8 239.6-8.4 70.3-14.5 126.9-18 168.1-5.9 69.4-3.2 79.7-1.8 80.9 4.9 3.4 11.3 6.2 17.5 8.8 13.4 5.8 27.3 11.7 23.6 24.7-2.4 8.3-9 12.6-14.9 16.3-6.7 4.3-12.1 7.7-9.7 16 2.2 7.6 7.9 9 13.9 10.5 6.2 1.5 13.1 3.3 13.1 13.2 0 3.5-.6 7.3-1.2 11.4-1.3 8.9-2.7 18 2.4 23.5 4.2 4.5 12.6 6.2 25.4 5.2 38.4-3.1 52.5-18.1 54.5-20.5l6.1-617.8-80.1 20.1" class="st1"/>
  <path fill="#FFABDB" fill-rule="evenodd" d="m6313.49 5253.49-61.6 62.9-23.6 719.6s17.7 36.7 76.7 31.8c58.9-4.9 39.3-39.3 65.1-41.7 25.8-2.5 23.3 27 52.8 23.3 29.5-3.7 29.5-36.8 29.5-36.8s12.6 12.4 34.5-4.9l-3.9-101.9-7.4-136.3-67.5-440.7-94.6-75.3" class="st2"/>
  <path fill="#262626" fill-rule="evenodd" d="M6294.39 6069.69c-24.9 0-41.2-7.8-50.8-14.8-12-8.7-16.5-17.9-16.7-18.3-.1-.2-.2-.5-.1-.7l23.7-719.5c0-.4.2-.7.4-1l61.6-62.9c.5-.5 1.4-.6 2-.1l94.5 75.2c.3.2.5.6.5.9l67.5 440.7v.1l7.4 136.3 3.9 101.9c0 .5-.2.9-.6 1.2-17.3 13.6-29.3 9.4-34.1 6.5-.8 8.3-5.3 32.4-30.6 35.5-16.1 2-23.4-5.7-29.8-12.4-5.9-6.2-11.4-12-23-10.9-9.4.9-12.1 6.1-15.8 13.4-5.8 11.3-12.9 25.3-49.3 28.4-3.8.3-7.3.5-10.7.5Zm-64.6-34.1c.9 1.6 5.5 9.6 15.7 17 10.5 7.6 29.4 16.1 59.3 13.7 34.7-2.9 41.4-16.1 46.9-26.7 3.7-7.2 7.1-14 18.2-15 13.1-1.3 19.4 5.4 25.5 11.8 6.5 6.9 12.7 13.4 27.2 11.5 27.8-3.5 28.1-34 28.1-35.3 0-.6.4-1.1.9-1.4.6-.2 1.2-.1 1.6.3.5.5 11.8 11 32-4.6l-3.8-101.1-7.4-136.2-67.4-440.1-93-74-60.2 61.5-23.6 718.6" class="st1"/>
  <path fill="#FFE576" fill-rule="evenodd" d="M6282.79 5259.89s28.2-52.8 46.6-55.2c18.4-2.5 64.1-4 64.1-4l22.4 8.2 21.1 56-88 51.6-66.2-56.6" class="st3"/>
  <path fill="#262626" fill-rule="evenodd" d="M6349.09 5317.89c-.3 0-.7-.1-1-.4l-66.3-56.5c-.5-.5-.7-1.2-.4-1.8 1.2-2.2 28.8-53.5 47.8-56 18.3-2.4 63.8-4 64.3-4.1.2 0 .4 0 .6.1l22.4 8.2c.4.1.7.5.9.9l21.1 56c.3.7 0 1.5-.6 1.8l-88 51.6c-.3.2-.5.2-.8.2Zm-64.4-58.3 64.6 55 86-50.4-20.4-54.2-21.4-7.8c-3.9.1-46.3 1.7-63.7 4-16.2 2.1-41 46-45.1 53.4Z" class="st1"/>
  <path fill="#FF4800" fill-rule="evenodd" d="M6301.19 5274.69s3.7-67.7 39.3-76.2c35.6-8.5 84.7 5 71.2 30.8s-112.9 54.3-112.9 54.3-6.1 110.2 3.7 140.9c9.8 30.7-3.7 83.5 0 117.9 3.7 34.4-1.2 82.2 6.1 112.9 7.4 30.7 12.3 119.1 19.6 148.5 7.3 29.4 3.7 106.8 24.6 138.7 20.9 31.9 22.7 46.9 22.7 46.9s62-116.9 58.3-170.9c-3.7-54 28.2-187.8 28.2-187.8l67.5-173.1s-24.6-67.5-24.6-95.8c0-28.2-11-88.4-43-116.6-31.9-28.2-70.3-58.4-95.9-52.5-25.6 5.9-80.7 20.6-105.3 56.2-24.6 35.6-30.7 66.3-30.7 66.3l71.2-40.5" class="st0"/>
  <path fill="#262626" fill-rule="evenodd" d="M6375.49 5990.89h-.3c-.6-.1-1.1-.6-1.2-1.3 0-.1-2.1-15.2-22.5-46.3-13.9-21.2-17.1-62.5-19.7-95.7-1.4-17.9-2.6-33.4-5.1-43.4-3.7-14.9-6.9-45.3-9.9-74.7-3-28.9-6.1-58.7-9.7-73.9-4.4-18.2-4.5-42.5-4.5-66.1-.1-16.2-.1-33-1.6-47-1.6-14.6-.1-32.1 1.5-50.5 2.1-24.4 4.2-49.6-1.4-67-9.8-30.6-4-136.9-3.8-141.4 0-.6.5-1.2 1.1-1.4 1-.3 99-28.6 112-53.6 3.1-5.9 2.8-11.4-.9-16.2-8.7-11.2-35.3-17.2-59.2-14.1-6.6 1.8-12.9 3.8-18.9 5.9-25.3 16.8-28.5 70-28.6 70.6 0 .5-.3 1-.8 1.2l-71.2 40.5c-.5.3-1.1.3-1.6-.1-.5-.3-.7-.9-.6-1.5.1-.3 6.5-31.4 30.9-66.8 13.3-19.2 36.9-34.8 70.4-46.6 3.1-2 6.5-3.5 10.3-4.5 3.1-.7 6.3-1.3 9.5-1.7 5.2-1.4 10.5-2.8 16.1-4.1 26.2-6 63.9 23.3 97.3 52.9 31.7 28 43.5 87.1 43.5 117.7 0 27.6 24.2 94.6 24.5 95.2.1.3.1.7 0 1.1l-67.5 173c-1 4.3-31.8 134.7-28.2 187.3 3.7 53.8-55.9 166.9-58.5 171.7-.3.5-.9.8-1.4.8Zm-75.3-706.2c-.6 11.4-5.4 110.8 3.7 139.3 5.8 18 3.6 43.5 1.5 68.2-1.5 18.3-3 35.6-1.5 50 1.5 14.2 1.6 31.1 1.6 47.4.1 23.4.2 47.5 4.5 65.4 3.7 15.3 6.8 45.3 9.8 74.3 3 29.3 6.2 59.5 9.9 74.3 2.6 10.3 3.8 25.9 5.2 43.9 2.5 32.8 5.7 73.7 19.2 94.3 14.9 22.7 20.2 37 22 43.4 10.3-20.1 59.5-118.8 56.3-166.5-3.7-53.6 28-186.9 28.3-188.3 0-.1 0-.1.1-.2l67.3-172.6c-2.5-6.9-24.4-68.6-24.4-95.7 0-30.1-11.5-88.1-42.5-115.5-30.9-27.3-69.6-58-94.6-52.2l-1.3.3c20.1.4 39.1 6.4 46.7 16.1 4.5 5.7 4.9 12.4 1.2 19.4-13.2 24.9-101.8 51.4-113 54.7Zm22.7-77.5c-28.7 11.1-49.1 25.4-61 42.5-19.4 28.3-27.3 53.6-29.6 62.5l67.5-38.4c.4-6.6 3.9-46.7 23.1-66.6Zm-21.7 67.5" class="st1"/>
  <path fill="#FFDFD4" fill-rule="evenodd" d="M6368.69 5410.89s-23.3-9.8-41.7-7.4c-18.4 2.5-36.8 19.6-34.4 24.6 2.5 4.9 18.4-12.3 27-13.5 0 0-18.6 9.1-19.7 14.4-1.1 5.3 23.4-3.3 23.4-3.3s-22.1 4.9-22.1 9.8 21.6 0 21.6 0-14.3 2.5-13 6.1c1.2 3.7 35.6 10.8 58.9 3.5 23.3-7.2 23.3-14.6 23.3-14.6l-23.3-19.6" class="st4"/>
  <path fill="#262626" fill-rule="evenodd" d="M6344.49 5449.79c-17.9 0-34.9-4-36.1-7.7-.3-.8-.2-1.7.3-2.5.1-.2.2-.3.4-.5-3.5.2-6.7-.1-8.2-1.2-.8-.6-1.2-1.4-1.2-2.4 0-1.2.8-2.3 2-3.4-1.1-.1-2-.4-2.5-.8-.6-.6-.9-1.3-.8-2.2-2.1 1.2-3.8 1.7-5.1 1.3-.9-.2-1.6-.8-2-1.6-.7-1.3-.5-3.1.6-5.2 3.9-7.4 19.5-19.5 34.9-21.6 18.6-2.5 41.6 7.1 42.5 7.5.1.1.3.1.4.2l23.3 19.6c.3.3.5.7.5 1.1 0 .9-.7 8.7-24.4 16-7.2 2.5-16 3.4-24.6 3.4Zm-33.2-8.7c2.9 3 34.5 9.6 57 2.6 17.6-5.5 21.3-10.9 22.1-12.6l-22.4-18.9c-2.3-.9-23.9-9.4-40.8-7.2-14.2 1.9-29.1 13.3-32.6 20-.7 1.3-.8 2.1-.6 2.4 1.3.5 6.9-3.5 10.2-5.9 5.4-3.8 10.9-7.8 15.2-8.4.7-.1 1.4.3 1.6 1 .2.7-.1 1.5-.8 1.8-7.3 3.6-17.8 9.9-18.9 13.1 1 .3 3.7 0 7.4-.8a94.7 94.7 0 0 1 14.2-4.1c.8-.2 1.5.3 1.8 1.1.3.8-.2 1.6-.9 1.8-3.3 1.1-8.9 3-14 4.1-4.3 1.6-7.1 3.3-7.1 4.3.8 1.2 8.1.8 16.2-.7 1.7-.4 3.1-.7 3.7-.8.8-.1 1.6.4 1.7 1.2.2.8-.3 1.6-1.1 1.8-.7.2-2 .4-3.7.8-4.3 1.1-7.8 2.5-8.2 3.4Z" class="st1"/>
  <path fill="#FFE576" fill-rule="evenodd" d="m6388.39 5405.99-19.6 4.9s9.8 17.2 0 34.2l68.7 11.7-19.6-54.5-29.5 3.7" class="st3"/>
  <path fill="#262626" fill-rule="evenodd" d="M6437.49 5458.39h-.3l-68.7-11.7c-.5-.1-.9-.4-1.1-.8-.2-.4-.2-1 .1-1.4 9.3-16.1.1-32.6 0-32.7-.2-.4-.3-.9-.1-1.3.2-.4.6-.8 1-.9l19.6-4.9h.2l29.5-3.7c.7-.1 1.4.3 1.6 1l19.6 54.5c.2.5.1 1.1-.3 1.5-.2.2-.7.4-1.1.4Zm-66.4-14.3 64.2 10.9-18.4-51-28.2 3.5-17.7 4.4c2.1 4.8 7 18.2.1 32.2Z" class="st1"/>
  <path fill="#FF4800" fill-rule="evenodd" d="M6448.49 5336.09s7.4 43-11 52.8c-18.4 9.8-49.1 17.2-49.1 17.2s19.6-4.9 22.1 11c2.5 16 36.8 331.5 70 387.9 33.1 56.5 2.5 100.7 2.5 100.7s51.5-22.1 50.3-115.4c-1.2-93.3-24.8-121.5-14.8-168.2 9.9-46.7 43.1-74.9 11.1-164.5s-45.5-116.6-81.1-121.5Z" class="st0"/>
  <path fill="#262626" fill-rule="evenodd" d="M6482.89 5907.19c-.4 0-.9-.2-1.2-.6-.4-.5-.5-1.3-.1-1.8.1-.1 7.6-11.1 11-28.7 3.1-16.2 3.3-41.6-13.5-70.3-19.4-33-42.2-157.4-67.8-369.8-1.2-10-2-16.7-2.3-18.6-.6-3.7-2.2-6.4-4.8-8.1-5.8-3.9-15-1.8-15.5-1.7a1.5 1.5 0 1 1-.7-2.9h.1c1.7-.4 31.1-7.6 48.7-17 17.3-9.2 10.3-50.8 10.3-51.2-.1-.5.1-1 .4-1.3.3-.3.8-.5 1.3-.4 18.7 2.6 31.2 11.2 43 29.7 11.9 18.6 23 47 39.3 92.8 24 67.3 11.5 100.3-.5 132.1-4.2 11-8.1 21.4-10.6 33.2-5 23.7-1.4 42.3 3.6 68.1 4.7 24.2 10.6 54.3 11.2 99.8.6 48.6-13.2 77.7-25 93.6-12.8 17.3-25.7 23-26.2 23.2-.3-.2-.5-.1-.7-.1Zm-82.6-502.8c1.9.4 3.8 1.1 5.6 2.3 3.3 2.2 5.4 5.6 6.1 10.2.3 2 1.1 8.7 2.3 18.7 25.6 212 48.3 336 67.5 368.7 17.4 29.6 17.1 55.8 13.8 72.6-2.2 11.3-6 19.9-8.6 24.8 4.8-3.1 12.7-9.2 20.4-19.7 11.4-15.5 24.9-44 24.3-91.6-.6-45.2-6.5-75.2-11.2-99.2-5.1-26.1-8.8-45-3.6-69.3 2.6-12 6.7-23 10.7-33.6 11.8-31.4 24.1-63.8.5-130.1-31.6-89-45.3-114.9-77.8-120.4 1.2 8.9 4.9 43.3-12.1 52.3-11.3 6.1-27.2 11.2-37.9 14.3Z" class="st1"/>
  <path fill="#262626" fill-rule="evenodd" d="M6516.09 5837.19h-.2c-.8-.1-1.4-.9-1.3-1.7 10.8-82.1-6.3-130-18.7-165-6-16.9-11.2-31.5-12-45.9-1.5-26.6 12.9-59.1 24.5-85.2 7.9-17.9 14.8-33.4 14.8-42.5 0-11.3-6.4-22.6-13.9-35.6-7.6-13.3-16.2-28.4-20.5-47.5-8.3-36.6-39.9-43.3-40.2-43.3-.8-.2-1.3-.9-1.2-1.8.2-.8.9-1.3 1.8-1.2.3.1 33.9 7.1 42.6 45.6 4.2 18.7 12.7 33.6 20.2 46.7 7.6 13.4 14.2 25 14.2 37.1 0 9.8-7 25.5-15 43.8-11.4 25.8-25.7 58-24.2 83.8.8 14 5.9 28.4 11.8 45 12.5 35.3 29.7 83.5 18.8 166.4-.1.8-.8 1.3-1.5 1.3Zm-67.6-499.6c-.7 0-1.3-.5-1.5-1.2l-6.1-31.9c-.2-.8.4-1.6 1.2-1.8.8-.2 1.6.4 1.8 1.2l6.1 31.9c.2.8-.4 1.6-1.2 1.8h-.3Z" class="st1"/>
  <path fill="#262626" fill-rule="evenodd" d="M6491.49 5800.49c-.6 0-1.2-.4-1.4-1-8.2-22.7-5.1-50-2.4-74.1 1-8.9 1.9-17.2 2.3-24.8.7-15.9-11.8-42.7-22.8-66.3-8.3-17.8-16.1-34.5-17.7-45.2-1.8-11.8 3.2-28.2 8.5-45.4 5.8-19 11.9-38.7 8.7-52.7-4.2-18.7-2.1-38.7-.4-54.9.8-7.5 1.6-14.6 1.6-20.4 0-17.1-30.5-25.5-30.8-25.6a1.5 1.5 0 1 1 .7-2.9c1.3.4 33 9.1 33 28.5 0 5.9-.8 13.1-1.6 20.7-1.8 16.7-3.8 35.7.3 53.9 3.4 14.7-2.8 34.8-8.7 54.2-5.2 16.9-10.1 32.9-8.4 44.1 1.5 10.2 9.3 26.8 17.5 44.3 11.7 25.1 23.8 51 23.1 67.7-.3 7.7-1.3 16.1-2.3 25-2.7 23.8-5.7 50.8 2.2 72.8.3.8-.1 1.6-.9 1.9-.1.2-.3.2-.5.2Z" class="st1"/>
  <path fill="#FFE576" fill-rule="evenodd" d="M6301.79 5295.49c8.5 0 15.3-6.9 15.3-15.3s-6.9-15.3-15.3-15.3-15.3 6.9-15.3 15.3 6.9 15.3 15.3 15.3Z" class="st3"/>
  <path fill="#262626" fill-rule="evenodd" d="M6301.79 5296.99c-9.3 0-16.8-7.6-16.8-16.8 0-9.3 7.6-16.8 16.8-16.8 9.3 0 16.8 7.6 16.8 16.8.1 9.3-7.5 16.8-16.8 16.8Zm0-30.6c-7.6 0-13.8 6.2-13.8 13.8 0 7.6 6.2 13.8 13.8 13.8 7.6 0 13.8-6.2 13.8-13.8.1-7.6-6.1-13.8-13.8-13.8Z" class="st1"/>
  <path fill="#FFF" fill-rule="evenodd" d="m6260.69 5676.09-43-14.7-2.4 18.4 41.7 13.5 3.7-17.2" class="st5"/>
  <path fill="#262626" fill-rule="evenodd" d="M6256.99 5694.79c-.2 0-.3 0-.5-.1l-41.7-13.5c-.7-.2-1.1-.9-1-1.6l2.5-18.4c.1-.4.3-.8.7-1.1.4-.2.9-.3 1.3-.1l43 14.7c.7.2 1.1 1 1 1.7l-3.7 17.2c-.1.4-.3.8-.7 1-.3.1-.6.2-.9.2Zm-40.1-16 39 12.6 3.1-14.3-40-13.7-2.1 15.4" class="st1"/>
  <path fill="#FFE576" fill-rule="evenodd" d="M6283.99 5601.19s1.2 11-11 18.4c-12.3 7.4-49.1 19.6-66.3 14.7l3.7-45.4 44.2-16 25.8 16 3.6 12.3" class="st3"/>
  <path fill="#262626" fill-rule="evenodd" d="M6216.19 5636.99c-3.7 0-7-.4-9.9-1.2-.7-.2-1.1-.9-1.1-1.6l3.7-45.4c0-.6.4-1.1 1-1.3l44.2-16c.4-.2.9-.1 1.3.1l25.8 16c.3.2.5.5.6.8l3.7 12.3c0 .1 0 .2.1.3.1.5 1.2 12.1-11.8 19.9-9.9 6-38.2 16.1-57.6 16.1Zm-7.9-3.8c16.5 3.7 51.4-7.4 63.9-14.9 10.7-6.4 10.4-15.6 10.3-16.8l-3.5-11.6-24.7-15.3-42.6 15.4-3.4 43.2" class="st1"/>
  <path fill="#FFDFD4" fill-rule="evenodd" d="M6275.49 5680.99s1.2-8.6-3.7-22.1c-4.9-13.5-8.2-22.9-8.2-22.9l-18.4-14.9-13.9 18.2s-9.8 55.2 6.1 58.9c0 0 1.2 4.9 9.8 3.7 0 0 0 3.7 7.4 3.7 0 0 14.7 4.9 17.2-2.5l-14.8-9.8s-2.5-13.5 3.7-17.2l14.8 4.9" class="st4"/>
  <path fill="#262626" fill-rule="evenodd" d="M6263.99 5708.69c-.6 0-1.2 0-1.8-.1-3.6-.3-6.9-1.2-7.8-1.5-5.4-.1-7.4-2.1-8.2-3.6-6.6.6-9.1-2.5-9.9-4.1-15.8-5.2-7.5-54.7-6.5-60.4 0-.2.1-.5.3-.6l13.9-18.2c.2-.3.6-.5 1-.6.4 0 .8.1 1.1.3l18.4 14.9c.2.2.4.4.5.7 0 .1 3.3 9.6 8.1 22.9 5 13.7 3.8 22.5 3.8 22.8-.1.4-.3.8-.7 1.1-.4.2-.8.3-1.3.1l-14-4.7c-3.5 2.9-3.1 10.9-2.5 14.6l14.2 9.5c.6.4.8 1.1.6 1.7-.8 2.5-3.1 5.2-9.2 5.2Zm-16.8-8.3c.4 0 .7.1 1 .4.3.3.5.7.5 1.1.1.7 1.4 2.2 5.9 2.2.2 0 .3 0 .5.1.1 0 11.7 3.7 14.8-.5l-13.6-9.1c-.3-.2-.6-.6-.6-1-.1-.6-2.6-14.6 4.4-18.7.4-.2.8-.3 1.2-.1l12.9 4.3c.1-3.1-.3-10.1-3.7-19.5-4.3-11.8-7.3-20.6-8-22.5l-16.9-13.7-12.8 16.7c-2.7 15.2-6.8 54.1 5.1 56.8.5.1 1 .6 1.1 1.1 0 .1 1.1 3.6 8.2 2.6-.1-.2-.1-.2 0-.2Z" class="st1"/>
  <path fill="#262626" fill-rule="evenodd" d="M6237.39 5699.69c-.7 0-1.4-.5-1.5-1.3l-2.5-14.7c-.1-.8.4-1.6 1.2-1.7.8-.1 1.6.4 1.7 1.2l2.5 14.7c.1.8-.4 1.6-1.2 1.7 0 .1-.1.1-.2.1Zm9.8 3.7c-.7 0-1.4-.5-1.5-1.3l-2.4-14.7c-.1-.8.4-1.6 1.2-1.7.8-.1 1.6.4 1.7 1.2l2.5 14.7c.1.8-.4 1.6-1.2 1.7-.1.1-.2.1-.3.1Z" class="st1"/>
  <path fill="#FFE576" fill-rule="evenodd" d="m6263.59 5635.99 3.2-61.8-45.4 2.5 9.9 62.6s10.7-6.6 32.3-3.3Z" class="st3"/>
  <path fill="#262626" fill-rule="evenodd" d="M6231.29 5640.79c-.2 0-.4 0-.6-.1-.5-.2-.8-.6-.9-1.1l-9.8-62.6c-.1-.4 0-.8.3-1.2.3-.3.7-.5 1.1-.6l45.4-2.5c.4 0 .8.1 1.1.4.3.3.5.7.4 1.1l-3.2 61.8c0 .4-.2.8-.6 1.1-.3.3-.8.4-1.2.3-20.9-3.2-31.2 3-31.4 3.1-.1.2-.4.3-.6.3Zm-8.1-62.7 9.2 59c3.9-1.7 13.8-4.9 29.8-2.7l3.1-58.5-42.1 2.2" class="st1"/>
  <path fill="#FFF" fill-rule="evenodd" d="m6260.69 5676.09 63.8 23.3-11 27-56.5-33.1s-2.4-12.3 3.7-17.2Z" class="st5"/>
  <path fill="#262626" fill-rule="evenodd" d="M6313.49 5727.89c-.3 0-.5-.1-.8-.2l-56.4-33.1c-.4-.2-.6-.6-.7-1-.1-.5-2.6-13.2 4.2-18.7.4-.3 1-.4 1.5-.2l63.8 23.3c.4.1.7.4.9.8.2.4.2.8 0 1.2l-11 27c-.2.4-.5.7-.9.9h-.6Zm-55.1-35.5 54.4 31.9 9.8-24-61.5-22.5c-4 4-3.1 12.2-2.7 14.6Z" class="st1"/>
  <path fill="#FFABDB" fill-rule="evenodd" d="M6281.59 5334.79s16-48.6 0-54.4c-16-5.8-43-5.8-52.8 35.9-9.8 41.7-27 319.2-27 319.2s27 2.9 27-7.1c0-10.1-14.7-2.7-14.7-11.3 0-8.6 68.7-36.8 70-16 0 0 0-95.8 1.2-122.8s-6.1-41.7-6.1-66.3c-.1-24.4 2.4-77.2 2.4-77.2Z" class="st2"/>
  <path fill="#262626" fill-rule="evenodd" d="M6209.99 5637.49c-4.5 0-8-.4-8.4-.4-.8-.1-1.4-.8-1.3-1.6.2-2.8 17.3-278 27-319.4 4.2-17.8 11.9-29.9 22.8-35.8 12.4-6.7 25.3-3.6 31.9-1.2 16.6 6.1 2.9 50.1 1 56-.2 3.6-2.4 53.6-2.4 77.1 0 11.1 1.5 20 3.1 29.4 1.8 10.9 3.7 22.1 3.1 36.9-1.2 26.7-1.2 121.7-1.2 122.7 0 .8-.6 1.5-1.5 1.5-.8 0-1.5-.6-1.5-1.4-.3-4.3-4.2-6.3-11.8-6.1-10.6.3-25.2 5.1-35.4 9.5-13.5 5.8-19.8 10.9-19.8 12.5 0 2.6 1.5 3 5.6 3.5 3.8.5 9.1 1.2 9.1 7.7 0 1.9-.8 3.6-2.3 4.9-3.7 3.5-11.8 4.2-18 4.2Zm-6.6-3.3c6 .5 18.5.7 22.6-3.1.9-.8 1.3-1.6 1.3-2.7 0-3.7-2.3-4.2-6.5-4.8-3.5-.5-8.2-1.1-8.2-6.5 0-5.3 15.1-12.4 21.6-15.2 13.5-5.8 27.1-9.5 36.5-9.7 6-.2 9.7 1 11.9 2.8 0-21.7.2-93.9 1.2-116.6.7-14.5-1.2-25.6-3-36.3-1.5-9.1-3.1-18.6-3.1-29.9 0-24.3 2.4-76.9 2.5-77.4 0-.1 0-.3.1-.4 4.3-13.1 12.9-48.1.9-52.5-6.1-2.2-18.2-5.1-29.5 1.1-10.2 5.5-17.3 16.9-21.3 33.8-9.5 39.5-25.7 295.7-27 317.4Z" class="st1"/>
  <path fill="#C6C6C6" fill-rule="evenodd" d="M6367.49 5096.69s-40.5 2.5-45.4 20.9c-4.9 18.4-17.2 28.2-13.5 45.4 3.7 17.2 16 19.6 16 19.6s2.5 18.4 7.4 28.2 13.5 22.1 20.9 22.1c7.4 0 13.5-27 13.5-27s6.1 27 14.7 27 24.6-17.2 25.8-49.1c0 0 17.8-4.9 17.5-19-.3-14.1-7.9-25.2-10.3-47.3-2.4-22.1-46.6-20.8-46.6-20.8Z" class="st6"/>
  <path fill="#262626" fill-rule="evenodd" d="M6380.99 5234.39c-7.1 0-12.3-14.2-14.7-22.5-2.4 8.5-7.2 22.5-13.5 22.5-10.2 0-20.3-19.1-22.2-22.9-4.4-8.7-6.8-23.7-7.4-27.7-3.2-1-12.8-5.4-16.1-20.5-2.4-11.3 1.8-19.7 6.3-28.6 2.7-5.3 5.5-10.8 7.2-17.6 5.1-19.2 45.1-21.9 46.8-22 1.9-.1 45.6-1 48 22.2 1.2 11.2 3.7 19.5 6 26.9 2.2 7.2 4.1 13.4 4.3 20.5.3 13.2-13.5 18.8-17.5 20.2-1.5 33-18.2 49.5-27.2 49.5Zm-14.7-30c.7 0 1.3.5 1.5 1.2 2.3 10 7.9 25.8 13.3 25.8 7.6 0 23.1-16.8 24.3-47.7 0-.7.5-1.2 1.1-1.4.2 0 16.7-4.8 16.4-17.6-.1-6.7-2-12.7-4.1-19.7-2.3-7.5-4.9-16-6.1-27.5-2.1-20.3-43.7-19.6-45-19.5-1.2.1-39.5 2.8-44 19.8-1.9 7-4.7 12.7-7.5 18.1-4.4 8.8-8.2 16.3-6 26.6 3.4 15.9 14.3 18.4 14.8 18.5.6.1 1.1.6 1.2 1.3 0 .2 2.5 18.3 7.2 27.8 5.3 10.6 13.4 21.3 19.5 21.3 4.3 0 9.6-15.1 12-25.8.1-.7.7-1.2 1.4-1.2Z" class="st1"/>
  <path fill="#FFDFD4" fill-rule="evenodd" d="M6333.89 5100.69s-15.4 56.4 0 67.5c15.4 11.1 51.3 5.8 51.3 5.8s18 1.5 16.7-31.5c-1.3-32.9-10.3-54.2-10.3-54.2l-57.7 12.4" class="st4"/>
  <path fill="#262626" fill-rule="evenodd" d="M6366.19 5176.79c-11.3 0-24.9-1.4-33.2-7.4-16.1-11.5-1.2-66.7-.6-69.1.1-.5.6-1 1.1-1.1l57.8-12.3c.7-.2 1.4.2 1.7.9.1.2 9.1 21.9 10.4 54.7.5 13.6-2.1 23.3-7.7 28.7-4.5 4.3-9.3 4.4-10.4 4.3-1.4.2-9.4 1.3-19.1 1.3Zm-31.1-74.8c-4.3 16.1-12.1 56.6-.3 65 14.7 10.6 49.9 5.6 50.2 5.6h.3c.2 0 4.4.3 8.3-3.6 4.9-4.8 7.2-13.9 6.8-26.3-1.1-28-7.9-47.7-9.7-52.5l-55.6 11.8" class="st1"/>
  <path fill="#FF4800" fill-rule="evenodd" d="M6325.79 5059.89s11.6-19.6 39-19.6c7.9 0 15.8 1.7 22.9 5a52.2 52.2 0 0 1 18.6 14.3l-80.5.3" class="st0"/>
  <path fill="#262626" fill-rule="evenodd" d="M6325.79 5061.39c-.5 0-1-.3-1.3-.8-.3-.5-.3-1 0-1.5.5-.8 12.4-20.4 40.2-20.4h.3c8 0 16.1 1.8 23.3 5.1 7.3 3.4 14 8.5 19.2 14.7.4.4.5 1.1.2 1.6s-.8.9-1.4.9l-80.5.4Zm39.2-19.6h-.2c-20.6 0-32 11.6-36 16.6l74.3-.3c-4.5-4.8-10-8.7-15.9-11.5-7-3.1-14.6-4.8-22.2-4.8Zm-10.7 96.9c-.4 0-.8-.1-1.1-.4-3-3-6.1-4.4-9.4-4.4-5.5.1-9.6 4.3-9.6 4.4-.6.6-1.5.6-2.1.1-.6-.6-.6-1.5-.1-2.1.2-.2 5-5.2 11.7-5.3 4.1-.1 8 1.7 11.6 5.3.6.6.6 1.5 0 2.1-.2.1-.6.3-1 .3Z" class="st1"/>
  <path fill="#171717" fill-rule="evenodd" d="M6343.59 5139.59c1.7 0 3.1-1.4 3.1-3.1 0-1.7-1.4-3.1-3.1-3.1-1.7 0-3.1 1.4-3.1 3.1 0 1.7 1.4 3.1 3.1 3.1Z" class="st7"/>
  <path fill="#262626" fill-rule="evenodd" d="M6393.59 5138.69c-.4 0-.8-.1-1.1-.4-3-3-6.1-4.4-9.4-4.4-5.5.1-9.6 4.3-9.6 4.4-.6.6-1.5.6-2.1.1-.6-.6-.6-1.5-.1-2.1.2-.2 5-5.2 11.7-5.3 4.1-.1 8 1.7 11.6 5.3.6.6.6 1.5 0 2.1-.2.1-.6.3-1 .3Z" class="st1"/>
  <path fill="#171717" fill-rule="evenodd" d="M6382.89 5139.59c1.7 0 3.1-1.4 3.1-3.1 0-1.7-1.4-3.1-3.1-3.1-1.7 0-3.1 1.4-3.1 3.1 0 1.7 1.4 3.1 3.1 3.1Z" class="st7"/>
  <path fill="#FFE576" fill-rule="evenodd" d="m6298.79 5078.29 23.3 39.3s15.3-11.7 43.6-11.7c16.8 0 33.4 4 48.4 11.7l16.7-43.6s-26.4-23-66-23-66 27.3-66 27.3Z" class="st3"/>
  <path fill="#262626" fill-rule="evenodd" d="M6413.99 5118.99c-.2 0-.5-.1-.7-.2-14.6-7.5-31.1-11.5-47.6-11.4-27.3 0-42.5 11.2-42.7 11.4-.3.3-.8.4-1.2.3-.4-.1-.8-.3-1-.7l-23.3-39.3c-.3-.6-.3-1.3.2-1.8.3-.3 27.3-27.7 67.1-27.7 39.7 0 66.7 23.1 67 23.3.5.4.6 1.1.4 1.7l-16.7 43.6c-.2.4-.5.7-.9.9-.2-.1-.4-.1-.6-.1Zm-48.1-14.6c16.3 0 32.6 3.8 47.3 11.1l15.7-41c-4.7-3.7-29.4-21.9-64.2-21.9-34.7 0-59.4 21.6-64.1 26l21.9 36.9c4.4-2.8 19.1-11 43.1-11 .2-.1.3-.1.3-.1Z" class="st1"/>
  <path fill="#C6C6C6" fill-rule="evenodd" d="M6364.49 5153.09s-19.1 2.5-19.1 24.6c0 0 18.6 0 19.7-9.8 0 0 1.1 9.8 20.8 9.8 0 0-2.4-24.6-21.4-24.6Z" class="st6"/>
  <path fill="#262626" fill-rule="evenodd" d="M6385.89 5179.19c-12.9 0-18.3-4.1-20.6-7.4-4.6 7.3-19.2 7.4-19.9 7.4-.8 0-1.5-.7-1.5-1.5 0-23.1 20.2-26 20.4-26h.2c20.2 0 22.9 25.6 22.9 25.9 0 .4-.1.8-.4 1.2-.2.2-.6.4-1.1.4Zm-20.7-12.8c.8 0 1.4.6 1.5 1.3 0 .3 1.3 8 17.6 8.5-.9-5.3-4.8-21.4-19.6-21.5-1.5.2-16.8 3-17.6 21.5 5.5-.3 16-2.1 16.7-8.4 0-.9.6-1.4 1.4-1.4Z" class="st1"/>
  <path fill="#FFDFD4" fill-rule="evenodd" d="M6338.29 5124.89s20.7-2.5 20.7 7.4-2.5 35.6 2.5 35.6h6.9s-3.2-36.8 4.1-40.5" class="st4"/>
  <path fill="#262626" fill-rule="evenodd" d="M6368.29 5169.39h-6.9c-.8 0-1.5-.3-2.1-1-2.8-3-2.7-13.4-2.1-27.8.1-3.3.3-6.2.3-8.4 0-1.3-.5-2.4-1.5-3.3-3.8-3.4-13.9-3-17.5-2.6-.8.1-1.6-.5-1.7-1.3-.1-.8.5-1.6 1.3-1.7.6-.1 14.3-1.6 19.9 3.4a7.3 7.3 0 0 1 2.5 5.5c0 2.2-.1 5.1-.3 8.5-.3 7.3-1 24.2 1.3 25.6h5.2c-.7-8.9-2.2-36.7 5.1-40.4 7.8-3.9 20.2-.3 20.7-.1.8.2 1.2 1.1 1 1.9-.2.8-1.1 1.2-1.9 1-.1 0-11.8-3.5-18.5-.1-4.5 2.2-4.6 24.2-3.3 39 0 .4-.1.8-.4 1.1-.3.3-.7.7-1.1.7Z" class="st1"/>
  <path fill="#009907" fill-rule="evenodd" d="M6363.19 5075.79a6.8 6.8 0 1 0-.02-13.62 6.8 6.8 0 0 0 .02 13.62Z" class="st8"/>
  <path fill="#262626" fill-rule="evenodd" d="M6363.19 5077.29c-4.5 0-8.3-3.7-8.3-8.3 0-4.6 3.7-8.3 8.3-8.3 4.6 0 8.3 3.7 8.3 8.3 0 4.6-3.7 8.3-8.3 8.3Zm0-13.5c-2.9 0-5.3 2.4-5.3 5.3s2.4 5.3 5.3 5.3 5.3-2.4 5.3-5.3-2.4-5.3-5.3-5.3Z" class="st1"/>
  <path fill="#009907" fill-rule="evenodd" d="M6392.69 5079.49a6.8 6.8 0 1 0-.02-13.62 6.8 6.8 0 0 0 .02 13.62Z" class="st8"/>
  <path fill="#262626" fill-rule="evenodd" d="M6392.69 5080.99c-4.5 0-8.3-3.7-8.3-8.3 0-4.6 3.7-8.3 8.3-8.3 4.6 0 8.3 3.7 8.3 8.3 0 4.6-3.8 8.3-8.3 8.3Zm0-13.5c-2.9 0-5.3 2.4-5.3 5.3s2.4 5.3 5.3 5.3 5.3-2.4 5.3-5.3-2.4-5.3-5.3-5.3Z" class="st1"/>
  <path fill="#009907" fill-rule="evenodd" d="M6417.19 5091.79a6.8 6.8 0 1 0-.02-13.62 6.8 6.8 0 0 0 .02 13.62Z" class="st8"/>
  <path fill="#262626" fill-rule="evenodd" d="M6417.19 5093.29c-4.5 0-8.3-3.7-8.3-8.3 0-4.6 3.7-8.3 8.3-8.3 4.6 0 8.3 3.7 8.3 8.3 0 4.6-3.7 8.3-8.3 8.3Zm0-13.5c-2.9 0-5.3 2.4-5.3 5.3s2.4 5.3 5.3 5.3 5.3-2.4 5.3-5.3-2.4-5.3-5.3-5.3Z" class="st1"/>
  <path fill="#009907" fill-rule="evenodd" d="M6312.89 5092.99a6.8 6.8 0 1 0-.02-13.62 6.8 6.8 0 0 0 .02 13.62Z" class="st8"/>
  <path fill="#262626" fill-rule="evenodd" d="M6312.89 5094.49c-4.6 0-8.3-3.7-8.3-8.3 0-4.6 3.7-8.3 8.3-8.3 4.6 0 8.3 3.7 8.3 8.3 0 4.6-3.8 8.3-8.3 8.3Zm0-13.5c-2.9 0-5.3 2.4-5.3 5.3s2.4 5.3 5.3 5.3 5.3-2.4 5.3-5.3-2.4-5.3-5.3-5.3Z" class="st1"/>
  <path fill="#009907" fill-rule="evenodd" d="M6336.19 5079.49a6.8 6.8 0 1 0-6.8-6.8c.1 3.8 3.1 6.8 6.8 6.8Z" class="st8"/>
  <path fill="#262626" fill-rule="evenodd" d="M6336.19 5080.99c-4.6 0-8.3-3.7-8.3-8.3 0-4.6 3.7-8.3 8.3-8.3 4.5 0 8.3 3.7 8.3 8.3 0 4.6-3.7 8.3-8.3 8.3Zm0-13.5c-2.9 0-5.3 2.4-5.3 5.3s2.4 5.3 5.3 5.3 5.3-2.4 5.3-5.3-2.4-5.3-5.3-5.3Z" class="st1"/>
  <path fill="#FFE576" fill-rule="evenodd" d="M6431.99 5088.09c1.7 0 3.1-1.4 3.1-3.1 0-1.7-1.4-3.1-3.1-3.1-1.7 0-3.1 1.4-3.1 3.1 0 1.7 1.4 3.1 3.1 3.1Zm0 8.6c1.7 0 3.1-1.4 3.1-3.1 0-1.7-1.4-3.1-3.1-3.1-1.7 0-3.1 1.4-3.1 3.1 0 1.7 1.4 3.1 3.1 3.1Zm0 8.6c1.7 0 3.1-1.4 3.1-3.1 0-1.7-1.4-3.1-3.1-3.1-1.7 0-3.1 1.4-3.1 3.1 0 1.7 1.4 3.1 3.1 3.1Zm0 8.6c1.7 0 3.1-1.4 3.1-3.1 0-1.7-1.4-3.1-3.1-3.1-1.7 0-3.1 1.4-3.1 3.1 0 1.7 1.4 3.1 3.1 3.1Zm0 8.6c1.7 0 3.1-1.4 3.1-3.1 0-1.7-1.4-3.1-3.1-3.1-1.7 0-3.1 1.4-3.1 3.1 0 1.7 1.4 3.1 3.1 3.1Zm0 8.5c1.7 0 3.1-1.4 3.1-3.1 0-1.7-1.4-3.1-3.1-3.1-1.7 0-3.1 1.4-3.1 3.1 0 1.7 1.4 3.1 3.1 3.1Zm0 8.6c1.7 0 3.1-1.4 3.1-3.1 0-1.7-1.4-3.1-3.1-3.1-1.7 0-3.1 1.4-3.1 3.1 0 1.7 1.4 3.1 3.1 3.1Zm0 8.6c1.7 0 3.1-1.4 3.1-3.1 0-1.7-1.4-3.1-3.1-3.1-1.7 0-3.1 1.4-3.1 3.1 0 1.7 1.4 3.1 3.1 3.1Zm0 8.6c1.7 0 3.1-1.4 3.1-3.1 0-1.7-1.4-3.1-3.1-3.1-1.7 0-3.1 1.4-3.1 3.1 0 1.7 1.4 3.1 3.1 3.1Zm0 8.6c1.7 0 3.1-1.4 3.1-3.1 0-1.7-1.4-3.1-3.1-3.1-1.7 0-3.1 1.4-3.1 3.1 0 1.7 1.4 3.1 3.1 3.1Zm0 8.6c1.7 0 3.1-1.4 3.1-3.1 0-1.7-1.4-3.1-3.1-3.1-1.7 0-3.1 1.4-3.1 3.1 0 1.7 1.4 3.1 3.1 3.1Zm0 8.6c1.7 0 3.1-1.4 3.1-3.1 0-1.7-1.4-3.1-3.1-3.1-1.7 0-3.1 1.4-3.1 3.1 0 1.7 1.4 3.1 3.1 3.1Zm-133.8-92.1c1.7 0 3.1-1.4 3.1-3.1 0-1.7-1.4-3.1-3.1-3.1-1.7 0-3.1 1.4-3.1 3.1 0 1.7 1.4 3.1 3.1 3.1Zm0 8.6c1.7 0 3.1-1.4 3.1-3.1 0-1.7-1.4-3.1-3.1-3.1-1.7 0-3.1 1.4-3.1 3.1 0 1.7 1.4 3.1 3.1 3.1Zm0 8.6c1.7 0 3.1-1.4 3.1-3.1 0-1.7-1.4-3.1-3.1-3.1-1.7 0-3.1 1.4-3.1 3.1 0 1.7 1.4 3.1 3.1 3.1Zm0 8.6c1.7 0 3.1-1.4 3.1-3.1 0-1.7-1.4-3.1-3.1-3.1-1.7 0-3.1 1.4-3.1 3.1 0 1.7 1.4 3.1 3.1 3.1Zm0 8.6c1.7 0 3.1-1.4 3.1-3.1 0-1.7-1.4-3.1-3.1-3.1-1.7 0-3.1 1.4-3.1 3.1 0 1.7 1.4 3.1 3.1 3.1Zm0 8.6c1.7 0 3.1-1.4 3.1-3.1 0-1.7-1.4-3.1-3.1-3.1-1.7 0-3.1 1.4-3.1 3.1 0 1.7 1.4 3.1 3.1 3.1Zm0 8.6c1.7 0 3.1-1.4 3.1-3.1 0-1.7-1.4-3.1-3.1-3.1-1.7 0-3.1 1.4-3.1 3.1 0 1.7 1.4 3.1 3.1 3.1Zm0 8.6c1.7 0 3.1-1.4 3.1-3.1 0-1.7-1.4-3.1-3.1-3.1-1.7 0-3.1 1.4-3.1 3.1 0 1.7 1.4 3.1 3.1 3.1Zm0 8.6c1.7 0 3.1-1.4 3.1-3.1 0-1.7-1.4-3.1-3.1-3.1-1.7 0-3.1 1.4-3.1 3.1 0 1.7 1.4 3.1 3.1 3.1Zm0 8.6c1.7 0 3.1-1.4 3.1-3.1 0-1.7-1.4-3.1-3.1-3.1-1.7 0-3.1 1.4-3.1 3.1 0 1.7 1.4 3.1 3.1 3.1Zm0 8.6c1.7 0 3.1-1.4 3.1-3.1 0-1.7-1.4-3.1-3.1-3.1-1.7 0-3.1 1.4-3.1 3.1 0 1.7 1.4 3.1 3.1 3.1Zm0 8.6c1.7 0 3.1-1.4 3.1-3.1 0-1.7-1.4-3.1-3.1-3.1-1.7 0-3.1 1.4-3.1 3.1 0 1.7 1.4 3.1 3.1 3.1Z" class="st3"/>
</svg>
