<svg xmlns="http://www.w3.org/2000/svg" viewBox="6132.3 4605 550 215">
  <path fill="#fff" fill-rule="evenodd" d="M6173.3 4606c-22 0-40 18-40 40v72c0 22 18 40 40 40h21.7c2.6 30.6-23.6 53-37.4 60.7 35.7 4.2 75-37 92.1-60.7h391.6a40 40 0 0 0 40-40v-72a40 40 0 0 0-40-40h-468" clip-rule="evenodd"/>
  <path fill="#262626" fill-rule="evenodd" d="M6200.9 4657.7c-.3 4.3-1.9 7.7-4.6 10.3a14.8 14.8 0 0 1-10.6 3.8c-5 0-8.9-1.6-11.8-5-3-3.3-4.5-7.7-4.5-13.2 0-3.4.6-6.4 1.9-9.1a15.6 15.6 0 0 1 14.7-9.2c3.7 0 7 1 9.7 3.1 2.7 2 4.3 5 4.9 8.8h-6a8 8 0 0 0-3-4.9 8.9 8.9 0 0 0-5.7-1.8c-2.3 0-4.3.7-6 2-1.5 1.3-2.7 3-3.4 4.8a19 19 0 0 0 1.4 15.2 8.8 8.8 0 0 0 3.2 3c1.4.8 3 1.1 4.8 1.1 5.1 0 8.1-3 8.9-8.9h6.1m44.3 21.3h-5.2v-8h-18v8h-5.3v-12.4h3.2c2-4.7 3-10.7 3-18v-2.9h19v20.9h3.3v12.4m-8.8-12.4V4650h-8.2v1.7a44.4 44.4 0 0 1-2.6 14.9h10.8m34.5-20.9-9.3 24.8a33.7 33.7 0 0 0-1 3 27.5 27.5 0 0 1-2 3.9l-1 1.1-1 .8c-.4.4-.8.6-1.2.8a8 8 0 0 1-1.5.4 7 7 0 0 1-1.7.2l-3.9-.3v-4.7l3 .3c.3 0 .7 0 1-.2a2 2 0 0 0 1-.6l.6-.8c.2-.2.4-.5.5-1a16 16 0 0 0 1.2-3.1l-9.7-24.6h6l6.8 18.6 6.4-18.6h5.8m27.5 13c0 3.9-1.1 7-3.4 9.5a11.6 11.6 0 0 1-8.8 3.5c-5.7 0-9.5-2.3-11.5-7-.8-2-1.3-4.6-1.3-8 0-6.6 1-11.6 3.2-14.9a10 10 0 0 1 4-3.7 15 15 0 0 1 6.2-1.5 28 28 0 0 1 3-.3 14 14 0 0 0 1.3-.3l.5-.4.3-.4h5.5c0 .6-.2 1.1-.4 1.6l-.5 1.3a3 3 0 0 1-1 1l-.9.7-1 .5a71.2 71.2 0 0 0-2.7.7 1496906491842.2 1496906491842.2 0 0 1-4.7.4c-4.5.3-7.5 3.5-8.9 9.5h.1c1.1-1.8 2.4-3 3.8-4 1.5-.8 3.3-1.2 5.7-1.2 3.3 0 6 1.2 8.2 3.5 2.2 2.4 3.3 5.6 3.3 9.5Zm-5.6 0c0-2.6-.7-4.7-2-6.3a6 6 0 0 0-4.9-2.3c-2 0-3.7.8-5 2.3a9.6 9.6 0 0 0-1.8 6.3c0 2.6.6 4.7 1.8 6.2 1.3 1.6 3 2.4 5 2.4a6 6 0 0 0 5-2.4 9.8 9.8 0 0 0 1.9-6.2Zm17.4 12.3h-7v-25.3h5.5v18.4h.1l9.5-18.4h7v25.3h-5.5v-18.4h-.2l-9.4 18.4m26.6 0h-5.6v-25.3h5.6v10h11.1v-10h5.6v25.3h-5.6v-11h-11v11m46.1 0h-6.8l-7.9-11.3-3.3 3.5v7.8h-5.6v-25.3h5.6v11.2l10-11.2h6.9l-9.9 10.2 11 15.1m2.5-17.5c.5-5.7 4.2-8.6 11-8.6 3.2 0 5.7.7 7.6 1.9 1.9 1.2 2.8 3.2 2.8 5.8v12.8c0 .7.1 1.2.3 1.5.2.2.5.4 1 .4l1.3-.1v3.9c-1.4.4-2.6.5-3.6.5-2.4 0-3.8-1-4.1-3-2.2 2-5.1 3-8.9 3-2.6 0-4.7-.6-6.2-2a7 7 0 0 1-2.3-5.5c0-.7 0-1.4.2-2l.6-1.6c.2-.5.5-1 1-1.3l1.2-1a106.8 106.8 0 0 1 4.9-1.6 76 76 0 0 1 3.4-.5l4-.6c.8-.2 1.3-.5 1.5-.9.3-.2.4-.8.4-1.8 0-2.5-1.8-3.8-5.2-3.8-1.8 0-3.2.3-4 1-.9.7-1.4 1.9-1.7 3.5h-5.2m16 4.8a10.5 10.5 0 0 1-2.8 1 61.6 61.6 0 0 0-6.1 1l-1.4.8-.7 1.1a3 3 0 0 0-.4 1.7c0 1.2.4 2.1 1.2 2.8.8.6 2 1 3.4 1 2.5 0 4.4-.7 5.7-2 .8-.8 1.1-2.2 1.1-4.4v-3m16.8 12.7h-5.4v-25.3h7.4l7 20.1h.1l6.8-20h7.4v25.2h-5.4v-16.8l-6.1 16.8h-5.7l-6-16.8v16.8m36 0h-7v-25.3h5.6v18.4h.2l9.4-18.4h7v25.3h-5.5v-18.4h-.2l-9.4 18.4m19.6-10.1v-6h12.8v6h-12.8m36.8-10.8h-8.3v20.9h-5.6v-20.9h-8.3v-4.4h22.2v4.4m14-5.1c3.9 0 7 1.2 9.2 3.6 2.3 2.4 3.5 5.7 3.5 9.8 0 4-1.2 7.3-3.5 9.8a12 12 0 0 1-9.2 3.6c-4 0-7-1.2-9.4-3.6a13.6 13.6 0 0 1-3.5-9.8c0-4.1 1.2-7.4 3.5-9.8 2.4-2.4 5.5-3.6 9.4-3.6Zm5.1 6.8a6.2 6.2 0 0 0-5.2-2.4c-2.2 0-4 .8-5.2 2.4-1.3 1.6-2 3.8-2 6.6s.7 5 2 6.6c1.3 1.6 3 2.4 5.3 2.4a6 6 0 0 0 5.1-2.4c1.3-1.6 2-3.8 2-6.7 0-2.8-.7-5-2-6.5Zm37.6-6.8c3.9 0 7 1.2 9.2 3.6 2.3 2.4 3.5 5.7 3.5 9.8 0 4-1.2 7.3-3.5 9.8a12 12 0 0 1-9.2 3.6c-4 0-7-1.2-9.4-3.6a13.6 13.6 0 0 1-3.5-9.8c0-4.1 1.2-7.4 3.5-9.8 2.4-2.4 5.5-3.6 9.4-3.6Zm5.1 6.8a6.2 6.2 0 0 0-5.2-2.4c-2.2 0-4 .8-5.2 2.4-1.3 1.6-2 3.8-2 6.6s.7 5 2 6.6c1.3 1.6 3 2.4 5.3 2.4a6 6 0 0 0 5.1-2.4c1.3-1.6 2-3.8 2-6.7 0-2.8-.7-5-2-6.5Zm17.8 19.2h-5.5v-25.3h5.5v10h11.1v-10h5.6v25.3h-5.6v-11h-11v11m34.2-26c3.9 0 7 1.2 9.2 3.6 2.3 2.4 3.4 5.7 3.4 9.8 0 4-1.1 7.3-3.4 9.8a12 12 0 0 1-9.2 3.6c-4 0-7-1.2-9.4-3.6a13.6 13.6 0 0 1-3.5-9.8c0-4.1 1.2-7.4 3.5-9.8 2.3-2.4 5.5-3.6 9.4-3.6Zm5.1 6.8a6.2 6.2 0 0 0-5.2-2.4c-2.2 0-4 .8-5.2 2.4-1.3 1.6-2 3.8-2 6.6s.7 5 2 6.6c1.2 1.6 3 2.4 5.3 2.4 2.1 0 3.9-.8 5.1-2.4 1.3-1.6 2-3.8 2-6.7 0-2.8-.7-5-2-6.5Zm-454 67.2h-5.6v-25.3h22.2v25.3h-5.6v-20.9h-11v20.9m34.2-26c3.9 0 7 1.2 9.2 3.6 2.3 2.4 3.5 5.7 3.5 9.8 0 4-1.2 7.3-3.5 9.8a12 12 0 0 1-9.2 3.6c-4 0-7-1.2-9.4-3.6a13.6 13.6 0 0 1-3.5-9.8c0-4.1 1.2-7.4 3.5-9.8 2.4-2.4 5.5-3.6 9.4-3.6Zm5.1 6.8a6.2 6.2 0 0 0-5.2-2.4c-2.2 0-4 .8-5.2 2.4-1.3 1.6-2 3.8-2 6.6s.7 5 2 6.6c1.3 1.6 3 2.4 5.3 2.4a6 6 0 0 0 5.1-2.4c1.3-1.6 2-3.8 2-6.7 0-2.8-.7-5-2-6.5Zm17.8 19.2h-5.5v-25.3h22.2v25.3h-5.6v-20.9h-11v20.9m27.8-25.3v3.4c1.7-2.7 4.5-4.1 8.3-4.1a10 10 0 0 1 8.3 3.7c2.1 2.4 3.2 5.7 3.2 9.8 0 4-1 7.1-3.1 9.6-2 2.3-4.7 3.5-8.1 3.5a9.5 9.5 0 0 1-8.3-4v12.8h-5.5v-34.7h5.2m7.1 3.8c-2.1 0-3.9.8-5.1 2.3a10.2 10.2 0 0 0-1.9 6.6c0 2.7.7 4.9 1.9 6.4 1.3 1.6 3 2.4 5.2 2.4a6 6 0 0 0 5-2.4 10 10 0 0 0 2-6.3c0-2.8-.7-5-2-6.6a6 6 0 0 0-5-2.4Zm29.3-4.5c3.8 0 6.9 1.2 9.2 3.6 2.3 2.4 3.4 5.7 3.4 9.8 0 4-1.1 7.3-3.4 9.8a12 12 0 0 1-9.2 3.6c-4 0-7.1-1.2-9.4-3.6a13.6 13.6 0 0 1-3.5-9.8c0-4.1 1.1-7.4 3.5-9.8 2.3-2.4 5.4-3.6 9.4-3.6Zm5 6.8a6.2 6.2 0 0 0-5.1-2.4c-2.3 0-4 .8-5.3 2.4-1.3 1.6-1.9 3.8-1.9 6.6s.6 5 2 6.6c1.2 1.6 3 2.4 5.2 2.4s4-.8 5.2-2.4c1.2-1.6 1.9-3.8 1.9-6.7 0-2.8-.7-5-2-6.5Zm12.3 19.2v-25.3h5.6v20.9h8.6v-20.9h5.6v20.9h8.6v-20.9h5.6v20.9h3.4v12.4h-5.4v-8h-32m63.3-7.9c-.6 2.8-2 4.9-4 6.4a12 12 0 0 1-7.5 2.3c-3.8 0-6.8-1.2-9-3.6a13.7 13.7 0 0 1-3.4-9.5c0-4 1.1-7.3 3.4-9.8 2.3-2.6 5.3-4 8.8-4a11 11 0 0 1 8.8 3.9c2.2 2.5 3.2 6 3.2 10.3v.6h-18.6a9 9 0 0 0 1.9 6c1.2 1.3 2.9 2 5 2a6 6 0 0 0 3.8-1 8 8 0 0 0 2.3-3.6h5.3m-5.2-7a7.8 7.8 0 0 0-2-5 5.8 5.8 0 0 0-4.5-2 6 6 0 0 0-4.5 1.8 8.7 8.7 0 0 0-2 5.1h13m47.7 2.7c0 4-1 7-3.3 9.5a11.6 11.6 0 0 1-8.9 3.5c-5.6 0-9.5-2.3-11.4-7-.9-2-1.3-4.6-1.3-8 0-6.6 1-11.6 3.2-14.9 1-1.7 2.4-3 4-3.7a15 15 0 0 1 6.1-1.5 28 28 0 0 1 3.1-.3 13.5 13.5 0 0 0 1.3-.3l.4-.4.3-.4h5.6c0 .6-.2 1.1-.4 1.6l-.6 1.3a3 3 0 0 1-.9 1l-.9.7a74.1 74.1 0 0 0-3.8 1.2 1954146397377.2 1954146397377.2 0 0 1-4.7.4c-4.5.3-7.4 3.5-8.8 9.5h.1c1-1.8 2.3-3 3.8-4 1.4-.8 3.3-1.2 5.7-1.2 3.2 0 6 1.2 8.2 3.5a14 14 0 0 1 3.2 9.5Zm-5.5 0c0-2.6-.7-4.7-2-6.3a6 6 0 0 0-5-2.3c-2 0-3.6.8-5 2.3a9.6 9.6 0 0 0-1.8 6.3c0 2.6.7 4.7 1.9 6.2 1.3 1.6 3 2.4 5 2.4a6 6 0 0 0 5-2.4 9.8 9.8 0 0 0 1.9-6.2Zm34.4-13h5.6v25.3h-5.6v-25.3m-5.7 11.3a7.7 7.7 0 0 1 2.3 6c0 2.4-.8 4.4-2.3 5.8a8.8 8.8 0 0 1-6.3 2.2h-12.4v-25.3h5.6v9.2h6.7c2.8 0 4.9.7 6.4 2.1Zm-3.3 6a4 4 0 0 0-1-2.7c-.7-.7-1.6-1-2.8-1h-6v7.3h6.1c1.3 0 2.2-.3 2.7-1 .7-.6 1-1.5 1-2.6Zm42.6 8h-5.6v-20.9h-7.7l-.4 11.1a13 13 0 0 1-2.1 7.7 6.3 6.3 0 0 1-5.4 2.7c-1.4 0-2.6-.2-3.5-.6v-4.3c.4.2 1 .2 2 .2 2.3 0 3.4-2 3.6-6.2l.4-15h18.7v25.3m17.5-26c3.8 0 7 1.2 9.2 3.6 2.3 2.4 3.4 5.7 3.4 9.8 0 4-1.1 7.3-3.4 9.8a12 12 0 0 1-9.2 3.6c-4 0-7.1-1.2-9.4-3.6a13.6 13.6 0 0 1-3.5-9.8c0-4.1 1.2-7.4 3.5-9.8 2.3-2.4 5.5-3.6 9.4-3.6Zm5 6.8a6.2 6.2 0 0 0-5.1-2.4c-2.2 0-4 .8-5.3 2.4-1.2 1.6-1.9 3.8-1.9 6.6s.7 5 2 6.6c1.2 1.6 3 2.4 5.2 2.4s4-.8 5.2-2.4c1.3-1.6 1.9-3.8 1.9-6.7 0-2.8-.6-5-2-6.5Zm14.7 19.2v-6.4h5.7v6.4h-5.7m16.3 0v-6.4h5.7v6.4h-5.7m16.3 0v-6.4h5.8v6.4h-5.8"/>
</svg>
