<?xml version="1.0" encoding="UTF-8"?> <svg xmlns="http://www.w3.org/2000/svg" viewBox="6132.33349609375 4605 550 215"> <path fill="white" fill-opacity="1" stroke="" stroke-opacity="1" stroke-width="1" fill-rule="evenodd" id="tSvg18a7d8f4fc9" d="M 6173.333333333334 4606.000010172526 C 6151.241933333334 4606.000010172526 6133.333333333334 4623.908610172526 6133.333333333334 4646.000010172526 C 6133.333333333334 4718.000010172526 6133.333333333334 4718.000010172526 6133.333333333334 4718.000010172526 C 6133.333333333334 4740.091010172527 6151.241933333334 4758.000010172526 6173.333333333334 4758.000010172526 C 6195.046133333334 4758.000010172526 6195.046133333334 4758.000010172526 6195.046133333334 4758.000010172526 C 6197.608533333334 4788.587010172527 6171.441733333334 4811.091010172527 6157.600033333334 4818.6970101725265 C 6193.347933333334 4822.935010172527 6232.564433333334 4781.750010172526 6249.748333333334 4758.000010172526 C 6641.333333333334 4758.000010172526 6641.333333333334 4758.000010172526 6641.333333333334 4758.000010172526 C 6663.424333333334 4758.000010172526 6681.333333333334 4740.091010172527 6681.333333333334 4718.000010172526 C 6681.333333333334 4646.000010172526 6681.333333333334 4646.000010172526 6681.333333333334 4646.000010172526 C 6681.333333333334 4623.908610172526 6663.424333333334 4606.000010172526 6641.333333333334 4606.000010172526 C 6173.333333333334 4606.000010172526 6173.333333333334 4606.000010172526 6173.333333333334 4606.000010172526" clip-rule="evenodd"></path> <path fill="#262626" fill-opacity="1" stroke="" stroke-opacity="1" stroke-width="1" fill-rule="evenodd" id="tSvgee86e0c10" d="M 6200.8983333333335 4657.721010172526 C 6200.571633333334 4662.000310172526 6199.036333333334 4665.430310172526 6196.292333333334 4668.011010172527 C 6193.581033333334 4670.5590101725265 6190.053033333334 4671.833010172526 6185.708333333334 4671.833010172526 C 6180.775633333334 4671.833010172526 6176.823033333334 4670.167010172527 6173.850333333334 4666.835010172526 C 6170.8776333333335 4663.503010172526 6169.391333333334 4659.076710172526 6169.391333333334 4653.556010172526 C 6169.391333333334 4650.2240101725265 6170.028333333334 4647.202310172526 6171.302333333334 4644.491010172526 C 6172.576333333334 4641.747010172527 6174.487333333334 4639.542010172527 6177.035333333334 4637.876010172527 C 6179.583333333334 4636.177310172527 6182.5723333333335 4635.328010172527 6186.002333333334 4635.328010172527 C 6189.693633333334 4635.328010172527 6192.911333333334 4636.357010172526 6195.655333333334 4638.415010172526 C 6198.399333333334 4640.440310172527 6200.049033333334 4643.380310172526 6200.604333333334 4647.235010172526 C 6194.528333333334 4647.235010172526 6194.528333333334 4647.235010172526 6194.528333333334 4647.235010172526 C 6194.103633333334 4645.144310172526 6193.123633333334 4643.511010172527 6191.588333333334 4642.335010172526 C 6190.053033333334 4641.126310172526 6188.158333333334 4640.522010172526 6185.904333333334 4640.522010172526 C 6183.585033333334 4640.522010172526 6181.608633333334 4641.175310172526 6179.975333333334 4642.482010172526 C 6178.374633333334 4643.788710172526 6177.231333333334 4645.405710172527 6176.545333333334 4647.333010172526 C 6175.8920333333335 4649.227710172527 6175.565333333334 4651.302010172526 6175.565333333334 4653.556010172526 C 6175.565333333334 4655.254710172527 6175.761333333334 4656.8553101725265 6176.153333333334 4658.3580101725265 C 6176.545333333334 4659.8607101725265 6177.133333333334 4661.249010172526 6177.917333333334 4662.5230101725265 C 6178.701333333334 4663.764310172526 6179.763033333334 4664.760710172526 6181.102333333334 4665.512010172526 C 6182.474333333334 4666.263310172526 6184.058633333334 4666.6390101725265 6185.855333333334 4666.6390101725265 C 6191.049333333334 4666.6390101725265 6194.022033333334 4663.666310172526 6194.7733333333335 4657.721010172526 C 6200.8983333333335 4657.721010172526 6200.8983333333335 4657.721010172526 6200.8983333333335 4657.721010172526 M 6245.243333333334 4679.036010172526 C 6239.951333333334 4679.036010172526 6239.951333333334 4679.036010172526 6239.951333333334 4679.036010172526 C 6239.951333333334 4679.036010172526 6239.951333333334 4671.000010172526 6239.951333333334 4671.000010172526 C 6239.951333333334 4671.000010172526 6221.968333333334 4671.000010172526 6221.968333333334 4671.000010172526 C 6221.968333333334 4671.000010172526 6221.968333333334 4679.036010172526 6221.968333333334 4679.036010172526 C 6221.968333333334 4679.036010172526 6216.676333333334 4679.036010172526 6216.676333333334 4679.036010172526 C 6216.676333333334 4679.036010172526 6216.676333333334 4666.5900101725265 6216.676333333334 4666.5900101725265 C 6216.676333333334 4666.5900101725265 6219.861333333334 4666.5900101725265 6219.861333333334 4666.5900101725265 C 6221.854033333334 4661.9187101725265 6222.850333333334 4655.908010172527 6222.850333333334 4648.558010172526 C 6222.850333333334 4645.716010172527 6222.850333333334 4645.716010172527 6222.850333333334 4645.716010172527 C 6222.850333333334 4645.716010172527 6241.862333333334 4645.716010172527 6241.862333333334 4645.716010172527 C 6241.862333333334 4645.716010172527 6241.862333333334 4666.5900101725265 6241.862333333334 4666.5900101725265 C 6241.862333333334 4666.5900101725265 6245.243333333334 4666.5900101725265 6245.243333333334 4666.5900101725265 C 6245.243333333334 4666.5900101725265 6245.243333333334 4679.036010172526 6245.243333333334 4679.036010172526 M 6236.374333333334 4666.5900101725265 C 6236.374333333334 4650.028010172527 6236.374333333334 4650.028010172527 6236.374333333334 4650.028010172527 C 6236.374333333334 4650.028010172527 6228.191333333334 4650.028010172527 6228.191333333334 4650.028010172527 C 6228.191333333334 4650.028010172527 6228.191333333334 4651.743010172527 6228.191333333334 4651.743010172527 C 6228.191333333334 4654.3890101725265 6227.913633333334 4657.165710172526 6227.358333333334 4660.073010172527 C 6226.803033333334 4662.947710172526 6226.215033333334 4665.120010172526 6225.594333333334 4666.5900101725265 C 6236.374333333334 4666.5900101725265 6236.374333333334 4666.5900101725265 6236.374333333334 4666.5900101725265 M 6270.949333333334 4645.716010172527 C 6261.590333333334 4670.510010172527 6261.590333333334 4670.510010172527 6261.590333333334 4670.510010172527 C 6261.492333333334 4670.738710172526 6261.312333333334 4671.2123101725265 6261.051333333334 4671.931010172526 C 6260.790333333334 4672.682310172527 6260.610333333334 4673.188710172526 6260.512333333334 4673.450010172526 C 6260.414333333334 4673.711310172526 6260.218333333334 4674.1687101725265 6259.924333333334 4674.8220101725265 C 6259.663333333334 4675.475310172526 6259.450333333334 4675.932710172527 6259.287333333334 4676.194010172527 C 6259.124333333334 4676.455310172526 6258.879333333334 4676.847310172527 6258.552333333334 4677.370010172526 C 6258.225333333334 4677.892710172527 6257.915333333334 4678.268310172526 6257.6213333333335 4678.497010172527 C 6257.360333333334 4678.725710172526 6257.017333333334 4679.003310172527 6256.592333333334 4679.330010172526 C 6256.200333333334 4679.689310172526 6255.792333333334 4679.934310172526 6255.367333333334 4680.065010172526 C 6254.942333333334 4680.228310172526 6254.452333333334 4680.359010172527 6253.897333333334 4680.457010172527 C 6253.374333333334 4680.587710172526 6252.803333333334 4680.653010172527 6252.182333333334 4680.653010172527 C 6251.137333333334 4680.653010172527 6249.846333333334 4680.555010172527 6248.311333333334 4680.359010172527 C 6248.311333333334 4675.655010172526 6248.311333333334 4675.655010172526 6248.311333333334 4675.655010172526 C 6249.487333333334 4675.883710172527 6250.467333333334 4675.998010172526 6251.251333333334 4675.998010172526 C 6251.643333333334 4675.998010172526 6252.002333333334 4675.932710172527 6252.329333333334 4675.802010172526 C 6252.656333333334 4675.704010172526 6252.950333333334 4675.508010172526 6253.211333333334 4675.214010172526 C 6253.472333333334 4674.952710172526 6253.701333333334 4674.691310172527 6253.897333333334 4674.430010172527 C 6254.093333333334 4674.201310172526 6254.2733333333335 4673.858310172526 6254.436333333334 4673.401010172526 C 6254.632333333334 4672.976310172527 6254.779333333334 4672.633310172527 6254.877333333334 4672.372010172527 C 6254.975333333334 4672.143310172526 6255.106333333334 4671.767710172527 6255.269333333334 4671.245010172526 C 6255.432333333334 4670.722310172527 6255.530333333334 4670.395710172526 6255.5633333333335 4670.265010172527 C 6245.861333333334 4645.716010172527 6245.861333333334 4645.716010172527 6245.861333333334 4645.716010172527 C 6245.861333333334 4645.716010172527 6251.986333333334 4645.716010172527 6251.986333333334 4645.716010172527 C 6251.986333333334 4645.716010172527 6258.748333333334 4664.336010172527 6258.748333333334 4664.336010172527 C 6258.748333333334 4664.336010172527 6265.118333333334 4645.716010172527 6265.118333333334 4645.716010172527 C 6265.118333333334 4645.716010172527 6270.949333333334 4645.716010172527 6270.949333333334 4645.716010172527 M 6298.367333333334 4658.652010172526 C 6298.367333333334 4662.604710172526 6297.256333333334 4665.773310172526 6295.035333333334 4668.158010172527 C 6292.814333333334 4670.510010172527 6289.857333333334 4671.686010172526 6286.166333333334 4671.686010172526 C 6280.482333333334 4671.686010172526 6276.660333333334 4669.350310172526 6274.700333333334 4664.679010172526 C 6273.851333333334 4662.719010172526 6273.426333333334 4660.056710172526 6273.426333333334 4656.692010172526 C 6273.426333333334 4650.060710172526 6274.488333333334 4645.111710172527 6276.611333333334 4641.845010172527 C 6277.722333333334 4640.146310172527 6279.077333333334 4638.888710172527 6280.678333333334 4638.0720101725265 C 6282.279333333334 4637.222710172527 6284.3043333333335 4636.716310172526 6286.754333333334 4636.553010172526 C 6287.048333333334 4636.5203101725265 6287.440333333334 4636.487710172526 6287.930333333334 4636.455010172526 C 6288.453333333334 4636.4223101725265 6288.812333333334 4636.406010172526 6289.008333333334 4636.406010172526 C 6289.237333333334 4636.3733101725265 6289.5143333333335 4636.340710172526 6289.841333333334 4636.308010172526 C 6290.200333333334 4636.242710172526 6290.445333333334 4636.193710172526 6290.576333333334 4636.161010172526 C 6290.739333333334 4636.095710172526 6290.919333333334 4636.030310172527 6291.115333333334 4635.9650101725265 C 6291.311333333334 4635.8670101725265 6291.458333333334 4635.752710172526 6291.556333333334 4635.622010172527 C 6291.654333333334 4635.491310172526 6291.752333333334 4635.344310172526 6291.850333333334 4635.181010172526 C 6297.436333333334 4635.181010172526 6297.436333333334 4635.181010172526 6297.436333333334 4635.181010172526 C 6297.338333333334 4635.769010172527 6297.191333333334 4636.308010172526 6296.995333333334 4636.798010172526 C 6296.832333333334 4637.288010172526 6296.652333333334 4637.712710172526 6296.4563333333335 4638.0720101725265 C 6296.260333333334 4638.4313101725265 6295.966333333334 4638.758010172526 6295.574333333334 4639.052010172526 C 6295.215333333334 4639.346010172526 6294.904333333334 4639.591010172527 6294.643333333334 4639.787010172527 C 6294.414333333334 4639.9830101725265 6294.039333333334 4640.162710172526 6293.516333333334 4640.326010172526 C 6292.993333333334 4640.4893101725265 6292.585333333334 4640.620010172526 6292.291333333334 4640.718010172526 C 6291.997333333334 4640.783310172526 6291.5233333333335 4640.865010172526 6290.870333333334 4640.963010172526 C 6290.217333333334 4641.028310172526 6289.727333333334 4641.077310172526 6289.400333333334 4641.110010172526 C 6289.106333333334 4641.142710172527 6288.567333333334 4641.191710172527 6287.783333333334 4641.257010172526 C 6287.032333333334 4641.289710172527 6286.493333333334 4641.322310172526 6286.166333333334 4641.355010172526 C 6281.658333333334 4641.714310172526 6278.702333333334 4644.883010172526 6277.297333333334 4650.861010172526 C 6277.444333333334 4650.861010172526 6277.444333333334 4650.861010172526 6277.444333333334 4650.861010172526 C 6278.522333333334 4649.129710172527 6279.780333333334 4647.839310172526 6281.217333333334 4646.990010172526 C 6282.654333333334 4646.1080101725265 6284.549333333334 4645.667010172527 6286.901333333334 4645.667010172527 C 6290.168333333334 4645.667010172527 6292.895333333334 4646.859310172526 6295.084333333334 4649.244010172526 C 6297.2733333333335 4651.628710172527 6298.367333333334 4654.764710172526 6298.367333333334 4658.652010172526Z M 6292.781333333334 4658.652010172526 C 6292.781333333334 4656.071310172526 6292.144333333334 4653.997010172527 6290.870333333334 4652.429010172526 C 6289.629333333334 4650.861010172526 6287.979333333334 4650.077010172527 6285.921333333334 4650.077010172527 C 6283.863333333334 4650.077010172527 6282.1973333333335 4650.861010172526 6280.923333333334 4652.429010172526 C 6279.682333333334 4653.964310172526 6279.061333333334 4656.038710172526 6279.061333333334 4658.652010172526 C 6279.061333333334 4661.265310172526 6279.682333333334 4663.356010172526 6280.923333333334 4664.924010172526 C 6282.1973333333335 4666.4920101725265 6283.863333333334 4667.276010172526 6285.921333333334 4667.276010172526 C 6287.979333333334 4667.276010172526 6289.629333333334 4666.4920101725265 6290.870333333334 4664.924010172526 C 6292.144333333334 4663.356010172526 6292.781333333334 4661.265310172526 6292.781333333334 4658.652010172526Z M 6310.165333333334 4671.000010172526 C 6303.109333333334 4671.000010172526 6303.109333333334 4671.000010172526 6303.109333333334 4671.000010172526 C 6303.109333333334 4671.000010172526 6303.109333333334 4645.716010172527 6303.109333333334 4645.716010172527 C 6303.109333333334 4645.716010172527 6308.695333333334 4645.716010172527 6308.695333333334 4645.716010172527 C 6308.695333333334 4645.716010172527 6308.695333333334 4664.140010172527 6308.695333333334 4664.140010172527 C 6308.695333333334 4664.140010172527 6308.842333333334 4664.140010172527 6308.842333333334 4664.140010172527 C 6308.842333333334 4664.140010172527 6318.299333333334 4645.716010172527 6318.299333333334 4645.716010172527 C 6318.299333333334 4645.716010172527 6325.355333333334 4645.716010172527 6325.355333333334 4645.716010172527 C 6325.355333333334 4645.716010172527 6325.355333333334 4671.000010172526 6325.355333333334 4671.000010172526 C 6325.355333333334 4671.000010172526 6319.769333333334 4671.000010172526 6319.769333333334 4671.000010172526 C 6319.769333333334 4671.000010172526 6319.769333333334 4652.576010172526 6319.769333333334 4652.576010172526 C 6319.769333333334 4652.576010172526 6319.622333333334 4652.576010172526 6319.622333333334 4652.576010172526 C 6319.622333333334 4652.576010172526 6310.165333333334 4671.000010172526 6310.165333333334 4671.000010172526 M 6336.832333333334 4671.000010172526 C 6331.246333333334 4671.000010172526 6331.246333333334 4671.000010172526 6331.246333333334 4671.000010172526 C 6331.246333333334 4671.000010172526 6331.246333333334 4645.716010172527 6331.246333333334 4645.716010172527 C 6331.246333333334 4645.716010172527 6336.832333333334 4645.716010172527 6336.832333333334 4645.716010172527 C 6336.832333333334 4645.716010172527 6336.832333333334 4655.614010172526 6336.832333333334 4655.614010172526 C 6336.832333333334 4655.614010172526 6347.906333333334 4655.614010172526 6347.906333333334 4655.614010172526 C 6347.906333333334 4655.614010172526 6347.906333333334 4645.716010172527 6347.906333333334 4645.716010172527 C 6347.906333333334 4645.716010172527 6353.492333333334 4645.716010172527 6353.492333333334 4645.716010172527 C 6353.492333333334 4645.716010172527 6353.492333333334 4671.000010172526 6353.492333333334 4671.000010172526 C 6353.492333333334 4671.000010172526 6347.906333333334 4671.000010172526 6347.906333333334 4671.000010172526 C 6347.906333333334 4671.000010172526 6347.906333333334 4660.024010172527 6347.906333333334 4660.024010172527 C 6347.906333333334 4660.024010172527 6336.832333333334 4660.024010172527 6336.832333333334 4660.024010172527 C 6336.832333333334 4660.024010172527 6336.832333333334 4671.000010172526 6336.832333333334 4671.000010172526 M 6383.000333333334 4671.000010172526 C 6376.238333333334 4671.000010172526 6376.238333333334 4671.000010172526 6376.238333333334 4671.000010172526 C 6376.238333333334 4671.000010172526 6368.300333333334 4659.681010172526 6368.300333333334 4659.681010172526 C 6368.300333333334 4659.681010172526 6364.968333333334 4663.160010172526 6364.968333333334 4663.160010172526 C 6364.968333333334 4663.160010172526 6364.968333333334 4671.000010172526 6364.968333333334 4671.000010172526 C 6364.968333333334 4671.000010172526 6359.382333333334 4671.000010172526 6359.382333333334 4671.000010172526 C 6359.382333333334 4671.000010172526 6359.382333333334 4645.716010172527 6359.382333333334 4645.716010172527 C 6359.382333333334 4645.716010172527 6364.968333333334 4645.716010172527 6364.968333333334 4645.716010172527 C 6364.968333333334 4645.716010172527 6364.968333333334 4656.937010172526 6364.968333333334 4656.937010172526 C 6364.968333333334 4656.937010172526 6375.062333333334 4645.716010172527 6375.062333333334 4645.716010172527 C 6375.062333333334 4645.716010172527 6381.873333333334 4645.716010172527 6381.873333333334 4645.716010172527 C 6381.873333333334 4645.716010172527 6372.024333333334 4655.859010172527 6372.024333333334 4655.859010172527 C 6372.024333333334 4655.859010172527 6383.000333333334 4671.000010172526 6383.000333333334 4671.000010172526 M 6385.4563333333335 4653.507010172526 C 6386.044333333334 4647.790310172526 6389.735333333334 4644.932010172526 6396.530333333334 4644.932010172526 C 6399.698333333334 4644.932010172526 6402.214333333334 4645.5527101725265 6404.076333333334 4646.794010172526 C 6405.970333333334 4648.035310172526 6406.918333333334 4649.962710172526 6406.918333333334 4652.576010172526 C 6406.918333333334 4665.414010172526 6406.918333333334 4665.414010172526 6406.918333333334 4665.414010172526 C 6406.918333333334 4666.1327101725265 6406.999333333334 4666.622710172526 6407.163333333334 4666.884010172526 C 6407.359333333334 4667.1453101725265 6407.718333333334 4667.276010172526 6408.241333333334 4667.276010172526 C 6408.633333333334 4667.276010172526 6409.057333333334 4667.243310172526 6409.515333333334 4667.178010172526 C 6409.515333333334 4671.098010172526 6409.515333333334 4671.098010172526 6409.515333333334 4671.098010172526 C 6408.077333333334 4671.457310172526 6406.869333333334 4671.637010172526 6405.8893333333335 4671.637010172526 C 6403.504333333334 4671.637010172526 6402.132333333334 4670.624310172527 6401.7733333333335 4668.5990101725265 C 6399.649333333334 4670.624310172527 6396.693333333334 4671.637010172526 6392.904333333334 4671.637010172526 C 6390.290333333334 4671.637010172526 6388.216333333334 4670.967310172527 6386.681333333334 4669.628010172526 C 6385.145333333334 4668.256010172527 6384.378333333334 4666.410310172526 6384.378333333334 4664.091010172527 C 6384.378333333334 4663.372310172526 6384.459333333334 4662.702710172526 6384.623333333334 4662.082010172527 C 6384.786333333334 4661.461310172526 6384.966333333334 4660.9223101725265 6385.162333333334 4660.4650101725265 C 6385.390333333334 4660.0077101725265 6385.733333333334 4659.583010172526 6386.191333333334 4659.191010172526 C 6386.681333333334 4658.799010172526 6387.073333333334 4658.472310172527 6387.367333333334 4658.211010172527 C 6387.693333333334 4657.9497101725265 6388.200333333334 4657.704710172527 6388.886333333334 4657.476010172526 C 6389.604333333334 4657.247310172526 6390.127333333334 4657.084010172526 6390.454333333334 4656.986010172526 C 6390.8133333333335 4656.8553101725265 6391.417333333334 4656.724710172526 6392.267333333334 4656.594010172526 C 6393.116333333334 4656.463310172527 6393.671333333334 4656.381710172526 6393.933333333334 4656.3490101725265 C 6394.227333333334 4656.283710172526 6394.815333333334 4656.202010172527 6395.6973333333335 4656.104010172527 C 6397.689333333334 4655.8427101725265 6399.0453333333335 4655.630310172526 6399.7643333333335 4655.467010172526 C 6400.482333333334 4655.271010172526 6400.972333333334 4654.993310172526 6401.234333333334 4654.634010172526 C 6401.462333333334 4654.372710172526 6401.577333333334 4653.768310172526 6401.577333333334 4652.821010172526 C 6401.577333333334 4650.2730101725265 6399.845333333334 4648.999010172526 6396.383333333334 4648.999010172526 C 6394.553333333334 4648.999010172526 6393.214333333334 4649.342010172526 6392.365333333334 4650.028010172527 C 6391.515333333334 4650.714010172526 6390.976333333334 4651.873710172526 6390.748333333334 4653.507010172526 C 6385.4563333333335 4653.507010172526 6385.4563333333335 4653.507010172526 6385.4563333333335 4653.507010172526 M 6401.528333333334 4658.3090101725265 C 6401.103333333334 4658.537710172526 6400.613333333334 4658.750010172526 6400.058333333334 4658.946010172526 C 6399.502333333334 4659.109310172526 6399.0453333333335 4659.223710172526 6398.686333333334 4659.289010172526 C 6398.359333333334 4659.321710172527 6397.820333333334 4659.387010172526 6397.069333333334 4659.485010172526 C 6396.350333333334 4659.583010172526 6395.876333333334 4659.648310172526 6395.6483333333335 4659.681010172526 C 6394.962333333334 4659.779010172527 6394.423333333334 4659.877010172527 6394.031333333334 4659.975010172527 C 6393.6393333333335 4660.040310172526 6393.149333333334 4660.171010172527 6392.561333333334 4660.3670101725265 C 6392.005333333334 4660.563010172526 6391.564333333334 4660.808010172526 6391.238333333334 4661.102010172526 C 6390.944333333334 4661.363310172526 6390.682333333334 4661.739010172526 6390.454333333334 4662.229010172527 C 6390.225333333334 4662.686310172527 6390.111333333334 4663.241710172526 6390.111333333334 4663.895010172527 C 6390.111333333334 4665.103710172526 6390.503333333334 4666.0347101725265 6391.287333333334 4666.688010172526 C 6392.103333333334 4667.341310172526 6393.230333333334 4667.668010172526 6394.668333333334 4667.668010172526 C 6397.150333333334 4667.668010172526 6399.061333333334 4666.9983101725265 6400.401333333334 4665.659010172526 C 6401.152333333334 4664.907710172526 6401.528333333334 4663.454010172526 6401.528333333334 4661.298010172526 C 6401.528333333334 4658.3090101725265 6401.528333333334 4658.3090101725265 6401.528333333334 4658.3090101725265 M 6418.318333333334 4671.000010172526 C 6412.928333333334 4671.000010172526 6412.928333333334 4671.000010172526 6412.928333333334 4671.000010172526 C 6412.928333333334 4671.000010172526 6412.928333333334 4645.716010172527 6412.928333333334 4645.716010172527 C 6412.928333333334 4645.716010172527 6420.278333333334 4645.716010172527 6420.278333333334 4645.716010172527 C 6420.278333333334 4645.716010172527 6427.334333333334 4665.806010172526 6427.334333333334 4665.806010172526 C 6427.334333333334 4665.806010172526 6427.432333333334 4665.806010172526 6427.432333333334 4665.806010172526 C 6427.432333333334 4665.806010172526 6434.243333333334 4645.716010172527 6434.243333333334 4645.716010172527 C 6434.243333333334 4645.716010172527 6441.593333333334 4645.716010172527 6441.593333333334 4645.716010172527 C 6441.593333333334 4645.716010172527 6441.593333333334 4671.000010172526 6441.593333333334 4671.000010172526 C 6441.593333333334 4671.000010172526 6436.203333333334 4671.000010172526 6436.203333333334 4671.000010172526 C 6436.203333333334 4671.000010172526 6436.203333333334 4654.193010172527 6436.203333333334 4654.193010172527 C 6436.203333333334 4654.193010172527 6436.105333333334 4654.193010172527 6436.105333333334 4654.193010172527 C 6436.105333333334 4654.193010172527 6430.078333333334 4671.000010172526 6430.078333333334 4671.000010172526 C 6430.078333333334 4671.000010172526 6424.443333333334 4671.000010172526 6424.443333333334 4671.000010172526 C 6424.443333333334 4671.000010172526 6418.416333333334 4654.193010172527 6418.416333333334 4654.193010172527 C 6418.416333333334 4654.193010172527 6418.318333333334 4654.193010172527 6418.318333333334 4654.193010172527 C 6418.318333333334 4654.193010172527 6418.318333333334 4671.000010172526 6418.318333333334 4671.000010172526 M 6454.485333333334 4671.000010172526 C 6447.4293333333335 4671.000010172526 6447.4293333333335 4671.000010172526 6447.4293333333335 4671.000010172526 C 6447.4293333333335 4671.000010172526 6447.4293333333335 4645.716010172527 6447.4293333333335 4645.716010172527 C 6447.4293333333335 4645.716010172527 6453.015333333334 4645.716010172527 6453.015333333334 4645.716010172527 C 6453.015333333334 4645.716010172527 6453.015333333334 4664.140010172527 6453.015333333334 4664.140010172527 C 6453.015333333334 4664.140010172527 6453.162333333334 4664.140010172527 6453.162333333334 4664.140010172527 C 6453.162333333334 4664.140010172527 6462.619333333334 4645.716010172527 6462.619333333334 4645.716010172527 C 6462.619333333334 4645.716010172527 6469.675333333334 4645.716010172527 6469.675333333334 4645.716010172527 C 6469.675333333334 4645.716010172527 6469.675333333334 4671.000010172526 6469.675333333334 4671.000010172526 C 6469.675333333334 4671.000010172526 6464.089333333334 4671.000010172526 6464.089333333334 4671.000010172526 C 6464.089333333334 4671.000010172526 6464.089333333334 4652.576010172526 6464.089333333334 4652.576010172526 C 6464.089333333334 4652.576010172526 6463.942333333334 4652.576010172526 6463.942333333334 4652.576010172526 C 6463.942333333334 4652.576010172526 6454.485333333334 4671.000010172526 6454.485333333334 4671.000010172526 M 6474.096333333334 4660.857010172526 C 6474.096333333334 4654.879010172526 6474.096333333334 4654.879010172526 6474.096333333334 4654.879010172526 C 6474.096333333334 4654.879010172526 6486.934333333334 4654.879010172526 6486.934333333334 4654.879010172526 C 6486.934333333334 4654.879010172526 6486.934333333334 4660.857010172526 6486.934333333334 4660.857010172526 C 6486.934333333334 4660.857010172526 6474.096333333334 4660.857010172526 6474.096333333334 4660.857010172526 M 6510.908333333334 4650.126010172527 C 6502.578333333334 4650.126010172527 6502.578333333334 4650.126010172527 6502.578333333334 4650.126010172527 C 6502.578333333334 4650.126010172527 6502.578333333334 4671.000010172526 6502.578333333334 4671.000010172526 C 6502.578333333334 4671.000010172526 6496.992333333334 4671.000010172526 6496.992333333334 4671.000010172526 C 6496.992333333334 4671.000010172526 6496.992333333334 4650.126010172527 6496.992333333334 4650.126010172527 C 6496.992333333334 4650.126010172527 6488.662333333334 4650.126010172527 6488.662333333334 4650.126010172527 C 6488.662333333334 4650.126010172527 6488.662333333334 4645.716010172527 6488.662333333334 4645.716010172527 C 6488.662333333334 4645.716010172527 6510.908333333334 4645.716010172527 6510.908333333334 4645.716010172527 C 6510.908333333334 4645.716010172527 6510.908333333334 4650.126010172527 6510.908333333334 4650.126010172527 M 6524.936333333334 4644.981010172526 C 6528.791333333334 4644.981010172526 6531.861333333334 4646.189710172526 6534.1483333333335 4648.607010172526 C 6536.435333333334 4651.024310172526 6537.578333333334 4654.274710172526 6537.578333333334 4658.3580101725265 C 6537.578333333334 4662.4740101725265 6536.435333333334 4665.740710172527 6534.1483333333335 4668.158010172527 C 6531.894333333334 4670.575310172527 6528.823333333334 4671.784010172526 6524.936333333334 4671.784010172526 C 6520.983333333334 4671.784010172526 6517.847333333334 4670.575310172527 6515.528333333334 4668.158010172527 C 6513.209333333334 4665.740710172527 6512.049333333334 4662.4740101725265 6512.049333333334 4658.3580101725265 C 6512.049333333334 4654.274710172526 6513.209333333334 4651.024310172526 6515.528333333334 4648.607010172526 C 6517.880333333334 4646.189710172526 6521.016333333334 4644.981010172526 6524.936333333334 4644.981010172526Z M 6530.032333333334 4651.792010172527 C 6528.791333333334 4650.191310172527 6527.059333333334 4649.391010172526 6524.838333333334 4649.391010172526 C 6522.617333333334 4649.391010172526 6520.869333333334 4650.191310172527 6519.595333333334 4651.792010172527 C 6518.321333333334 4653.392710172527 6517.684333333334 4655.581310172526 6517.684333333334 4658.3580101725265 C 6517.684333333334 4661.200010172526 6518.321333333334 4663.421310172526 6519.595333333334 4665.022010172526 C 6520.869333333334 4666.622710172526 6522.633333333334 4667.423010172526 6524.887333333334 4667.423010172526 C 6527.076333333334 4667.423010172526 6528.791333333334 4666.622710172526 6530.032333333334 4665.022010172526 C 6531.306333333334 4663.388710172527 6531.943333333334 4661.151010172526 6531.943333333334 4658.3090101725265 C 6531.943333333334 4655.532310172526 6531.306333333334 4653.360010172526 6530.032333333334 4651.792010172527Z M 6567.620333333334 4644.981010172526 C 6571.474333333334 4644.981010172526 6574.5453333333335 4646.189710172526 6576.832333333334 4648.607010172526 C 6579.118333333334 4651.024310172526 6580.262333333334 4654.274710172526 6580.262333333334 4658.3580101725265 C 6580.262333333334 4662.4740101725265 6579.118333333334 4665.740710172527 6576.832333333334 4668.158010172527 C 6574.578333333334 4670.575310172527 6571.507333333334 4671.784010172526 6567.620333333334 4671.784010172526 C 6563.667333333334 4671.784010172526 6560.531333333334 4670.575310172527 6558.212333333334 4668.158010172527 C 6555.892333333334 4665.740710172527 6554.733333333334 4662.4740101725265 6554.733333333334 4658.3580101725265 C 6554.733333333334 4654.274710172526 6555.892333333334 4651.024310172526 6558.212333333334 4648.607010172526 C 6560.564333333334 4646.189710172526 6563.700333333334 4644.981010172526 6567.620333333334 4644.981010172526Z M 6572.716333333334 4651.792010172527 C 6571.474333333334 4650.191310172527 6569.743333333334 4649.391010172526 6567.522333333334 4649.391010172526 C 6565.300333333334 4649.391010172526 6563.553333333334 4650.191310172527 6562.279333333334 4651.792010172527 C 6561.005333333334 4653.392710172527 6560.368333333334 4655.581310172526 6560.368333333334 4658.3580101725265 C 6560.368333333334 4661.200010172526 6561.005333333334 4663.421310172526 6562.279333333334 4665.022010172526 C 6563.553333333334 4666.622710172526 6565.317333333334 4667.423010172526 6567.571333333334 4667.423010172526 C 6569.759333333334 4667.423010172526 6571.474333333334 4666.622710172526 6572.716333333334 4665.022010172526 C 6573.990333333334 4663.388710172527 6574.627333333334 4661.151010172526 6574.627333333334 4658.3090101725265 C 6574.627333333334 4655.532310172526 6573.990333333334 4653.360010172526 6572.716333333334 4651.792010172527Z M 6590.541333333334 4671.000010172526 C 6584.955333333334 4671.000010172526 6584.955333333334 4671.000010172526 6584.955333333334 4671.000010172526 C 6584.955333333334 4671.000010172526 6584.955333333334 4645.716010172527 6584.955333333334 4645.716010172527 C 6584.955333333334 4645.716010172527 6590.541333333334 4645.716010172527 6590.541333333334 4645.716010172527 C 6590.541333333334 4645.716010172527 6590.541333333334 4655.614010172526 6590.541333333334 4655.614010172526 C 6590.541333333334 4655.614010172526 6601.615333333334 4655.614010172526 6601.615333333334 4655.614010172526 C 6601.615333333334 4655.614010172526 6601.615333333334 4645.716010172527 6601.615333333334 4645.716010172527 C 6601.615333333334 4645.716010172527 6607.201333333334 4645.716010172527 6607.201333333334 4645.716010172527 C 6607.201333333334 4645.716010172527 6607.201333333334 4671.000010172526 6607.201333333334 4671.000010172526 C 6607.201333333334 4671.000010172526 6601.615333333334 4671.000010172526 6601.615333333334 4671.000010172526 C 6601.615333333334 4671.000010172526 6601.615333333334 4660.024010172527 6601.615333333334 4660.024010172527 C 6601.615333333334 4660.024010172527 6590.541333333334 4660.024010172527 6590.541333333334 4660.024010172527 C 6590.541333333334 4660.024010172527 6590.541333333334 4671.000010172526 6590.541333333334 4671.000010172526 M 6624.802333333334 4644.981010172526 C 6628.657333333334 4644.981010172526 6631.728333333334 4646.189710172526 6634.0143333333335 4648.607010172526 C 6636.301333333334 4651.024310172526 6637.444333333334 4654.274710172526 6637.444333333334 4658.3580101725265 C 6637.444333333334 4662.4740101725265 6636.301333333334 4665.740710172527 6634.0143333333335 4668.158010172527 C 6631.760333333334 4670.575310172527 6628.690333333334 4671.784010172526 6624.802333333334 4671.784010172526 C 6620.850333333334 4671.784010172526 6617.714333333334 4670.575310172527 6615.394333333334 4668.158010172527 C 6613.075333333334 4665.740710172527 6611.915333333334 4662.4740101725265 6611.915333333334 4658.3580101725265 C 6611.915333333334 4654.274710172526 6613.075333333334 4651.024310172526 6615.394333333334 4648.607010172526 C 6617.746333333334 4646.189710172526 6620.882333333334 4644.981010172526 6624.802333333334 4644.981010172526Z M 6629.8983333333335 4651.792010172527 C 6628.657333333334 4650.191310172527 6626.926333333334 4649.391010172526 6624.704333333334 4649.391010172526 C 6622.483333333334 4649.391010172526 6620.735333333334 4650.191310172527 6619.461333333334 4651.792010172527 C 6618.187333333334 4653.392710172527 6617.550333333334 4655.581310172526 6617.550333333334 4658.3580101725265 C 6617.550333333334 4661.200010172526 6618.187333333334 4663.421310172526 6619.461333333334 4665.022010172526 C 6620.735333333334 4666.622710172526 6622.499333333334 4667.423010172526 6624.753333333334 4667.423010172526 C 6626.942333333334 4667.423010172526 6628.657333333334 4666.622710172526 6629.8983333333335 4665.022010172526 C 6631.172333333334 4663.388710172527 6631.809333333334 4661.151010172526 6631.809333333334 4658.3090101725265 C 6631.809333333334 4655.532310172526 6631.172333333334 4653.360010172526 6629.8983333333335 4651.792010172527Z M 6175.859333333334 4719.000010172526 C 6170.2733333333335 4719.000010172526 6170.2733333333335 4719.000010172526 6170.2733333333335 4719.000010172526 C 6170.2733333333335 4719.000010172526 6170.2733333333335 4693.716010172527 6170.2733333333335 4693.716010172527 C 6170.2733333333335 4693.716010172527 6192.519333333334 4693.716010172527 6192.519333333334 4693.716010172527 C 6192.519333333334 4693.716010172527 6192.519333333334 4719.000010172526 6192.519333333334 4719.000010172526 C 6192.519333333334 4719.000010172526 6186.933333333334 4719.000010172526 6186.933333333334 4719.000010172526 C 6186.933333333334 4719.000010172526 6186.933333333334 4698.126010172527 6186.933333333334 4698.126010172527 C 6186.933333333334 4698.126010172527 6175.859333333334 4698.126010172527 6175.859333333334 4698.126010172527 C 6175.859333333334 4698.126010172527 6175.859333333334 4719.000010172526 6175.859333333334 4719.000010172526 M 6210.121033333334 4692.981010172526 C 6213.975733333334 4692.981010172526 6217.046433333334 4694.189710172526 6219.333033333334 4696.607010172526 C 6221.619733333334 4699.024310172526 6222.763033333334 4702.274710172526 6222.763033333334 4706.3580101725265 C 6222.763033333334 4710.4740101725265 6221.619733333334 4713.741010172526 6219.333033333334 4716.158010172527 C 6217.079033333334 4718.575010172526 6214.008433333334 4719.784010172526 6210.121033333334 4719.784010172526 C 6206.168433333334 4719.784010172526 6203.032433333334 4718.575010172526 6200.713033333334 4716.158010172527 C 6198.393733333334 4713.741010172526 6197.234033333334 4710.4740101725265 6197.234033333334 4706.3580101725265 C 6197.234033333334 4702.274710172526 6198.393733333334 4699.024310172526 6200.713033333334 4696.607010172526 C 6203.065033333334 4694.189710172526 6206.201033333334 4692.981010172526 6210.121033333334 4692.981010172526Z M 6215.217033333334 4699.792010172527 C 6213.975733333334 4698.191310172527 6212.244433333334 4697.391010172526 6210.023033333334 4697.391010172526 C 6207.801733333334 4697.391010172526 6206.054033333334 4698.191310172527 6204.780033333334 4699.792010172527 C 6203.506033333334 4701.392710172527 6202.869033333334 4703.581310172526 6202.869033333334 4706.3580101725265 C 6202.869033333334 4709.200010172526 6203.506033333334 4711.421010172527 6204.780033333334 4713.022010172526 C 6206.054033333334 4714.623010172526 6207.818033333334 4715.423010172526 6210.072033333334 4715.423010172526 C 6212.2607333333335 4715.423010172526 6213.975733333334 4714.623010172526 6215.217033333334 4713.022010172526 C 6216.491033333334 4711.3890101725265 6217.128033333334 4709.151010172526 6217.128033333334 4706.3090101725265 C 6217.128033333334 4703.532310172526 6216.491033333334 4701.360010172526 6215.217033333334 4699.792010172527Z M 6233.041933333334 4719.000010172526 C 6227.455933333334 4719.000010172526 6227.455933333334 4719.000010172526 6227.455933333334 4719.000010172526 C 6227.455933333334 4719.000010172526 6227.455933333334 4693.716010172527 6227.455933333334 4693.716010172527 C 6227.455933333334 4693.716010172527 6249.702333333334 4693.716010172527 6249.702333333334 4693.716010172527 C 6249.702333333334 4693.716010172527 6249.702333333334 4719.000010172526 6249.702333333334 4719.000010172526 C 6249.702333333334 4719.000010172526 6244.116333333334 4719.000010172526 6244.116333333334 4719.000010172526 C 6244.116333333334 4719.000010172526 6244.116333333334 4698.126010172527 6244.116333333334 4698.126010172527 C 6244.116333333334 4698.126010172527 6233.041933333334 4698.126010172527 6233.041933333334 4698.126010172527 C 6233.041933333334 4698.126010172527 6233.041933333334 4719.000010172526 6233.041933333334 4719.000010172526 M 6260.933333333334 4693.716010172527 C 6260.933333333334 4697.097010172526 6260.933333333334 4697.097010172526 6260.933333333334 4697.097010172526 C 6262.632333333334 4694.353010172526 6265.376333333334 4692.981010172526 6269.165333333334 4692.981010172526 C 6272.661333333334 4692.981010172526 6275.454333333334 4694.2060101725265 6277.544333333334 4696.656010172526 C 6279.635333333334 4699.106010172526 6280.680333333334 4702.372710172526 6280.680333333334 4706.4560101725265 C 6280.680333333334 4710.441010172526 6279.651333333334 4713.643010172526 6277.593333333334 4716.060010172527 C 6275.568333333334 4718.445010172526 6272.857333333334 4719.637010172526 6269.459333333334 4719.637010172526 C 6265.866333333334 4719.637010172526 6263.122333333334 4718.314010172527 6261.227333333334 4715.668010172526 C 6261.227333333334 4728.359010172527 6261.227333333334 4728.359010172527 6261.227333333334 4728.359010172527 C 6261.227333333334 4728.359010172527 6255.690333333334 4728.359010172527 6255.690333333334 4728.359010172527 C 6255.690333333334 4728.359010172527 6255.690333333334 4693.716010172527 6255.690333333334 4693.716010172527 C 6255.690333333334 4693.716010172527 6260.933333333334 4693.716010172527 6260.933333333334 4693.716010172527 M 6268.038333333334 4697.489010172526 C 6265.850333333334 4697.489010172526 6264.135333333334 4698.2730101725265 6262.893333333334 4699.841010172527 C 6261.652333333334 4701.409010172526 6261.031333333334 4703.581310172526 6261.031333333334 4706.3580101725265 C 6261.031333333334 4709.102010172526 6261.652333333334 4711.258010172526 6262.893333333334 4712.826010172526 C 6264.167333333334 4714.394010172527 6265.915333333334 4715.178010172526 6268.136333333334 4715.178010172526 C 6270.260333333334 4715.178010172526 6271.942333333334 4714.394010172527 6273.183333333334 4712.826010172526 C 6274.425333333334 4711.258010172526 6275.0453333333335 4709.135010172527 6275.0453333333335 4706.4560101725265 C 6275.0453333333335 4703.712010172527 6274.408333333334 4701.539710172527 6273.134333333334 4699.939010172527 C 6271.893333333334 4698.305710172526 6270.194333333334 4697.489010172526 6268.038333333334 4697.489010172526Z M 6297.258333333334 4692.981010172526 C 6301.113333333334 4692.981010172526 6304.184333333334 4694.189710172526 6306.470333333334 4696.607010172526 C 6308.757333333334 4699.024310172526 6309.900333333334 4702.274710172526 6309.900333333334 4706.3580101725265 C 6309.900333333334 4710.4740101725265 6308.757333333334 4713.741010172526 6306.470333333334 4716.158010172527 C 6304.216333333334 4718.575010172526 6301.146333333334 4719.784010172526 6297.258333333334 4719.784010172526 C 6293.306333333334 4719.784010172526 6290.1703333333335 4718.575010172526 6287.850333333334 4716.158010172527 C 6285.531333333334 4713.741010172526 6284.371333333334 4710.4740101725265 6284.371333333334 4706.3580101725265 C 6284.371333333334 4702.274710172526 6285.531333333334 4699.024310172526 6287.850333333334 4696.607010172526 C 6290.202333333334 4694.189710172526 6293.338333333334 4692.981010172526 6297.258333333334 4692.981010172526Z M 6302.354333333334 4699.792010172527 C 6301.113333333334 4698.191310172527 6299.382333333334 4697.391010172526 6297.160333333334 4697.391010172526 C 6294.939333333334 4697.391010172526 6293.191333333334 4698.191310172527 6291.917333333334 4699.792010172527 C 6290.643333333334 4701.392710172527 6290.006333333334 4703.581310172526 6290.006333333334 4706.3580101725265 C 6290.006333333334 4709.200010172526 6290.643333333334 4711.421010172527 6291.917333333334 4713.022010172526 C 6293.191333333334 4714.623010172526 6294.955333333334 4715.423010172526 6297.209333333334 4715.423010172526 C 6299.3983333333335 4715.423010172526 6301.113333333334 4714.623010172526 6302.354333333334 4713.022010172526 C 6303.628333333334 4711.3890101725265 6304.265333333334 4709.151010172526 6304.265333333334 4706.3090101725265 C 6304.265333333334 4703.532310172526 6303.628333333334 4701.360010172526 6302.354333333334 4699.792010172527Z M 6314.593333333334 4719.000010172526 C 6314.593333333334 4693.716010172527 6314.593333333334 4693.716010172527 6314.593333333334 4693.716010172527 C 6314.593333333334 4693.716010172527 6320.1793333333335 4693.716010172527 6320.1793333333335 4693.716010172527 C 6320.1793333333335 4693.716010172527 6320.1793333333335 4714.5900101725265 6320.1793333333335 4714.5900101725265 C 6320.1793333333335 4714.5900101725265 6328.803333333334 4714.5900101725265 6328.803333333334 4714.5900101725265 C 6328.803333333334 4714.5900101725265 6328.803333333334 4693.716010172527 6328.803333333334 4693.716010172527 C 6328.803333333334 4693.716010172527 6334.3893333333335 4693.716010172527 6334.3893333333335 4693.716010172527 C 6334.3893333333335 4693.716010172527 6334.3893333333335 4714.5900101725265 6334.3893333333335 4714.5900101725265 C 6334.3893333333335 4714.5900101725265 6343.013333333334 4714.5900101725265 6343.013333333334 4714.5900101725265 C 6343.013333333334 4714.5900101725265 6343.013333333334 4693.716010172527 6343.013333333334 4693.716010172527 C 6343.013333333334 4693.716010172527 6348.599333333334 4693.716010172527 6348.599333333334 4693.716010172527 C 6348.599333333334 4693.716010172527 6348.599333333334 4714.5900101725265 6348.599333333334 4714.5900101725265 C 6348.599333333334 4714.5900101725265 6351.980333333334 4714.5900101725265 6351.980333333334 4714.5900101725265 C 6351.980333333334 4714.5900101725265 6351.980333333334 4727.036010172526 6351.980333333334 4727.036010172526 C 6351.980333333334 4727.036010172526 6346.590333333334 4727.036010172526 6346.590333333334 4727.036010172526 C 6346.590333333334 4727.036010172526 6346.590333333334 4719.000010172526 6346.590333333334 4719.000010172526 C 6346.590333333334 4719.000010172526 6314.593333333334 4719.000010172526 6314.593333333334 4719.000010172526 M 6377.905333333334 4711.111010172526 C 6377.284333333334 4713.855010172526 6375.9293333333335 4715.995010172526 6373.838333333334 4717.530010172526 C 6371.780333333334 4719.065010172526 6369.314333333334 4719.833010172526 6366.439333333334 4719.833010172526 C 6362.617333333334 4719.833010172526 6359.579333333334 4718.6080101725265 6357.325333333334 4716.158010172527 C 6355.104333333334 4713.6750101725265 6353.993333333334 4710.507010172526 6353.993333333334 4706.652010172526 C 6353.993333333334 4702.699310172527 6355.136333333334 4699.432710172527 6357.423333333334 4696.852010172526 C 6359.742333333334 4694.271310172527 6362.682333333334 4692.981010172526 6366.243333333334 4692.981010172526 C 6369.934333333334 4692.981010172526 6372.858333333334 4694.255010172526 6375.0143333333335 4696.803010172526 C 6377.1703333333335 4699.318310172526 6378.248333333334 4702.764710172526 6378.248333333334 4707.142010172526 C 6378.248333333334 4707.730010172526 6378.248333333334 4707.730010172526 6378.248333333334 4707.730010172526 C 6378.248333333334 4707.730010172526 6359.579333333334 4707.730010172526 6359.579333333334 4707.730010172526 C 6359.644333333334 4710.278010172527 6360.281333333334 4712.254010172526 6361.490333333334 4713.659010172526 C 6362.699333333334 4715.031010172526 6364.381333333334 4715.717010172526 6366.537333333334 4715.717010172526 C 6368.0723333333335 4715.717010172526 6369.314333333334 4715.3580101725265 6370.261333333334 4714.6390101725265 C 6371.241333333334 4713.888010172526 6372.009333333334 4712.712010172527 6372.564333333334 4711.111010172526 C 6377.905333333334 4711.111010172526 6377.905333333334 4711.111010172526 6377.905333333334 4711.111010172526 M 6372.662333333334 4704.006010172527 C 6372.499333333334 4701.8827101725265 6371.829333333334 4700.216710172526 6370.653333333334 4699.008010172526 C 6369.510333333334 4697.7667101725265 6368.0233333333335 4697.146010172526 6366.194333333334 4697.146010172526 C 6364.365333333334 4697.146010172526 6362.878333333334 4697.734010172527 6361.735333333334 4698.910010172526 C 6360.624333333334 4700.086010172527 6359.9383333333335 4701.7847101725265 6359.677333333334 4704.006010172527 C 6372.662333333334 4704.006010172527 6372.662333333334 4704.006010172527 6372.662333333334 4704.006010172527 M 6420.436333333334 4706.652010172526 C 6420.436333333334 4710.605010172526 6419.326333333334 4713.7730101725265 6417.104333333334 4716.158010172527 C 6414.883333333334 4718.510010172527 6411.927333333334 4719.686010172526 6408.235333333334 4719.686010172526 C 6402.551333333334 4719.686010172526 6398.729333333334 4717.350010172527 6396.769333333334 4712.679010172526 C 6395.9203333333335 4710.719010172526 6395.495333333334 4708.057010172526 6395.495333333334 4704.692010172526 C 6395.495333333334 4698.060710172526 6396.557333333334 4693.111710172527 6398.680333333334 4689.845010172527 C 6399.791333333334 4688.146310172527 6401.147333333334 4686.888710172527 6402.747333333334 4686.0720101725265 C 6404.348333333334 4685.222710172527 6406.373333333334 4684.716310172526 6408.823333333334 4684.553010172526 C 6409.117333333334 4684.5203101725265 6409.509333333334 4684.487710172526 6409.999333333334 4684.455010172526 C 6410.522333333334 4684.4223101725265 6410.881333333334 4684.406010172526 6411.077333333334 4684.406010172526 C 6411.306333333334 4684.3733101725265 6411.584333333334 4684.340710172526 6411.910333333334 4684.308010172526 C 6412.270333333334 4684.242710172526 6412.515333333334 4684.193710172526 6412.645333333334 4684.161010172526 C 6412.809333333334 4684.095710172526 6412.988333333334 4684.030310172527 6413.184333333334 4683.9650101725265 C 6413.380333333334 4683.8670101725265 6413.527333333334 4683.752710172526 6413.625333333334 4683.622010172527 C 6413.723333333334 4683.491310172526 6413.821333333334 4683.344310172526 6413.919333333334 4683.181010172526 C 6419.505333333334 4683.181010172526 6419.505333333334 4683.181010172526 6419.505333333334 4683.181010172526 C 6419.407333333334 4683.769010172527 6419.260333333334 4684.308010172526 6419.064333333334 4684.798010172526 C 6418.901333333334 4685.288010172526 6418.721333333334 4685.712710172526 6418.525333333334 4686.0720101725265 C 6418.329333333334 4686.4313101725265 6418.035333333334 4686.758010172526 6417.643333333334 4687.052010172526 C 6417.284333333334 4687.346010172527 6416.974333333334 4687.591010172527 6416.712333333334 4687.787010172527 C 6416.484333333334 4687.9830101725265 6416.108333333334 4688.162710172526 6415.585333333334 4688.326010172526 C 6415.0633333333335 4688.4893101725265 6414.654333333334 4688.620010172526 6414.360333333334 4688.718010172526 C 6414.066333333334 4688.783310172526 6413.593333333334 4688.865010172526 6412.939333333334 4688.963010172526 C 6412.2863333333335 4689.028310172526 6411.796333333334 4689.077310172526 6411.469333333334 4689.110010172526 C 6411.175333333334 4689.142710172527 6410.636333333334 4689.191710172527 6409.852333333334 4689.257010172526 C 6409.101333333334 4689.289710172527 6408.562333333334 4689.322310172526 6408.235333333334 4689.355010172526 C 6403.727333333334 4689.714310172526 6400.771333333334 4692.883010172526 6399.366333333334 4698.861010172526 C 6399.513333333334 4698.861010172526 6399.513333333334 4698.861010172526 6399.513333333334 4698.861010172526 C 6400.591333333334 4697.129710172527 6401.849333333334 4695.839310172526 6403.2863333333335 4694.990010172526 C 6404.724333333334 4694.1080101725265 6406.618333333334 4693.667010172527 6408.970333333334 4693.667010172527 C 6412.237333333334 4693.667010172527 6414.965333333334 4694.859310172526 6417.153333333334 4697.244010172526 C 6419.342333333334 4699.628710172527 6420.436333333334 4702.764710172526 6420.436333333334 4706.652010172526Z M 6414.850333333334 4706.652010172526 C 6414.850333333334 4704.071310172526 6414.213333333334 4701.997010172527 6412.939333333334 4700.429010172526 C 6411.698333333334 4698.861010172526 6410.048333333334 4698.077010172527 6407.990333333334 4698.077010172527 C 6405.932333333334 4698.077010172527 6404.266333333334 4698.861010172526 6402.992333333334 4700.429010172526 C 6401.751333333334 4701.964310172526 6401.130333333334 4704.038710172526 6401.130333333334 4706.652010172526 C 6401.130333333334 4709.265010172527 6401.751333333334 4711.356010172526 6402.992333333334 4712.924010172526 C 6404.266333333334 4714.4920101725265 6405.932333333334 4715.276010172526 6407.990333333334 4715.276010172526 C 6410.048333333334 4715.276010172526 6411.698333333334 4714.4920101725265 6412.939333333334 4712.924010172526 C 6414.213333333334 4711.356010172526 6414.850333333334 4709.265010172527 6414.850333333334 4706.652010172526Z M 6449.335333333334 4693.716010172527 C 6454.921333333334 4693.716010172527 6454.921333333334 4693.716010172527 6454.921333333334 4693.716010172527 C 6454.921333333334 4693.716010172527 6454.921333333334 4719.000010172526 6454.921333333334 4719.000010172526 C 6454.921333333334 4719.000010172526 6449.335333333334 4719.000010172526 6449.335333333334 4719.000010172526 C 6449.335333333334 4719.000010172526 6449.335333333334 4693.716010172527 6449.335333333334 4693.716010172527 M 6443.602333333334 4705.035010172526 C 6445.105333333334 4706.440010172526 6445.856333333334 4708.400010172526 6445.856333333334 4710.915010172526 C 6445.856333333334 4713.430010172527 6445.105333333334 4715.4070101725265 6443.602333333334 4716.844010172526 C 6442.100333333334 4718.281010172526 6439.993333333334 4719.000010172526 6437.281333333334 4719.000010172526 C 6424.933333333334 4719.000010172526 6424.933333333334 4719.000010172526 6424.933333333334 4719.000010172526 C 6424.933333333334 4719.000010172526 6424.933333333334 4693.716010172527 6424.933333333334 4693.716010172527 C 6424.933333333334 4693.716010172527 6430.519333333334 4693.716010172527 6430.519333333334 4693.716010172527 C 6430.519333333334 4693.716010172527 6430.519333333334 4702.879010172526 6430.519333333334 4702.879010172526 C 6430.519333333334 4702.879010172526 6437.232333333334 4702.879010172526 6437.232333333334 4702.879010172526 C 6439.976333333334 4702.879010172526 6442.100333333334 4703.597710172527 6443.602333333334 4705.035010172526Z M 6440.270333333334 4711.013010172526 C 6440.270333333334 4709.870010172526 6439.944333333334 4708.955010172526 6439.290333333334 4708.269010172527 C 6438.637333333334 4707.583010172526 6437.722333333334 4707.240010172526 6436.546333333334 4707.240010172526 C 6430.519333333334 4707.240010172526 6430.519333333334 4707.240010172526 6430.519333333334 4707.240010172526 C 6430.519333333334 4707.240010172526 6430.519333333334 4714.6390101725265 6430.519333333334 4714.6390101725265 C 6430.519333333334 4714.6390101725265 6436.644333333334 4714.6390101725265 6436.644333333334 4714.6390101725265 C 6437.853333333334 4714.6390101725265 6438.751333333334 4714.312010172526 6439.339333333334 4713.659010172526 C 6439.960333333334 4712.973010172526 6440.270333333334 4712.091010172527 6440.270333333334 4711.013010172526Z M 6482.885333333334 4719.000010172526 C 6477.299333333334 4719.000010172526 6477.299333333334 4719.000010172526 6477.299333333334 4719.000010172526 C 6477.299333333334 4719.000010172526 6477.299333333334 4698.126010172527 6477.299333333334 4698.126010172527 C 6477.299333333334 4698.126010172527 6469.557333333334 4698.126010172527 6469.557333333334 4698.126010172527 C 6469.557333333334 4698.126010172527 6469.214333333334 4709.200010172526 6469.214333333334 4709.200010172526 C 6469.116333333334 4712.499010172526 6468.397333333334 4715.064010172527 6467.058333333334 4716.893010172526 C 6465.751333333334 4718.690010172526 6463.954333333334 4719.588010172526 6461.668333333334 4719.588010172526 C 6460.263333333334 4719.588010172526 6459.120333333334 4719.408010172527 6458.238333333334 4719.049010172526 C 6458.238333333334 4714.688010172526 6458.238333333334 4714.688010172526 6458.238333333334 4714.688010172526 C 6458.564333333334 4714.851010172526 6459.234333333334 4714.933010172526 6460.247333333334 4714.933010172526 C 6462.468333333334 4714.933010172526 6463.644333333334 4712.842010172526 6463.775333333334 4708.661010172526 C 6464.216333333334 4693.716010172527 6464.216333333334 4693.716010172527 6464.216333333334 4693.716010172527 C 6464.216333333334 4693.716010172527 6482.885333333334 4693.716010172527 6482.885333333334 4693.716010172527 C 6482.885333333334 4693.716010172527 6482.885333333334 4719.000010172526 6482.885333333334 4719.000010172526 M 6500.388333333334 4692.981010172526 C 6504.243333333334 4692.981010172526 6507.314333333334 4694.189710172526 6509.600333333334 4696.607010172526 C 6511.887333333334 4699.024310172526 6513.030333333334 4702.274710172526 6513.030333333334 4706.3580101725265 C 6513.030333333334 4710.4740101725265 6511.887333333334 4713.741010172526 6509.600333333334 4716.158010172527 C 6507.346333333334 4718.575010172526 6504.276333333334 4719.784010172526 6500.388333333334 4719.784010172526 C 6496.436333333334 4719.784010172526 6493.300333333334 4718.575010172526 6490.980333333334 4716.158010172527 C 6488.6613333333335 4713.741010172526 6487.501333333334 4710.4740101725265 6487.501333333334 4706.3580101725265 C 6487.501333333334 4702.274710172526 6488.6613333333335 4699.024310172526 6490.980333333334 4696.607010172526 C 6493.332333333334 4694.189710172526 6496.468333333334 4692.981010172526 6500.388333333334 4692.981010172526Z M 6505.484333333334 4699.792010172527 C 6504.243333333334 4698.191310172527 6502.512333333334 4697.391010172526 6500.290333333334 4697.391010172526 C 6498.069333333334 4697.391010172526 6496.321333333334 4698.191310172527 6495.047333333334 4699.792010172527 C 6493.7733333333335 4701.392710172527 6493.136333333334 4703.581310172526 6493.136333333334 4706.3580101725265 C 6493.136333333334 4709.200010172526 6493.7733333333335 4711.421010172527 6495.047333333334 4713.022010172526 C 6496.321333333334 4714.623010172526 6498.085333333334 4715.423010172526 6500.339333333334 4715.423010172526 C 6502.528333333334 4715.423010172526 6504.243333333334 4714.623010172526 6505.484333333334 4713.022010172526 C 6506.758333333334 4711.3890101725265 6507.395333333334 4709.151010172526 6507.395333333334 4706.3090101725265 C 6507.395333333334 4703.532310172526 6506.758333333334 4701.360010172526 6505.484333333334 4699.792010172527Z M 6520.075333333334 4719.000010172526 C 6520.075333333334 4712.630010172526 6520.075333333334 4712.630010172526 6520.075333333334 4712.630010172526 C 6520.075333333334 4712.630010172526 6525.808333333334 4712.630010172526 6525.808333333334 4712.630010172526 C 6525.808333333334 4712.630010172526 6525.808333333334 4719.000010172526 6525.808333333334 4719.000010172526 C 6525.808333333334 4719.000010172526 6520.075333333334 4719.000010172526 6520.075333333334 4719.000010172526 M 6536.392333333334 4719.000010172526 C 6536.392333333334 4712.630010172526 6536.392333333334 4712.630010172526 6536.392333333334 4712.630010172526 C 6536.392333333334 4712.630010172526 6542.125333333334 4712.630010172526 6542.125333333334 4712.630010172526 C 6542.125333333334 4712.630010172526 6542.125333333334 4719.000010172526 6542.125333333334 4719.000010172526 C 6542.125333333334 4719.000010172526 6536.392333333334 4719.000010172526 6536.392333333334 4719.000010172526 M 6552.709333333334 4719.000010172526 C 6552.709333333334 4712.630010172526 6552.709333333334 4712.630010172526 6552.709333333334 4712.630010172526 C 6552.709333333334 4712.630010172526 6558.491333333334 4712.630010172526 6558.491333333334 4712.630010172526 C 6558.491333333334 4712.630010172526 6558.491333333334 4719.000010172526 6558.491333333334 4719.000010172526 C 6558.491333333334 4719.000010172526 6552.709333333334 4719.000010172526 6552.709333333334 4719.000010172526"></path> <defs> </defs> </svg> 