<svg xmlns="http://www.w3.org/2000/svg" width="548" height="206" fill="none">
  <path fill-rule="evenodd" clip-rule="evenodd" d="M40 0C18 0 0 18 0 40v72c0 22 18 40 40 40h405.6c18.3 22.6 55.4 57.5 89.4 53.7-13.3-6.8-38-26.7-37.5-53.7H508c22 0 40-18 40-40V40c0-22-18-40-40-40H40Z" fill="#B3CBFF"/>
  <path d="M73.6 52a16 16 0 0 1-4.9 10.8c-2.8 2.7-6.6 4-11.2 4a16 16 0 0 1-12.6-5.2 20.4 20.4 0 0 1-4.7-14.1c0-3.5.7-6.8 2-9.6A16.6 16.6 0 0 1 57.8 28c4 0 7.3 1.1 10.3 3.3 2.9 2.2 4.6 5.3 5.2 9.4H67c-.5-2.2-1.5-4-3.2-5.2a9.4 9.4 0 0 0-6-2c-2.5 0-4.6.7-6.3 2.1a11.2 11.2 0 0 0-3.6 5.2A20.1 20.1 0 0 0 49.2 57c.9 1.3 2 2.4 3.4 3.2 1.5.8 3.1 1.2 5 1.2 5.6 0 8.7-3.2 9.5-9.5h6.5Zm28.8 14h-6V43.8h-8.2L88 55.6c-.2 3.5-1 6.2-2.3 8.2a6.7 6.7 0 0 1-5.8 2.8 12 12 0 0 1-3.6-.5v-4.7c.3.2 1 .3 2.1.3 2.4 0 3.6-2.2 3.8-6.7l.4-15.8h19.9V66Zm29.8-26.8-10 26.3a35.8 35.8 0 0 0-1.1 3.1 29.2 29.2 0 0 1-2 4.2l-1 1.2-1.2.8c-.4.4-.8.7-1.3.8l-1.5.4c-.6.2-1.2.2-1.8.2-1.2 0-2.5 0-4.2-.3v-5c1.3.3 2.3.4 3.2.4.4 0 .8 0 1.1-.2a2 2 0 0 0 1-.6l.7-.9.5-1a17 17 0 0 0 1.2-3.4l-10.3-26h6.5l7.2 19.7 6.8-19.7h6.2Zm3.3 26.8V39.2h5.9v22.1h9.2V39.2h5.9v22.1h9.1V39.2h6V66h-36.1Zm42-18.6c.7-6 4.6-9 11.8-9 3.4 0 6 .6 8 2 2 1.2 3 3.3 3 6v13.7c0 .7.1 1.3.3 1.5.2.3.6.4 1.1.4h1.4v4c-1.5.4-2.8.6-3.9.6-2.5 0-4-1.1-4.3-3.2a13 13 0 0 1-9.4 3.2c-2.8 0-5-.7-6.6-2.2a7.5 7.5 0 0 1-2.5-5.8 12.4 12.4 0 0 1 .8-3.8c.3-.6.7-1 1.1-1.4l1.3-1c.3-.3.9-.6 1.6-.9a117.7 117.7 0 0 1 3.6-.9 81.7 81.7 0 0 1 3.6-.5l4.3-.7c.8-.2 1.3-.5 1.6-.9.3-.2.4-.9.4-1.9 0-2.7-1.9-4-5.5-4-2 0-3.4.3-4.3 1-1 .8-1.5 2-1.7 3.7h-5.6Zm17.1 5.1a11.1 11.1 0 0 1-3 1 65.3 65.3 0 0 0-6.5 1.2c-.6.2-1 .5-1.4.8-.3.3-.6.7-.8 1.2a4 4 0 0 0-.4 1.8c0 1.2.4 2.2 1.3 3 .8.6 2 1 3.5 1 2.7 0 4.7-.7 6.1-2.2.8-.8 1.2-2.3 1.2-4.6v-3.2Zm32.5-24.4a9.1 9.1 0 0 1-2.5 5.6 9.5 9.5 0 0 1-6 1.7c-2.7 0-4.7-.6-6.1-1.7a8.6 8.6 0 0 1-2.5-5.6h3c.7 2.6 2.5 4 5.5 4s4.9-1.4 5.5-4h3ZM214.2 66h-7.5V39.2h6v19.5h.1l10-19.5h7.5V66h-5.9V46.4h-.2l-10 19.6Zm30-7v5.3a12 12 0 0 1-1.5 6.5c-1 1.6-3 2.8-5.6 3.4V71c2.2-.6 3.3-2.3 3.4-5h-3.4v-7h7.1Zm42-15.2h-8.8V66h-5.9V43.8h-8.8v-4.6h23.6v4.6ZM309 29v5.6h-5.7V29h5.7Zm-10.3 0v5.6h-5.8V29h5.8Zm15 28.6a11 11 0 0 1-4.3 6.8 12.8 12.8 0 0 1-7.9 2.5c-4 0-7.3-1.3-9.7-4-2.3-2.6-3.5-6-3.5-10 0-4.2 1.2-7.7 3.6-10.4a12 12 0 0 1 9.4-4.1c4 0 7 1.3 9.3 4 2.3 2.7 3.4 6.4 3.4 11v.6h-19.8c0 2.7.8 4.8 2 6.3a6.7 6.7 0 0 0 5.4 2.2 7 7 0 0 0 4-1.1c1-.8 1.8-2 2.4-3.8h5.7Zm-5.6-7.5c-.2-2.3-.9-4-2.1-5.3a6.1 6.1 0 0 0-4.8-2c-1.9 0-3.5.6-4.7 1.9a9 9 0 0 0-2.2 5.4h13.8ZM324.3 66h-5.8V39.2h7.8l7.5 21.3h.1l7.3-21.3h7.8V66h-5.8V48.2L336.6 66h-6l-6.3-17.8h-.1V66Zm36.8 0h-6V39.2h6v10.5h11.7V39.2h6V66h-6V54.4h-11.7V66Zm23.7-18.6c.6-6 4.5-9 11.7-9 3.4 0 6 .6 8 2 2 1.2 3 3.3 3 6v13.7c0 .7.1 1.3.3 1.5.2.3.6.4 1.1.4h1.4v4c-1.5.4-2.8.6-3.9.6-2.5 0-4-1.1-4.3-3.2a13 13 0 0 1-9.4 3.2c-2.8 0-5-.7-6.6-2.2a7.5 7.5 0 0 1-2.5-5.8c0-.8 0-1.5.3-2.2l.5-1.7c.3-.5.6-1 1.1-1.3l1.3-1c.3-.3.9-.6 1.6-.9a113.6 113.6 0 0 1 3.6-.9 80.8 80.8 0 0 1 3.6-.5l4.3-.7c.8-.2 1.3-.5 1.6-.9.2-.2.4-.9.4-1.9 0-2.7-1.9-4-5.6-4-1.9 0-3.3.3-4.2 1-1 .8-1.5 2-1.7 3.7h-5.6Zm17 5.1a11.1 11.1 0 0 1-3 1 65.3 65.3 0 0 0-6.5 1.2c-.6.2-1 .5-1.4.8-.3.3-.6.7-.8 1.2a4 4 0 0 0-.4 1.8 4 4 0 0 0 1.2 3c1 .6 2.1 1 3.6 1 2.7 0 4.7-.7 6.1-2.2.8-.8 1.2-2.3 1.2-4.6v-3.2ZM436.6 66h-6V55.2h-5L417.3 66h-7l9-11.5c-2.2-.7-3.7-1.7-4.5-3-.8-1.4-1.3-3-1.3-4.9 0-2.4.8-4.2 2.3-5.5a10 10 0 0 1 6.6-2h14.2V66Zm-6-15.1v-7.2h-7.1c-2.7 0-4 1.1-4 3.4 0 2.5 1.3 3.8 4 3.8h7.1ZM62 94.9h-9V117h-5.9V94.8h-8.8v-4.6h23.6v4.6Zm29-4.7h6V117h-6V90.2Zm-6.1 12a8.1 8.1 0 0 1 2.4 6.2c0 2.7-.8 4.8-2.4 6.3A9.3 9.3 0 0 1 78 117H65V90.2h6v9.7h7c3 0 5.2.8 6.8 2.3Zm-3.5 6.3a4 4 0 0 0-1-2.9c-.8-.7-1.7-1-3-1H71v7.8h6.5c1.3 0 2.2-.4 2.9-1a4 4 0 0 0 1-2.9ZM136 94.8h-12.8V117h-6V90.2H136v4.6Zm14.9-5.4c4 0 7.3 1.3 9.8 3.8 2.4 2.6 3.6 6 3.6 10.4s-1.2 7.8-3.6 10.4a12.7 12.7 0 0 1-9.8 3.8c-4.2 0-7.5-1.3-10-3.8-2.5-2.6-3.7-6-3.7-10.4 0-4.3 1.3-7.8 3.7-10.4 2.5-2.5 5.8-3.8 10-3.8Zm5.4 7.2a6.6 6.6 0 0 0-5.5-2.5c-2.4 0-4.2.8-5.6 2.5-1.3 1.7-2 4-2 7s.7 5.4 2 7a6.8 6.8 0 0 0 5.6 2.6c2.4 0 4.2-.8 5.5-2.5 1.4-1.8 2-4.2 2-7.2s-.6-5.2-2-6.9Zm35.4 20.4h-5.9V94.8h-8.2l-.4 11.8c0 3.5-.8 6.2-2.3 8.2a6.7 6.7 0 0 1-5.7 2.8c-1.5 0-2.7-.2-3.6-.5v-4.7c.3.2 1 .3 2.1.3 2.4 0 3.6-2.2 3.8-6.7l.4-15.8h19.8V117Zm18.6-27.6a13 13 0 0 1 9.8 3.8c2.4 2.6 3.6 6 3.6 10.4s-1.2 7.8-3.6 10.4a12.7 12.7 0 0 1-9.8 3.8c-4.2 0-7.5-1.3-10-3.8-2.4-2.6-3.7-6-3.7-10.4 0-4.3 1.3-7.8 3.7-10.4 2.5-2.5 5.8-3.8 10-3.8Zm5.4 7.2a6.6 6.6 0 0 0-5.5-2.5c-2.4 0-4.2.8-5.6 2.5-1.3 1.7-2 4-2 7s.7 5.4 2 7a6.8 6.8 0 0 0 5.7 2.6c2.3 0 4.1-.8 5.4-2.5 1.4-1.8 2-4.2 2-7.2s-.6-5.2-2-6.9Zm37 12.8c0 2.4-.9 4.3-2.6 5.6-1.7 1.3-4.1 2-7.3 2h-14V90.2h14.7a9 9 0 0 1 5.8 1.7 5.9 5.9 0 0 1 2.2 4.8c0 1.4-.3 2.6-1 3.5a7 7 0 0 1-2.9 2.2c3.4 1 5 3.3 5 7Zm-9.9-4.3h-8.2v7.4h8.2c2.7 0 4-1.2 4-3.6 0-1.2-.3-2.1-1-2.8-.7-.6-1.7-1-3-1Zm-.8-10.5h-7.4v6.2h7.6c2.3 0 3.4-1 3.4-3.2 0-2-1.2-3-3.6-3Zm15.3 3.8c.7-6 4.6-9 11.8-9 3.4 0 6 .6 8 2 2 1.2 3 3.3 3 6v13.7c0 .7.1 1.3.3 1.5.2.3.6.4 1.1.4h1.4v4.1c-1.6.4-2.8.6-3.9.6-2.5 0-4-1.1-4.3-3.2a13 13 0 0 1-9.5 3.2c-2.7 0-5-.7-6.6-2.2a7.5 7.5 0 0 1-2.4-5.8c0-.8 0-1.5.3-2.2l.5-1.7c.3-.5.6-1 1.1-1.3l1.3-1c.3-.3.9-.6 1.6-.9a117.8 117.8 0 0 1 3.6-.9 82.7 82.7 0 0 1 3.6-.5l4.3-.7c.8-.2 1.3-.5 1.6-.9.2-.2.3-.9.3-1.9 0-2.7-1.8-4-5.5-4-1.9 0-3.3.3-4.2 1-1 .8-1.5 2-1.7 3.7h-5.7Zm17.1 5.1a11 11 0 0 1-3 1 67.8 67.8 0 0 0-6.5 1.2c-.6.2-1 .5-1.4.8l-.9 1.2a4 4 0 0 0-.3 1.8 4 4 0 0 0 1.2 3c.9.6 2 1 3.6 1 2.7 0 4.7-.7 6.1-2.2.8-.8 1.2-2.3 1.2-4.6v-3.2ZM289 117v-6.8h6v6.8h-6Zm17.3 0v-6.8h6v6.8h-6Zm17.3 0v-6.8h6.2v6.8h-6.2Z" fill="#262626"/>
</svg>
