<svg xmlns="http://www.w3.org/2000/svg" width="686" height="206" fill="none">
  <path fill-rule="evenodd" clip-rule="evenodd" d="M40 0C18 0 0 18 0 40v72c0 22 18 40 40 40h543.6c18.3 22.6 55.4 57.5 89.4 53.7-13.3-6.8-38-26.7-37.5-53.7H646c22 0 40-18 40-40V40c0-22-18-40-40-40H40Z" fill="#B3CBFF"/>
  <path d="M69.6 52a16 16 0 0 1-4.9 10.8c-2.8 2.7-6.6 4-11.2 4a16 16 0 0 1-12.6-5.2 20.4 20.4 0 0 1-4.7-14.1c0-3.5.7-6.8 2-9.6A16.6 16.6 0 0 1 53.8 28c4 0 7.3 1.1 10.3 3.3 2.9 2.2 4.6 5.3 5.2 9.4H63c-.5-2.2-1.5-4-3.2-5.2a9.4 9.4 0 0 0-6-2c-2.5 0-4.6.7-6.3 2.1a11.2 11.2 0 0 0-3.6 5.2A20.1 20.1 0 0 0 45.2 57c.9 1.3 2 2.4 3.4 3.2 1.5.8 3.1 1.2 5 1.2 5.6 0 8.7-3.2 9.5-9.5h6.5Zm29 5.6c-.6 3-2 5.2-4.2 6.8a12.8 12.8 0 0 1-7.9 2.5c-4 0-7.3-1.3-9.7-4-2.3-2.6-3.5-6-3.5-10 0-4.2 1.2-7.7 3.6-10.4a12 12 0 0 1 9.4-4.1c4 0 7 1.3 9.3 4 2.3 2.7 3.4 6.4 3.4 11v.6H79.2c0 2.7.8 4.8 2 6.3a6.7 6.7 0 0 0 5.4 2.2 7 7 0 0 0 4-1.1c1-.8 1.8-2 2.4-3.8h5.7Zm-5.5-7.5c-.2-2.3-.9-4-2.1-5.3a6.1 6.1 0 0 0-4.8-2c-1.9 0-3.5.6-4.7 1.9a9 9 0 0 0-2.2 5.4h13.8ZM124 28a8.6 8.6 0 0 1-2.5 5.6 9.5 9.5 0 0 1-6 1.7c-2.7 0-4.7-.6-6-1.7-1.5-1.3-2.3-3.1-2.6-5.6h3c.7 2.6 2.5 4 5.5 4s4.9-1.4 5.6-4h3Zm-13 38h-7.5V39.2h6v19.5h.1l10-19.5h7.6V66h-6V46.4h-.1L111 66Zm38.4-11.4a29 29 0 0 1-8.8 1.4 9 9 0 0 1-6.3-2c-1.4-1.4-2.1-3.4-2.1-6v-8.8h5.9v6.7c0 3.4 1.6 5.1 4.9 5.1a16 16 0 0 0 6.4-1.3V39.2h5.9V66h-6V54.6Zm11.7-7.2c.6-6 4.5-9 11.7-9 3.4 0 6 .6 8 2 2 1.2 3 3.3 3 6v13.7c0 .7.1 1.3.3 1.5.2.3.6.4 1.2.4h1.3v4c-1.5.4-2.8.6-3.8.6-2.6 0-4-1.1-4.4-3.2a13 13 0 0 1-9.4 3.2c-2.8 0-5-.7-6.6-2.2a7.5 7.5 0 0 1-2.5-5.8 12.4 12.4 0 0 1 .8-3.8c.3-.6.7-1 1.2-1.4l1.2-1c.3-.3.9-.6 1.6-.9a117.7 117.7 0 0 1 3.6-.9 81.7 81.7 0 0 1 3.6-.5l4.4-.7c.7-.2 1.2-.5 1.5-.9.3-.2.4-.9.4-1.9 0-2.7-1.9-4-5.5-4-2 0-3.4.3-4.3 1-.9.8-1.5 2-1.7 3.7H161Zm17 5.1a11.1 11.1 0 0 1-3 1 65.3 65.3 0 0 0-6.5 1.2c-.6.2-1 .5-1.4.8-.3.3-.6.7-.8 1.2a4 4 0 0 0-.4 1.8c0 1.2.4 2.2 1.3 3 .8.6 2 1 3.5 1 2.7 0 4.7-.7 6.1-2.2.8-.8 1.2-2.3 1.2-4.6v-3.2Zm36.5 3.4c-.5 3.3-1.8 5.9-4 7.9s-5 2.9-8.4 2.9c-4 0-7.2-1.3-9.6-3.8-2.4-2.6-3.6-6-3.6-10 0-4.5 1.2-8 3.6-10.6 2.4-2.6 5.7-4 9.8-4 3.4 0 6.2.9 8.3 2.6 2 1.8 3.3 4.2 3.7 7.3h-6c-.3-1.7-1-3-2-4-1-.8-2.4-1.3-4-1.3-2.2 0-4 .9-5.4 2.6-1.3 1.7-2 4-2 7s.7 5.3 2 7a6 6 0 0 0 5.2 2.5 6 6 0 0 0 4.4-1.6c1.1-1 1.8-2.6 2.1-4.5h5.9Zm43 2.5c0 2.4-.9 4.3-2.6 5.6a12 12 0 0 1-7.3 2h-14.1V39.2h14.8a9 9 0 0 1 5.8 1.7 5.9 5.9 0 0 1 2.2 4.8c0 1.4-.3 2.6-1 3.5-.6.8-1.6 1.6-2.9 2.2 3.4 1 5 3.3 5 7Zm-10-4.3h-8v7.4h8c2.8 0 4-1.2 4-3.6 0-1.2-.3-2.1-1-2.8-.6-.6-1.6-1-3-1Zm-.7-10.5h-7.4v6.2h7.6c2.2 0 3.4-1 3.4-3.2 0-2-1.2-3-3.6-3Zm28-5.2a13 13 0 0 1 9.8 3.8c2.4 2.6 3.6 6 3.6 10.4s-1.2 7.8-3.6 10.4a12.7 12.7 0 0 1-9.8 3.8c-4.2 0-7.5-1.3-10-3.8-2.4-2.6-3.7-6-3.7-10.4 0-4.3 1.3-7.8 3.7-10.4 2.5-2.5 5.9-3.8 10-3.8Zm5.4 7.2a6.6 6.6 0 0 0-5.5-2.5c-2.3 0-4.2.8-5.6 2.5-1.3 1.7-2 4-2 7s.7 5.4 2 7a6.8 6.8 0 0 0 5.7 2.6c2.3 0 4.1-.8 5.4-2.5 1.4-1.8 2-4.2 2-7.2s-.6-5.2-2-6.9Zm25.4-7.2a13 13 0 0 1 9.8 3.8c2.4 2.6 3.7 6 3.7 10.4s-1.3 7.8-3.7 10.4a12.7 12.7 0 0 1-9.8 3.8c-4.2 0-7.5-1.3-10-3.8-2.4-2.6-3.6-6-3.6-10.4 0-4.3 1.2-7.8 3.7-10.4 2.5-2.5 5.8-3.8 10-3.8Zm5.4 7.2a6.6 6.6 0 0 0-5.5-2.5c-2.3 0-4.2.8-5.5 2.5-1.4 1.7-2 4-2 7s.6 5.4 2 7a6.8 6.8 0 0 0 5.6 2.6c2.3 0 4.1-.8 5.4-2.5 1.4-1.8 2-4.2 2-7.2s-.6-5.2-2-6.9ZM350 53a14 14 0 0 1-3.5 10 12.3 12.3 0 0 1-9.4 3.8c-6 0-10.1-2.5-12.2-7.4-.9-2-1.3-5-1.3-8.5 0-7 1-12.3 3.3-15.7 1.2-1.8 2.7-3.2 4.4-4a16 16 0 0 1 6.4-1.7 29.8 29.8 0 0 1 3.3-.2 14.8 14.8 0 0 0 1.3-.4c.2 0 .4-.2.5-.3l.3-.5h6l-.5 1.7-.6 1.4a31.6 31.6 0 0 1-2 1.8 75.6 75.6 0 0 0-4 1.2 4001.8 4001.8 0 0 0-5 .4c-4.7.4-7.8 3.8-9.3 10.1h.1a12 12 0 0 1 4-4c1.6-1 3.6-1.5 6-1.5 3.5 0 6.4 1.3 8.7 3.8 2.4 2.5 3.5 5.9 3.5 10Zm-5.9 0c0-2.7-.7-5-2-6.6a6.4 6.4 0 0 0-5.3-2.5c-2.2 0-4 .8-5.3 2.5-1.3 1.6-2 3.8-2 6.6s.7 5 2 6.7a6.5 6.5 0 0 0 5.3 2.4c2.2 0 4-.8 5.3-2.4 1.3-1.7 2-4 2-6.7ZM355 66V39.2h5.9v22.1h9.1V39.2h6v22.1h9.1V39.2h6v22.1h3.5v13.2H389V66h-34Zm67.1-8.4c-.6 3-2 5.2-4.3 6.8A12.8 12.8 0 0 1 410 67c-4 0-7.3-1.3-9.7-4-2.3-2.6-3.5-6-3.5-10 0-4.2 1.2-7.7 3.6-10.4a12 12 0 0 1 9.4-4.1c3.9 0 7 1.3 9.3 4 2.3 2.7 3.4 6.4 3.4 11v.6h-19.8c0 2.7.7 4.8 2 6.3s3.1 2.2 5.4 2.2a7 7 0 0 0 4-1.1c1-.8 1.8-2 2.4-3.8h5.6Zm-5.5-7.5c-.2-2.3-.9-4-2.1-5.3a6.1 6.1 0 0 0-4.8-2 6 6 0 0 0-4.7 1.9c-1.2 1.2-2 3-2.2 5.4h13.8Zm8.9 5.1V49H439v6.3h-13.6Zm39-11.4h-8.8V66h-6V43.8H441v-4.6h23.6v4.6Zm15-5.4c4 0 7.3 1.3 9.7 3.8 2.4 2.6 3.6 6 3.6 10.4s-1.2 7.8-3.6 10.4a12.7 12.7 0 0 1-9.8 3.8c-4.2 0-7.5-1.3-10-3.8-2.4-2.6-3.7-6-3.7-10.4 0-4.3 1.3-7.8 3.7-10.4 2.5-2.5 5.9-3.8 10-3.8Zm5.3 7.2a6.6 6.6 0 0 0-5.5-2.5c-2.4 0-4.2.8-5.6 2.5-1.3 1.7-2 4-2 7s.7 5.4 2 7a6.8 6.8 0 0 0 5.7 2.6c2.3 0 4.1-.8 5.4-2.5 1.4-1.8 2-4.2 2-7.2s-.6-5.2-2-6.9ZM59.1 109c0 2.8-1.2 5-3.5 6.4a14 14 0 0 1-8 2.3c-3.8 0-6.7-.8-8.8-2.4a8.7 8.7 0 0 1-3.3-6.7h6c.4 3 2.4 4.6 6 4.6a7 7 0 0 0 4.1-1c1-.8 1.5-1.8 1.5-3 0-2.7-1.7-4-5.2-4h-3.3v-4.4h2.3c3.6 0 5.4-1.2 5.4-3.5s-1.6-3.4-4.9-3.4c-2.8 0-4.5 1.3-5.1 4h-6c.5-5.7 4.4-8.5 11.7-8.5 3 0 5.4.6 7.3 1.8 2 1.1 2.9 3 2.9 5.4 0 1.5-.5 2.7-1.3 3.8-.9 1-1.9 1.6-3 1.9 1.4.4 2.6 1 3.6 2.2 1 1.1 1.6 2.6 1.6 4.5Zm4.7-10.6c.6-6 4.6-9 11.8-9 3.3 0 6 .6 8 2 2 1.2 3 3.3 3 6v13.7c0 .7 0 1.3.3 1.5.2.3.6.4 1.1.4h1.4v4.1c-1.6.4-2.9.6-3.9.6-2.5 0-4-1.1-4.4-3.2a13 13 0 0 1-9.4 3.2c-2.7 0-5-.7-6.6-2.2a7.5 7.5 0 0 1-2.4-5.8c0-.8 0-1.5.2-2.2l.6-1.7c.3-.5.6-1 1.1-1.3l1.3-1c.3-.3.8-.6 1.6-.9a114.1 114.1 0 0 1 3.6-.9 81.8 81.8 0 0 1 3.6-.5l4.3-.7c.8-.2 1.3-.5 1.6-.9.2-.2.3-.9.3-1.9 0-2.7-1.8-4-5.5-4-2 0-3.3.3-4.2 1-1 .8-1.5 2-1.8 3.7h-5.6Zm17 5.1a11 11 0 0 1-3 1 67.1 67.1 0 0 0-6.4 1.2c-.6.2-1 .5-1.4.8-.4.3-.6.7-.9 1.2a4 4 0 0 0-.3 1.8 4 4 0 0 0 1.2 3c.9.6 2 1 3.6 1 2.6 0 4.7-.7 6-2.2.9-.8 1.3-2.3 1.3-4.6v-3.2ZM118 117h-7l-8.5-12-3.5 3.7v8.3h-6V90.2h6V102l10.7-12h7.2l-10.5 11 11.6 16Zm14.7-27.6a13 13 0 0 1 9.8 3.8c2.4 2.6 3.6 6 3.6 10.4s-1.2 7.8-3.6 10.4a12.7 12.7 0 0 1-9.8 3.8c-4.2 0-7.5-1.3-10-3.8-2.4-2.6-3.6-6-3.6-10.4 0-4.3 1.2-7.8 3.6-10.4 2.5-2.5 5.9-3.8 10-3.8Zm5.4 7.2a6.6 6.6 0 0 0-5.5-2.5c-2.3 0-4.2.8-5.5 2.5-1.4 1.7-2 4-2 7s.6 5.4 2 7a6.8 6.8 0 0 0 5.6 2.6c2.3 0 4.1-.8 5.4-2.5 1.4-1.8 2-4.2 2-7.2s-.6-5.2-2-6.9Zm19 20.4h-6V90.2h6v10.5h11.7V90.2h6V117h-6v-11.6h-11.7V117Zm36.3-27.6a13 13 0 0 1 9.8 3.8c2.4 2.6 3.6 6 3.6 10.4s-1.2 7.8-3.6 10.4a12.7 12.7 0 0 1-9.8 3.8c-4.2 0-7.5-1.3-10-3.8-2.4-2.6-3.7-6-3.7-10.4 0-4.3 1.3-7.8 3.7-10.4 2.5-2.5 5.9-3.8 10-3.8Zm5.4 7.2a6.6 6.6 0 0 0-5.5-2.5c-2.4 0-4.2.8-5.6 2.5-1.3 1.7-2 4-2 7s.7 5.4 2 7a6.8 6.8 0 0 0 5.7 2.6c2.3 0 4.1-.8 5.4-2.5 1.4-1.8 2-4.2 2-7.2s-.6-5.2-2-6.9Zm40 29H233V117h-19v8.5h-5.7v-13.2h3.4c2.1-5 3.2-11.3 3.2-19.1v-3h20.2v22.1h3.6v13.2Zm-9.5-13.3V94.7h-8.6v1.9a47.2 47.2 0 0 1-2.8 15.7h11.4Zm12.8-13.9c.6-6 4.6-9 11.8-9 3.3 0 6 .6 8 2 2 1.2 3 3.3 3 6v13.7c0 .7 0 1.3.3 1.5.2.3.5.4 1.1.4h1.3v4.1c-1.5.4-2.8.6-3.8.6-2.5 0-4-1.1-4.4-3.2a13 13 0 0 1-9.4 3.2c-2.8 0-5-.7-6.6-2.2a7.5 7.5 0 0 1-2.4-5.8c0-.8 0-1.5.2-2.2l.6-1.7c.2-.5.6-1 1.1-1.3l1.2-1 1.7-.9a110 110 0 0 1 3.5-.9 80.8 80.8 0 0 1 3.7-.5l4.3-.7c.8-.2 1.3-.5 1.6-.9.2-.2.3-.9.3-1.9 0-2.7-1.8-4-5.5-4-2 0-3.3.3-4.3 1-.9.8-1.4 2-1.7 3.7h-5.6Zm17 5.1a11 11 0 0 1-3 1 66.7 66.7 0 0 0-6.4 1.2c-.6.2-1.1.5-1.4.8-.4.3-.6.7-.9 1.2a4 4 0 0 0-.3 1.8 4 4 0 0 0 1.2 3c.9.6 2 1 3.6 1 2.6 0 4.7-.7 6-2.2.9-.8 1.3-2.3 1.3-4.6v-3.2Zm33-8.7h-9V117h-5.8V94.8h-8.9v-4.6H292v4.6Zm26.4 13.8c-.7 3-2 5.2-4.3 6.8a12.8 12.8 0 0 1-7.9 2.5c-4 0-7.2-1.3-9.6-4-2.4-2.6-3.6-6-3.6-10 0-4.2 1.2-7.7 3.7-10.4a12 12 0 0 1 9.3-4.1c4 0 7 1.3 9.3 4 2.3 2.7 3.5 6.4 3.5 11v.6H299c0 2.7.7 4.8 2 6.3s3 2.2 5.3 2.2c1.7 0 3-.4 4-1.1 1-.8 1.8-2 2.4-3.8h5.7Zm-5.6-7.5a8 8 0 0 0-2-5.3 6.1 6.1 0 0 0-4.8-2c-2 0-3.5.6-4.8 1.9a9 9 0 0 0-2.1 5.4h13.7Zm33.3 15.9h-6V94.8H332l-.3 11.8c-.1 3.5-.9 6.2-2.3 8.2a6.7 6.7 0 0 1-5.7 2.8c-1.5 0-2.7-.2-3.7-.5v-4.7c.4.2 1 .3 2.1.3 2.4 0 3.7-2.2 3.8-6.7l.5-15.8h19.8V117Zm27-14.8a8.1 8.1 0 0 1 2.4 6.2c0 2.7-.8 4.8-2.4 6.3a9.3 9.3 0 0 1-6.7 2.3h-14.2V90.2h6v9.7h8.1c3 0 5.2.8 6.8 2.3Zm-3.6 6.3a4 4 0 0 0-1-2.9c-.7-.7-1.7-1-3-1h-7.4v7.8h7.6c1.3 0 2.2-.4 2.8-1a4 4 0 0 0 1-2.9Zm35-1.6a11.9 11.9 0 0 1-12.3 10.8 13 13 0 0 1-9.7-3.8c-2.4-2.6-3.5-6-3.5-10 0-4.5 1.1-8 3.5-10.6a13 13 0 0 1 9.8-4c3.4 0 6.2.9 8.3 2.6a11 11 0 0 1 3.7 7.3h-5.9c-.3-1.7-1-3-2-4a6.6 6.6 0 0 0-4-1.3c-2.3 0-4.1.9-5.4 2.6-1.4 1.7-2 4-2 7s.6 5.3 1.9 7c1.2 1.7 3 2.5 5.3 2.5a6 6 0 0 0 4.3-1.6c1.1-1 1.8-2.6 2.2-4.5h5.8Zm24.7-12h-8.9V117h-5.9V94.8h-8.8v-4.6h23.6v4.6Zm27.3 14.5c0 2.4-.8 4.3-2.6 5.6-1.7 1.3-4.1 2-7.3 2h-14V90.2h14.8a9 9 0 0 1 5.8 1.7 5.9 5.9 0 0 1 2.1 4.8c0 1.4-.3 2.6-.9 3.5-.6.8-1.6 1.6-3 2.2 3.4 1 5.1 3.3 5.1 7Zm-9.9-4.3h-8.1v7.4h8.1c2.7 0 4-1.2 4-3.6 0-1.2-.3-2.1-1-2.8-.7-.6-1.7-1-3-1Zm-.7-10.5h-7.4v6.2h7.5c2.3 0 3.5-1 3.5-3.2 0-2-1.2-3-3.6-3Zm28-5.2c4 0 7.3 1.3 9.8 3.8 2.4 2.6 3.6 6 3.6 10.4s-1.2 7.8-3.6 10.4a12.7 12.7 0 0 1-9.8 3.8c-4.2 0-7.5-1.3-10-3.8-2.5-2.6-3.7-6-3.7-10.4 0-4.3 1.2-7.8 3.7-10.4 2.5-2.5 5.8-3.8 10-3.8Zm5.4 7.2a6.6 6.6 0 0 0-5.5-2.5c-2.4 0-4.2.8-5.6 2.5-1.3 1.7-2 4-2 7s.7 5.4 2 7a6.8 6.8 0 0 0 5.6 2.6c2.3 0 4.2-.8 5.5-2.5 1.3-1.8 2-4.2 2-7.2s-.7-5.2-2-6.9Zm51.5 12a11 11 0 0 1-4.3 6.8 12.8 12.8 0 0 1-7.9 2.5c-4 0-7.3-1.3-9.7-4-2.3-2.6-3.5-6-3.5-10 0-4.2 1.2-7.7 3.6-10.4a12 12 0 0 1 9.4-4.1c4 0 7 1.3 9.3 4 2.3 2.7 3.4 6.4 3.4 11v.6h-19.8c0 2.7.8 4.8 2 6.3a6.7 6.7 0 0 0 5.4 2.2 7 7 0 0 0 4-1.1c1-.8 1.8-2 2.4-3.8h5.7Zm-5.6-7.5c-.2-2.3-.9-4-2.1-5.3a6.1 6.1 0 0 0-4.8-2c-1.9 0-3.5.6-4.7 1.9a9 9 0 0 0-2.2 5.4h13.8Zm34.8 5.8c-.4 3.3-1.8 5.9-4 7.9s-5 2.9-8.3 2.9a13 13 0 0 1-9.7-3.8c-2.4-2.6-3.6-6-3.6-10 0-4.5 1.2-8 3.6-10.6a13 13 0 0 1 9.8-4c3.4 0 6.2.9 8.3 2.6 2 1.8 3.3 4.2 3.7 7.3h-6c-.3-1.7-1-3-2-4-1-.8-2.3-1.3-4-1.3-2.2 0-4 .9-5.3 2.6-1.4 1.7-2 4-2 7s.6 5.3 1.8 7a6.4 6.4 0 0 0 5.4 2.5 6 6 0 0 0 4.3-1.6c1.1-1 1.8-2.6 2.2-4.5h5.8Zm24.7-12h-8.9V117H570V94.8h-8.8v-4.6h23.6v4.6Zm24.2 7.3a8.1 8.1 0 0 1 2.4 6.2c0 2.7-.8 4.8-2.4 6.3a9.3 9.3 0 0 1-6.7 2.3H588V90.2h6v9.7h8.1c3 0 5.2.8 6.8 2.3Zm-3.5 6.3a4 4 0 0 0-1-2.9c-.8-.7-1.7-1-3-1h-7.4v7.8h7.5a4 4 0 0 0 2.9-1 4 4 0 0 0 1-2.9ZM623.4 80v10.6l-1.7 16.2h-3L617 90.6V80h6.4Zm.2 30.4v6.6h-6.8v-6.6h6.8Z" fill="#262626"/>
</svg>
