<svg xmlns="http://www.w3.org/2000/svg" width="686" height="206" fill="none">
  <path fill-rule="evenodd" clip-rule="evenodd" d="M40 0C18 0 0 18 0 40v72c0 22 18 40 40 40h543.6c18.3 22.6 55.4 57.5 89.4 53.7-13.3-6.8-38-26.7-37.5-53.7H646c22 0 40-18 40-40V40c0-22-18-40-40-40H40Z" fill="#B3CBFF"/>
  <path d="M67.7 29v37h-6.5V49.4H44.3V66h-6.5V29h6.5v14.7h17V29h6.4Zm30.6 10.2-10 26.3a36.4 36.4 0 0 0-1 3.1 29.2 29.2 0 0 1-2.1 4.2c-.4.5-.7 1-1 1.2l-1.1.8a3 3 0 0 1-1.3.8l-1.6.4c-.5.2-1.2.2-1.8.2-1.1 0-2.5 0-4.1-.3v-5c1.2.3 2.3.4 3.1.4.4 0 .8 0 1.1-.2a2 2 0 0 0 1-.6l.7-.9.6-1a17 17 0 0 0 1.2-3.4l-10.3-26h6.5l7.2 19.7L92 39.2h6.2ZM132 54.6a29 29 0 0 1-8.7 1.4 9 9 0 0 1-6.3-2 8.2 8.2 0 0 1-2.2-6v-8.8h6v6.7c0 3.4 1.6 5.1 4.9 5.1 2.2 0 4.3-.4 6.3-1.3V39.2h6V66h-6V54.6Zm32.8-10.8h-8.9V66h-6V43.8h-8.7v-4.6h23.6v4.6Zm14.8-5.4a13 13 0 0 1 9.8 3.8c2.5 2.6 3.7 6 3.7 10.4s-1.2 7.8-3.7 10.4a12.7 12.7 0 0 1-9.8 3.8c-4.1 0-7.5-1.3-10-3.8-2.4-2.6-3.6-6-3.6-10.4 0-4.3 1.2-7.8 3.7-10.4 2.5-2.5 5.8-3.8 10-3.8Zm5.5 7.2a6.6 6.6 0 0 0-5.6-2.5c-2.3 0-4.2.8-5.5 2.5-1.4 1.7-2 4-2 7s.6 5.4 2 7a6.8 6.8 0 0 0 5.6 2.6c2.3 0 4.1-.8 5.5-2.5 1.3-1.8 2-4.2 2-7.2s-.7-5.2-2-6.9ZM205.7 59v5.3a12 12 0 0 1-1.6 6.5c-1 1.6-2.8 2.8-5.5 3.4V71c2.2-.6 3.3-2.3 3.4-5h-3.4v-7h7Zm42-15.2H239V66h-6V43.8h-8.8v-4.6h23.6v4.6Zm26.5 13.8c-.6 3-2 5.2-4.3 6.8a12.8 12.8 0 0 1-7.8 2.5c-4.1 0-7.3-1.3-9.7-4-2.4-2.6-3.6-6-3.6-10 0-4.2 1.3-7.7 3.7-10.4a12 12 0 0 1 9.3-4.1c4 0 7 1.3 9.4 4a17 17 0 0 1 3.4 11v.6h-19.8c0 2.7.7 4.8 2 6.3s3 2.2 5.4 2.2a7 7 0 0 0 4-1.1c1-.8 1.8-2 2.4-3.8h5.6Zm-5.5-7.5c-.2-2.3-1-4-2.2-5.3a6.1 6.1 0 0 0-4.7-2 6 6 0 0 0-4.7 1.9c-1.2 1.2-2 3-2.2 5.4h13.8ZM285 66h-6V39.2h23.7V66h-6V43.8H285V66Zm48-8.4a11 11 0 0 1-4.3 6.8 12.8 12.8 0 0 1-7.9 2.5c-4 0-7.3-1.3-9.7-4-2.3-2.6-3.5-6-3.5-10 0-4.2 1.2-7.7 3.6-10.4a12 12 0 0 1 9.4-4.1c4 0 7 1.3 9.3 4 2.3 2.7 3.4 6.4 3.4 11v.6h-19.8c.1 2.7.8 4.8 2 6.3a6.7 6.7 0 0 0 5.4 2.2 7 7 0 0 0 4-1.1c1-.8 1.8-2 2.4-3.8h5.7Zm-5.6-7.5c-.2-2.3-.9-4-2.1-5.3a6.1 6.1 0 0 0-4.8-2c-1.9 0-3.5.6-4.7 1.9a9 9 0 0 0-2.2 5.4h13.8Zm16.1-11v3.7c1.8-3 4.7-4.4 8.8-4.4 3.7 0 6.6 1.3 8.8 3.9a15 15 0 0 1 3.4 10.4c0 4.2-1.1 7.6-3.3 10.2-2.2 2.5-5 3.8-8.6 3.8a10 10 0 0 1-8.8-4.2v13.4H338V39.2h5.5Zm7.6 4c-2.4 0-4.2.9-5.5 2.6-1.3 1.6-2 4-2 6.9 0 2.9.7 5.2 2 6.8a6.8 6.8 0 0 0 5.6 2.5c2.2 0 4-.8 5.3-2.5 1.3-1.6 2-3.9 2-6.7 0-3-.7-5.2-2-7a6.4 6.4 0 0 0-5.4-2.5Zm39.4 8a8.1 8.1 0 0 1 2.4 6.3c0 2.7-.8 4.8-2.4 6.3a9.3 9.3 0 0 1-6.7 2.3h-14.2V39.2h6v9.7h8.1c3 0 5.2.8 6.8 2.3Zm-3.5 6.4a4 4 0 0 0-1-2.9c-.8-.7-1.8-1-3-1h-7.4v7.8h7.5c1.3 0 2.2-.4 2.9-1a4 4 0 0 0 1-2.9Zm31 8.5h-6V39.2h23.6V66h-5.9V43.8H418V66Zm36.3-27.6a13 13 0 0 1 9.8 3.8c2.4 2.6 3.6 6 3.6 10.4s-1.2 7.8-3.6 10.4a12.7 12.7 0 0 1-9.8 3.8c-4.2 0-7.5-1.3-10-3.8-2.4-2.6-3.7-6-3.7-10.4 0-4.3 1.3-7.8 3.7-10.4 2.5-2.5 5.9-3.8 10-3.8Zm5.4 7.2a6.6 6.6 0 0 0-5.5-2.5c-2.3 0-4.2.8-5.5 2.5-1.4 1.7-2 4-2 7s.6 5.4 2 7a6.8 6.8 0 0 0 5.6 2.6c2.3 0 4.1-.8 5.4-2.5 1.4-1.8 2-4.2 2-7.2s-.6-5.2-2-6.9Zm19 20.4h-6V39.2h6v10.5h11.7V39.2h6V66h-6V54.4h-11.8V66Zm46.6 0h-6V55.2h-5L506 66h-7l9-11.5c-2.2-.7-3.7-1.7-4.5-3-.9-1.4-1.3-3-1.3-4.9 0-2.4.8-4.2 2.3-5.5 1.5-1.3 3.7-2 6.6-2h14.2V66Zm-6-15.1v-7.2h-7.2c-2.6 0-4 1.1-4 3.4 0 2.5 1.4 3.8 4 3.8h7.2Zm33-7h-9V66h-5.8V43.8h-8.9v-4.6h23.6v4.6Zm9.2 22.1h-5.9V39.2h6v10.5h11.7V39.2h6V66h-6V54.4h-11.8V66Zm48-8.4a11 11 0 0 1-4.3 6.8 12.8 12.8 0 0 1-7.9 2.5c-4 0-7.3-1.3-9.7-4-2.3-2.6-3.5-6-3.5-10 0-4.2 1.2-7.7 3.6-10.4a12 12 0 0 1 9.4-4.1c4 0 7 1.3 9.3 4 2.3 2.7 3.4 6.4 3.4 11v.6H590c.1 2.7.8 4.8 2 6.3a6.7 6.7 0 0 0 5.4 2.2 7 7 0 0 0 4-1.1c1-.8 1.8-2 2.4-3.8h5.7Zm-5.6-7.5c-.2-2.3-.9-4-2.1-5.3a6.1 6.1 0 0 0-4.7-2c-2 0-3.6.6-4.8 1.9a9 9 0 0 0-2.2 5.4H604Zm34.5 7.5a11 11 0 0 1-4.3 6.8 12.8 12.8 0 0 1-7.9 2.5c-4 0-7.3-1.3-9.7-4-2.3-2.6-3.5-6-3.5-10 0-4.2 1.2-7.7 3.6-10.4a12 12 0 0 1 9.4-4.1c4 0 7 1.3 9.3 4 2.3 2.7 3.4 6.4 3.4 11v.6H619c.1 2.7.8 4.8 2 6.3a6.7 6.7 0 0 0 5.4 2.2 7 7 0 0 0 4-1.1c1-.8 1.8-2 2.4-3.8h5.7Zm-5.6-7.5c-.2-2.3-.9-4-2.1-5.3a6.1 6.1 0 0 0-4.8-2c-1.9 0-3.5.6-4.7 1.9a9 9 0 0 0-2.2 5.4h13.8ZM61.5 106.9c-.5 3.3-1.8 5.9-4 7.9s-5 2.9-8.4 2.9c-4 0-7.2-1.3-9.6-3.8-2.4-2.6-3.6-6-3.6-10 0-4.5 1.2-8 3.6-10.6 2.4-2.6 5.7-4 9.8-4 3.4 0 6.2.9 8.3 2.6 2 1.8 3.3 4.2 3.6 7.3h-5.8c-.4-1.7-1-3-2.1-4-1-.8-2.4-1.3-4-1.3-2.2 0-4 .9-5.4 2.6-1.3 1.7-2 4-2 7s.7 5.3 2 7a6 6 0 0 0 5.2 2.5 6 6 0 0 0 4.3-1.6c1.2-1 2-2.6 2.2-4.5h5.9Zm24.7-12h-8.9V117h-6V94.8h-8.8v-4.6h23.7v4.6Zm2.2 3.5c.6-6 4.5-9 11.7-9 3.4 0 6 .6 8 2 2 1.2 3 3.3 3 6v13.7c0 .7.1 1.3.3 1.5.2.3.6.4 1.1.4h1.4v4.1c-1.5.4-2.8.6-3.9.6-2.5 0-4-1.1-4.3-3.2a13 13 0 0 1-9.4 3.2c-2.8 0-5-.7-6.6-2.2a7.5 7.5 0 0 1-2.5-5.8c0-.8 0-1.5.3-2.2l.5-1.7c.3-.5.6-1 1.1-1.3l1.3-1c.3-.3.9-.6 1.6-.9a113.7 113.7 0 0 1 3.6-.9 81.7 81.7 0 0 1 3.6-.5l4.3-.7c.8-.2 1.3-.5 1.6-.9.2-.2.4-.9.4-1.9 0-2.7-1.9-4-5.6-4-1.9 0-3.3.3-4.2 1-1 .8-1.5 2-1.7 3.7h-5.6Zm17 5.1a11 11 0 0 1-3 1 67.8 67.8 0 0 0-6.5 1.2c-.6.2-1 .5-1.4.8-.3.3-.6.7-.8 1.2a4 4 0 0 0-.4 1.8 4 4 0 0 0 1.2 3c1 .6 2.1 1 3.6 1 2.7 0 4.7-.7 6.1-2.2.8-.8 1.2-2.3 1.2-4.6v-3.2Zm35.8 13.5h-6V94.8h-8.1l-.4 11.8a14 14 0 0 1-2.3 8.2 6.7 6.7 0 0 1-5.7 2.8c-1.5 0-2.7-.2-3.6-.5v-4.7c.3.2 1 .3 2 .3 2.5 0 3.7-2.2 3.8-6.7l.5-15.8h19.8V117Zm18.6-27.6c4 0 7.3 1.3 9.8 3.8 2.4 2.6 3.6 6 3.6 10.4s-1.2 7.8-3.6 10.4a12.7 12.7 0 0 1-9.8 3.8c-4.2 0-7.5-1.3-10-3.8-2.5-2.6-3.7-6-3.7-10.4 0-4.3 1.2-7.8 3.7-10.4 2.5-2.5 5.8-3.8 10-3.8Zm5.4 7.2a6.6 6.6 0 0 0-5.5-2.5c-2.4 0-4.2.8-5.6 2.5-1.3 1.7-2 4-2 7s.7 5.4 2 7a6.8 6.8 0 0 0 5.6 2.6c2.4 0 4.2-.8 5.5-2.5 1.4-1.8 2-4.2 2-7.2s-.6-5.2-2-6.9Zm20.7 20.4v-6.6h6.7v6.6h-6.7Zm.6-10.2c0-2.3.2-4.1.6-5.5a11 11 0 0 1 3-4.2 25.1 25.1 0 0 1 2-1.8l1-1 .7-1 .6-1c.3-.5.4-1 .5-1.4l.1-1.4a5 5 0 0 0-1.5-3.7c-1-1-2.3-1.5-3.9-1.5-4 0-6.1 2.5-6.3 7.4h-6c.2-3.8 1.4-6.9 3.4-9 2.1-2.3 5.1-3.5 9-3.5 3.5 0 6.3 1 8.5 3a9.4 9.4 0 0 1 3.2 7.3c0 1.2-.1 2.2-.4 3.1-.2 1-.7 1.8-1.3 2.6a21.4 21.4 0 0 1-4 4 14.2 14.2 0 0 0-3.1 3.2c-.4.7-.5 2.1-.5 4.4h-5.6Z" fill="#262626"/>
</svg>
