<svg xmlns="http://www.w3.org/2000/svg" width="548" height="152" fill="none">
  <path d="M0 40C0 18 18 0 40 0h468c22 0 40 18 40 40v72c0 22-18 40-40 40H40c-22 0-40-18-40-40V40Z" fill="#B3CBFF"/>
  <path d="M68.5 29v5.6H56.7V66h-6.5V34.6H38.4V29h30Zm25 10.2h5.8V66h-5.9V39.2Zm-6.2 12a8.1 8.1 0 0 1 2.4 6.2c0 2.7-.8 4.8-2.4 6.3a9.3 9.3 0 0 1-6.7 2.3h-13V39.2h5.8v9.7h7.2c2.9 0 5.1.8 6.7 2.3Zm-3.5 6.3a4 4 0 0 0-1-2.9c-.7-.7-1.7-1-3-1h-6.4v7.8H80c1.3 0 2.3-.4 3-1a4 4 0 0 0 .9-2.9Zm43.5 8.5h-7.5V39.2h6v19.5L136 39.2h7.5V66h-6V46.4h-.1l-10 19.6Zm44.3-8c0 2.8-1.2 5-3.4 6.4a14 14 0 0 1-8 2.3c-3.9 0-6.8-.8-8.9-2.4a8.7 8.7 0 0 1-3.3-6.7h6c.4 3 2.5 4.6 6 4.6a7 7 0 0 0 4.1-1c1-.8 1.6-1.8 1.6-3 0-2.7-1.8-4-5.3-4h-3.3v-4.4h2.4c3.5 0 5.3-1.2 5.3-3.5s-1.6-3.4-4.9-3.4c-2.8 0-4.5 1.3-5.1 4h-6c.5-5.7 4.4-8.5 11.7-8.5 3 0 5.5.6 7.3 1.8 2 1.1 2.9 3 2.9 5.4a5.7 5.7 0 0 1-4.3 5.7c1.4.4 2.6 1 3.6 2.2 1 1.1 1.6 2.6 1.6 4.5Zm44.5 8H209l-8.5-12-3.5 3.7V66h-6V39.2h6V51l10.7-12h7.2l-10.4 11L216 66Zm2.6-18.6c.7-6 4.6-9 11.8-9 3.4 0 6 .6 8 2 2 1.2 3 3.3 3 6v13.7c0 .7.1 1.3.3 1.5.2.3.6.4 1.1.4h1.4v4c-1.5.4-2.8.6-3.9.6-2.5 0-4-1.1-4.3-3.2a13 13 0 0 1-9.4 3.2c-2.8 0-5-.7-6.7-2.2a7.5 7.5 0 0 1-2.4-5.8c0-.8 0-1.5.3-2.2l.5-1.7c.3-.5.6-1 1.1-1.3l1.3-1c.3-.3.9-.6 1.6-.9a113.6 113.6 0 0 1 3.6-.9 80.8 80.8 0 0 1 3.6-.5l4.3-.7c.8-.2 1.3-.5 1.6-.9.2-.2.4-.9.4-1.9 0-2.7-1.9-4-5.6-4-1.9 0-3.3.3-4.2 1-1 .8-1.5 2-1.7 3.7h-5.7Zm17.1 5.1a11.1 11.1 0 0 1-3 1 65.3 65.3 0 0 0-6.5 1.2c-.6.2-1 .5-1.4.8-.3.3-.6.7-.8 1.2a4 4 0 0 0-.4 1.8 4 4 0 0 0 1.2 3c.9.6 2.1 1 3.6 1 2.7 0 4.7-.7 6.1-2.2.8-.8 1.2-2.3 1.2-4.6v-3.2ZM273 66h-7.2l-8.4-12-3.6 3.7V66H248V39.2h6V51l10.6-12h7.3l-10.6 11L273 66Zm14.6-27.6a13 13 0 0 1 9.8 3.8c2.5 2.6 3.7 6 3.7 10.4s-1.2 7.8-3.7 10.4a12.7 12.7 0 0 1-9.8 3.8c-4.1 0-7.5-1.3-10-3.8-2.4-2.6-3.6-6-3.6-10.4 0-4.3 1.2-7.8 3.7-10.4 2.5-2.5 5.8-3.8 10-3.8Zm5.5 7.2a6.6 6.6 0 0 0-5.6-2.5c-2.3 0-4.2.8-5.5 2.5-1.4 1.7-2 4-2 7s.6 5.4 2 7a6.8 6.8 0 0 0 5.6 2.6c2.3 0 4.1-.8 5.5-2.5 1.3-1.8 2-4.2 2-7.2s-.7-5.2-2-6.9Zm31.7-1.8H312V66h-6V39.2h18.8v4.6Zm14.9-5.4c4 0 7.4 1.3 9.8 3.8 2.4 2.6 3.6 6 3.6 10.4s-1.2 7.8-3.6 10.4a12.7 12.7 0 0 1-9.8 3.8c-4.2 0-7.5-1.3-10-3.8-2.4-2.6-3.7-6-3.7-10.4 0-4.3 1.3-7.8 3.7-10.4 2.5-2.5 5.8-3.8 10-3.8Zm5.4 7.2a6.6 6.6 0 0 0-5.5-2.5c-2.4 0-4.2.8-5.6 2.5-1.3 1.7-2 4-2 7s.7 5.4 2 7a6.8 6.8 0 0 0 5.6 2.6c2.4 0 4.2-.8 5.5-2.5 1.4-1.8 2-4.2 2-7.2s-.6-5.2-2-6.9Zm51.4 12.8c0 2.4-.8 4.3-2.6 5.6-1.7 1.3-4 2-7.2 2h-14.1V39.2h14.8c2.5 0 4.4.5 5.8 1.7a5.9 5.9 0 0 1 2.1 4.8c0 1.4-.3 2.6-.9 3.5-.6.8-1.6 1.6-2.9 2.2 3.4 1 5 3.3 5 7Zm-9.8-4.3h-8.2v7.4h8.2c2.6 0 4-1.2 4-3.6 0-1.2-.4-2.1-1-2.8a5 5 0 0 0-3-1Zm-.8-10.5h-7.4v6.2h7.5c2.3 0 3.5-1 3.5-3.2 0-2-1.2-3-3.6-3Zm39.6 14a11 11 0 0 1-4.3 6.8 12.8 12.8 0 0 1-7.9 2.5c-4 0-7.3-1.3-9.7-4-2.3-2.6-3.5-6-3.5-10 0-4.2 1.2-7.7 3.7-10.4a12 12 0 0 1 9.3-4.1c4 0 7 1.3 9.3 4 2.3 2.7 3.5 6.4 3.5 11v.6H406c.1 2.7.8 4.8 2 6.3a6.9 6.9 0 0 0 5.4 2.2c1.7 0 3-.4 4-1.1 1-.8 1.8-2 2.4-3.8h5.7Zm-5.6-7.5a8 8 0 0 0-2.1-5.3 6.1 6.1 0 0 0-4.7-2c-2 0-3.6.6-4.8 1.9a9 9 0 0 0-2.2 5.4H420ZM455.4 66h-7.2l-8.4-12-3.5 3.7V66h-6V39.2h6V51L447 39h7.2l-10.4 11 11.6 16Zm2.6-18.6c.7-6 4.6-9 11.8-9 3.3 0 6 .6 8 2 2 1.2 3 3.3 3 6v13.7c0 .7 0 1.3.3 1.5.2.3.6.4 1.1.4h1.4v4c-1.6.4-2.8.6-3.9.6-2.5 0-4-1.1-4.4-3.2a13 13 0 0 1-9.4 3.2c-2.7 0-5-.7-6.6-2.2a7.5 7.5 0 0 1-2.4-5.8c0-.8 0-1.5.2-2.2l.6-1.7c.3-.5.6-1 1.1-1.3l1.3-1c.3-.3.8-.6 1.6-.9a117.7 117.7 0 0 1 3.6-.9 81.7 81.7 0 0 1 3.6-.5l4.3-.7c.8-.2 1.3-.5 1.6-.9.2-.2.3-.9.3-1.9 0-2.7-1.8-4-5.5-4-2 0-3.3.3-4.2 1-1 .8-1.5 2-1.8 3.7H458Zm17 5.1a11.1 11.1 0 0 1-3 1 65.3 65.3 0 0 0-6.4 1.2c-.6.2-1 .5-1.4.8l-.9 1.2a4 4 0 0 0-.3 1.8 4 4 0 0 0 1.2 3c.9.6 2 1 3.6 1 2.6 0 4.7-.7 6-2.2.9-.8 1.3-2.3 1.3-4.6v-3.2Zm19.8 6.5v5.3a12 12 0 0 1-1.5 6.5c-1 1.6-3 2.8-5.5 3.4V71c2.1-.6 3.2-2.3 3.3-5h-3.3v-7h7ZM68.7 125.5H63V117H44v8.5h-5.6v-13.2h3.3c2.2-5 3.2-11.3 3.2-19.1v-3h20.2v22.1h3.6v13.2Zm-9.4-13.2V94.7h-8.7v1.9a47.1 47.1 0 0 1-2.8 15.7h11.5ZM78 90.2v3.6c1.8-3 4.7-4.4 8.7-4.4 3.7 0 6.7 1.3 8.9 3.9 2.2 2.6 3.3 6 3.3 10.4 0 4.2-1 7.6-3.3 10.2-2.1 2.5-5 3.8-8.6 3.8a10 10 0 0 1-8.7-4.2v13.4h-5.9V90.2H78Zm7.5 4c-2.3 0-4.1.8-5.5 2.5-1.3 1.6-2 4-2 6.9 0 2.9.7 5.2 2 6.8a6.8 6.8 0 0 0 5.6 2.5c2.3 0 4-.8 5.4-2.5 1.3-1.6 2-3.9 2-6.7 0-3-.7-5.2-2-7a6.4 6.4 0 0 0-5.5-2.5Zm41.6-4-9.9 26.3a37.3 37.3 0 0 0-1.1 3.1 29.2 29.2 0 0 1-2.1 4.2c-.4.5-.7 1-1 1.2l-1.1.8c-.4.4-.8.7-1.3.8l-1.6.4c-.5.2-1.1.2-1.8.2-1 0-2.5 0-4-.3v-5c1.2.3 2.2.4 3 .4.5 0 .8 0 1.2-.2a2 2 0 0 0 1-.6l.6-.9c.3-.2.4-.6.6-1a17.1 17.1 0 0 0 1.2-3.4l-10.3-26h6.5l7.2 19.7 6.8-19.7h6.1Zm41.1 26.8h-7l-8.3-11.6-2.5 2.8v8.8h-5.7v-8.8l-2.5-2.8L134 117h-7.1l11.5-15.4-10.2-11.4h7.1l9.2 11.3h.2V90.2h5.7v11.3h.2l9.2-11.3h7.1l-10.2 11.4 11.5 15.4Zm10.2 0H171V90.2h6v19.5h.1l10-19.5h7.5V117h-5.9V97.4h-.2l-10 19.6Zm22.4 0V90.2h5.9v22.1h9.2V90.2h5.9v22.1h9.1V90.2h6v22.1h3.6v13.2h-5.8V117h-34Zm67.2-8.4c-.7 3-2.1 5.2-4.4 6.8a12.8 12.8 0 0 1-7.8 2.5c-4 0-7.3-1.3-9.7-4-2.3-2.6-3.5-6-3.5-10 0-4.2 1.2-7.7 3.6-10.4a12 12 0 0 1 9.4-4.1c4 0 7 1.3 9.3 4 2.3 2.7 3.4 6.4 3.4 11v.6h-19.8c0 2.7.8 4.8 2 6.3a6.7 6.7 0 0 0 5.4 2.2 7 7 0 0 0 4-1.1c1-.8 1.8-2 2.4-3.8h5.7Zm-5.6-7.5c-.2-2.3-.9-4-2.1-5.3a6.1 6.1 0 0 0-4.8-2 6 6 0 0 0-4.7 1.9 9 9 0 0 0-2.2 5.4h13.8Zm18.1 15.9v-6.6h6.7v6.6h-6.7Zm.6-10.2c0-2.3.2-4.1.7-5.5.5-1.4 1.4-2.8 2.9-4.2a25.1 25.1 0 0 1 2-1.8l1-1 .8-1 .6-1c.2-.5.4-1 .4-1.4l.2-1.4a5 5 0 0 0-1.5-3.7c-1-1-2.3-1.5-4-1.5-4 0-6 2.5-6.2 7.4h-6c.2-3.8 1.3-6.9 3.4-9 2-2.3 5-3.5 9-3.5 3.5 0 6.3 1 8.4 3a9.4 9.4 0 0 1 3.2 7.3c0 1.2 0 2.2-.3 3.1a8 8 0 0 1-1.3 2.6 21.6 21.6 0 0 1-4 4 14.2 14.2 0 0 0-3.2 3.2c-.3.7-.5 2.1-.5 4.4h-5.6Z" fill="#262626"/>
</svg>
