<svg xmlns="http://www.w3.org/2000/svg" fill="none" viewBox="0 0 505 665"><g clip-path="url(#a)"><path d="M200.47 194.92a62.35 62.35 0 0 0-4.77 19.05c-1.48 16.07-2.35 38.26 2.3 50.32 0 0-3.78 19.68 5.45 27.55 9.23 7.87 76.89-1.44 87.21-43.02 5.82-12.59 2.24-48.2 2.24-48.2l-92.43-5.7Z" fill="#FFDACE" stroke="#262626" stroke-width="3" stroke-linecap="round" stroke-linejoin="round"/><path d="M122.12 625.82S79.04 914.17 92.93 924.59c13.9 10.42 25.51 34.12 41.25 34.12 15.73 0 29.29 7.12 48.4 7.63 19.1.51 23.61-12.8 37.82-14.43l11.5-249.65s-6.06 258.98 7.65 255.7c13.71-3.28 27.69 17.2 43.07 15.28 15.38-1.91 34.74-20.48 44.47-18.58 9.72 1.9 32.66-14.79 48.7-16.18 16.03-1.39-18.08-318.87-18.08-318.87l-235.6 6.21Z" fill="#5478C6" stroke="#262626" stroke-width="3" stroke-linecap="round" stroke-linejoin="round"/><path d="M109.26 604.63s8.77 68.85-3 68.85c-8.5 0-6.03-30.5-6.03-30.5s-9.6 32.48-4.66 42.93c4.92 10.46 17.52 18.35 11.22 22.02-6.3 3.67-25.2-11.86-23-37 0 0-1.3 12.98 1.5 20.72 0 0-10.14-.8-11.86-13.48-1.73-12.68-1.5-76.12-1.5-76.12l37.33 2.58Z" fill="#FFDACE" stroke="#262626" stroke-width="3" stroke-linecap="round" stroke-linejoin="round"/><path d="M72.15 389.23s-8.63 87.07-5.22 107.1c3.4 20.05 2.24 58.5 2.24 58.5s-2.46 25.58 0 30.5c2.47 4.93 62.37 7.47 62.37 7.47l8.62-181.53-68-22.04Z" fill="#FFE576" stroke="#262626" stroke-width="3" stroke-linecap="round" stroke-linejoin="round"/><path d="m68.31 570.82-12.59 53.2h56.69l3.46-51.85-47.56-1.35Z" fill="#FF4800" stroke="#262626" stroke-width="3" stroke-linecap="round" stroke-linejoin="round"/><path d="M147.64 248.2s-46.43-4.8-67.59 58.1C58.9 369.19 30.3 489.65 49.15 490.96c18.86 1.3 102.01-19.4 104.89-77.24" fill="#FFE576"/><path d="M147.64 248.2s-46.43-4.8-67.59 58.1C58.9 369.19 30.3 489.65 49.15 490.96c18.86 1.3 102.01-19.4 104.89-77.24" stroke="#262626" stroke-width="3" stroke-linecap="round" stroke-linejoin="round"/><path d="M232.2 259.11s-12.73-63.96-43.54-65.35l-3.7 40.33-40.75 13.45s-49.24 207.22-18.28 221c0 0-64.84 328.01-50.89 342.55 13.96 14.54 17.33 45.19 37.19 45.92 19.86.74 36.55 23.95 58.79 23.79 22.23-.16 88.27-378.36 88.27-378.36L232.2 259.1Z" fill="#FFE576" stroke="#262626" stroke-width="3" stroke-linecap="round" stroke-linejoin="round"/><path d="M200.47 119.73a62.35 62.35 0 0 0-4.77 19.06c-1.48 16.07-2.35 38.26 2.3 50.32 0 0-3.78 19.68 5.45 27.55 9.23 7.87 76.89-1.44 87.21-43.02 5.82-12.59 2.24-48.21 2.24-48.21l-92.43-5.7Z" fill="#FFDACE" stroke="#262626" stroke-width="3" stroke-linecap="round" stroke-linejoin="round"/><path d="M225.75 168.31h-12.31l1.8-29.02-13.78-1.05M225.75 142.87l25.44 1.16M228.06 153.28s7.75-5.2 19.66 0" stroke="#262626" stroke-width="3" stroke-linecap="round" stroke-linejoin="round"/><path d="M194.52 153.28s7.75-5.2 19.66 0M250.04 200.84s-6.44-26.74-29.85-26.74c-23.4 0-26.83 27.76-26.83 27.76" stroke="#262626" stroke-width="3" stroke-linecap="round" stroke-linejoin="round"/><path d="M196.83 129.17s18.39-7.62 44.66-6.26c26.26 1.37 54.71 19.96 54.71 19.96s4.18-68.13-40.33-71.88c-44.51-3.74-54.47 3.75-54.24 11.33.22 7.57 12.1 14.52 12.1 14.52s-14.34 9.12-16.9 32.33Z" fill="#CB8454" stroke="#262626" stroke-width="3" stroke-linecap="round" stroke-linejoin="round"/><path d="M282.42 148.96s4.33-11.23 15.4-5.73c8.7 4.31 2.67 20.52-5.28 23.19-9.2 3.1-10.12-4.55-10.12-4.55" fill="#FFDACE"/><path d="M282.42 148.96s4.33-11.23 15.4-5.73c8.7 4.31 2.67 20.52-5.28 23.19-9.2 3.1-10.12-4.55-10.12-4.55M206.09 187.98a21.91 21.91 0 0 1 11.98-4.52c5.1-.47 10.22.58 14.62 3.02" stroke="#262626" stroke-width="3" stroke-linecap="round" stroke-linejoin="round"/><path d="m296.15 228.6-2.47-45.25s-31.45 14.28-55.19 47.14c-11.86 16.47-35.98 39.8-65.9 48.51-124.76 36.26 42.07 195.7 42.07 195.7l50.66 406.1s61.97-13.79 61.97-27.83 68.44-20.54 76.62-44.3c5-14.52-5.58-314.76-57.67-377.78-36.7-44.39 12.14-189.32 12.14-189.32l-62.23-12.96Z" fill="#FFE576" stroke="#262626" stroke-width="3" stroke-linecap="round" stroke-linejoin="round"/><path d="M203.77 199.7s12.5 28.74 12.5 62.3c0 0 6.63-49.57 19.89-63.61l-32.39 1.3Z" fill="#262626" stroke="#262626" stroke-width="3" stroke-linecap="round" stroke-linejoin="round"/><path d="m371.49 440.12-252.15 21.45 2.4 29.44 249.48-25.33.26-25.56Z" fill="#FFE576" stroke="#262626" stroke-width="3" stroke-linecap="round" stroke-linejoin="round"/><path d="M385.8 604.03s-10.2 68.73 1.89 68.95c8.72.15 6.72-30.38 6.72-30.38s9.3 32.64 4.04 43c-5.25 10.37-18.33 18.03-11.93 21.8 6.4 3.8 26.11-11.4 24.3-36.56 0 0 1.18 13-1.9 20.68 0 0 10.47-.61 12.45-13.26 1.99-12.65 2.88-76.08 2.88-76.08l-38.45 1.85Z" fill="#FFDACE" stroke="#262626" stroke-width="3" stroke-linecap="round" stroke-linejoin="round"/><path d="m357.92 408.54 24.3 182.36s39.6.93 43.61.66c4.01-.27 1.1-18.47 4.05-30.88 2.96-12.41 8.43-28.65 7.74-43.45-.7-14.8 6.48-50.98 1.69-75.37-4.8-24.4-18.15-50.75-18.15-50.75l-63.25 17.43Z" fill="#FFE576" stroke="#262626" stroke-width="3" stroke-linecap="round" stroke-linejoin="round"/><path d="M330.3 235.41s65.66-2.46 90.95 61.73c25.3 64.19 56.98 186.5 30.38 186.9-26.59.4-161.44 0-140.38-177.42" fill="#FFE576"/><path d="M330.3 235.41s65.66-2.46 90.95 61.73c25.3 64.19 56.98 186.5 30.38 186.9-26.59.4-161.44 0-140.38-177.42" stroke="#262626" stroke-width="3" stroke-linecap="round" stroke-linejoin="round"/><path d="m428.18 572.09 4.18 48.18-50.98-5.11-1.92-42.17 48.72-.9Z" fill="#FF4800" stroke="#262626" stroke-width="3" stroke-linecap="round" stroke-linejoin="round"/></g><defs><clipPath id="a"><path fill="#fff" d="M0 0h505v665H0z"/></clipPath></defs></svg>