<svg xmlns="http://www.w3.org/2000/svg" viewBox="6176.8330078125 4955.83349609375 174.619140625 276"> <path fill="#262626" fill-opacity="1" stroke="" stroke-opacity="1" stroke-width="1" fill-rule="evenodd" id="tSvg7991303756" d="M 6267.340751953132 4956.858839266279 C 6268.0583519531065 4956.992010266273 6268.5759519531275 4957.622366266267 6268.5669519531075 4958.352176266286 C 6265.642451953143 5195.233506266275 6265.642451953143 5195.233506266275 6265.642451953143 5195.233506266275 C 6265.632251953124 5196.061506266269 6264.952451953141 5196.725506266273 6264.124051953142 5196.714506266275 C 6263.295751953119 5196.70450626628 6262.632451953134 5196.0245062662725 6262.642751953128 5195.196506266278 C 6265.460051953123 4966.993306266275 6265.460051953123 4966.993306266275 6265.460051953123 4966.993306266275 C 6265.460051953123 4966.993306266275 6180.759361953125 5195.735506266268 6180.759361953125 5195.735506266268 C 6180.471691953135 5196.51250626627 6179.608711953129 5196.909506266267 6178.831831953139 5196.621506266267 C 6178.054954953142 5196.334506266285 6177.658372953127 5195.471506266273 6177.94604195311 5194.694506266271 C 6265.660451953125 4957.81278626628 6265.660451953125 4957.81278626628 6265.660451953125 4957.81278626628 C 6265.913851953112 4957.128345266276 6266.623151953128 4956.725667266277 6267.340751953132 4956.858839266279Z" clip-rule="evenodd"></path> <path fill="#262626" fill-opacity="1" stroke="" stroke-opacity="1" stroke-width="1" fill-rule="evenodd" id="tSvg54e9c1a8c6" d="M 6266.577051953122 4956.915965266278 C 6267.360051953117 4956.645339266281 6268.214151953114 4957.060681266274 6268.484751953132 4957.843656266283 C 6350.360251953127 5194.725506266273 6350.360251953127 5194.725506266273 6350.360251953127 5194.725506266273 C 6350.630251953116 5195.508506266284 6350.215251953108 5196.362506266276 6349.432251953112 5196.63250626628 C 6348.649251953117 5196.903506266273 6347.7952519531245 5196.48850626628 6347.524251953117 5195.705506266269 C 6265.649351953121 4958.823686266274 6265.649351953121 4958.823686266274 6265.649351953121 4958.823686266274 C 6265.378751953132 4958.040706266271 6265.794051953126 4957.186592266284 6266.577051953122 4956.915965266278Z" clip-rule="evenodd"></path> <path fill="#FFE360" fill-opacity="1" stroke="" stroke-opacity="1" stroke-width="1" fill-rule="evenodd" id="tSvg4860236aca" d="M 6179.333251953125 5195.215506266279 C 6179.966881953122 5214.107506266271 6217.682651953131 5229.333506266281 6264.142651953123 5229.333506266281 C 6310.602251953125 5229.333506266281 6348.29925195314 5214.107506266271 6348.952251953131 5195.215506266279 C 6179.333251953125 5195.215506266279 6179.333251953125 5195.215506266279 6179.333251953125 5195.215506266279"></path> <path fill="#262626" fill-opacity="1" stroke="" stroke-opacity="1" stroke-width="1" fill-rule="evenodd" id="tSvg4b01de7c15" d="M 6178.25496195312 5194.172506266274 C 6178.537571953144 5193.880506266272 6178.926711953129 5193.715506266279 6179.333251953125 5193.715506266279 C 6348.952251953131 5193.715506266279 6348.952251953131 5193.715506266279 6348.952251953131 5193.715506266279 C 6349.359251953138 5193.715506266279 6349.748251953133 5193.880506266272 6350.031251953129 5194.172506266274 C 6350.313251953106 5194.465506266279 6350.465251953108 5194.860506266268 6350.451251953142 5195.266506266285 C 6350.27025195313 5200.51250626627 6347.518251953123 5205.355506266278 6342.985251953127 5209.609506266279 C 6338.45325195312 5213.862506266276 6332.047251953132 5217.6235062662745 6324.285251953115 5220.750506266282 C 6308.754251953127 5227.006506266276 6287.517251953133 5230.833506266281 6264.142651953123 5230.833506266281 C 6240.768351953127 5230.833506266281 6219.525951953139 5227.006506266276 6203.992751953134 5220.750506266282 C 6196.229451953142 5217.6235062662745 6189.822751953121 5213.862506266276 6185.291991953127 5209.609506266279 C 6180.7594219531165 5205.355506266278 6178.010049953125 5200.511506266281 6177.83409595312 5195.265506266267 C 6177.820467953134 5194.859506266279 6177.972349953139 5194.464506266275 6178.25496195312 5194.172506266274Z M 6180.978311953135 5196.715506266279 C 6181.546211953129 5200.38250626628 6183.689931953122 5203.991506266277 6187.345251953113 5207.422506266274 C 6191.516251953144 5211.337506266282 6197.561051953118 5214.9255062662705 6205.113451953133 5217.967506266272 C 6220.211551953107 5224.048506266277 6241.056951953127 5227.833506266281 6264.142651953123 5227.833506266281 C 6287.228251953144 5227.833506266281 6308.069251953129 5224.048506266277 6323.164251953131 5217.967506266272 C 6330.715251953108 5214.9255062662705 6336.760251953121 5211.337506266282 6340.932251953112 5207.422506266274 C 6344.58825195313 5203.991506266277 6346.733251953119 5200.383506266284 6347.305251953134 5196.715506266279 C 6180.978311953135 5196.715506266279 6180.978311953135 5196.715506266279 6180.978311953135 5196.715506266279" clip-rule="evenodd"></path> <defs> </defs> </svg>
                