<svg xmlns="http://www.w3.org/2000/svg" viewBox="6167 4782.2 550 215">
  <path fill="#fff" fill-rule="evenodd" d="M6208 4783.2c-22 0-40 18-40 40v72c0 22 18 40 40 40h21.7c2.6 30.6-23.6 53-37.4 60.7 35.7 4.2 75-37 92.1-60.7H6676c22 0 40-18 40-40v-72c0-22-18-40-40-40h-468" clip-rule="evenodd"/>
  <path fill="#262626" fill-rule="evenodd" d="M6231.6 4841.1c0 1.2-.2 2.4-.7 3.6a14 14 0 0 1-2.3 3.5c-1 1-2.4 2-4.2 2.7-1.8.7-3.8 1-6.1 1-4.4 0-8-1-10.7-3-2.7-2.1-4-5.2-4-9.3h6c0 2.6.8 4.5 2.5 5.7 1.7 1.2 3.8 1.8 6.5 1.8 2.2 0 4-.5 5.1-1.5 1.2-1 1.8-2.6 1.8-4.6 0-1.8-.6-3.2-1.8-4.2a7.2 7.2 0 0 0-4.7-1.4h-4.3v-4.7h4.3c1.6 0 2.9-.5 4-1.5 1-1 1.5-2.4 1.5-4 0-1.5-.5-2.7-1.6-3.5a7 7 0 0 0-4.5-1.4c-4.7 0-7.3 2-7.6 6.2h-5.9c.2-3.8 1.4-6.5 3.8-8.3a15 15 0 0 1 9.3-2.7c3.7 0 6.7.8 9 2.4a8 8 0 0 1 3.6 7c0 1.8-.6 3.4-1.7 4.8a7.2 7.2 0 0 1-4 2.7v.2c2 .4 3.6 1.4 4.8 3a8.6 8.6 0 0 1 1.9 5.5Zm4.9-7.4c.6-5.7 4.2-8.6 11-8.6 3.2 0 5.7.7 7.6 1.9 1.9 1.2 2.8 3.2 2.8 5.8v12.8c0 .7.1 1.2.3 1.5.2.2.5.4 1 .4l1.3-.1v3.9c-1.4.4-2.6.5-3.6.5-2.4 0-3.8-1-4.1-3-2.1 2-5 3-8.9 3-2.6 0-4.7-.6-6.2-2a7 7 0 0 1-2.3-5.5c0-.7 0-1.4.2-2l.6-1.6c.2-.5.5-1 1-1.3l1.2-1a111.3 111.3 0 0 1 4.9-1.6 77.1 77.1 0 0 1 3.4-.5l4-.6c.8-.2 1.3-.5 1.5-.9.3-.2.4-.8.4-1.8 0-2.5-1.7-3.8-5.2-3.8-1.8 0-3.2.3-4 1-.9.7-1.4 1.9-1.6 3.5h-5.3m16 4.8a10.4 10.4 0 0 1-2.8 1 62 62 0 0 0-6.1 1l-1.3.8a3.7 3.7 0 0 0-1.1 2.8c0 1.2.3 2.1 1.1 2.8.8.6 2 1 3.4 1 2.5 0 4.4-.7 5.7-2 .8-.8 1.1-2.2 1.1-4.4v-3m35 12.7h-6.7l-8-11.3-3.3 3.5v7.8h-5.6v-25.3h5.6v11.2l10.1-11.2h6.8l-9.8 10.2 11 15.1m13.8-26c3.9 0 7 1.2 9.2 3.6 2.3 2.4 3.4 5.7 3.4 9.8 0 4-1.1 7.3-3.4 9.8a12 12 0 0 1-9.2 3.6c-4 0-7-1.2-9.4-3.6a13.6 13.6 0 0 1-3.5-9.8c0-4.1 1.2-7.4 3.5-9.8 2.3-2.4 5.5-3.6 9.4-3.6Zm5 6.8a6.2 6.2 0 0 0-5.1-2.4c-2.2 0-4 .8-5.2 2.4-1.3 1.6-2 3.8-2 6.6s.7 5 2 6.6c1.2 1.6 3 2.4 5.2 2.4s4-.8 5.2-2.4c1.3-1.6 1.9-3.8 1.9-6.7 0-2.8-.6-5-2-6.5Zm18 19.2h-5.7v-25.3h5.6v10h11v-10h5.7v25.3h-5.6v-11h-11v11m34.2-26c3.8 0 6.9 1.2 9.2 3.6 2.3 2.4 3.4 5.7 3.4 9.8 0 4-1.1 7.3-3.4 9.8a12 12 0 0 1-9.2 3.6c-4 0-7.1-1.2-9.4-3.6a13.6 13.6 0 0 1-3.5-9.8c0-4.1 1.2-7.4 3.5-9.8 2.3-2.4 5.5-3.6 9.4-3.6Zm5 6.8a6.2 6.2 0 0 0-5.1-2.4c-2.2 0-4 .8-5.3 2.4-1.2 1.6-1.9 3.8-1.9 6.6s.7 5 2 6.6c1.2 1.6 3 2.4 5.2 2.4s4-.8 5.2-2.4c1.2-1.6 1.9-3.8 1.9-6.7 0-2.8-.7-5-2-6.5Zm37.7 27.2h-5.3v-8h-18v8h-5.3v-12.4h3.2c2-4.7 3-10.7 3-18v-2.9h19v20.9h3.4v12.4m-8.9-12.4v-16.6h-8.1v1.7a44.4 44.4 0 0 1-2.6 14.9h10.7m12-13c.7-5.8 4.4-8.7 11.1-8.7 3.2 0 5.7.7 7.6 1.9 1.9 1.2 2.8 3.2 2.8 5.8v12.8c0 .7.1 1.2.3 1.5.2.2.5.4 1 .4l1.3-.1v3.9c-1.4.4-2.6.5-3.6.5-2.4 0-3.7-1-4.1-3-2.1 2-5 3-8.9 3-2.6 0-4.7-.6-6.2-2a7 7 0 0 1-2.3-5.5c0-.7 0-1.4.2-2l.6-1.6c.2-.5.6-1 1-1.3l1.2-1a115.2 115.2 0 0 1 4.9-1.6 78 78 0 0 1 3.4-.5l4-.6c.8-.2 1.3-.5 1.6-.9.2-.2.3-.8.3-1.8 0-2.5-1.7-3.8-5.2-3.8-1.8 0-3.2.3-4 1-.9.7-1.4 1.9-1.6 3.5h-5.3m16 4.8a10.4 10.4 0 0 1-2.8 1 62.6 62.6 0 0 0-6.1 1l-1.3.8a3.7 3.7 0 0 0-1.1 2.8c0 1.2.3 2.1 1.1 2.8.8.6 2 1 3.4 1 2.5 0 4.4-.7 5.7-2 .8-.8 1.1-2.2 1.1-4.4v-3m31-8.2h-8.3v20.9h-5.6v-20.9h-8.3v-4.4h22.2v4.4m25 13c-.7 2.8-2 4.9-4.1 6.4a12 12 0 0 1-7.4 2.3c-3.8 0-6.9-1.2-9.1-3.6a13.7 13.7 0 0 1-3.4-9.5c0-4 1.2-7.3 3.5-9.8 2.3-2.6 5.2-4 8.8-4 3.7 0 6.6 1.4 8.8 3.9 2.1 2.5 3.2 6 3.2 10.3v.6h-18.7c0 2.6.7 4.6 2 6 1.1 1.3 2.8 2 5 2a6 6 0 0 0 3.7-1c1-.8 1.8-2 2.3-3.6h5.4m-5.3-7a7.8 7.8 0 0 0-2-5 5.8 5.8 0 0 0-4.5-2 6 6 0 0 0-4.4 1.8 8.7 8.7 0 0 0-2 5.1h13m31.2 15h-5.6v-20.9h-7.7l-.3 11.1c-.1 3.3-.9 5.9-2.2 7.7a6.3 6.3 0 0 1-5.4 2.7c-1.4 0-2.5-.2-3.4-.6v-4.3c.3.2 1 .2 2 .2 2.2 0 3.4-2 3.5-6.2l.5-15h18.6v25.3m25.5-14a7.7 7.7 0 0 1 2.2 6c0 2.4-.7 4.4-2.2 5.8a8.8 8.8 0 0 1-6.4 2.2h-13.3v-25.3h5.6v9.2h7.7c2.7 0 4.9.7 6.4 2.1Zm-3.4 6c0-1.1-.3-2-1-2.7-.6-.7-1.5-1-2.7-1h-7v7.3h7.1c1.2 0 2.1-.3 2.7-1 .6-.6 1-1.5 1-2.6Zm33-1.6c-.4 3.1-1.7 5.6-3.8 7.5-2 1.8-4.7 2.7-7.8 2.7-3.8 0-6.9-1.2-9.1-3.5a13.3 13.3 0 0 1-3.4-9.5c0-4.2 1.1-7.5 3.4-10a12 12 0 0 1 9.2-3.7c3.2 0 5.8.8 7.8 2.5a10 10 0 0 1 3.5 6.8h-5.6c-.3-1.6-1-2.8-2-3.7a5.3 5.3 0 0 0-3.6-1.3 6 6 0 0 0-5.1 2.5 10.5 10.5 0 0 0-2 6.6c0 2.8.7 5 1.9 6.6a6 6 0 0 0 5 2.3c1.6 0 3-.5 4-1.4 1.1-1 1.8-2.5 2-4.4h5.6m23.2-11.3h-8.3v20.9h-5.6v-20.9h-8.3v-4.4h22.2v4.4m25.8 13.7c0 2.3-.8 4.1-2.4 5.3a11 11 0 0 1-6.9 1.9H6584v-25.3h14a9 9 0 0 1 5.5 1.6c1.3 1.1 2 2.6 2 4.6 0 1.3-.3 2.4-.9 3.2a7 7 0 0 1-2.7 2.1v.1c3.1.8 4.7 3 4.7 6.5Zm-9.3-4h-7.7v7h7.7c2.5 0 3.8-1.2 3.8-3.4 0-1.2-.4-2-1-2.6-.7-.7-1.6-1-2.8-1Zm-.7-9.9h-7v5.9h7.1c2.2 0 3.2-1 3.2-3s-1-2.9-3.3-2.9Zm26.4-5c3.8 0 6.9 1.3 9.2 3.7 2.3 2.4 3.4 5.7 3.4 9.8 0 4-1.1 7.3-3.4 9.8a12 12 0 0 1-9.2 3.6c-4 0-7.1-1.2-9.4-3.6a13.6 13.6 0 0 1-3.5-9.8c0-4.1 1.1-7.4 3.5-9.8 2.3-2.4 5.4-3.6 9.4-3.6Zm5 6.9a6.2 6.2 0 0 0-5.1-2.4c-2.3 0-4 .8-5.3 2.4-1.3 1.6-1.9 3.8-1.9 6.6s.6 5 2 6.6c1.2 1.6 3 2.4 5.2 2.4s4-.8 5.2-2.4c1.2-1.6 1.9-3.8 1.9-6.7 0-2.8-.7-5-2-6.5Zm19.5 19.2v-6.2h6.4v6.2h-6.4m.6-9.7c0-2 .2-3.8.6-5.1a9.8 9.8 0 0 1 2.8-4 23 23 0 0 1 2-1.7l.8-.8.7-1 .6-1 .4-1.2.2-1.4c0-1.4-.5-2.6-1.5-3.5a5 5 0 0 0-3.6-1.4c-3.8 0-5.8 2.3-6 7h-5.6a13 13 0 0 1 3.2-8.6c2-2.1 4.8-3.2 8.5-3.2 3.3 0 6 1 8 2.7a9 9 0 0 1 3 7c0 1.1-.2 2-.4 3-.2.8-.6 1.6-1.2 2.3a20.4 20.4 0 0 1-3.8 3.8 13.3 13.3 0 0 0-3 3c-.3.7-.4 2-.4 4.1h-5.3m-412.8 40.3c0 5.5-1.5 9.9-4.4 13.2-3 3.4-7 5-11.9 5-4 0-7.4-1-10-3.3a14.5 14.5 0 0 1-5-9.2h6.2c1 4.9 4 7.3 8.7 7.3 3 0 5.5-1 7.2-3.1a15 15 0 0 0 3-8h-15v-5h14.8c-.5-2.9-1.5-5.3-3.2-7.1a8.7 8.7 0 0 0-6.9-2.9 9 9 0 0 0-5.4 1.6 7.9 7.9 0 0 0-3 4.5h-6.2a13 13 0 0 1 5-8.4c2.8-2 6-2.9 9.5-2.9a15.8 15.8 0 0 1 14.7 9.2 21 21 0 0 1 2 9Zm24.6-3.5h-8.4v20.9h-5.6v-20.9h-8.3v-4.4h22.3v4.4m14-5.1c3.8 0 7 1.2 9.2 3.6 2.3 2.4 3.4 5.7 3.4 9.8 0 4-1.1 7.3-3.4 9.8a12 12 0 0 1-9.2 3.6c-4 0-7.1-1.2-9.4-3.6a13.6 13.6 0 0 1-3.5-9.8c0-4.1 1.2-7.4 3.5-9.8 2.3-2.4 5.5-3.6 9.4-3.6Zm5 6.8a6.2 6.2 0 0 0-5.1-2.4c-2.2 0-4 .8-5.3 2.4-1.2 1.6-1.9 3.8-1.9 6.6s.7 5 2 6.6c1.2 1.6 3 2.4 5.2 2.4s4-.8 5.2-2.4c1.3-1.6 1.9-3.8 1.9-6.7 0-2.8-.6-5-2-6.5Zm41 8.5a27 27 0 0 1-8.2 1.3c-2.6 0-4.6-.6-6-2-1.3-1.2-2-3.1-2-5.6v-8.3h5.6v6.4c0 3.2 1.5 4.8 4.6 4.8 2 0 4-.4 6-1.2v-10h5.6v25.3h-5.6v-10.7m30.8-10.2h-8.3v20.9h-5.6v-20.9h-8.3v-4.4h22.2v4.4m14-5.1c4 0 7 1.2 9.3 3.6 2.3 2.4 3.4 5.7 3.4 9.8 0 4-1.1 7.3-3.4 9.8a12 12 0 0 1-9.2 3.6c-4 0-7.1-1.2-9.5-3.6a13.6 13.6 0 0 1-3.4-9.8c0-4.1 1.1-7.4 3.4-9.8 2.4-2.4 5.5-3.6 9.5-3.6Zm5.1 6.8a6.2 6.2 0 0 0-5.1-2.4c-2.3 0-4 .8-5.3 2.4-1.3 1.6-1.9 3.8-1.9 6.6s.6 5 2 6.6c1.2 1.6 3 2.4 5.2 2.4s4-.8 5.1-2.4c1.3-1.6 2-3.8 2-6.7 0-2.8-.7-5-2-6.5Zm48.6 11.3c-.7 2.8-2 4.9-4.1 6.4a12 12 0 0 1-7.4 2.3c-3.8 0-6.9-1.2-9.1-3.6a13.7 13.7 0 0 1-3.4-9.5c0-4 1.2-7.3 3.5-9.8 2.3-2.6 5.2-4 8.8-4 3.7 0 6.6 1.4 8.8 3.9 2.1 2.5 3.2 6 3.2 10.3v.6H6400c.1 2.6.7 4.6 2 6 1.2 1.3 2.8 2 5 2a6 6 0 0 0 3.7-1c1-.8 1.8-2 2.3-3.6h5.4m-5.3-7a7.8 7.8 0 0 0-2-5 5.8 5.8 0 0 0-4.4-2 6 6 0 0 0-4.5 1.8 8.7 8.7 0 0 0-2 5.1h13m9.8 15v-25.3h5.5v20.9h8.7v-20.9h5.5v20.9h8.7v-20.9h5.6v20.9h3.3v12.4h-5.4v-8h-32m59-34.9v5.4h-5.4v-5.4h5.4m-9.7 0v5.4h-5.5v-5.4h5.5m14 27c-.6 2.8-2 4.9-4 6.4a12 12 0 0 1-7.4 2.3c-3.8 0-6.9-1.2-9.1-3.6a13.7 13.7 0 0 1-3.3-9.5c0-4 1.1-7.3 3.4-9.8 2.3-2.6 5.2-4 8.8-4 3.7 0 6.6 1.4 8.8 3.9 2.1 2.5 3.2 6 3.2 10.3v.6H6468c.1 2.6.7 4.6 2 6 1.2 1.3 2.8 2 5 2a6 6 0 0 0 3.7-1c1-.8 1.8-2 2.3-3.6h5.4m-5.3-7a7.8 7.8 0 0 0-2-5 5.8 5.8 0 0 0-4.4-2 6 6 0 0 0-4.5 1.8 8.7 8.7 0 0 0-2 5.1h13m43-5.9h-8.4v20.9h-5.6v-20.9h-8.3v-4.4h22.2v4.4m2.1 3.4c.6-5.7 4.3-8.6 11-8.6 3.3 0 5.8.7 7.6 1.9 2 1.2 2.9 3.2 2.9 5.8v12.8c0 .7 0 1.2.2 1.5.2.2.6.4 1.1.4l1.3-.1v3.9a14 14 0 0 1-3.7.5c-2.3 0-3.7-1-4-3-2.2 2-5.1 3-9 3a9 9 0 0 1-6.2-2 7 7 0 0 1-2.3-5.5 11.6 11.6 0 0 1 .8-3.6c.2-.5.6-1 1-1.3.5-.4 1-.7 1.2-1a107 107 0 0 1 4.9-1.6 77 77 0 0 1 3.5-.5l4-.6c.7-.2 1.2-.5 1.5-.9.2-.2.3-.8.3-1.8 0-2.5-1.7-3.8-5.2-3.8-1.8 0-3.1.3-4 1-.8.7-1.4 1.9-1.6 3.5h-5.3m16 4.8a10.4 10.4 0 0 1-2.8 1 63 63 0 0 0-6 1l-1.4.8a3.7 3.7 0 0 0-1.1 2.8c0 1.2.4 2.1 1.1 2.8.9.6 2 1 3.4 1 2.5 0 4.4-.7 5.8-2 .7-.8 1-2.2 1-4.4v-3m35.1 12.7h-6.8l-7.9-11.3-3.3 3.5v7.8h-5.6v-25.3h5.6v11.2l10-11.2h6.9l-9.9 10.2 11 15.1m13.8-26c3.9 0 7 1.2 9.3 3.6a14 14 0 0 1 3.4 9.8c0 4-1.2 7.3-3.4 9.8a12 12 0 0 1-9.3 3.6c-4 0-7-1.2-9.4-3.6a13.6 13.6 0 0 1-3.4-9.8c0-4.1 1.1-7.4 3.4-9.8 2.4-2.4 5.5-3.6 9.4-3.6Zm5.1 6.8a6.2 6.2 0 0 0-5.2-2.4c-2.2 0-4 .8-5.2 2.4-1.3 1.6-2 3.8-2 6.6s.7 5 2 6.6c1.3 1.6 3 2.4 5.3 2.4a6 6 0 0 0 5.1-2.4c1.3-1.6 2-3.8 2-6.7 0-2.8-.7-5-2-6.5Zm35 11.3c-.7 2.8-2 4.9-4.2 6.4a12 12 0 0 1-7.4 2.3c-3.8 0-6.8-1.2-9-3.6a13.7 13.7 0 0 1-3.4-9.5c0-4 1.1-7.3 3.4-9.8 2.4-2.6 5.3-4 8.9-4a11 11 0 0 1 8.7 3.9c2.2 2.5 3.3 6 3.3 10.3v.6h-18.7a9 9 0 0 0 1.9 6c1.2 1.3 2.9 2 5 2a6 6 0 0 0 3.8-1 8 8 0 0 0 2.3-3.6h5.3m-5.2-7a7.8 7.8 0 0 0-2-5 5.8 5.8 0 0 0-4.5-2 6 6 0 0 0-4.5 1.8 8.7 8.7 0 0 0-2 5.1h13m17 15v-6.2h6.4v6.2h-6.3m.5-9.7c0-2 .2-3.8.6-5.1a9.8 9.8 0 0 1 2.8-4 23.7 23.7 0 0 1 2-1.7l.8-.8.8-1 .5-1 .4-1.2.2-1.4c0-1.4-.5-2.6-1.4-3.5a5 5 0 0 0-3.7-1.4c-3.8 0-5.8 2.3-6 7h-5.6a13 13 0 0 1 3.2-8.6c2-2.1 4.8-3.2 8.5-3.2 3.3 0 6 1 8 2.7a9 9 0 0 1 3 7c0 1.1-.2 2-.4 3-.2.8-.6 1.6-1.2 2.3a20.4 20.4 0 0 1-3.8 3.8 13.4 13.4 0 0 0-3 3c-.3.7-.4 2-.4 4.1h-5.3"/>
</svg>
